<svg xmlns="http://www.w3.org/2000/svg" width="101" height="134" viewBox="0 0 101 134" fill="none"><path d="M28.7275 122.667C12.8604 116.471 9.67134 86.655 21.6046 56.0711C33.538 25.4872 56.0747 5.7172 71.9419 11.9135C87.809 18.1097 90.998 47.9259 79.0647 78.5098C67.1314 109.094 44.5947 128.864 28.7275 122.667Z" fill="white"></path><path d="M34.7758 125.084C50.463 125.084 69.6354 106.26 80.2785 78.9811C86.124 63.9972 88.5909 48.708 87.2269 35.9236C85.8262 22.8375 80.569 13.8781 72.4184 10.693C55.9041 4.24924 32.5663 24.3859 20.3901 55.5931C8.2139 86.8003 11.7396 117.434 28.2539 123.881C30.3311 124.694 32.5185 125.084 34.7758 125.084ZM65.7017 12.0648C67.7016 12.0648 69.6317 12.4106 71.4662 13.1278C78.6646 15.9377 83.3373 24.1321 84.6277 36.2031C85.9512 48.5756 83.5432 63.4345 77.8448 78.0322C66.1943 107.897 44.3639 127.375 29.1987 121.446C14.0299 115.525 11.1697 86.4068 22.8202 56.542C33.0663 30.2927 51.1689 12.0648 65.7017 12.0648Z" fill="#243250"></path></svg>