<svg xmlns="http://www.w3.org/2000/svg" width="10" height="6" viewBox="0 0 10 6" fill="none"><path d="M9.7726 0.47716C9.63195 0.336557 9.44122 0.25757 9.24235 0.25757C9.04347 0.25757 8.85274 0.336557 8.7121 0.47716L4.9996 4.18966L1.2871 0.47716C1.14565 0.340542 0.956193 0.264946 0.759545 0.266655C0.562898 0.268363 0.374788 0.34724 0.235732 0.486296C0.0966759 0.625352 0.0178003 0.813462 0.0160913 1.01011C0.0143824 1.20676 0.0899782 1.39621 0.226597 1.53766L4.46935 5.78041C4.60999 5.92101 4.80072 6 4.9996 6C5.19847 6 5.3892 5.92101 5.52985 5.78041L9.7726 1.53766C9.9132 1.39701 9.99219 1.20628 9.99219 1.00741C9.99219 0.808537 9.9132 0.617806 9.7726 0.47716Z" fill="#9F9F9F"></path></svg>