<svg xmlns="http://www.w3.org/2000/svg" width="39" height="39" viewBox="0 0 39 39" fill="none"><path d="M32.5 6.5H6.5C5.63805 6.5 4.8114 6.84241 4.2019 7.4519C3.59241 8.0614 3.25 8.88805 3.25 9.75V22.75C3.25 23.181 3.4212 23.5943 3.72595 23.899C4.0307 24.2038 4.44402 24.375 4.875 24.375C5.30598 24.375 5.7193 24.2038 6.02405 23.899C6.3288 23.5943 6.5 23.181 6.5 22.75V9.75H32.5V29.25H8.79125L14.625 23.4163L16.7212 25.5287C16.8723 25.6811 17.052 25.802 17.2501 25.8844C17.4481 25.9669 17.6605 26.0094 17.875 26.0094C18.0895 26.0094 18.3019 25.9669 18.4999 25.8844C18.698 25.802 18.8777 25.6811 19.0288 25.5287L25.5 18L26 21.125C26 21.556 26.1712 21.9693 26.476 22.274C26.7807 22.5788 27.194 22.75 27.625 22.75C28.056 22.75 28.4693 22.5788 28.774 22.274C29.0788 21.9693 29.25 21.556 29.25 21.125V14.625C29.2474 14.4126 29.2033 14.2029 29.12 14.0075C28.9551 13.6104 28.6396 13.2949 28.2425 13.13C28.0471 13.0467 27.8374 13.0026 27.625 13H21.125C20.694 13 20.2807 13.1712 19.976 13.476C19.6712 13.7807 19.5 14.194 19.5 14.625C19.5 15.056 19.6712 15.4693 19.976 15.774C20.2807 16.0788 20.694 16.25 21.125 16.25L24.5 17L17.875 22.0837L15.7788 19.9712C15.6277 19.8189 15.448 19.6981 15.2499 19.6156C15.0519 19.5331 14.8395 19.4906 14.625 19.4906C14.4105 19.4906 14.1981 19.5331 14.0001 19.6156C13.802 19.6981 13.6223 19.8189 13.4712 19.9712L3.72125 29.7213C3.57331 29.8758 3.45734 30.058 3.38 30.2575C3.21747 30.6531 3.21747 31.0969 3.38 31.4925C3.5449 31.8896 3.86043 32.2051 4.2575 32.37C4.45286 32.4533 4.66265 32.4974 4.875 32.5H32.5C33.362 32.5 34.1886 32.1576 34.7981 31.5481C35.4076 30.9386 35.75 30.112 35.75 29.25V9.75C35.75 8.88805 35.4076 8.0614 34.7981 7.4519C34.1886 6.84241 33.362 6.5 32.5 6.5Z" fill="#E372A4"></path></svg>