<svg xmlns="http://www.w3.org/2000/svg" width="137" height="17" viewBox="0 0 137 17" fill="none"><path d="M3.02218 8.46027C3.02218 11.458 5.46405 13.8998 8.46178 13.8998H13.9014V10.6609H8.46102V7.6387H16.922V16.922H8.46102C3.79566 16.922 0 13.1264 0 8.46101C0 3.7957 3.79566 0 8.46102 0H16.922V3.02217H8.46102C5.46328 3.02217 3.02142 5.46405 3.02142 8.46173L3.02218 8.46027Z" fill="#7F56D9"></path><path d="M22.3572 4.56911V6.14054H33.2357V9.16198H22.3572V12.3529C22.3572 13.1989 23.0581 13.8998 23.9041 13.8998H36.257V16.922H23.9041C21.3897 16.922 19.3594 14.8673 19.3594 12.3529V4.56911C19.3594 2.05469 21.3905 0 23.9041 0H36.257V3.02217H23.9041C23.0581 3.02217 22.3572 3.72316 22.3572 4.56911Z" fill="#7F56D9"></path><path d="M55.5947 0.0252271V16.9472L52.5725 14.626L41.6941 6.23757V16.9472H38.6719V0.0732696L41.6941 2.39373L52.5725 10.7822V0L55.5947 0.0252271Z" fill="#7F56D9"></path><path d="M61.0367 4.56911V6.14054H71.9152V9.16198H61.0367V12.3529C61.0367 13.1989 61.7377 13.8998 62.5838 13.8998H74.9367V16.922H62.5838C60.0694 16.922 58.0391 14.8673 58.0391 12.3529V4.56911C58.0391 2.05469 60.0701 0 62.5838 0H74.9367V3.02217H62.5838C61.7377 3.02217 61.0367 3.72316 61.0367 4.56911Z" fill="#7F56D9"></path><path d="M94.2586 0.03125V3.05342H87.3201V16.9541H84.2979V3.05342H77.3594V0.03125H94.2586Z" fill="#7F56D9"></path><path d="M110.354 13.9312L111.901 16.9534H108.517L106.97 13.9312L105.351 10.7647L105.279 10.6196C104.746 9.74914 103.804 9.16885 102.716 9.16885H99.694V16.9534H96.6719V0.03125H107.358C108.614 0.03125 109.75 0.539119 110.572 1.36068C111.395 2.20664 111.901 3.34284 111.901 4.60047C111.901 6.43756 110.814 8.03338 109.243 8.75802C108.831 8.95124 108.396 9.07265 107.936 9.1207L110.354 13.9312ZM107.358 6.14741C107.574 6.14741 107.792 6.09937 107.986 6.00234C108.541 5.76034 108.904 5.20442 108.904 4.60047C108.904 4.04456 108.614 3.65748 108.445 3.48875C108.252 3.29553 107.889 3.05342 107.358 3.05342H99.694V6.1719L107.358 6.14741Z" fill="#7F56D9"></path><path d="M114.344 16.922V0H117.367V16.922H114.344Z" fill="#7F56D9"></path><path d="M119.18 16.9534H119.227L119.18 17.0014V16.9534ZM136.15 0.03125L129.599 8.51675L136.126 16.9534H132.307L127.689 10.9823L123.071 16.9534H119.253L125.756 8.51675L119.205 0.03125H123.023L127.665 6.05048L132.308 0.03125H136.15ZM136.102 17.0022L136.078 16.9541H136.102V17.0022Z" fill="#7F56D9"></path></svg>