<svg xmlns="http://www.w3.org/2000/svg" width="52" height="32" viewBox="0 0 52 32" fill="none"><path d="M45.283 16.7375C44.9889 16.6755 44.7851 16.4041 44.8084 16.1003C44.8288 15.8584 44.8375 15.6136 44.8375 15.3687C44.8375 10.6401 41.1772 6.80531 36.6638 6.80531C36.3464 6.80531 36.0348 6.82301 35.7261 6.86136C35.4641 6.89381 35.2166 6.74041 35.1088 6.49558C33.417 2.66077 29.7131 0 25.4151 0C20.261 0 15.9601 3.82891 14.9614 8.9174C14.906 9.20354 14.6673 9.41298 14.3819 9.42183C14.3702 9.42183 14.3615 9.42183 14.3586 9.42183C10.5819 9.60177 7.46612 12.4336 6.66244 16.1799C6.61002 16.4248 6.41202 16.6165 6.16742 16.6578C2.67022 17.2596 0 20.4425 0 24.2773C0 28.5428 3.29919 32 7.37003 32H43.8474C47.9095 32 51.2 28.5516 51.2 24.2979C51.2029 20.5546 48.6579 17.4366 45.283 16.7375Z" fill="#7047EA"></path><path d="M25.0205 31.9979H23.4772V25.9153C23.4772 25.7737 23.4218 25.638 23.3228 25.5377L19.0918 21.2339C18.9928 21.1336 18.9375 20.9979 18.9375 20.8563V16.8386C18.9375 16.5436 19.1734 16.3047 19.4646 16.3047H19.9538C20.245 16.3047 20.4808 16.5436 20.4808 16.8386V20.2103C20.4808 20.3519 20.5361 20.4876 20.6351 20.5879L24.8661 24.8917C24.9651 24.992 25.0205 25.1277 25.0205 25.2693V31.9979Z" fill="white"></path><path d="M19.711 17.0931C18.5695 17.0931 17.6406 16.1521 17.6406 14.9958C17.6406 13.8394 18.5695 12.8984 19.711 12.8984C20.8525 12.8984 21.7814 13.8394 21.7814 14.9958C21.7814 16.1521 20.8525 17.0931 19.711 17.0931Z" fill="white"></path><path d="M19.8979 31.9969H18.3546V28.5073C18.3546 28.3657 18.2993 28.227 18.1974 28.1267L11.9776 21.8701C11.8786 21.7698 11.8203 21.6341 11.8203 21.4896V19.9792C11.8203 19.6842 12.0562 19.4453 12.3474 19.4453H12.8366C13.1278 19.4453 13.3636 19.6842 13.3636 19.9792V20.8376C13.3636 20.9792 13.419 21.1179 13.5209 21.2182L19.7407 27.4748C19.8397 27.5751 19.8979 27.7108 19.8979 27.8553V31.9969Z" fill="white"></path><path d="M12.5938 20.2259C11.4523 20.2259 10.5234 19.2849 10.5234 18.1286C10.5234 16.9723 11.4523 16.0312 12.5938 16.0312C13.7353 16.0312 14.6642 16.9723 14.6642 18.1286C14.6642 19.2849 13.7353 20.2259 12.5938 20.2259Z" fill="white"></path><path d="M35.2464 32.0083H33.7031V27.8579C33.7031 27.7193 33.7555 27.5895 33.8487 27.4892L37.6866 23.4125C37.7798 23.3122 37.8322 23.1794 37.8322 23.0437V17.8933C37.8322 17.5983 38.0681 17.3594 38.3593 17.3594H38.8485C39.1397 17.3594 39.3755 17.5983 39.3755 17.8933V23.6691C39.3755 23.8077 39.3231 23.9375 39.2299 24.0378L35.392 28.1145C35.2988 28.2148 35.2464 28.3476 35.2464 28.4833V32.0083Z" fill="white"></path><path d="M38.6894 18.1438C37.3832 18.1438 36.3203 17.067 36.3203 15.7437C36.3203 14.4205 37.3832 13.3438 38.6894 13.3438C39.9956 13.3438 41.0586 14.4205 41.0586 15.7437C41.0586 17.067 39.9956 18.1438 38.6894 18.1438Z" fill="white"></path><path d="M30.1449 31.9971H28.6016V21.3894C28.6016 21.2537 28.6511 21.1239 28.7443 21.0236L31.2922 18.2596C31.3824 18.1593 31.4348 18.0295 31.4348 17.8938V12.5339C31.4348 12.2389 31.6707 12 31.9619 12H32.4511C32.7423 12 32.9782 12.2389 32.9782 12.5339V18.5103C32.9782 18.646 32.9287 18.7758 32.8355 18.8761L30.2876 21.6401C30.1973 21.7404 30.1449 21.8702 30.1449 22.0059V31.9971Z" fill="white"></path><path d="M32.211 12.7884C31.0695 12.7884 30.1406 11.8474 30.1406 10.6911C30.1406 9.53475 31.0695 8.59375 32.211 8.59375C33.3524 8.59375 34.2814 9.53475 34.2814 10.6911C34.2814 11.8474 33.3524 12.7884 32.211 12.7884Z" fill="white"></path></svg>