<svg xmlns="http://www.w3.org/2000/svg" width="58" height="52" viewBox="0 0 58 52" fill="none"><path fill-rule="evenodd" clip-rule="evenodd" d="M23.0039 49.1484C23.0039 50.184 23.8434 51.0234 24.8789 51.0234H42.9531C50.8906 51.0234 57.3281 44.5859 57.3281 36.6484C57.3281 28.7109 50.8906 22.2734 42.9531 22.2734C42.2628 22.2734 41.7031 21.7138 41.7031 21.0234C41.7031 9.64844 32.4531 0.398438 21.0781 0.398438C9.70312 0.398438 0.453125 9.64844 0.453125 21.0234C0.453125 22.0859 1.26562 22.8984 2.32812 22.8984C3.39062 22.8984 4.20312 22.0859 4.20312 21.0234C4.20312 11.7109 11.7656 4.14844 21.0781 4.14844C30.3906 4.14844 37.9531 11.7109 37.9531 21.0234V24.1484C37.9531 25.2109 38.7656 26.0234 39.8281 26.0234H42.9531C48.8281 26.0234 53.5781 30.7734 53.5781 36.6484C53.5781 42.5234 48.8281 47.2734 42.9531 47.2734H24.8789C23.8434 47.2734 23.0039 48.1129 23.0039 49.1484Z" fill="#101828"></path></svg>