<svg xmlns="http://www.w3.org/2000/svg" width="123" height="147" viewBox="0 0 123 147" fill="none"><path d="M36.4075 132.928C16.8161 125.277 12.3006 89.9443 26.3219 54.0093C40.3431 18.0742 67.5915 -4.85484 87.1829 2.79578C106.774 10.4464 111.29 45.7795 97.2685 81.7146C83.2473 117.65 55.9988 140.579 36.4075 132.928Z" fill="white"></path><path d="M44.4253 135.708C52.3737 135.708 61.1088 131.946 69.7667 124.66C81.4246 114.851 91.6266 99.7639 98.4867 82.1834C105.347 64.6029 108.06 46.5958 106.126 31.4758C104.159 16.0726 97.597 5.45445 87.656 1.57056C77.7151 -2.30966 65.697 1.05565 53.8222 11.0486C42.1644 20.8576 31.9624 35.9445 25.1022 53.525C18.2421 71.1055 15.5289 89.1126 17.4627 104.233C19.4295 119.636 25.9882 130.254 35.9292 134.138C38.624 135.19 41.4695 135.708 44.4253 135.708ZM79.1636 2.61509C81.7996 2.61509 84.3253 3.07483 86.7076 4.00535C95.7184 7.52145 101.693 17.3967 103.534 31.8068C105.413 46.5001 102.755 64.0512 96.0493 81.2345C89.3472 98.4141 79.4136 113.126 68.0829 122.659C56.9692 132.008 45.8885 135.227 36.8777 131.703C27.8669 128.187 21.8927 118.312 20.0509 103.902C18.1722 89.2082 20.8302 71.6572 27.536 54.4776C34.2381 37.298 44.1717 22.5862 55.5023 13.0531C63.6749 6.17165 71.8329 2.61509 79.1636 2.61509Z" fill="#243250"></path></svg>