<svg xmlns="http://www.w3.org/2000/svg" width="26" height="18" viewBox="0 0 26 18" fill="none"><path fill-rule="evenodd" clip-rule="evenodd" d="M17.6738 7.45614C17.606 7.45614 17.5379 7.43897 17.4759 7.40248C17.2994 7.29838 17.2449 7.07765 17.3544 6.90987C18.0989 5.76785 18.8741 4.75776 20.4161 3.9054C15.0784 5.0907 4.97523 13.9967 4.86637 14.0929C4.79353 14.1575 4.70144 14.1892 4.60973 14.1892C4.5082 14.1892 4.40743 14.1506 4.33308 14.0738C4.19154 13.9279 4.20023 13.7 4.35308 13.5645C4.77347 13.1921 13.4366 5.55693 19.1232 3.53985C17.8166 3.26532 16.8457 2.61659 16.0569 1.56555C15.9365 1.40457 15.9757 1.18134 16.1449 1.0665C16.3138 0.952026 16.549 0.988874 16.6697 1.14986C17.8938 2.78152 19.6359 3.56999 24.5342 2.46277L24.5349 2.46269L24.5361 2.46241C24.7396 2.41698 24.9409 2.53539 24.989 2.7275C25.0372 2.91961 24.9123 3.11243 24.7103 3.15822L24.705 3.1593C20.327 4.15024 19.1616 5.49535 17.9939 7.28693C17.9228 7.39604 17.7998 7.45614 17.6738 7.45614ZM11.24 16.9986C9.60917 16.9986 7.93111 16.9154 6.62453 16.8013C4.0042 16.573 2.48357 16.236 2.10417 15.7993C0.786641 14.2825 0.673009 6.4203 1.63076 5.27974C2.52812 4.21047 5.81703 4.21695 9.10669 4.31415L9.72506 4.33107C9.93345 4.33648 10.0984 4.50173 10.0931 4.70046C10.0875 4.89632 9.91986 5.05113 9.71563 5.05113H9.70619L9.08291 5.03385C7.24932 4.97876 2.95697 4.85239 2.21969 5.72978C1.38689 6.72165 1.7527 14.266 2.68554 15.3403C2.96415 15.6283 5.42932 16.1039 9.33169 16.244C12.9162 16.3739 15.8374 16.128 16.4373 15.6496C17.1296 15.0973 16.9186 12.6696 16.623 11.2691C16.5819 11.0744 16.714 10.8846 16.9186 10.845C17.1232 10.8069 17.3218 10.9321 17.3633 11.1269C17.4505 11.5406 18.1814 15.1967 16.9216 16.2015C16.1734 16.7988 13.7633 16.9986 11.24 16.9986Z" fill="#101828"></path><path d="M17.4759 7.40248L17.2218 7.83311L17.2225 7.83351L17.4759 7.40248ZM17.3544 6.90987L17.7731 7.18309L17.7732 7.18293L17.3544 6.90987ZM20.4161 3.9054L20.658 4.34299L20.3078 3.41729L20.4161 3.9054ZM4.86637 14.0929L4.53522 13.7183L4.53485 13.7187L4.86637 14.0929ZM4.33308 14.0738L4.69226 13.726L4.69206 13.7258L4.33308 14.0738ZM4.35308 13.5645L4.02153 13.1903L4.02136 13.1904L4.35308 13.5645ZM19.1232 3.53985L19.2903 4.01109L20.967 3.41635L19.226 3.05054L19.1232 3.53985ZM16.0569 1.56555L15.6565 1.86498L15.657 1.86569L16.0569 1.56555ZM16.1449 1.0665L15.8644 0.652609L15.8642 0.652726L16.1449 1.0665ZM16.6697 1.14986L16.2697 1.44988L16.2698 1.44991L16.6697 1.14986ZM24.5342 2.46277L24.476 1.96617L24.4498 1.96925L24.424 1.97508L24.5342 2.46277ZM24.5349 2.46269L24.5931 2.95929L24.6206 2.95607L24.6475 2.94985L24.5349 2.46269ZM24.5361 2.46241L24.4272 1.97441L24.4235 1.97526L24.5361 2.46241ZM24.989 2.7275L25.474 2.60594V2.60593L24.989 2.7275ZM24.7103 3.15822L24.8101 3.64827L24.8208 3.64585L24.7103 3.15822ZM24.705 3.1593L24.6052 2.66925L24.5946 2.67163L24.705 3.1593ZM17.9939 7.28693L17.575 7.01392L17.575 7.01395L17.9939 7.28693ZM6.62453 16.8013L6.66804 16.3032L6.66792 16.3032L6.62453 16.8013ZM2.10417 15.7993L1.72669 16.1272L1.72672 16.1273L2.10417 15.7993ZM1.63076 5.27974L2.01367 5.60128L2.01376 5.60116L1.63076 5.27974ZM9.10669 4.31415L9.09192 4.81394L9.09302 4.81397L9.10669 4.31415ZM9.72506 4.33107L9.71139 4.83089L9.71211 4.83091L9.72506 4.33107ZM10.0931 4.70046L10.5929 4.71491L10.593 4.71375L10.0931 4.70046ZM9.70619 5.05113L9.69232 5.55113H9.70619V5.05113ZM9.08291 5.03385L9.0679 5.53362L9.06905 5.53365L9.08291 5.03385ZM2.21969 5.72978L1.8369 5.40811L1.83676 5.40826L2.21969 5.72978ZM2.68554 15.3403L2.308 15.6681L2.31682 15.6783L2.32616 15.6879L2.68554 15.3403ZM9.33169 16.244L9.34981 15.7443L9.34962 15.7443L9.33169 16.244ZM16.4373 15.6496L16.7491 16.0405L16.7491 16.0404L16.4373 15.6496ZM16.623 11.2691L17.1122 11.1659L17.1122 11.1658L16.623 11.2691ZM16.9186 10.845L16.8269 10.3535L16.8236 10.3541L16.9186 10.845ZM17.3633 11.1269L17.8526 11.0238L17.8523 11.0227L17.3633 11.1269ZM16.9216 16.2015L16.6098 15.8106L16.6097 15.8107L16.9216 16.2015ZM17.2225 7.83351C17.3646 7.91705 17.5207 7.95614 17.6738 7.95614V6.95614C17.6913 6.95614 17.7113 6.96089 17.7293 6.97145L17.2225 7.83351ZM16.9356 6.63665C16.6641 7.05286 16.8101 7.59018 17.2218 7.8331L17.73 6.97185C17.7579 6.98833 17.7833 7.01935 17.7933 7.06025C17.8036 7.10166 17.7964 7.14746 17.7731 7.18309L16.9356 6.63665ZM20.1743 3.4678C18.5294 4.37699 17.7 5.46425 16.9355 6.6368L17.7732 7.18293C18.4979 6.07144 19.2188 5.13853 20.658 4.34299L20.1743 3.4678ZM20.3078 3.41729C18.8943 3.73117 17.2069 4.54314 15.4958 5.55313C13.7753 6.56861 11.993 7.80731 10.3819 9.00648C7.15919 11.4051 4.59438 13.666 4.53522 13.7183L5.19753 14.4676C5.24723 14.4236 7.7884 12.1834 10.9789 9.80867C12.5744 8.62114 14.3255 7.40507 16.0041 6.41431C17.6919 5.41805 19.2691 4.67228 20.5245 4.39351L20.3078 3.41729ZM4.53485 13.7187C4.55911 13.6972 4.58707 13.6892 4.60973 13.6892V14.6892C4.81581 14.6892 5.02795 14.6178 5.1979 14.4672L4.53485 13.7187ZM4.60973 13.6892C4.63366 13.6892 4.66573 13.6986 4.69226 13.726L3.9739 14.4217C4.14913 14.6026 4.38274 14.6892 4.60973 14.6892V13.6892ZM4.69206 13.7258C4.71782 13.7524 4.73396 13.7923 4.73231 13.8347C4.73065 13.8771 4.71153 13.9149 4.6848 13.9386L4.02136 13.1904C3.65619 13.5142 3.63349 14.0706 3.97409 14.4219L4.69206 13.7258ZM4.68463 13.9388C4.89001 13.7568 7.14991 11.7646 10.0642 9.56824C12.9932 7.36091 16.5267 4.99139 19.2903 4.01109L18.956 3.06862C16.0331 4.1054 12.3918 6.56201 9.4624 8.76963C6.51842 10.9883 4.23654 12.9998 4.02153 13.1903L4.68463 13.9388ZM15.657 1.86569C16.5147 3.00846 17.5888 3.72837 19.0204 4.02917L19.226 3.05054C18.0444 2.80227 17.1768 2.22473 16.4568 1.26542L15.657 1.86569ZM15.8642 0.652726C15.4653 0.923343 15.3608 1.46952 15.6565 1.86498L16.4573 1.26613C16.4815 1.29846 16.4922 1.3427 16.4847 1.38541C16.4773 1.42783 16.4533 1.46152 16.4256 1.48028L15.8642 0.652726ZM17.0697 0.84983C16.7839 0.46886 16.2474 0.393055 15.8644 0.652609L16.4255 1.4804C16.399 1.49836 16.3704 1.50241 16.3473 1.49874C16.3239 1.49505 16.2933 1.48128 16.2697 1.44988L17.0697 0.84983ZM24.424 1.97508C22.0001 2.52298 20.4252 2.58429 19.331 2.34494C18.2709 2.11305 17.6257 1.59099 17.0697 0.849802L16.2698 1.44991C16.9378 2.34039 17.7758 3.02839 19.1173 3.32184C20.4248 3.60785 22.1701 3.50978 24.6445 2.95047L24.424 1.97508ZM24.4767 1.96609L24.476 1.96617L24.5924 2.95937L24.5931 2.95929L24.4767 1.96609ZM24.4235 1.97526L24.4223 1.97553L24.6475 2.94985L24.6487 2.94957L24.4235 1.97526ZM25.474 2.60593C25.3549 2.13075 24.8745 1.87455 24.4272 1.97443L24.645 2.9504C24.6047 2.95941 24.5268 2.94004 24.504 2.84907L25.474 2.60593ZM24.8208 3.64585C25.2745 3.54301 25.5957 3.09156 25.474 2.60594L24.504 2.84906C24.4786 2.74766 24.5501 2.68185 24.5997 2.67059L24.8208 3.64585ZM24.8048 3.64923L24.8101 3.64815L24.6104 2.66829L24.6052 2.66937L24.8048 3.64923ZM18.4128 7.55994C18.9848 6.68229 19.5258 5.96237 20.4309 5.33349C21.3431 4.69964 22.6608 4.13464 24.8154 3.64696L24.5946 2.67163C22.3712 3.1749 20.9171 3.77793 19.8603 4.51226C18.7962 5.25157 18.1707 6.09999 17.575 7.01392L18.4128 7.55994ZM17.6738 7.95614C17.9541 7.95614 18.2416 7.82256 18.4128 7.5599L17.575 7.01395C17.6039 6.96952 17.6455 6.95614 17.6738 6.95614V7.95614ZM6.58102 17.2994C7.90142 17.4147 9.594 17.4986 11.24 17.4986V16.4986C9.62433 16.4986 7.9608 16.4161 6.66804 16.3032L6.58102 17.2994ZM1.72672 16.1273C1.89867 16.3252 2.15179 16.4644 2.41328 16.571C2.68586 16.6822 3.02318 16.7796 3.41581 16.8666C4.20192 17.0409 5.26191 17.1845 6.58114 17.2994L6.66792 16.3032C5.36683 16.1898 4.35634 16.0508 3.6322 15.8903C3.2697 15.81 2.99195 15.727 2.79082 15.645C2.5786 15.5585 2.49936 15.4918 2.48162 15.4714L1.72672 16.1273ZM1.24786 4.95821C1.05336 5.18983 0.928197 5.52871 0.838512 5.8699C0.744239 6.22855 0.671814 6.66098 0.618526 7.13551C0.511793 8.08596 0.477233 9.2478 0.51449 10.4144C0.55174 11.5808 0.661287 12.768 0.848194 13.768C0.941604 14.2678 1.05607 14.7303 1.19454 15.1244C1.3302 15.5105 1.50147 15.8679 1.72669 16.1272L2.48165 15.4714C2.37749 15.3515 2.25699 15.1315 2.138 14.7929C2.02181 14.4622 1.91873 14.0527 1.83117 13.5843C1.65615 12.6479 1.55011 11.5138 1.51398 10.3825C1.47786 9.25138 1.51212 8.139 1.61228 7.2471C1.66244 6.80045 1.72797 6.41967 1.80566 6.12412C1.88793 5.81111 1.96873 5.65479 2.01367 5.60128L1.24786 4.95821ZM9.12146 3.81437C7.4786 3.76583 5.80621 3.73863 4.42724 3.86149C3.73772 3.92292 3.10146 4.02341 2.56894 4.18586C2.04597 4.3454 1.56329 4.58234 1.24776 4.95832L2.01376 5.60116C2.14691 5.44251 2.41186 5.27928 2.86074 5.14234C3.30008 5.00831 3.85989 4.916 4.51598 4.85754C5.82822 4.74063 7.44512 4.76527 9.09192 4.81394L9.12146 3.81437ZM9.73874 3.83126L9.12037 3.81434L9.09302 4.81397L9.71139 4.83089L9.73874 3.83126ZM10.593 4.71375C10.6062 4.21579 10.199 3.84319 9.73802 3.83124L9.71211 4.83091C9.66795 4.82976 9.59064 4.78767 9.59332 4.68717L10.593 4.71375ZM9.71563 5.55113C10.1685 5.55113 10.5788 5.20253 10.5929 4.71491L9.59335 4.68601C9.59612 4.5901 9.67124 4.55113 9.71563 4.55113V5.55113ZM9.70619 5.55113H9.71563V4.55113H9.70619V5.55113ZM9.06905 5.53365L9.69233 5.55093L9.72005 4.55132L9.09677 4.53404L9.06905 5.53365ZM2.60248 6.05144C2.62157 6.02872 2.6866 5.97307 2.84462 5.90672C2.99595 5.84319 3.19737 5.78435 3.4466 5.73277C3.94488 5.62964 4.57872 5.56656 5.26568 5.53149C6.63685 5.46148 8.14872 5.50601 9.0679 5.53362L9.09792 4.53407C8.18351 4.5066 6.63241 4.4604 5.21469 4.53279C4.50721 4.56891 3.81512 4.6353 3.24392 4.75352C2.95841 4.81261 2.6892 4.88742 2.45751 4.98469C2.23251 5.07916 2.00212 5.21148 1.8369 5.40811L2.60248 6.05144ZM3.06308 15.0125C3.0178 14.9603 2.93459 14.8092 2.84058 14.5098C2.75184 14.2271 2.66876 13.8637 2.59466 13.439C2.44668 12.5909 2.34119 11.5376 2.28991 10.4799C2.23863 9.42201 2.24231 8.37463 2.30841 7.53818C2.34153 7.11903 2.38947 6.76433 2.45027 6.49263C2.48064 6.35694 2.51239 6.2503 2.54335 6.1708C2.55865 6.13151 2.57247 6.10219 2.58391 6.08124C2.58954 6.07094 2.59416 6.06345 2.59757 6.05833C2.601 6.05319 2.60278 6.05109 2.60261 6.05129L1.83676 5.40826C1.64941 5.63141 1.54424 5.96219 1.47441 6.27425C1.39946 6.60917 1.34663 7.015 1.31151 7.4594C1.24113 8.35005 1.23842 9.44188 1.29109 10.5283C1.34377 11.615 1.45259 12.7113 1.60954 13.6109C1.6879 14.06 1.77994 14.4699 1.8865 14.8094C1.9878 15.132 2.12008 15.4517 2.308 15.6681L3.06308 15.0125ZM9.34962 15.7443C7.41359 15.6748 5.8411 15.5223 4.72454 15.3533C4.16517 15.2686 3.72799 15.1809 3.42016 15.0998C3.26551 15.0591 3.15278 15.0224 3.0774 14.9921C2.98198 14.9538 3.0005 14.9468 3.04492 14.9927L2.32616 15.6879C2.44024 15.8059 2.59673 15.8767 2.7047 15.9201C2.8327 15.9715 2.98877 16.0203 3.16538 16.0668C3.52007 16.1603 3.99533 16.2543 4.57487 16.342C5.73614 16.5178 7.34742 16.6731 9.31376 16.7436L9.34962 15.7443ZM16.1255 15.2587C16.0765 15.2978 15.8877 15.3853 15.4738 15.4736C15.0878 15.5559 14.5771 15.6251 13.962 15.6767C12.7336 15.7796 11.1279 15.8088 9.34981 15.7443L9.31357 16.7436C11.12 16.8091 12.7672 16.7803 14.0455 16.6732C14.6837 16.6197 15.2398 16.5459 15.6823 16.4516C16.0968 16.3632 16.4982 16.2406 16.7491 16.0405L16.1255 15.2587ZM16.1338 11.3724C16.276 12.0464 16.3976 12.9689 16.4006 13.7793C16.4021 14.1856 16.3736 14.5436 16.3119 14.8202C16.2459 15.1163 16.1613 15.2301 16.1255 15.2587L16.7491 16.0404C17.0594 15.7929 17.2081 15.3961 17.288 15.0379C17.3722 14.6603 17.4023 14.2203 17.4006 13.7756C17.3973 12.8839 17.2656 11.8924 17.1122 11.1659L16.1338 11.3724ZM16.8236 10.3541C16.3662 10.4427 16.0305 10.8832 16.1338 11.3725L17.1122 11.1658C17.1333 11.2655 17.0618 11.3266 17.0136 11.3359L16.8236 10.3541ZM17.8523 11.0227C17.7497 10.5413 17.276 10.2697 16.8269 10.3535L17.0103 11.3365C16.9859 11.3411 16.9587 11.3363 16.9347 11.3211C16.9102 11.3056 16.8837 11.2752 16.8743 11.2312L17.8523 11.0227ZM17.2334 16.5924C17.6794 16.2366 17.9054 15.6867 18.0228 15.1497C18.1425 14.6024 18.1661 13.9923 18.1473 13.426C18.1097 12.2911 17.8982 11.2403 17.8526 11.0238L16.8741 11.2301C16.9156 11.4272 17.1132 12.4113 17.1479 13.4591C17.1653 13.984 17.1408 14.5022 17.0459 14.936C16.9488 15.38 16.7937 15.6639 16.6098 15.8106L17.2334 16.5924ZM11.24 17.4986C12.5117 17.4986 13.7677 17.4484 14.8076 17.3203C15.3272 17.2562 15.8038 17.1715 16.2066 17.0598C16.599 16.9511 16.9674 16.8047 17.2336 16.5923L16.6097 15.8107C16.5017 15.8969 16.2883 15.9995 15.9395 16.0962C15.6011 16.19 15.1772 16.2672 14.6853 16.3278C13.7024 16.4489 12.4916 16.4986 11.24 16.4986V17.4986Z" fill="#101828"></path></svg>