<svg xmlns="http://www.w3.org/2000/svg" width="208" height="126" viewBox="0 0 208 126" fill="none"><path d="M200.938 51.4872C200.938 51.4872 155.116 32.1854 133.719 22.2072C112.319 12.229 76.9851 5.96911 76.9851 5.96911C41.0152 -3.58615 9.20341 7.33363 7.86522 7.80441C3.06384 9.49258 0.541824 14.7447 2.21826 19.5554C3.8947 24.3624 9.15195 26.9039 13.9643 25.2415C14.0636 25.2084 17.751 23.9652 23.8318 22.7662C12.7769 28.6766 6.66302 35.0174 6.22554 35.4808C2.73296 39.1698 2.89473 44.9699 6.5601 48.4823C9.15564 50.9686 12.8357 51.6306 16.0195 50.5125C17.3319 50.0491 18.5635 49.2841 19.5966 48.2175C19.6444 48.1697 21.3355 46.4705 24.4494 44.1754C21.9973 46.9486 20.6591 48.8758 20.4826 49.137C17.6554 53.3555 18.7767 59.049 22.9789 61.8994C25.4935 63.6059 28.5559 63.9002 31.225 62.9623C33.0191 62.3334 34.633 61.1491 35.7874 59.4646C35.8904 59.3138 45.2578 45.9776 64.1692 38.5997C49.9011 45.5914 43.1696 55.3894 42.7983 55.9411C39.9785 60.1487 41.0998 65.8017 45.2725 68.6631C47.7872 70.388 50.8643 70.6823 53.5517 69.7407C55.3238 69.1192 56.9267 67.9532 58.0847 66.3055C58.3421 65.9377 63.1471 59.2476 73.5477 54.573C80.4299 65.7465 97.6096 64.1834 97.6096 64.1834C97.6096 64.1834 159.016 124.398 162.891 123.85C166.766 123.302 182.284 124.049 198.218 101.673C214.839 78.3397 200.938 51.4872 200.938 51.4872Z" fill="white"></path><path d="M162.789 125.174C162.895 125.174 162.987 125.163 163.076 125.148C163.41 125.1 163.833 125.064 164.344 125.02C169.844 124.541 184.45 123.269 199.284 102.433C216.17 78.7255 202.24 51.1594 202.1 50.8835C201.961 50.6114 201.729 50.3981 201.446 50.2804C200.987 50.0891 155.403 30.872 134.271 21.0188C112.963 11.081 77.57 4.74026 77.2134 4.67773C40.9825 -4.95109 8.78833 6.09373 7.43541 6.56818C1.97229 8.48806 -0.921021 14.5052 0.98703 19.9816C2.89876 25.458 8.90967 28.3636 14.3912 26.4731C14.4022 26.4695 14.9169 26.2929 15.8764 26.0134C9.14862 30.5189 5.47589 34.3697 5.27737 34.5793C1.31422 38.7648 1.48703 45.4218 5.65973 49.4234C8.54202 52.1819 12.678 53.0756 16.4536 51.7442C17.0455 51.5345 17.6117 51.2771 18.1521 50.9755C16.7293 55.3228 18.2845 60.2843 22.255 62.9803C25.0012 64.845 28.5195 65.301 31.6665 64.194C33.7915 63.4473 35.5929 62.0681 36.8723 60.2071C36.9164 60.1446 39.012 57.1728 43.181 53.2926C42.2766 54.4033 41.795 55.1058 41.7215 55.2125C38.5303 59.9717 39.7987 66.489 44.5449 69.7403C47.2912 71.6234 50.8242 72.0868 53.9933 70.9724C56.0962 70.2331 57.8829 68.8797 59.1623 67.0517C59.3461 66.7869 63.6475 60.7478 73.0848 56.2276C79.9192 65.8785 93.9704 65.6909 97.121 65.5254C99.6945 68.0448 113.687 81.7156 127.903 95.1695C157.587 123.269 161.469 125.174 162.789 125.174ZM199.976 52.5018C201.589 55.937 212.001 80.0716 197.152 100.922C183.016 120.772 169.281 121.967 164.112 122.419C163.631 122.46 163.219 122.496 162.881 122.541C158.491 121.018 121.183 85.4745 98.5291 63.2561C98.2534 62.9876 97.8747 62.8589 97.496 62.8883C97.3269 62.9104 81.0331 64.2381 74.662 53.8958C74.3164 53.3367 73.6105 53.1197 73.0149 53.3882C62.2284 58.2357 57.2248 65.2643 57.019 65.5622C56.0557 66.9377 54.7102 67.9602 53.1257 68.5155C50.7397 69.3541 48.0816 69.0084 46.0192 67.5961C42.4494 65.1502 41.4935 60.2512 43.8905 56.6763C44.1626 56.2717 50.7433 46.6429 64.7504 39.7799C65.3791 39.4709 65.6548 38.7206 65.3717 38.0807C65.0886 37.4407 64.357 37.1318 63.7026 37.3892C44.2361 44.9841 34.8062 58.5998 34.7143 58.7359C33.7547 60.1335 32.3981 61.1707 30.7989 61.7334C28.4313 62.5646 25.7843 62.2263 23.7182 60.825C20.1227 58.3829 19.1594 53.4691 21.5712 49.8721C21.5822 49.8537 22.8873 47.9228 25.4314 45.0467C25.8725 44.5465 25.8689 43.7925 25.4167 43.2997C24.9682 42.8068 24.2182 42.7333 23.6777 43.1305C20.4241 45.5285 18.6778 47.2939 18.6631 47.3123C17.7918 48.2134 16.7588 48.8754 15.586 49.2873C12.7405 50.2877 9.63023 49.622 7.46483 47.544C4.3252 44.5355 4.19286 39.5298 7.17441 36.3852C7.42807 36.1167 13.4353 29.8127 24.4461 23.9243C25.0159 23.6191 25.2769 22.9423 25.06 22.3318C24.8431 21.7212 24.2108 21.3645 23.5785 21.4895C17.3065 22.7253 13.575 23.9979 13.5382 24.0126C9.40965 25.4396 4.88768 23.2513 3.45021 19.132C2.01642 15.0127 4.18916 10.4889 8.2957 9.04343C9.6192 8.58001 41.0781 -2.21103 76.6472 7.23757C77.1068 7.32216 112.169 13.6077 133.164 23.3984C153.204 32.7366 195.141 50.4606 199.976 52.5018Z" fill="#243250"></path><path d="M52.8281 10.75C52.8281 10.75 34.4498 15.1709 23.8324 22.7658L52.8281 10.75Z" fill="#243250"></path><path d="M23.832 24.0701C24.093 24.0701 24.3614 23.9892 24.5893 23.8273C34.8759 16.4715 52.949 12.0617 53.1328 12.0212C53.835 11.852 54.2652 11.1459 54.096 10.4434C53.9269 9.74089 53.221 9.31793 52.5225 9.47976C51.7615 9.66365 33.7729 14.0477 23.071 21.7052C22.4827 22.1245 22.3467 22.941 22.7695 23.5294C23.0232 23.8825 23.4239 24.0701 23.832 24.0701Z" fill="#243250"></path><path d="M55.8125 22.7188C55.8125 22.7188 35.982 30.2144 24.4529 44.1721L55.8125 22.7188Z" fill="#243250"></path><path d="M24.4528 45.4821C24.8278 45.4821 25.2027 45.3203 25.4601 45.0076C36.6363 31.4765 56.0771 24.0177 56.2719 23.9441C56.9484 23.6904 57.2866 22.9364 57.033 22.2597C56.7793 21.5829 56.022 21.2445 55.3492 21.4983C54.5257 21.8109 35.0592 29.2808 23.4454 43.3415C22.9859 43.8969 23.0631 44.7207 23.6219 45.1805C23.8645 45.3828 24.1587 45.4821 24.4528 45.4821Z" fill="#243250"></path></svg>