<svg xmlns="http://www.w3.org/2000/svg" width="103" height="169" viewBox="0 0 103 169" fill="none"><path d="M50.5582 88.4231L66.3005 87.1175C84.3957 85.6169 97.9726 69.5774 96.4727 51.4747L95.9543 45.2332C94.0757 22.5661 73.9989 5.5594 51.3413 7.43882L50.1354 13.82C35.9335 15.0006 25.2756 27.5902 26.4557 41.798L28.7939 69.982C29.7057 81.0415 39.5033 89.3389 50.5582 88.4231Z" fill="#304163"></path><path d="M21.0184 65.4507C14.1911 47.4702 24.1697 26.9988 43.3062 19.7265C62.4427 12.4542 83.4905 21.1349 90.3178 39.1153C97.1451 57.0958 87.1665 77.5672 68.03 84.8396C48.8935 92.1119 27.8457 83.4312 21.0184 65.4507Z" fill="#304163"></path><path d="M66.1719 53.6547C64.2124 41.9258 55.264 32.0653 43.9665 30.2631C36.9225 29.1413 30.3748 31.3775 25.6065 35.8499C28.7462 34.9966 37.7092 33.1061 41.4996 38.0676C46.1282 44.1436 51.334 57.1083 66.1719 53.6547Z" fill="#304163"></path><path d="M13.3671 50.797C6.41822 44.8369 5.61462 34.3698 11.5722 27.418C17.5298 20.4663 27.9925 19.6623 34.9414 25.6224C41.8903 31.5825 42.6939 42.0496 36.7363 49.0014C30.7787 55.9531 20.316 56.7571 13.3671 50.797Z" fill="#304163"></path><path d="M58.3367 12.0078C76.3914 12.7949 91.5382 26.5834 93.7109 44.8628C89.9022 47.875 85.1339 49.8537 79.8473 50.2951C66.1086 51.4352 54.0941 41.7586 53.0096 28.6835C52.4986 22.4531 54.5573 16.5795 58.3367 12.0078Z" fill="#304163"></path><path d="M41.0233 36.6329C34.0745 30.6728 33.2709 20.2057 39.2285 13.254C45.186 6.3022 55.6488 5.49826 62.5976 11.4583C69.5465 17.4184 70.3501 27.8855 64.3925 34.8373C58.4349 41.7891 47.9722 42.593 41.0233 36.6329Z" fill="#304163"></path><path d="M16.1045 27.8383C16.8839 37.2244 25.119 44.2014 34.5011 43.4254C43.8833 42.6456 50.8574 34.4071 50.0817 25.021C49.3023 15.6349 41.0672 8.6579 31.685 9.43395C22.3029 10.21 15.3288 18.4522 16.1045 27.8383Z" fill="#304163"></path><path d="M77.2786 23.764C77.8925 23.764 78.4403 23.33 78.5616 22.7011C79.4145 18.2434 84.6093 16.6693 84.6607 16.6546C85.3519 16.4523 85.749 15.7277 85.5504 15.0363C85.3519 14.3448 84.6277 13.9439 83.9365 14.1462C83.6608 14.2234 77.1535 16.1617 75.9955 22.2119C75.8595 22.9217 76.3264 23.6022 77.0322 23.7419C77.1168 23.753 77.1977 23.764 77.2786 23.764Z" fill="#304163"></path><path d="M76.5806 23.4174C76.8563 23.4174 77.1358 23.3292 77.371 23.149C82.2643 19.4085 81.0879 12.7184 81.0327 12.4352C80.9004 11.7253 80.2276 11.2545 79.5107 11.3906C78.8011 11.523 78.3342 12.2034 78.4629 12.9096C78.4739 12.9648 79.3894 18.3162 75.7828 21.0709C75.2093 21.5086 75.099 22.3288 75.5365 22.9025C75.7975 23.2409 76.1872 23.4174 76.5806 23.4174Z" fill="#304163"></path><path d="M13.3691 57.8535L13.6816 55.0252C15.2441 40.8799 27.9717 30.681 42.1112 32.2441C54.0374 33.5608 63.1548 42.8255 64.7835 54.183C69.6437 53.8152 74.2355 56.9193 75.57 61.7963C76.7317 66.048 75.0663 70.3989 71.7282 72.8705L89.8712 120.65L101.533 124.652C101.842 134.428 97.099 145.635 87.9411 154.447C73.3899 168.445 53.2249 171.09 42.8979 160.35C34.8209 151.95 35.1922 137.856 42.6883 125.413L47.1368 124.141L40.6406 107.035C38.4348 107.381 36.1554 107.469 33.8319 107.211C19.6925 105.648 9.49786 92.9152 11.0603 78.7699L12.1486 68.9057C9.40228 68.2952 7.47952 65.7353 7.77364 62.8702C8.07143 59.9757 10.5199 57.8499 13.3691 57.8535Z" fill="white"></path><path d="M59.6796 168.23C69.297 168.23 80.0836 163.816 88.8444 155.39C97.9361 146.644 103.168 135.136 102.837 124.617C102.818 124.073 102.469 123.598 101.954 123.422L90.8701 119.619L73.2786 73.2951C76.6241 70.3527 78.0137 65.8105 76.8226 61.4558C75.455 56.4575 70.9624 52.9929 65.8817 52.8532C63.7016 41.1904 54.1392 32.2604 42.2498 30.9474C35.0588 30.1567 28.0001 32.2053 22.3605 36.7291C16.7172 41.2493 13.1732 47.6967 12.3828 54.8871L12.1879 56.6525C9.16593 57.16 6.79832 59.6095 6.4748 62.7431C6.15863 65.8252 7.93802 68.6903 10.7321 69.8342L9.76151 78.6354C8.9674 85.8221 11.0188 92.8911 15.5408 98.533C20.0591 104.175 26.5075 107.724 33.6911 108.515C35.6727 108.732 37.7205 108.721 39.794 108.474L45.4152 123.278L42.3344 124.161C42.0182 124.253 41.7461 124.459 41.5733 124.742C33.5735 138.019 33.7316 152.694 41.9594 161.256C46.4703 165.957 52.7753 168.23 59.6796 168.23ZM100.238 125.595C100.23 135.147 95.3406 145.515 87.0319 153.507C73.0249 166.983 53.6466 169.649 43.838 159.447C36.5257 151.841 36.4264 138.663 43.5439 126.529L47.4923 125.397C47.8453 125.297 48.1357 125.055 48.3011 124.727C48.4666 124.4 48.485 124.017 48.3563 123.675L41.8638 106.573C41.6432 105.996 41.055 105.646 40.441 105.745C38.2389 106.087 36.0624 106.143 33.9742 105.915C27.4817 105.197 21.6583 101.994 17.5775 96.8964C13.493 91.7951 11.6401 85.4102 12.357 78.9186L13.4453 69.0544C13.5188 68.3924 13.0813 67.7819 12.4306 67.6348C10.2946 67.1603 8.84975 65.1705 9.07034 63.0079C9.29828 60.8159 11.1402 59.1645 13.3607 59.1645C13.3644 59.1645 13.3644 59.1645 13.368 59.1645C14.0335 59.1645 14.5923 58.6643 14.6658 58.0023L14.9783 55.1739C16.4599 41.7679 28.5699 32.0582 41.963 33.5477C53.0547 34.7725 61.9075 43.3384 63.4846 54.3758C63.5802 55.0562 64.1942 55.5491 64.8743 55.4939C69.2051 55.1666 73.1572 57.9655 74.3006 62.151C75.2932 65.7848 73.9734 69.5841 70.944 71.8313C70.4735 72.1807 70.2933 72.7986 70.4992 73.3466L88.6422 121.127C88.7782 121.491 89.0723 121.774 89.44 121.899L100.238 125.595Z" fill="#304163"></path><path d="M68.5333 75.9772C68.6472 75.9772 68.7612 75.9625 68.8789 75.9294C75.092 74.2302 78.7684 67.7901 77.0699 61.5708C76.8787 60.8756 76.1618 60.4674 75.467 60.6549C74.7721 60.8462 74.3604 61.5634 74.5515 62.2585C75.8714 67.084 73.0185 72.086 68.1914 73.4063C67.4965 73.5976 67.0848 74.3148 67.2759 75.0099C67.434 75.5947 67.9598 75.9772 68.5333 75.9772Z" fill="#304163"></path><path d="M64.7499 69C64.8124 69 64.8748 68.9963 64.9373 68.989C65.6506 68.886 66.1469 68.224 66.0439 67.5105C65.5513 64.0863 68.3968 62.4202 68.4263 62.4055C69.0512 62.0487 69.2718 61.2506 68.9152 60.6217C68.5586 59.9928 67.7608 59.7758 67.1322 60.1325C66.952 60.2355 62.7168 62.7144 63.4594 67.8819C63.5514 68.5329 64.1102 69 64.7499 69Z" fill="#304163"></path><path d="M50.4435 33.4163C60.8072 32.9087 70.1931 39.9887 72.4062 50.32C70.3879 52.2436 67.7703 53.6302 64.7704 54.1598C56.9764 55.539 49.5979 50.6474 48.2854 43.229C47.6568 39.6982 48.5244 36.2299 50.4435 33.4163Z" fill="#304163"></path><path d="M40.2546 108.484C40.3318 108.484 40.409 108.476 40.4862 108.461C52.1845 106.354 61.2688 96.6185 62.5776 84.783C62.6585 84.0658 62.1401 83.4184 61.4232 83.3412C60.7174 83.2787 60.0593 83.7789 59.9821 84.4961C58.802 95.1841 50.5963 103.985 40.0266 105.887C39.3171 106.016 38.8465 106.696 38.9715 107.406C39.0855 108.039 39.6369 108.484 40.2546 108.484Z" fill="#304163"></path><path d="M58.0729 92.9539C58.5949 91.9645 59.0582 90.9604 59.4699 89.9453C59.8192 101.965 53.8156 112.708 44.4813 118.924L40.5328 108.526C47.8746 105.643 54.1759 100.324 58.0729 92.9539Z" fill="#304163"></path></svg>