<svg xmlns="http://www.w3.org/2000/svg" width="80" height="80" viewBox="0 0 80 80" fill="none"><path fill-rule="evenodd" clip-rule="evenodd" d="M45.0039 53.1484C45.0039 54.184 45.8434 55.0234 46.8789 55.0234H64.9531C72.8906 55.0234 79.3281 48.5859 79.3281 40.6484C79.3281 32.7109 72.8906 26.2734 64.9531 26.2734C64.2628 26.2734 63.7031 25.7138 63.7031 25.0234C63.7031 13.6484 54.4531 4.39844 43.0781 4.39844C31.7031 4.39844 22.4531 13.6484 22.4531 25.0234C22.4531 26.0859 23.2656 26.8984 24.3281 26.8984C25.3906 26.8984 26.2031 26.0859 26.2031 25.0234C26.2031 15.7109 33.7656 8.14844 43.0781 8.14844C52.3906 8.14844 59.9531 15.7109 59.9531 25.0234V28.1484C59.9531 29.2109 60.7656 30.0234 61.8281 30.0234H64.9531C70.8281 30.0234 75.5781 34.7734 75.5781 40.6484C75.5781 46.5234 70.8281 51.2734 64.9531 51.2734H46.8789C45.8434 51.2734 45.0039 52.1129 45.0039 53.1484Z" fill="#101828"></path><path d="M40.7895 28H3.26316C1.46842 28 0 29.4684 0 31.2632V55.7368C0 57.5316 1.46842 59 3.26316 59H40.7895C42.5842 59 44.0526 57.5316 44.0526 55.7368V31.2632C44.0526 29.4684 42.5842 28 40.7895 28ZM40.7895 55.7368H3.26316V31.2632H40.7895V55.7368ZM37.5263 44.3158H24.4737V42.6842H37.5263V44.3158ZM37.5263 39.4211H24.4737V37.7895H37.5263V39.4211ZM37.5263 49.2105H24.4737V47.5789H37.5263V49.2105ZM19.5789 49.2105H8.15789C8.15789 46.6816 9.78947 44.5605 12.0737 43.7447C11.1763 43.1737 10.6053 42.1947 10.6053 41.0526C10.6053 39.2579 12.0737 37.7895 13.8684 37.7895C15.6632 37.7895 17.1316 39.2579 17.1316 41.0526C17.1316 42.1947 16.5605 43.1737 15.6632 43.7447C17.9474 44.5605 19.5789 46.6816 19.5789 49.2105Z" fill="#E372A4"></path></svg>