<svg xmlns="http://www.w3.org/2000/svg" width="41" height="30" viewBox="0 0 41 30" fill="none"><path d="M11.3517 28.456C13.8958 28.456 16.4288 27.4004 18.2376 25.3334C21.0721 22.0932 28.5351 20.1291 31.7042 19.6841C36.6931 18.9853 40.1893 14.3769 39.5092 9.38591C38.8254 4.39496 34.2556 0.886213 29.2594 1.55927C27.5756 1.78363 12.5869 4.01982 4.47683 13.2919C1.15337 17.0912 1.5357 22.8729 5.33709 26.1977C7.06867 27.7093 9.2157 28.456 11.3517 28.456Z" fill="white"></path><path d="M11.3535 29.7583C14.3681 29.7583 17.2357 28.4563 19.2209 26.187C21.7871 23.252 28.9928 21.3763 31.8861 20.9717C37.5808 20.1736 41.5808 14.8921 40.8014 9.20231C40.022 3.5052 34.7721 -0.507423 29.081 0.257587C27.3494 0.489296 11.9123 2.79536 3.49333 12.4242C1.65513 14.5243 0.747055 17.2165 0.930874 20.0007C1.11469 22.7849 2.3757 25.3337 4.47492 27.1727C6.38297 28.8388 8.8241 29.7583 11.3535 29.7583ZM30.4744 2.77697C34.3162 2.77697 37.6801 5.63472 38.2169 9.55907C38.8014 13.8291 35.7978 17.7866 31.5258 18.3861C28.8788 18.7576 20.5812 20.6701 17.2578 24.4694C15.7688 26.1686 13.6181 27.1469 11.3571 27.1469C9.4601 27.1469 7.62927 26.4591 6.20283 25.205C4.62566 23.8258 3.68081 21.9169 3.54478 19.8279C3.40508 17.7388 4.08891 15.7196 5.46755 14.1418C13.2615 5.23015 27.8053 3.06385 29.4376 2.84317C29.7832 2.79904 30.1288 2.77697 30.4744 2.77697Z" fill="#243250"></path></svg>