<svg xmlns="http://www.w3.org/2000/svg" width="38" height="26" viewBox="0 0 38 26" fill="none"><path fill-rule="evenodd" clip-rule="evenodd" d="M25.7019 10.6842C25.6015 10.6842 25.5007 10.6585 25.4087 10.6037C25.1473 10.4476 25.0665 10.1165 25.2287 9.8648C26.3298 8.15474 27.4762 6.6419 29.7528 5.36474C21.8418 7.15363 6.88944 20.4991 6.72825 20.6433C6.62034 20.7401 6.48391 20.7877 6.34803 20.7877C6.19763 20.7877 6.04833 20.7298 5.93818 20.6147C5.7285 20.3957 5.74136 20.054 5.96782 19.8507C6.59078 19.2919 19.4318 7.8332 27.8562 4.81127C25.9169 4.40033 24.4766 3.42679 23.3065 1.84833C23.1282 1.60686 23.1862 1.27201 23.4369 1.09976C23.6872 0.928039 24.0355 0.98331 24.2144 1.22479C26.0279 3.67228 28.6088 4.85498 35.8655 3.19416C35.8662 3.19416 35.8668 3.19397 35.8674 3.19382L35.8683 3.19362C36.1698 3.12547 36.468 3.30309 36.5393 3.59125C36.6106 3.87941 36.4256 4.16865 36.1263 4.23734L36.1185 4.23895C29.6326 5.72536 27.906 7.74303 26.1761 10.4304C26.0708 10.5941 25.8886 10.6842 25.7019 10.6842ZM16.1704 25.0018C13.7543 25.0018 11.2683 24.877 9.33264 24.7058C5.45067 24.3635 3.19788 23.858 2.6358 23.2029C0.683912 20.9277 0.515568 9.13436 1.93447 7.42352C3.26388 5.81961 8.13634 5.82933 13.0099 5.97514L13.926 6.00052C14.2347 6.00862 14.4792 6.2565 14.4713 6.5546C14.4629 6.84838 14.2146 7.0806 13.912 7.0806H13.8981L12.9747 7.05467C10.2583 6.97205 3.89922 6.7825 2.80694 8.09857C1.57317 9.58638 2.11511 20.9029 3.4971 22.5144C3.90985 22.9464 7.56196 23.6598 13.3432 23.8699C18.6536 24.0648 22.9813 23.696 23.87 22.9783C24.8958 22.1498 24.5831 18.5084 24.1452 16.4076C24.0843 16.1154 24.28 15.8308 24.5831 15.7714C24.8863 15.7142 25.1804 15.9021 25.242 16.1943C25.3712 16.8148 26.4539 22.2989 24.5876 23.8061C23.4791 24.7021 19.9087 25.0018 16.1704 25.0018Z" fill="#101828"></path><path d="M25.4087 10.6037L25.1523 11.033L25.153 11.0334L25.4087 10.6037ZM25.2287 9.8648L25.649 10.1356L25.6491 10.1355L25.2287 9.8648ZM29.7528 5.36474L29.9974 5.80081L29.6425 4.87706L29.7528 5.36474ZM6.72825 20.6433L6.3948 20.2708L6.39442 20.2711L6.72825 20.6433ZM5.93818 20.6147L6.29952 20.2691L6.29932 20.2689L5.93818 20.6147ZM5.96782 19.8507L5.63396 19.4785L5.6338 19.4786L5.96782 19.8507ZM27.8562 4.81127L28.025 5.28191L29.6827 4.68724L27.9598 4.32213L27.8562 4.81127ZM23.3065 1.84833L22.9043 2.14537L22.9049 2.14608L23.3065 1.84833ZM23.4369 1.09976L23.154 0.68749L23.1539 0.687608L23.4369 1.09976ZM24.2144 1.22479L23.8126 1.52243L23.8127 1.52246L24.2144 1.22479ZM35.8655 3.19416V2.69416H35.809L35.754 2.70676L35.8655 3.19416ZM35.8674 3.19382L35.7632 2.70478L35.7474 2.70816L35.7318 2.71255L35.8674 3.19382ZM35.8683 3.19362L35.9724 3.6827L35.9785 3.68132L35.8683 3.19362ZM36.1263 4.23734L36.2274 4.72715L36.2382 4.72466L36.1263 4.23734ZM36.1185 4.23895L36.0175 3.74914L36.0068 3.75158L36.1185 4.23895ZM26.1761 10.4304L25.7557 10.1598L25.7557 10.1598L26.1761 10.4304ZM9.33264 24.7058L9.37669 24.2078L9.37657 24.2078L9.33264 24.7058ZM2.6358 23.2029L2.25632 23.5285L2.25635 23.5285L2.6358 23.2029ZM1.93447 7.42352L2.31933 7.74271L2.31942 7.74259L1.93447 7.42352ZM13.0099 5.97514L12.995 6.47491L12.9961 6.47495L13.0099 5.97514ZM13.926 6.00052L13.9122 6.50033L13.9129 6.50035L13.926 6.00052ZM14.4713 6.5546L14.9711 6.56887L14.9711 6.56773L14.4713 6.5546ZM13.8981 7.0806L13.884 7.5806H13.8981V7.0806ZM12.9747 7.05467L12.9595 7.55444L12.9607 7.55448L12.9747 7.05467ZM2.80694 8.09857L2.42219 7.77925L2.42206 7.7794L2.80694 8.09857ZM3.4971 22.5144L3.11755 22.8399L3.12629 22.85L3.13557 22.8598L3.4971 22.5144ZM13.3432 23.8699L13.3616 23.3702L13.3614 23.3702L13.3432 23.8699ZM23.87 22.9783L24.1842 23.3672L24.1842 23.3672L23.87 22.9783ZM24.1452 16.4076L24.6347 16.3056L24.6347 16.3055L24.1452 16.4076ZM24.5831 15.7714L24.4903 15.2801L24.487 15.2808L24.5831 15.7714ZM25.242 16.1943L25.7315 16.0924L25.7312 16.0913L25.242 16.1943ZM24.5876 23.8061L24.2735 23.4171L24.2733 23.4173L24.5876 23.8061ZM25.153 11.0334C25.3253 11.1359 25.515 11.1842 25.7019 11.1842V10.1842C25.688 10.1842 25.6761 10.181 25.6644 10.1741L25.153 11.0334ZM24.8084 9.59396C24.4883 10.0907 24.6557 10.7363 25.1523 11.033L25.6651 10.1745C25.6573 10.1698 25.653 10.1652 25.6505 10.1619C25.6479 10.1583 25.6464 10.1547 25.6456 10.1517C25.6449 10.1486 25.6449 10.1462 25.6452 10.1444C25.6455 10.1429 25.6461 10.1401 25.649 10.1356L24.8084 9.59396ZM29.5082 4.92867C27.1289 6.26343 25.9288 7.85401 24.8083 9.59411L25.6491 10.1355C26.7308 8.45547 27.8235 7.02037 29.9974 5.80081L29.5082 4.92867ZM29.6425 4.87706C27.5853 5.34226 25.1122 6.54543 22.5838 8.05729C20.0461 9.57476 17.4147 11.4266 15.0334 13.2215C10.2703 16.8116 6.48009 20.1944 6.3948 20.2708L7.06171 21.0159C7.13761 20.948 10.9042 17.586 15.6353 14.0201C18.0011 12.2369 20.6012 10.408 23.097 8.91555C25.6023 7.41751 27.9648 6.28167 29.8631 5.85243L29.6425 4.87706ZM6.39442 20.2711C6.38339 20.281 6.36779 20.2877 6.34803 20.2877V21.2877C6.60003 21.2877 6.85729 21.1992 7.06209 21.0156L6.39442 20.2711ZM6.34803 20.2877C6.32509 20.2877 6.3093 20.2793 6.29952 20.2691L5.57685 20.9603C5.78737 21.1804 6.07016 21.2877 6.34803 21.2877V20.2877ZM6.29932 20.2689C6.29401 20.2633 6.29179 20.2589 6.2907 20.256C6.28948 20.2528 6.28895 20.2494 6.28908 20.246C6.28921 20.2426 6.29001 20.2392 6.29156 20.2358C6.29298 20.2328 6.29573 20.2282 6.30184 20.2227L5.6338 19.4786C5.19764 19.8702 5.17159 20.537 5.57705 20.9605L6.29932 20.2689ZM6.30167 20.2229C6.60836 19.9478 9.96339 16.9531 14.2898 13.6522C18.6309 10.3399 23.893 6.76409 28.025 5.28191L27.6873 4.34063C23.3949 5.88038 18.0243 9.54488 13.6832 12.8572C9.32719 16.1807 5.95024 19.1948 5.63396 19.4785L6.30167 20.2229ZM22.9049 2.14608C24.143 3.81645 25.6867 4.86264 27.7525 5.30041L27.9598 4.32213C26.1472 3.93802 24.8101 3.03714 23.7082 1.55059L22.9049 2.14608ZM23.1539 0.687608C22.6745 1.01688 22.5547 1.67195 22.9043 2.14537L23.7087 1.55129C23.705 1.54627 23.704 1.54291 23.7036 1.54112C23.7031 1.53897 23.7029 1.53652 23.7034 1.53373C23.7039 1.53094 23.705 1.52778 23.7071 1.52449C23.7091 1.52147 23.7127 1.51694 23.72 1.5119L23.1539 0.687608ZM24.6162 0.927146C24.2732 0.464201 23.6207 0.367229 23.154 0.68749L23.7199 1.51202C23.7337 1.50253 23.7525 1.49769 23.7734 1.50103C23.794 1.50434 23.8063 1.51382 23.8126 1.52243L24.6162 0.927146ZM35.754 2.70676C32.1511 3.53134 29.7779 3.63203 28.1069 3.26192C26.4701 2.8994 25.4677 2.0764 24.6161 0.927117L23.8127 1.52246C24.7746 2.82066 25.9694 3.81276 27.8906 4.23826C29.7775 4.65617 32.3232 4.51779 35.9771 3.68156L35.754 2.70676ZM35.7318 2.71255C35.7293 2.71326 35.7452 2.70858 35.7644 2.70458C35.7845 2.70039 35.8203 2.69416 35.8655 2.69416V3.69416C35.9114 3.69416 35.9479 3.68783 35.9686 3.68351C35.9795 3.68123 35.9883 3.67901 35.9939 3.67754C35.9968 3.6768 35.9991 3.67616 36.0006 3.67575C36.0013 3.67555 36.0019 3.67538 36.0023 3.67527C36.0025 3.67521 36.0027 3.67517 36.0028 3.67514C36.0028 3.67513 36.0029 3.67511 36.0029 3.67511C36.0029 3.6751 36.0029 3.6751 36.0029 3.6751C36.0029 3.67509 36.0029 3.67509 36.0029 3.67509C36.0029 3.67509 36.0029 3.67509 36.0029 3.67509L35.7318 2.71255ZM35.7642 2.70458L35.7632 2.70478L35.9715 3.68286L35.9724 3.68266L35.7642 2.70458ZM37.0247 3.4711C36.8841 2.90326 36.3092 2.58135 35.7581 2.70592L35.9785 3.68132C36.0019 3.67604 36.0213 3.68073 36.0349 3.68878C36.0482 3.6967 36.0524 3.70522 36.054 3.7114L37.0247 3.4711ZM36.2382 4.72466C36.7934 4.59723 37.1671 4.04665 37.0247 3.4711L36.054 3.7114C36.0548 3.71484 36.0546 3.71672 36.0544 3.71816C36.0541 3.72001 36.0531 3.72321 36.0505 3.72727C36.0455 3.7351 36.0349 3.74532 36.0145 3.75001L36.2382 4.72466ZM36.2195 4.72864L36.2273 4.72703L36.0253 3.74764L36.0175 3.74925L36.2195 4.72864ZM26.5966 10.701C27.45 9.37524 28.2721 8.26363 29.6515 7.29326C31.0376 6.3181 33.0222 5.46151 36.2302 4.72631L36.0068 3.75158C32.7289 4.5028 30.6072 5.39825 29.0761 6.47537C27.5382 7.55728 26.6322 8.79819 25.7557 10.1598L26.5966 10.701ZM25.7019 11.1842C26.0456 11.1842 26.3924 11.0182 26.5966 10.701L25.7557 10.1598C25.7492 10.1699 25.7315 10.1842 25.7019 10.1842V11.1842ZM9.28859 25.2039C11.2383 25.3763 13.739 25.5018 16.1704 25.5018V24.5018C13.7697 24.5018 11.2984 24.3777 9.37669 24.2078L9.28859 25.2039ZM2.25635 23.5285C2.47354 23.7816 2.80658 23.9729 3.18262 24.1281C3.56952 24.2878 4.05518 24.4306 4.62978 24.5595C5.77981 24.8176 7.33854 25.0319 9.28871 25.2039L9.37657 24.2078C7.44477 24.0374 5.93612 23.8278 4.84875 23.5838C4.30464 23.4617 3.8791 23.3338 3.5642 23.2038C3.23844 23.0693 3.07911 22.9517 3.01526 22.8773L2.25635 23.5285ZM1.5496 7.10433C1.29842 7.4072 1.12413 7.86947 0.993207 8.37378C0.857724 8.89566 0.752167 9.5311 0.674015 10.2357C0.517555 11.6464 0.466429 13.3765 0.521337 15.1174C0.57624 16.858 0.737642 18.6252 1.01154 20.1089C1.14845 20.8505 1.31516 21.5308 1.5147 22.1058C1.71143 22.6726 1.95249 23.1743 2.25632 23.5285L3.01529 22.8773C2.83115 22.6627 2.63997 22.2981 2.45943 21.7779C2.2817 21.2658 2.12612 20.638 1.99493 19.9274C1.73263 18.5065 1.57465 16.7918 1.52084 15.0858C1.46704 13.3801 1.51788 11.6988 1.66792 10.346C1.74302 9.66886 1.84185 9.08449 1.96112 8.62506C2.08495 8.14807 2.21579 7.86755 2.31933 7.74271L1.5496 7.10433ZM13.0249 5.47536C10.5901 5.40251 8.12548 5.36232 6.09821 5.5452C5.08452 5.63665 4.15988 5.78543 3.39294 6.02233C2.63518 6.25638 1.97253 6.59407 1.54951 7.10445L2.31942 7.74259C2.5611 7.45101 3.00604 7.18845 3.68807 6.97778C4.36091 6.76996 5.20825 6.62955 6.18805 6.54116C8.14776 6.36437 10.5562 6.40195 12.995 6.47491L13.0249 5.47536ZM13.9399 5.50071L13.0238 5.47533L12.9961 6.47495L13.9122 6.50033L13.9399 5.50071ZM14.9711 6.56773C14.9867 5.97625 14.5063 5.51557 13.9391 5.50069L13.9129 6.50035C13.9353 6.50093 13.9513 6.50971 13.9611 6.51963C13.9705 6.52919 13.9716 6.53652 13.9715 6.54147L14.9711 6.56773ZM13.912 7.5806C14.469 7.5806 14.9545 7.14902 14.9711 6.56887L13.9715 6.54033C13.9713 6.54659 13.9693 6.55427 13.9598 6.56324C13.9498 6.5726 13.9338 6.5806 13.912 6.5806V7.5806ZM13.8981 7.5806H13.912V6.5806H13.8981V7.5806ZM12.9607 7.55448L13.884 7.5804L13.9121 6.58079L12.9887 6.55487L12.9607 7.55448ZM3.19169 8.41789C3.25564 8.34084 3.39193 8.23877 3.64163 8.13262C3.88487 8.02922 4.19927 7.93715 4.57701 7.85799C5.33234 7.69971 6.28504 7.6043 7.30757 7.55144C9.34985 7.44587 11.5989 7.51306 12.9595 7.55444L12.9899 6.55491C11.6341 6.51367 9.34535 6.44477 7.25594 6.55278C6.21262 6.60671 5.20099 6.70551 4.37191 6.87925C3.95744 6.96611 3.57463 7.0745 3.25042 7.21232C2.93269 7.34739 2.63132 7.52728 2.42219 7.77925L3.19169 8.41789ZM3.87664 22.1889C3.77436 22.0696 3.63881 21.8005 3.49763 21.3452C3.36167 20.9067 3.23633 20.3497 3.12548 19.7064C2.90399 18.421 2.74686 16.8301 2.67054 15.2362C2.59421 13.642 2.59942 12.0596 2.69842 10.791C2.748 10.1558 2.82026 9.61068 2.91391 9.18697C3.01263 8.7403 3.11976 8.50464 3.19183 8.41774L2.42206 7.7794C2.18568 8.06445 2.03986 8.50789 1.93747 8.97116C1.83 9.4574 1.75298 10.0531 1.70146 10.7132C1.59827 12.0353 1.594 13.6616 1.67168 15.284C1.74938 16.9066 1.90974 18.54 2.14 19.8762C2.25501 20.5436 2.38911 21.1467 2.54249 21.6414C2.69065 22.1192 2.87434 22.5563 3.11755 22.8399L3.87664 22.1889ZM13.3614 23.3702C10.4861 23.2657 8.14739 23.0363 6.48272 22.7811C5.64929 22.6534 4.99266 22.5204 4.52557 22.3958C4.29129 22.3333 4.11405 22.2753 3.9899 22.2249C3.8459 22.1663 3.83125 22.1403 3.85863 22.169L3.13557 22.8598C3.26614 22.9964 3.4559 23.0872 3.61321 23.1512C3.79037 23.2232 4.01133 23.2936 4.26782 23.362C4.78225 23.4992 5.47737 23.6387 6.33122 23.7696C8.04112 24.0317 10.4191 24.2639 13.3251 24.3695L13.3614 23.3702ZM23.5559 22.5893C23.4348 22.6871 23.1046 22.8267 22.4916 22.959C21.9064 23.0853 21.1393 23.1903 20.2225 23.2681C18.3909 23.4235 16.0024 23.4671 13.3616 23.3702L13.3249 24.3695C15.9945 24.4675 18.425 24.4242 20.3071 24.2645C21.2471 24.1847 22.0604 24.0751 22.7026 23.9365C23.3169 23.8039 23.8609 23.6283 24.1842 23.3672L23.5559 22.5893ZM23.6557 16.5096C23.8693 17.534 24.052 18.9355 24.0565 20.1719C24.0588 20.7912 24.0161 21.3492 23.9191 21.79C23.8176 22.2507 23.676 22.4922 23.5559 22.5893L24.1842 23.3672C24.5769 23.0501 24.7809 22.5258 24.8956 22.0051C25.0147 21.4644 25.0589 20.8254 25.0565 20.1682C25.0517 18.8516 24.8591 17.3819 24.6347 16.3056L23.6557 16.5096ZM24.487 15.2808C23.9265 15.3906 23.5346 15.9293 23.6558 16.5097L24.6347 16.3055C24.6335 16.2999 24.6337 16.2941 24.6395 16.2857C24.6456 16.2769 24.6577 16.2663 24.6793 16.2621L24.487 15.2808ZM25.7312 16.0913C25.6102 15.5163 25.0438 15.1756 24.4904 15.2801L24.6759 16.2628C24.699 16.2584 24.719 16.2636 24.7334 16.2728C24.7473 16.2817 24.7513 16.2909 24.7527 16.2973L25.7312 16.0913ZM24.9018 24.1951C25.4985 23.7132 25.8154 22.9549 25.9841 22.1737C26.1551 21.3819 26.1903 20.4903 26.1628 19.6513C26.1079 17.9713 25.7981 16.4122 25.7315 16.0924L24.7525 16.2962C24.8151 16.5969 25.1112 18.09 25.1634 19.684C25.1895 20.4821 25.1535 21.2829 25.0066 21.9626C24.8575 22.653 24.6099 23.1455 24.2735 23.4171L24.9018 24.1951ZM16.1704 25.5018C18.0497 25.5018 19.8998 25.4266 21.4271 25.2361C22.1904 25.1409 22.884 25.0155 23.4656 24.8523C24.0368 24.692 24.5456 24.4829 24.9019 24.195L24.2733 23.4173C24.0753 23.5773 23.7222 23.7417 23.1954 23.8895C22.6788 24.0345 22.0384 24.1521 21.3033 24.2438C19.8336 24.4271 18.0294 24.5018 16.1704 24.5018V25.5018Z" fill="#101828"></path></svg>