<svg xmlns="http://www.w3.org/2000/svg" width="128" height="151" viewBox="0 0 128 151" fill="none"><path d="M38.4498 135.881C17.3112 127.626 11.5415 91.8032 25.5628 55.8682C39.584 19.9331 68.0867 -2.50613 89.2252 5.74867C110.364 14.0035 116.134 49.8264 102.112 85.7615C88.091 121.697 59.5884 144.136 38.4498 135.881Z" fill="#304163"></path><path d="M47.7441 138.904C56.0123 138.904 64.9643 135.34 73.7619 128.415C85.9675 118.808 96.471 103.828 103.335 86.2326C110.199 68.6411 112.621 50.5052 110.151 35.1646C107.64 19.5775 100.379 8.69454 89.7064 4.52745C79.0339 0.364035 66.3246 3.44246 53.9204 13.2037C41.7148 22.8104 31.215 37.7906 24.3475 55.3859C10.0868 91.9334 16.2006 128.588 37.9759 137.091C41.0788 138.305 44.3581 138.904 47.7441 138.904ZM79.9382 5.33292C83.008 5.33292 85.9639 5.86989 88.7543 6.96224C98.5298 10.7799 105.21 20.942 107.57 35.5802C109.967 50.4648 107.599 68.1152 100.901 85.2837C94.2027 102.449 83.9896 117.039 72.148 126.363C60.5011 135.528 48.7036 138.478 38.9281 134.66C18.4947 126.679 13.0463 91.5472 26.7813 56.3384C33.4797 39.1735 43.689 24.5832 55.5343 15.2596C63.8577 8.70926 72.2546 5.33292 79.9382 5.33292Z" fill="#304163"></path></svg>