<svg xmlns="http://www.w3.org/2000/svg" width="41" height="31" viewBox="0 0 41 31" fill="none"><path d="M11.219 29.0721C13.7631 29.0721 16.2961 28.0165 18.1049 25.9495C20.9615 22.6872 28.5275 20.7048 31.5421 20.3039C36.5457 19.6382 40.064 15.0371 39.3949 10.0315C38.7295 5.02579 34.134 1.50602 29.1231 2.17541C27.4393 2.39976 12.4506 4.63594 4.34051 13.908C1.01705 17.7073 1.3994 23.489 5.20079 26.8138C6.93973 28.3292 9.08307 29.0721 11.219 29.0721Z" fill="white"></path><path d="M11.2247 30.3788C14.2393 30.3788 17.1069 29.0768 19.0921 26.8075C21.559 23.9865 28.5331 22.0225 31.7206 21.5959C34.4852 21.2281 36.9447 19.8047 38.6395 17.5833C40.3344 15.3655 41.0659 12.6217 40.6946 9.85226C40.327 7.08278 38.9042 4.62592 36.6873 2.93039C34.4705 1.23487 31.7242 0.50664 28.9559 0.874433C27.2243 1.10614 11.7872 3.4122 3.36453 13.041C1.52634 15.1411 0.618256 17.8334 0.802074 20.6176C0.985893 23.4017 2.2469 25.9505 4.34612 27.7895C6.2505 29.463 8.6953 30.3788 11.2247 30.3788ZM30.3566 3.39749C32.0661 3.39749 33.7168 3.95286 35.0992 5.0121C36.7609 6.28467 37.827 8.12731 38.1065 10.2053C38.3822 12.2797 37.8344 14.3393 36.5624 16.0018C35.2903 17.6642 33.4485 18.7345 31.375 19.0103C28.0773 19.4517 20.2539 21.515 17.129 25.0899C15.64 26.7891 13.4893 27.7674 11.2283 27.7674C9.3313 27.7674 7.50047 27.0797 6.07403 25.8255C4.49686 24.4463 3.55201 22.5374 3.41599 20.4484C3.27628 18.3593 3.96011 16.3401 5.33875 14.7623C13.1327 5.85067 27.6765 3.68437 29.3088 3.4637C29.6544 3.41956 30.0074 3.39749 30.3566 3.39749Z" fill="#243250"></path></svg>