<svg xmlns="http://www.w3.org/2000/svg" width="51" height="32" viewBox="0 0 51 32" fill="none"><path d="M43.4286 11.8601C43.4286 11.8601 40.026 5.11713 33.0355 5.3645C33.0355 5.3645 28.7051 -0.88344 21.2817 0.106292C13.8583 1.09603 10.394 7.035 9.77549 9.19989C9.77549 9.19989 1.04938 11.6996 1.67247 18.9197C1.88206 21.3479 3.10751 23.5705 5.00859 25.0958C7.45351 27.0574 11.7606 29.1613 16.8277 25.7172C16.8277 25.7172 17.8703 26.8504 20.8105 27.4536V24.6093L14.4055 18.3208V16.6174C13.6688 16.3853 13.1392 15.6867 13.1642 14.8676C13.1928 13.9248 13.9693 13.1614 14.9124 13.1475C15.9056 13.1327 16.7153 13.9336 16.7153 14.9233C16.7153 15.7182 16.193 16.3907 15.4731 16.6174V17.8729L21.8781 24.1615V27.635C22.1851 27.6771 22.5077 27.7134 22.8485 27.7424V22.3936L18.3068 17.8519V13.8012C17.5951 13.5493 17.091 12.8583 17.1242 12.0529C17.1631 11.1186 17.935 10.3674 18.87 10.3529C19.864 10.3373 20.6745 11.1382 20.6745 12.1288C20.6745 12.9447 20.1235 13.6303 19.374 13.8384V17.4103L23.9157 21.952V27.806C24.1958 27.8159 24.4877 27.8202 24.7876 27.8202V18.4213L27.4677 15.7037V8.82475C27.4424 8.81677 27.4166 8.80941 27.3916 8.8003C27.389 8.79945 27.3868 8.79863 27.3842 8.79777C27.1652 8.71652 26.9673 8.59358 26.7986 8.43851C26.7924 8.43256 26.7858 8.42715 26.7796 8.42119C26.7526 8.39561 26.7268 8.36891 26.7015 8.34193C26.6913 8.33087 26.681 8.31977 26.6711 8.30844C26.6484 8.28287 26.6262 8.25674 26.6052 8.22976C26.5939 8.21528 26.583 8.20053 26.5722 8.18573C26.5529 8.15988 26.5339 8.13376 26.516 8.10678C26.5047 8.08918 26.4942 8.071 26.4834 8.05282C26.4601 8.01393 26.4373 7.97473 26.4172 7.93412C26.4018 7.90344 26.3862 7.87335 26.3726 7.84181C26.3632 7.82052 26.3553 7.79837 26.3468 7.77649C26.3357 7.74811 26.3249 7.71941 26.3152 7.69018C26.3079 7.6683 26.3016 7.64587 26.2951 7.62341C26.2863 7.59304 26.2786 7.56237 26.2715 7.53142C26.2664 7.50926 26.2616 7.48711 26.2573 7.46469C26.2508 7.43031 26.2459 7.39539 26.2414 7.36016C26.2388 7.34057 26.2357 7.32095 26.234 7.3011C26.2292 7.24967 26.2263 7.19742 26.2261 7.14491C26.2261 7.14148 26.2255 7.13778 26.2255 7.13439C26.2255 6.15344 27.0207 5.35854 28.0013 5.35854C28.4918 5.35854 28.9357 5.55733 29.2572 5.87882C29.2972 5.91888 29.3356 5.9612 29.3719 6.00492C29.4443 6.09267 29.5085 6.18755 29.563 6.28807C29.6996 6.53968 29.7775 6.82797 29.7775 7.13467C29.7775 7.19061 29.774 7.24543 29.7692 7.29997C29.7675 7.31729 29.765 7.33462 29.763 7.35163C29.7584 7.38885 29.7531 7.42576 29.7462 7.46239C29.7425 7.48143 29.7388 7.50074 29.7346 7.5195C29.7266 7.55497 29.7175 7.58993 29.7076 7.62458C29.7028 7.64159 29.6982 7.65923 29.6928 7.67597C29.6775 7.72397 29.6604 7.77112 29.6411 7.81713C29.6335 7.83559 29.6244 7.85318 29.6161 7.87109C29.6034 7.8992 29.59 7.92758 29.5758 7.95487C29.5636 7.97815 29.5505 8.00085 29.5372 8.02386C29.5253 8.0443 29.513 8.06446 29.5003 8.08436C29.4847 8.10877 29.4687 8.13322 29.452 8.15704C29.4208 8.20135 29.3824 8.24082 29.3668 8.29482C29.3475 8.36209 29.2975 8.41835 29.2291 8.43225C29.2001 8.4382 29.1864 8.45526 29.1697 8.46974C29.139 8.49644 29.1075 8.52229 29.0748 8.54671C29.0706 8.55013 29.0663 8.55325 29.0621 8.55636C28.9206 8.66171 28.763 8.74693 28.5935 8.80712C28.5744 8.81393 28.5546 8.81907 28.5352 8.8253V16.1422L25.8552 18.8598V27.8577C26.0463 27.8639 26.2644 27.8699 26.5069 27.8747V21.9523L31.0486 17.4105V12.92C30.2713 12.7041 29.7076 11.9748 29.7505 11.1192C29.7959 10.2127 30.5323 9.4788 31.4389 9.43648C32.4584 9.38875 33.3002 10.2013 33.3002 11.2103C33.3002 11.9834 32.8055 12.6391 32.1162 12.8831V17.8525L27.5745 22.3941V27.8864C27.8803 27.887 28.2053 27.8852 28.5449 27.8804V24.162L34.9499 17.8735V16.6179C34.2132 16.3859 33.6836 15.6873 33.7085 14.8685C33.7372 13.9256 34.5134 13.1622 35.4566 13.148C36.4497 13.1333 37.2597 13.9339 37.2597 14.9239C37.2597 15.7188 36.7374 16.3913 36.0174 16.6179V18.3213L29.6125 24.6099V27.854C32.215 27.7637 35.3395 27.4567 37.3656 26.584C37.3656 26.584 46.7502 30.1672 48.7766 20.5908C49.0724 19.1924 49.0273 17.7394 48.6072 16.3731C48.0411 14.5303 46.6786 12.3969 43.4282 11.8607L43.4286 11.8601ZM5.85577 17.0482C5.85577 17.0482 5.97222 11.7493 12.6683 11.2836C12.6683 11.2836 7.31126 12.2151 5.85577 17.0482ZM13.0761 10.3521C13.0761 10.3521 16.2785 -0.362021 27.5748 4.58751C27.5748 4.58751 17.1524 2.14199 13.0761 10.3521Z" fill="url(#paint0_linear_1441_1370)"></path><defs><linearGradient id="paint0_linear_1441_1370" x1="14.3003" y1="10.6068" x2="41.7417" y2="24.3678" gradientUnits="userSpaceOnUse"><stop stop-color="#A06CFF"></stop><stop offset="1" stop-color="#693FE5"></stop></linearGradient></defs></svg>