<svg xmlns="http://www.w3.org/2000/svg" width="32" height="32" viewBox="0 0 32 32" fill="none"><path fill-rule="evenodd" clip-rule="evenodd" d="M30.64 8.12C29.772 6.576 28.83 6.292 26.912 6.184C24.996 6.054 20.178 6 16.004 6C11.822 6 7.002 6.054 5.088 6.182C3.174 6.292 2.23 6.574 1.354 8.12C0.46 9.662 0 12.318 0 16.994V17.01C0 21.666 0.46 24.342 1.354 25.868C2.23 27.412 3.172 27.692 5.086 27.822C7.002 27.934 11.822 28 16.004 28C20.178 28 24.996 27.934 26.914 27.824C28.832 27.694 29.774 27.414 30.642 25.87C31.544 24.344 32 21.668 32 17.012V16.996C32 12.318 31.544 9.662 30.64 8.12Z" fill="#F44336"></path><path fill-rule="evenodd" clip-rule="evenodd" d="M12 23V11L22 17L12 23Z" fill="#FAFAFA"></path></svg>