<svg xmlns="http://www.w3.org/2000/svg" width="80" height="80" viewBox="0 0 80 80" fill="none"><path d="M65.1755 35.9531V55.3817H63.7698C62.5583 55.3817 61.4269 55.9646 60.7298 56.9588C58.1126 60.6846 50.5012 69.7931 38.0555 71.0731C38.0555 71.0731 38.2726 59.5417 38.5926 59.5417C38.9126 59.5417 39.6555 44.7874 39.6555 44.7874L34.5355 49.0731C33.3012 50.1131 31.5069 50.0903 30.2955 49.0388C29.5412 48.3874 29.1641 47.4731 29.1641 46.5703C29.1641 45.6331 29.5526 44.7074 30.3412 44.056L36.9126 38.9017C38.4441 37.7131 40.2841 36.9817 42.2155 36.8103L51.8269 35.9531H65.1755Z" fill="#FFC6CD"></path><path d="M38.0566 71.6421C37.9195 71.6421 37.7709 71.5849 37.668 71.4935C37.5537 71.3792 37.4852 71.2306 37.4852 71.0592C37.6452 62.6249 37.7823 60.0649 38.0909 59.2992C38.308 58.6135 38.7423 51.2992 39.0166 46.0649L34.9023 49.5049C33.4509 50.7278 31.3595 50.7049 29.9195 49.4592C29.0737 48.7278 28.5938 47.6763 28.5938 46.5563C28.5938 45.4021 29.0966 44.3278 29.9766 43.5963L36.5709 38.4535C38.2052 37.1849 40.1366 36.4192 42.1823 36.2478L51.7937 35.3906H65.188C65.508 35.3906 65.7595 35.6421 65.7595 35.9621V55.3906C65.7595 55.7106 65.508 55.9621 65.188 55.9621H63.7709C62.7423 55.9621 61.7823 56.4649 61.1995 57.2992C58.468 61.1849 50.7652 70.3506 38.1137 71.6535C38.1023 71.6421 38.0795 71.6421 38.0566 71.6421ZM39.0852 59.7678L39.0966 59.7792C38.9252 60.3506 38.7423 65.5735 38.6395 70.4306C50.4338 68.9449 57.668 60.3163 60.2623 56.6249C61.0623 55.4821 62.3766 54.8078 63.7709 54.8078H64.6052V36.5221H51.828L42.2623 37.3792C40.4452 37.5392 38.7195 38.2249 37.2566 39.3563L30.6852 44.5106C30.068 45.0135 29.7252 45.7563 29.7252 46.5792C29.7252 47.3563 30.068 48.0992 30.6623 48.6135C31.668 49.4935 33.1423 49.5049 34.1595 48.6478L39.2795 44.3621C39.4509 44.2135 39.7023 44.1906 39.8966 44.2935C40.1023 44.3963 40.228 44.6021 40.2166 44.8306C39.6795 55.8135 39.4395 58.8992 39.0852 59.7678Z" fill="#101828"></path><path d="M75.8233 35.6695V53.9209C75.8233 55.3266 74.669 56.4809 73.2633 56.4809H67.7319C66.3262 56.4809 65.1719 55.3266 65.1719 53.9209V35.6695C65.1719 34.2523 66.3262 33.1095 67.7319 33.1095H73.2633C74.6804 33.098 75.8233 34.2409 75.8233 35.6695Z" fill="#7047EA"></path><path d="M73.2722 57.0455H67.7408C66.0151 57.0455 64.6094 55.6398 64.6094 53.9141V35.6627C64.6094 33.937 66.0151 32.5312 67.7408 32.5312H73.2722C74.9979 32.5312 76.4037 33.937 76.4037 35.6627V53.9141C76.4037 55.6398 74.9979 57.0455 73.2722 57.0455ZM67.7408 33.6627C66.6437 33.6627 65.7522 34.5541 65.7522 35.6513V53.9027C65.7522 54.9998 66.6437 55.8912 67.7408 55.8912H73.2722C74.3694 55.8912 75.2608 54.9998 75.2608 53.9027V35.6627C75.2608 34.5655 74.3694 33.6741 73.2722 33.6741H67.7408V33.6627Z" fill="#101828"></path><path d="M57.3554 64.9308C56.8297 66.1765 55.2297 67.4451 52.6926 65.9479C52.6926 65.9479 53.3326 71.3765 47.8926 69.8565C47.8926 69.8565 47.3326 74.7022 42.0526 73.2622C42.0526 73.2622 41.1269 76.4622 38.1669 76.428C37.0469 76.4165 36.0069 75.8222 35.2983 74.9422L18.784 54.4965C18.0754 53.6279 17.0126 53.1137 15.8926 53.1137H13.0469V34.3594H22.7497C24.9783 34.3594 27.1954 34.5765 29.3783 35.0337L44.144 38.0851L39.6526 44.7937L56.9097 61.0337C57.904 61.9708 57.8926 63.6737 57.3554 64.9308Z" fill="#FFC6CD"></path><path d="M38.2293 76.9927C38.2179 76.9927 38.195 76.9927 38.1722 76.9927C36.9265 76.9813 35.7265 76.3641 34.8693 75.2898L18.355 54.8555C17.7493 54.1127 16.8579 53.6898 15.9093 53.6898H13.0636C12.7436 53.6898 12.4922 53.4384 12.4922 53.1184V34.3527C12.4922 34.0327 12.7436 33.7812 13.0636 33.7812H22.7665C25.0636 33.7812 27.3379 34.0098 29.5093 34.467L44.2751 37.5184C44.4579 37.5527 44.6179 37.6898 44.6865 37.8613C44.755 38.0327 44.7322 38.2384 44.6293 38.3984L40.4122 44.707L57.3036 60.6155C58.5493 61.7698 58.4808 63.7812 57.8979 65.1527C57.5208 66.0555 56.7893 66.7413 55.8979 67.0384C55.3151 67.2327 54.4351 67.3241 53.2922 66.8784C53.2351 67.7813 52.9722 69.0841 51.9893 69.9184C51.1208 70.6613 49.8979 70.8784 48.3436 70.5584C48.1379 71.3127 47.635 72.5698 46.4465 73.3813C45.3836 74.1013 44.035 74.2955 42.435 73.9527C41.8865 75.2098 40.5379 76.9927 38.2293 76.9927ZM13.6236 52.5355H15.8979C17.1893 52.5355 18.4008 53.1184 19.235 54.1241L35.7493 74.5698C36.3893 75.3698 37.2808 75.8384 38.1836 75.8384C40.6522 75.8613 41.4865 73.1984 41.5208 73.0841C41.6122 72.787 41.9208 72.6155 42.2179 72.6955C43.7036 73.107 44.9151 73.0041 45.795 72.4098C47.1093 71.5298 47.3379 69.7927 47.3379 69.7698C47.3608 69.6098 47.4522 69.4613 47.5893 69.3584C47.7265 69.2555 47.8979 69.2441 48.0579 69.2784C49.4979 69.6784 50.5608 69.5984 51.2351 69.0155C52.3551 68.0555 52.1379 65.9984 52.1379 65.9755C52.115 65.7584 52.2179 65.5527 52.3893 65.427C52.5608 65.3013 52.8008 65.3013 52.995 65.4155C53.9436 65.9755 54.8236 66.147 55.5322 65.907C56.1036 65.7241 56.5836 65.2555 56.835 64.6613C57.2808 63.6098 57.3151 62.1584 56.5151 61.4041L39.2693 45.2098C39.0636 45.0155 39.0293 44.707 39.1893 44.4784L43.2122 38.4784L29.2808 35.5984C27.1779 35.1527 24.995 34.9355 22.7665 34.9355H13.635V52.5355H13.6236Z" fill="#101828"></path><path d="M25.0155 55.8943C25.0155 56.7058 24.6955 57.5058 24.0669 58.1115L21.5984 60.5115C20.3641 61.6886 18.4212 61.6658 17.2441 60.4315C16.0555 59.1972 16.0898 57.2543 17.3241 56.0772L19.7926 53.6772C21.0041 52.5001 22.9698 52.5229 24.1469 53.7572C24.7184 54.3515 25.0155 55.1286 25.0155 55.8943Z" fill="#FFC6CD"></path><path d="M19.4514 61.9238C19.4285 61.9238 19.4057 61.9238 19.3942 61.9238C18.4228 61.9123 17.5085 61.5123 16.8342 60.8038C16.16 60.1066 15.7828 59.1809 15.8057 58.198C15.8285 57.2266 16.2285 56.3123 16.9257 55.638L19.3942 53.2495C20.0914 52.5638 21.0057 52.1866 22 52.2209C22.9714 52.2438 23.8857 52.6323 24.56 53.3409C25.2114 54.0038 25.5885 54.9295 25.5885 55.878C25.5885 56.8609 25.1771 57.8209 24.4685 58.5066L22 60.8952C21.3028 61.5695 20.4 61.9238 19.4514 61.9238ZM21.9314 53.3752C21.28 53.3752 20.6628 53.6266 20.1828 54.0838L17.7142 56.4838C17.2228 56.9523 16.9485 57.5695 16.9371 58.2438C16.9257 58.918 17.1771 59.5466 17.6457 60.038C18.1142 60.518 18.7314 60.7923 19.4057 60.8038C19.4171 60.8038 19.44 60.8038 19.4514 60.8038C20.1028 60.8038 20.72 60.5523 21.2 60.0952L23.6685 57.7066C24.16 57.238 24.4457 56.5752 24.4457 55.9009C24.4457 55.2609 24.1828 54.6209 23.7371 54.1638C23.2685 53.6838 22.6514 53.4095 21.9771 53.398C21.9657 53.3752 21.9428 53.3752 21.9314 53.3752Z" fill="#101828"></path><path d="M30.2623 59.373C30.2623 60.1844 29.9537 60.9844 29.3251 61.6016L24.8909 65.8759C23.6794 67.053 21.7137 67.0187 20.5366 65.7959C19.3594 64.5616 19.3823 62.6187 20.6166 61.4301L25.0394 57.1673C26.2737 55.9787 28.2166 56.013 29.4051 57.2359C29.988 57.8416 30.2623 58.6073 30.2623 59.373Z" fill="#FFC6CD"></path><path d="M22.7713 67.3219C22.7485 67.3219 22.7256 67.3219 22.7028 67.3219C21.7313 67.299 20.8171 66.9104 20.1428 66.2133C18.7485 64.7619 18.7942 62.4419 20.2342 61.0361L24.6571 56.7733C26.0971 55.379 28.4171 55.4133 29.8342 56.8533C30.4971 57.539 30.8513 58.4419 30.8513 59.3904C30.8513 60.3961 30.4628 61.3333 29.7428 62.0304L25.3085 66.2933C24.6228 66.9561 23.7313 67.3219 22.7713 67.3219ZM27.1942 56.8761C26.5656 56.8761 25.9256 57.1161 25.4456 57.5847L21.0228 61.8476C20.0285 62.8076 20.0056 64.4076 20.9656 65.4133C21.4228 65.8933 22.0513 66.1676 22.7256 66.179C23.3542 66.1904 24.0285 65.939 24.5085 65.4819L28.9428 61.2076C29.4342 60.7276 29.7085 60.0876 29.7085 59.3904C29.7085 58.739 29.457 58.1219 29.0113 57.6419C28.5085 57.139 27.8571 56.8761 27.1942 56.8761Z" fill="#101828"></path><path d="M33.5773 64.7537C33.5773 65.5651 33.2687 66.3651 32.6401 66.9709L30.1715 69.3709C28.9373 70.548 26.9944 70.5251 25.8058 69.2909C24.6287 68.0794 24.663 66.1137 25.8858 64.9366L28.3658 62.5366C29.5773 61.3594 31.5315 61.3823 32.7201 62.6166C33.2915 63.2109 33.5773 63.988 33.5773 64.7537Z" fill="#FFC6CD"></path><path d="M28.0217 70.7942C27.0617 70.7942 26.1017 70.417 25.3932 69.6856C24.7189 68.9885 24.3532 68.0628 24.376 67.0913C24.3989 66.1199 24.7874 65.2056 25.4846 64.5313L27.9646 62.1313C29.4046 60.737 31.7246 60.7713 33.1303 62.2228C33.7932 62.9085 34.1474 63.8113 34.1474 64.7599C34.1474 65.7656 33.7474 66.7028 33.0389 67.3885L30.5703 69.777C29.8503 70.4513 28.936 70.7942 28.0217 70.7942ZM30.4903 62.2342C29.8617 62.2342 29.2332 62.4628 28.7532 62.9313L26.2732 65.3313C25.7932 65.7999 25.5189 66.417 25.5074 67.0913C25.496 67.7656 25.7474 68.3942 26.2046 68.8742C27.1646 69.8685 28.7646 69.8913 29.7703 68.9313L32.2389 66.5428C32.7303 66.0742 33.0046 65.4342 33.0046 64.737C33.0046 64.0856 32.7532 63.4685 32.3074 62.9885C31.8046 62.497 31.1532 62.2342 30.4903 62.2342Z" fill="#101828"></path><path d="M36.0535 70.9256C36.0535 71.737 35.745 72.537 35.1164 73.1427L34.4421 73.7942C33.2078 74.9713 31.265 74.9484 30.0878 73.7142C28.8993 72.5027 28.9335 70.537 30.1678 69.3599L30.8307 68.7084C32.065 67.5313 34.0078 67.5542 35.1964 68.7884C35.7678 69.3713 36.0535 70.1599 36.0535 70.9256Z" fill="#FFC6CD"></path><path d="M32.3022 75.2289C32.2794 75.2289 32.2565 75.2289 32.2451 75.2289C31.2737 75.2175 30.3594 74.8175 29.6851 74.1089C29.0108 73.4232 28.6451 72.4975 28.6565 71.5261C28.6679 70.5432 29.0679 69.6289 29.7765 68.9546L30.4394 68.3032C31.9022 66.9089 34.2222 66.9432 35.6165 68.3946C36.2679 69.0689 36.6337 69.9718 36.6337 70.9318C36.6337 71.9375 36.2337 72.8746 35.5251 73.5603L34.8508 74.2118C34.1537 74.8632 33.2508 75.2289 32.3022 75.2289ZM32.9879 68.4175C32.3594 68.4175 31.7308 68.6461 31.2394 69.1146L30.5765 69.7661C30.0851 70.2346 29.8108 70.8632 29.7994 71.5375C29.7879 72.2003 30.0394 72.8403 30.5079 73.3089C30.9765 73.8003 31.5937 74.0632 32.2679 74.0746C32.9537 74.0861 33.5708 73.8346 34.0622 73.3661L34.7365 72.7146C35.2279 72.2461 35.5022 71.6061 35.5022 70.9089C35.5022 70.2461 35.2508 69.6289 34.8051 69.1718C34.3022 68.6689 33.6394 68.4175 32.9879 68.4175Z" fill="#101828"></path><path d="M51.8419 35.9531L42.2305 36.8103C40.2991 36.9817 38.4591 37.7131 36.9391 38.9017L30.3676 44.056C28.8134 45.3474 28.7905 47.7246 30.3219 49.0388C31.5334 50.0903 33.3391 50.1131 34.5734 49.0731L39.6934 44.7874C39.6934 44.7874 42.1048 51.8846 50.9619 49.5303" fill="#FFC6CD"></path><path d="M47.5425 50.5668C42.5482 50.5668 40.2397 47.2183 39.4511 45.6983L34.9139 49.504C33.4511 50.7268 31.3597 50.704 29.9197 49.4583C29.0625 48.7154 28.5825 47.6411 28.5939 46.5097C28.6054 45.3783 29.1082 44.3154 29.9768 43.5954L36.5711 38.4526C38.1825 37.184 40.1254 36.4183 42.1711 36.2354L51.7825 35.3783C52.0911 35.344 52.3768 35.584 52.3997 35.8926C52.4225 36.2011 52.194 36.4868 51.8854 36.5097L42.274 37.3668C40.4454 37.5268 38.7197 38.2126 37.2797 39.344L30.7082 44.4983C30.114 45.0011 29.7597 45.744 29.7482 46.5326C29.7368 47.3211 30.0797 48.0754 30.6739 48.6011C31.6797 49.4811 33.1539 49.4926 34.1825 48.6354L39.3025 44.3497C39.4511 44.224 39.6454 44.1897 39.8282 44.2354C40.0111 44.2811 40.1597 44.4183 40.2168 44.6011C40.3082 44.8754 42.594 51.1611 50.7997 48.9668C51.1082 48.8868 51.4168 49.0697 51.4968 49.3668C51.5768 49.6754 51.3939 49.984 51.0968 50.064C49.7711 50.4183 48.5939 50.5668 47.5425 50.5668Z" fill="#101828"></path><path d="M14.8155 35.6538V53.9053C14.8155 55.311 13.6612 56.4653 12.2555 56.4653H6.72406C5.31835 56.4653 4.16406 55.311 4.16406 53.9053V35.6538C4.16406 34.2367 5.31835 33.0938 6.72406 33.0938H12.2555C13.6612 33.0824 14.8155 34.2253 14.8155 35.6538Z" fill="#7047EA"></path><path d="M12.2566 57.0455H6.72518C4.99946 57.0455 3.59375 55.6398 3.59375 53.9141V35.6627C3.59375 33.937 4.99946 32.5312 6.72518 32.5312H12.2566C13.9823 32.5312 15.388 33.937 15.388 35.6627V53.9141C15.388 55.6398 13.9823 57.0455 12.2566 57.0455ZM6.72518 33.6627C5.62804 33.6627 4.73661 34.5541 4.73661 35.6513V53.9027C4.73661 54.9998 5.62804 55.8912 6.72518 55.8912H12.2566C13.3537 55.8912 14.2452 54.9998 14.2452 53.9027V35.6627C14.2452 34.5655 13.3537 33.6741 12.2566 33.6741H6.72518V33.6627Z" fill="#101828"></path><path d="M52.6947 66.5318C52.5347 66.5318 52.3862 66.4746 52.2719 66.3489L45.8147 59.2746C45.5976 59.046 45.6205 58.6803 45.849 58.4632C46.0776 58.246 46.4433 58.2689 46.6605 58.4975L53.1176 65.5718C53.3347 65.8003 53.3119 66.166 53.0833 66.3832C52.969 66.4746 52.8319 66.5318 52.6947 66.5318Z" fill="#101828"></path><path d="M47.8959 70.4173C47.7359 70.4173 47.5873 70.3487 47.4731 70.223L40.8559 62.8516C40.6502 62.6116 40.6616 62.2573 40.9016 62.0402C41.1416 61.823 41.4959 61.8459 41.7131 62.0859L48.3302 69.4573C48.5359 69.6973 48.5245 70.0516 48.2845 70.2687C48.1702 70.3716 48.0331 70.4173 47.8959 70.4173Z" fill="#101828"></path><path d="M42.0586 73.8286C41.8986 73.8286 41.7386 73.76 41.6243 73.6343L35.6243 66.6857C35.4186 66.4457 35.4414 66.0914 35.6814 65.8743C35.9214 65.6686 36.2757 65.6914 36.4929 65.9314L42.4929 72.88C42.6986 73.12 42.6757 73.4743 42.4357 73.6914C42.3329 73.7829 42.1957 73.8286 42.0586 73.8286Z" fill="#101828"></path><path d="M11.2277 53.3721C10.9077 53.3721 10.6562 53.1207 10.6562 52.8007V50.4464C10.6562 50.1264 10.9077 49.875 11.2277 49.875C11.5477 49.875 11.7991 50.1264 11.7991 50.4464V52.8007C11.7991 53.1093 11.5477 53.3721 11.2277 53.3721Z" fill="white"></path><path d="M68.798 53.3721C68.478 53.3721 68.2266 53.1207 68.2266 52.8007V50.4464C68.2266 50.1264 68.478 49.875 68.798 49.875C69.118 49.875 69.3694 50.1264 69.3694 50.4464V52.8007C69.3694 53.1093 69.1066 53.3721 68.798 53.3721Z" fill="white"></path></svg>