<svg xmlns="http://www.w3.org/2000/svg" width="32" height="32" viewBox="0 0 32 32" fill="none"><g clip-path="url(#clip0_1441_1108)"><path d="M8.11451 31.8867C6.87677 31.8729 5.65068 31.6459 4.49004 31.2157C3.64249 30.9024 2.87567 30.4036 2.24565 29.7559C1.59616 29.1272 1.09668 28.3601 0.784314 27.5118C0.354432 26.3512 0.127743 25.1253 0.114196 23.8877C0.0191373 21.8303 0 21.2132 0 16C0 10.7868 0.0210196 10.1719 0.113255 8.11294C0.128446 6.87585 0.355414 5.6505 0.784314 4.49004C1.09821 3.64235 1.59698 2.87523 2.24439 2.24439C2.87364 1.59549 3.64082 1.09648 4.4891 0.784314C5.64973 0.354076 6.87583 0.127068 8.11357 0.113255C10.1716 0.0191373 10.7896 0 16 0C21.2104 0 21.8281 0.0210196 23.8871 0.113255C25.1245 0.128339 26.3501 0.355308 27.5109 0.784314C28.3588 1.09689 29.1258 1.59573 29.7553 2.24408C30.4038 2.8738 30.9029 3.64097 31.2157 4.4891C31.646 5.64971 31.8731 6.87581 31.8871 8.11357C31.9812 10.1725 32.0003 10.789 32.0003 16.0006C32.0003 21.2122 31.9812 21.8287 31.8871 23.8877C31.8721 25.1252 31.645 26.3511 31.2157 27.5118C30.8909 28.3536 30.3935 29.1181 29.7554 29.756C29.1173 30.3939 28.3528 30.8911 27.5109 31.2157C26.3503 31.646 25.1242 31.8731 23.8864 31.8871C21.8293 31.9812 21.211 32.0003 15.9994 32.0003C10.7878 32.0003 10.1713 31.9821 8.1142 31.8871" fill="url(#paint0_radial_1441_1108)"></path><path d="M8.11451 31.8867C6.87677 31.8729 5.65068 31.6459 4.49004 31.2157C3.64249 30.9024 2.87567 30.4036 2.24565 29.7559C1.59616 29.1272 1.09668 28.3601 0.784314 27.5118C0.354432 26.3512 0.127743 25.1253 0.114196 23.8877C0.0191373 21.8303 0 21.2132 0 16C0 10.7868 0.0210196 10.1719 0.113255 8.11294C0.128446 6.87585 0.355414 5.6505 0.784314 4.49004C1.09821 3.64235 1.59698 2.87523 2.24439 2.24439C2.87364 1.59549 3.64082 1.09648 4.4891 0.784314C5.64973 0.354076 6.87583 0.127068 8.11357 0.113255C10.1716 0.0191373 10.7896 0 16 0C21.2104 0 21.8281 0.0210196 23.8871 0.113255C25.1245 0.128339 26.3501 0.355308 27.5109 0.784314C28.3588 1.09689 29.1258 1.59573 29.7553 2.24408C30.4038 2.8738 30.9029 3.64097 31.2157 4.4891C31.646 5.64971 31.8731 6.87581 31.8871 8.11357C31.9812 10.1725 32.0003 10.789 32.0003 16.0006C32.0003 21.2122 31.9812 21.8287 31.8871 23.8877C31.8721 25.1252 31.645 26.3511 31.2157 27.5118C30.8909 28.3536 30.3935 29.1181 29.7554 29.756C29.1173 30.3939 28.3528 30.8911 27.5109 31.2157C26.3503 31.646 25.1242 31.8731 23.8864 31.8871C21.8293 31.9812 21.211 32.0003 15.9994 32.0003C10.7878 32.0003 10.1713 31.9821 8.1142 31.8871" fill="url(#paint1_radial_1441_1108)"></path><path d="M12.0666 16.0671C12.0667 15.2833 12.2991 14.5172 12.7346 13.8655C13.1701 13.2139 13.789 12.7061 14.5132 12.4062C15.2373 12.1063 16.0341 12.0279 16.8028 12.1809C17.5714 12.3339 18.2775 12.7114 18.8316 13.2657C19.3857 13.8199 19.7631 14.5261 19.9159 15.2948C20.0687 16.0635 19.9901 16.8603 19.6901 17.5843C19.39 18.3084 18.882 18.9272 18.2303 19.3625C17.5786 19.7979 16.8124 20.0302 16.0286 20.03C14.9777 20.0299 13.9699 19.6123 13.2269 18.8691C12.4839 18.1259 12.0665 17.118 12.0666 16.0671ZM9.92415 16.0671C9.92415 17.2744 10.2822 18.4546 10.9529 19.4585C11.6237 20.4624 12.5771 21.2448 13.6925 21.7069C14.808 22.1689 16.0354 22.2898 17.2195 22.0542C18.4037 21.8187 19.4914 21.2373 20.3451 20.3836C21.1989 19.5298 21.7803 18.4421 22.0158 17.258C22.2513 16.0738 22.1305 14.8464 21.6684 13.731C21.2064 12.6155 20.424 11.6621 19.4201 10.9914C18.4162 10.3206 17.236 9.96258 16.0286 9.96258C15.227 9.96254 14.4331 10.1204 13.6925 10.4272C12.9519 10.7339 12.2789 11.1836 11.712 11.7505C11.1452 12.3173 10.6955 12.9903 10.3887 13.7309C10.082 14.4716 9.92411 15.2654 9.92415 16.0671ZM20.9482 9.7207C20.948 10.0028 21.0316 10.2787 21.1882 10.5133C21.3449 10.748 21.5676 10.9309 21.8282 11.039C22.0888 11.1471 22.3756 11.1755 22.6523 11.1206C22.9291 11.0656 23.1833 10.9299 23.3829 10.7305C23.5825 10.5311 23.7185 10.2769 23.7736 10.0002C23.8288 9.72356 23.8007 9.43672 23.6928 9.17601C23.585 8.9153 23.4022 8.69244 23.1677 8.53559C22.9332 8.37874 22.6574 8.29495 22.3753 8.29483C21.9971 8.29499 21.6345 8.44525 21.367 8.7126C21.0995 8.97995 20.9491 9.34253 20.9488 9.7207M11.2264 25.7439C10.4726 25.7356 9.72578 25.5977 9.01874 25.3361C8.50598 25.1384 8.04028 24.8356 7.65163 24.4471C7.26297 24.0586 6.95996 23.5931 6.76211 23.0804C6.50039 22.3734 6.36243 21.6266 6.35427 20.8727C6.29655 19.6197 6.28525 19.2432 6.28525 16.0686C6.28525 12.894 6.2978 12.5185 6.35427 11.2642C6.36342 10.5105 6.50135 9.76382 6.76211 9.05655C6.95974 8.54363 7.26265 8.07782 7.65133 7.68914C8.04001 7.30046 8.50582 6.99754 9.01874 6.79992C9.72575 6.53821 10.4726 6.40025 11.2264 6.39208C12.4794 6.33435 12.8559 6.32306 16.0293 6.32306C19.2026 6.32306 19.5794 6.3353 20.8336 6.3924C21.5874 6.40154 22.3341 6.53947 23.0413 6.80024C23.5542 6.99788 24.02 7.3008 24.4087 7.68947C24.7974 8.07815 25.1003 8.54395 25.298 9.05686C25.5597 9.76388 25.6976 10.5107 25.7058 11.2646C25.7635 12.5195 25.7748 12.894 25.7748 16.0689C25.7748 19.2438 25.7632 19.6191 25.7058 20.8733C25.697 21.6271 25.5591 22.3738 25.298 23.081C25.1001 23.5937 24.7971 24.0593 24.4084 24.4478C24.0198 24.8363 23.5541 25.1391 23.0413 25.3367C22.3343 25.5984 21.5875 25.7364 20.8336 25.7446C19.5806 25.8023 19.2042 25.8136 16.0293 25.8136C12.8543 25.8136 12.4791 25.802 11.2264 25.7446M11.1279 4.25153C10.1415 4.27093 9.16556 4.45762 8.24164 4.80368C7.45184 5.10905 6.73457 5.5761 6.1358 6.17486C5.53703 6.77363 5.06999 7.4909 4.76462 8.2807C4.41861 9.20463 4.23191 10.1806 4.21247 11.167C4.1538 12.4344 4.14062 12.8398 4.14062 16.0683C4.14062 19.2969 4.15412 19.7019 4.21247 20.9697C4.23191 21.9561 4.4186 22.932 4.76462 23.8559C5.07001 24.6457 5.53706 25.363 6.13582 25.9617C6.73458 26.5605 7.45185 27.0276 8.24164 27.3329C9.1656 27.6788 10.1415 27.8655 11.1279 27.8851C12.396 27.9428 12.8007 27.9569 16.0293 27.9569C19.2578 27.9569 19.6628 27.9435 20.9306 27.8851C21.917 27.8656 22.8929 27.6789 23.8169 27.3329C24.6067 27.0276 25.3239 26.5605 25.9227 25.9617C26.5214 25.363 26.9885 24.6457 27.2939 23.8559C27.6404 22.9321 27.8271 21.9561 27.846 20.9697C27.9038 19.7013 27.9169 19.2969 27.9169 16.0683C27.9169 12.8398 27.9035 12.4347 27.846 11.167C27.8266 10.1806 27.6399 9.20462 27.2939 8.2807C26.9885 7.49105 26.5216 6.77389 25.923 6.17514C25.3244 5.57639 24.6074 5.10926 23.8178 4.80368C22.894 4.4574 21.918 4.2707 20.9315 4.25153C19.6638 4.19349 19.2587 4.17969 16.0308 4.17969C12.8029 4.17969 12.3969 4.19318 11.1285 4.25153" fill="white"></path></g><defs><radialGradient id="paint0_radial_1441_1108" cx="0" cy="0" r="1" gradientUnits="userSpaceOnUse" gradientTransform="translate(2.0709 31.2991) scale(40.6281)"><stop offset="0.09" stop-color="#FA8F21"></stop><stop offset="0.78" stop-color="#D82D7E"></stop></radialGradient><radialGradient id="paint1_radial_1441_1108" cx="0" cy="0" r="1" gradientUnits="userSpaceOnUse" gradientTransform="translate(22.1653 30.2714) scale(35.7531)"><stop offset="0.64" stop-color="#8C3AAA" stop-opacity="0"></stop><stop offset="1" stop-color="#8C3AAA"></stop></radialGradient><clipPath id="clip0_1441_1108"><rect width="32" height="32" fill="white"></rect></clipPath></defs></svg>