<svg xmlns="http://www.w3.org/2000/svg" width="80" height="80" viewBox="0 0 80 80" fill="none"><path d="M59.7294 3.4375V69.6432C59.7294 73.4718 56.6208 76.5918 52.7808 76.5918H11.5465C7.71795 76.5918 4.60938 73.4718 4.60938 69.6432V10.3861C4.60938 6.5575 7.70652 3.4375 11.5465 3.4375H59.7294Z" fill="#EFEFED"></path><path d="M52.7741 77.1451H11.5398C7.40268 77.1451 4.03125 73.7737 4.03125 69.6251V10.3794C4.03125 6.2308 7.40268 2.85938 11.5398 2.85938H59.7341C60.0541 2.85938 60.3055 3.1108 60.3055 3.4308V69.6365C60.2941 73.7737 56.9227 77.1451 52.7741 77.1451ZM11.5398 4.00223C8.03125 4.00223 5.17411 6.85937 5.17411 10.3794V69.6365C5.17411 73.1565 8.03125 76.0137 11.5398 76.0137H52.7855C56.3055 76.0137 59.1627 73.1565 59.1627 69.6365V4.00223H11.5398Z" fill="#000100"></path><path d="M67.5126 10.6604C67.4326 12.4661 66.6783 14.1004 65.4783 15.2889C64.2326 16.5461 62.5069 17.3232 60.5755 17.3232H22.4154C20.244 17.3232 18.484 15.5632 18.484 13.4032V10.3861C18.484 6.5575 15.3754 3.4375 11.5469 3.4375H60.2326C64.2097 3.4375 67.6726 6.69464 67.5126 10.6604Z" fill="#E2E2E0"></path><path d="M60.5802 17.8879H22.4088C19.9288 17.8879 17.9059 15.8765 17.9059 13.3965V10.3794C17.9059 6.85937 15.0487 4.00223 11.5402 4.00223C11.2202 4.00223 10.9688 3.7508 10.9688 3.4308C10.9688 3.1108 11.2202 2.85938 11.5402 2.85938H60.2259C62.3745 2.85938 64.4773 3.76223 65.9859 5.31652C67.4145 6.7908 68.1573 8.69937 68.0773 10.6765C67.9973 12.5622 67.2202 14.3451 65.8716 15.6822C64.4773 17.1108 62.5916 17.8879 60.5802 17.8879ZM15.5173 4.00223C17.6316 5.32795 19.0487 7.69366 19.0487 10.3794V13.4079C19.0487 15.2479 20.5573 16.7565 22.4088 16.7565H60.5688C62.2716 16.7565 63.8716 16.0937 65.0602 14.8937C66.203 13.7508 66.8659 12.2422 66.9345 10.6422C67.003 8.98509 66.363 7.37366 65.163 6.11652C63.8716 4.77937 62.0773 4.00223 60.2259 4.00223H15.5173Z" fill="#000100"></path><path d="M48.9943 32.5829C48.9943 33.2914 48.6971 33.9429 48.24 34.4114C47.7714 34.8686 47.12 35.1657 46.4114 35.1657H20.5829C19.1543 35.1657 18 34.0114 18 32.5829C18 31.8743 18.2857 31.2229 18.7543 30.7543C19.2229 30.2971 19.8629 30 20.5829 30H46.4C47.8286 30 48.9943 31.1543 48.9943 32.5829Z" fill="#7047EA"></path><path d="M44.3429 39.1429H30.5714C30.2514 39.1429 30 38.8914 30 38.5714C30 38.2514 30.2514 38 30.5714 38H44.3429C44.6629 38 44.9143 38.2514 44.9143 38.5714C44.9143 38.8914 44.6514 39.1429 44.3429 39.1429ZM27.52 39.1429H18.5714C18.2514 39.1429 18 38.8914 18 38.5714C18 38.2514 18.2514 38 18.5714 38H27.52C27.84 38 28.0914 38.2514 28.0914 38.5714C28.0914 38.8914 27.84 39.1429 27.52 39.1429ZM42.1486 43.4743H40.96C40.64 43.4743 40.3886 43.2229 40.3886 42.9029C40.3886 42.5829 40.64 42.3314 40.96 42.3314H42.1486C42.4686 42.3314 42.72 42.5829 42.72 42.9029C42.72 43.2229 42.4571 43.4743 42.1486 43.4743ZM37.8514 43.4743H18.5714C18.2514 43.4743 18 43.2229 18 42.9029C18 42.5829 18.2514 42.3314 18.5714 42.3314H37.8514C38.1714 42.3314 38.4229 42.5829 38.4229 42.9029C38.4229 43.2229 38.1714 43.4743 37.8514 43.4743ZM36.5714 47.8057H18.5714C18.2514 47.8057 18 47.5543 18 47.2343C18 46.9143 18.2514 46.6629 18.5714 46.6629H36.5714C36.8914 46.6629 37.1429 46.9143 37.1429 47.2343C37.1429 47.5543 36.8914 47.8057 36.5714 47.8057Z" fill="#7047EA"></path><path d="M37.4514 53.0804H30.5714C30.2514 53.0804 30 52.8289 30 52.5089C30 52.1889 30.2514 51.9375 30.5714 51.9375H37.4514C37.7714 51.9375 38.0229 52.1889 38.0229 52.5089C38.0229 52.8289 37.7714 53.0804 37.4514 53.0804ZM27.52 53.0804H18.5714C18.2514 53.0804 18 52.8289 18 52.5089C18 52.1889 18.2514 51.9375 18.5714 51.9375H27.52C27.84 51.9375 28.0914 52.1889 28.0914 52.5089C28.0914 52.8289 27.84 53.0804 27.52 53.0804ZM34.9029 57.4004H18.5714C18.2514 57.4004 18 57.1489 18 56.8289C18 56.5089 18.2514 56.2575 18.5714 56.2575H34.9029C35.2229 56.2575 35.4743 56.5089 35.4743 56.8289C35.4743 57.1489 35.2114 57.4004 34.9029 57.4004ZM31.5086 61.7318H18.5714C18.2514 61.7318 18 61.4804 18 61.1604C18 60.8404 18.2514 60.5889 18.5714 60.5889H31.5086C31.8286 60.5889 32.08 60.8404 32.08 61.1604C32.08 61.4804 31.8171 61.7318 31.5086 61.7318Z" fill="#7047EA"></path><path d="M75.1868 28.3083L62.6954 61.3369L51.3125 57.0283L63.8039 23.9998C64.4325 22.3312 66.2954 21.4855 67.9639 22.1141L73.3125 24.1369C74.9696 24.7655 75.8154 26.6398 75.1868 28.3083Z" fill="#7047EA"></path><path d="M62.6841 61.9211C62.6156 61.9211 62.547 61.9096 62.4784 61.8868L51.0956 57.5782C50.9584 57.5211 50.8441 57.4182 50.7756 57.2811C50.7184 57.1439 50.707 56.9839 50.7641 56.8468L63.267 23.8182C64.0098 21.8525 66.2041 20.8696 68.1584 21.6011L73.507 23.6239C75.4727 24.3668 76.4556 26.5611 75.7241 28.5268L63.2327 61.5554C63.1756 61.6925 63.0727 61.8068 62.9356 61.8754C62.8441 61.9096 62.7641 61.9211 62.6841 61.9211ZM52.0327 56.7096L62.3527 60.6182L74.6498 28.1154C75.1641 26.7439 74.4784 25.2011 73.107 24.6868L67.7584 22.6639C66.387 22.1496 64.8556 22.8468 64.3413 24.2182L52.0327 56.7096Z" fill="#000100"></path><path d="M62.2453 28.1114L61.1172 31.0938L72.5014 35.4L73.6295 32.4177L62.2453 28.1114Z" fill="#EFEFED"></path><path d="M72.5132 35.9574C72.4446 35.9574 72.3761 35.946 72.3075 35.9231L60.9247 31.6145C60.6275 31.5002 60.4789 31.1688 60.5932 30.8831L61.7132 27.9002C61.7704 27.7631 61.8732 27.6488 62.0104 27.5802C62.1475 27.5231 62.3075 27.5117 62.4446 27.5688L73.8275 31.8774C74.1246 31.9917 74.2732 32.3231 74.1589 32.6088L73.0275 35.5917C72.9704 35.7288 72.8675 35.8431 72.7304 35.9117C72.6732 35.946 72.5932 35.9574 72.5132 35.9574ZM61.8618 30.746L72.1818 34.6545L72.9018 32.746L62.5818 28.8374L61.8618 30.746Z" fill="#000100"></path><path d="M73.6329 32.3998L75.1757 28.3083C75.8043 26.6398 74.9586 24.7769 73.3014 24.1369L67.9529 22.1141C66.2843 21.4855 64.4329 22.3312 63.7929 23.9998L62.25 28.0912L73.6329 32.3998Z" fill="#54E28E"></path><path d="M73.6304 32.9839C73.5618 32.9839 73.4933 32.9725 73.4247 32.9496L62.0418 28.6411C61.7447 28.5268 61.5961 28.1954 61.7104 27.9096L63.2533 23.8182C63.9961 21.8525 66.1904 20.8696 68.1447 21.6011L73.4933 23.6239C74.4418 23.9782 75.1961 24.6868 75.6076 25.6239C76.0304 26.5496 76.0533 27.5782 75.699 28.5268L74.1561 32.6182C74.099 32.7554 73.9961 32.8696 73.859 32.9382C73.7904 32.9611 73.7104 32.9839 73.6304 32.9839ZM62.979 27.7725L73.299 31.6811L74.6476 28.1268C75.1618 26.7554 74.4761 25.2125 73.1047 24.6982L67.7561 22.6754C66.3847 22.1611 64.8533 22.8582 64.339 24.2296L62.979 27.7725Z" fill="#000100"></path><path d="M62.6833 61.3554L55.0376 67.5497C54.2605 68.1783 53.0948 67.744 52.9233 66.7497L51.2891 57.0469L62.6833 61.3554Z" fill="#FBE063"></path><path d="M54.2279 68.4162C53.9994 68.4162 53.7822 68.3705 53.5651 68.2905C52.9365 68.0505 52.4908 67.5134 52.3765 66.8505L50.7422 57.1477C50.7079 56.942 50.7879 56.7362 50.9479 56.6105C51.1079 56.4848 51.3251 56.4505 51.5079 56.5191L62.8908 60.8277C63.0851 60.8962 63.2222 61.0677 63.2565 61.2734C63.2908 61.4791 63.2108 61.6734 63.0508 61.8105L55.4051 68.0048C55.0622 68.2677 54.6394 68.4162 54.2279 68.4162ZM52.0336 57.9362L53.4965 66.6562C53.5422 66.9191 53.7136 67.1248 53.9651 67.2277C54.2165 67.3191 54.4793 67.2734 54.6851 67.1134L61.5536 61.5477L52.0336 57.9362Z" fill="#000100"></path><path d="M52.3984 63.5625L52.9356 66.7282C53.107 67.7111 54.2613 68.1568 55.0499 67.5282L57.5527 65.5054L52.3984 63.5625Z" fill="#000100"></path><path d="M61.4272 48.0273C61.3587 48.0273 61.2901 48.0159 61.2215 47.993C60.9244 47.8787 60.7758 47.5473 60.8901 47.2616L66.2844 33.0216C66.3987 32.7244 66.7301 32.5873 67.0158 32.6901C67.313 32.8044 67.4615 33.1359 67.3472 33.4216L61.9644 47.6501C61.8844 47.8901 61.6558 48.0273 61.4272 48.0273Z" fill="#000100"></path></svg>