<svg xmlns="http://www.w3.org/2000/svg" width="80" height="80" viewBox="0 0 80 80" fill="none"><path fill-rule="evenodd" clip-rule="evenodd" d="M42.0039 56.1484C42.0039 57.184 42.8434 58.0234 43.8789 58.0234H61.9531C69.8906 58.0234 76.3281 51.5859 76.3281 43.6484C76.3281 35.7109 69.8906 29.2734 61.9531 29.2734C61.2628 29.2734 60.7031 28.7138 60.7031 28.0234C60.7031 16.6484 51.4531 7.39844 40.0781 7.39844C28.7031 7.39844 19.4531 16.6484 19.4531 28.0234C19.4531 29.0859 20.2656 29.8984 21.3281 29.8984C22.3906 29.8984 23.2031 29.0859 23.2031 28.0234C23.2031 18.7109 30.7656 11.1484 40.0781 11.1484C49.3906 11.1484 56.9531 18.7109 56.9531 28.0234V31.1484C56.9531 32.2109 57.7656 33.0234 58.8281 33.0234H61.9531C67.8281 33.0234 72.5781 37.7734 72.5781 43.6484C72.5781 49.5234 67.8281 54.2734 61.9531 54.2734H43.8789C42.8434 54.2734 42.0039 55.1129 42.0039 56.1484Z" fill="#101828"></path><path d="M34.7566 28.804C32.3577 28.7005 30.0106 29.733 28.3196 31.5815C25.6197 30.5796 22.9504 31.7932 21.2406 33.9569C19.7754 31.9601 17.4212 30.7748 14.9377 31.2381C14.9361 31.2381 14.9345 31.2381 14.933 31.2381C13.2365 31.5612 11.7367 32.5424 10.7612 33.9674C9.78562 35.3924 9.41347 37.1455 9.72599 38.844C9.72896 38.855 9.7321 38.866 9.7354 38.8769C8.68177 39.192 7.54819 39.3426 6.76738 40.1469C4.5002 42.4729 4.62015 45.9747 6.51808 48.4959C4.67424 50.9606 4.54724 54.3285 5.93483 56.8779C6.75797 58.3901 8.3384 59.78 10.2904 60.6808C11.9602 61.4545 13.9522 61.6591 15.9043 61.1465C16.0807 61.3628 16.2476 61.5698 16.6098 61.9555C17.1457 62.526 17.7887 62.9855 18.5022 63.3075C19.2156 63.6295 19.9855 63.8078 20.7679 63.8322V63.9969C22.4142 63.9969 23.9264 63.463 25.1729 62.574C26.8897 63.8346 29.0628 64.3567 31.1254 63.6182C33.9476 62.6022 35.2058 59.7706 34.98 56.9108C38.8041 57.1554 42.1649 54.2885 42.4636 50.4573C42.6893 47.5246 40.7867 45.3139 38.3008 44.0674C39.4297 43.4301 40.4457 42.6187 41.1701 41.5133C42.3637 39.6901 42.7856 37.4681 42.3434 35.3343C41.9012 33.2005 40.631 31.3291 38.8112 30.1304C37.6003 29.3366 36.2025 28.8788 34.7566 28.804ZM34.2227 31.1229C35.3516 31.1111 36.4993 31.4286 37.52 32.0965C38.1666 32.5168 38.7235 33.0609 39.1586 33.6975C39.5938 34.3341 39.8986 35.0506 40.0553 35.8056C40.2121 36.5606 40.2178 37.3392 40.0721 38.0965C39.9263 38.8537 39.6321 39.5745 39.2063 40.2174C38.322 41.5627 36.925 42.487 35.3375 42.7715C35.0642 42.8156 34.8153 42.9546 34.6344 43.1641C34.4535 43.3736 34.3524 43.6402 34.3487 43.917C34.3451 44.1937 34.4391 44.4629 34.6144 44.6771C34.7897 44.8914 35.0349 45.0369 35.3069 45.0881C35.4591 45.171 35.6278 45.2191 35.8008 45.2292C36.4163 45.275 37.0166 45.442 37.5673 45.7207C38.118 45.9994 38.6081 46.3843 39.0094 46.8531C39.4107 47.322 39.7154 47.8656 39.9058 48.4527C40.0962 49.0398 40.1686 49.6587 40.1188 50.2739C40.073 50.889 39.9061 51.4889 39.6274 52.0392C39.3488 52.5895 38.9641 53.0792 38.4954 53.4801C38.0267 53.881 37.4833 54.1852 36.8965 54.3752C36.3098 54.5652 35.6912 54.6373 35.0764 54.5872C34.2604 54.5237 34.0934 54.5049 34.0934 54.5049C33.8945 54.4809 33.6929 54.508 33.5075 54.5838C33.3221 54.6596 33.1591 54.7815 33.0341 54.9379C32.909 55.0943 32.8259 55.2801 32.7928 55.4776C32.7596 55.6751 32.7774 55.8778 32.8446 56.0665C33.0319 56.5815 33.1154 57.1285 33.0903 57.6759C33.0652 58.2233 32.9319 58.7604 32.6982 59.256C32.4645 59.7517 32.1349 60.1962 31.7285 60.5638C31.3221 60.9315 30.847 61.215 30.3304 61.3981C29.7467 61.6054 29.1238 61.6787 28.5079 61.6128C27.892 61.5468 27.2987 61.3433 26.7721 61.0171C27.8179 59.6931 28.39 58.057 28.3972 56.3699V45.2198H30.7255V42.868H28.3972V42.28C28.3928 41.5853 28.5265 40.8967 28.7905 40.2541C29.0544 39.6115 29.4434 39.0278 29.9349 38.5368C30.4263 38.0458 31.0104 37.6573 31.6532 37.3939C32.296 37.1305 32.9848 36.9975 33.6795 37.0025V34.6506C31.6564 34.6531 29.7168 35.4576 28.2858 36.8877C26.8548 38.3178 26.0491 40.2569 26.0454 42.28V42.868H23.6794V45.2198H26.0454V56.3722C26.0454 59.2321 23.837 61.4992 21.0125 61.6262C19.9872 61.5443 19.0291 61.0841 18.3243 60.3351C18.3227 60.3351 18.3212 60.3351 18.3196 60.3351C18.0162 60.0196 17.7297 59.6883 17.4612 59.3426C17.4596 59.3426 17.458 59.3426 17.4565 59.3426H17.4518C17.3097 59.0883 17.0783 58.8958 16.8024 58.8024C16.5265 58.709 16.2257 58.7213 15.9584 58.8369C14.4767 59.4813 12.7975 59.2603 11.2782 58.5571C9.75891 57.8562 8.47481 56.638 8.00209 55.7701C6.93906 53.8134 7.00962 50.8971 8.54066 49.3661C8.65027 49.2562 8.73702 49.1256 8.79591 48.982C8.8548 48.8383 8.88468 48.6845 8.8838 48.5292C8.88293 48.374 8.85132 48.2205 8.79081 48.0775C8.73031 47.9345 8.64209 47.805 8.53125 47.6963C8.13682 47.3155 7.82171 46.8604 7.60414 46.3572C7.38656 45.854 7.27083 45.3126 7.26361 44.7644C7.25639 44.2162 7.35784 43.6721 7.5621 43.1633C7.76635 42.6545 8.06937 42.1912 8.45364 41.8002C9.22975 41.0006 10.2928 40.5467 11.4052 40.5373C11.6202 40.5354 11.8307 40.4747 12.0136 40.3616C12.1965 40.2484 12.3449 40.0873 12.4426 39.8958C12.5403 39.7042 12.5836 39.4895 12.5678 39.275C12.552 39.0606 12.4777 38.8545 12.353 38.6793L12.0684 38.2819C11.7392 36.0665 13.1432 33.978 15.3657 33.5641C16.2326 33.4019 17.1287 33.5193 17.9246 33.8993C18.7206 34.2793 19.3752 34.9023 19.7942 35.6784L19.9918 36.1605C20.0815 36.3775 20.2342 36.5626 20.4301 36.692C20.626 36.8214 20.8562 36.8892 21.091 36.8867C21.3257 36.8841 21.5544 36.8114 21.7475 36.6778C21.9405 36.5442 22.0892 36.3558 22.1743 36.137C22.9974 34.0439 25.2904 33.0679 27.3953 33.7899L27.5059 33.9145C27.6244 34.0528 27.7733 34.1616 27.9411 34.2325C28.1088 34.3034 28.2907 34.3343 28.4724 34.3229C28.6541 34.3115 28.8307 34.2581 28.9883 34.1668C29.1458 34.0755 29.28 33.9489 29.3803 33.7969C30.274 32.4376 31.631 31.5674 33.1009 31.264V31.2499C33.4678 31.1723 33.8441 31.1299 34.2227 31.1252V31.1229ZM19.1404 38.2254C16.3652 38.296 14.2462 40.7819 14.3074 43.6347C14.3356 44.994 14.7542 46.2405 15.5609 47.1765C16.3699 48.1149 17.5623 48.6958 18.9005 48.7993H18.8582C20.0929 48.9404 20.1658 49.011 20.8078 49.9517C21.7015 51.264 21.4311 53.1808 20.2599 54.1262C19.0887 55.074 17.5788 54.8482 16.6827 53.5336L14.7378 54.8576C16.3323 57.1907 19.559 57.7175 21.7392 55.9559C23.9193 54.1921 24.345 50.9583 22.7505 48.6253C21.9179 47.4047 20.7326 46.645 19.1263 46.4616H19.0792C18.2796 46.4004 17.7411 46.1088 17.3436 45.6478C16.9438 45.1845 16.678 44.5072 16.6592 43.5947C16.6216 41.9084 17.8069 40.622 19.2039 40.5843H19.2086C19.7639 40.5691 20.3063 40.7535 20.7373 41.1041L22.1813 39.2461C21.3195 38.5601 20.2416 38.1988 19.1404 38.2254ZM25.8126 62.2353L25.789 62.2518H25.7632C25.7773 62.233 25.7984 62.2448 25.8126 62.2353Z" fill="#E372A4"></path></svg>