<svg xmlns="http://www.w3.org/2000/svg" width="80" height="80" viewBox="0 0 80 80" fill="none"><g clip-path="url(#clip0_1613_1247)"><path fill-rule="evenodd" clip-rule="evenodd" d="M43.0039 57.1484C43.0039 58.184 43.8434 59.0234 44.8789 59.0234H62.9531C70.8906 59.0234 77.3281 52.5859 77.3281 44.6484C77.3281 36.7109 70.8906 30.2734 62.9531 30.2734C62.2628 30.2734 61.7031 29.7138 61.7031 29.0234C61.7031 17.6484 52.4531 8.39844 41.0781 8.39844C29.7031 8.39844 20.4531 17.6484 20.4531 29.0234C20.4531 30.0859 21.2656 30.8984 22.3281 30.8984C23.3906 30.8984 24.2031 30.0859 24.2031 29.0234C24.2031 19.7109 31.7656 12.1484 41.0781 12.1484C50.3906 12.1484 57.9531 19.7109 57.9531 29.0234V32.1484C57.9531 33.2109 58.7656 34.0234 59.8281 34.0234H62.9531C68.8281 34.0234 73.5781 38.7734 73.5781 44.6484C73.5781 50.5234 68.8281 55.2734 62.9531 55.2734H44.8789C43.8434 55.2734 43.0039 56.1129 43.0039 57.1484Z" fill="#101828"></path><path d="M21 58.75C22.1372 58.75 23.2489 58.4128 24.1945 57.781C25.1401 57.1491 25.8771 56.2511 26.3123 55.2004C26.7475 54.1498 26.8614 52.9936 26.6395 51.8782C26.4177 50.7628 25.87 49.7383 25.0659 48.9341C24.2617 48.13 23.2372 47.5824 22.1218 47.3605C21.0064 47.1386 19.8502 47.2525 18.7996 47.6877C17.7489 48.1229 16.8509 48.8599 16.2191 49.8055C15.5872 50.7511 15.25 51.8628 15.25 53C15.25 54.525 15.8558 55.9875 16.9341 57.0659C18.0125 58.1442 19.475 58.75 21 58.75ZM21 50.125C21.5686 50.125 22.1245 50.2936 22.5973 50.6095C23.0701 50.9254 23.4386 51.3745 23.6562 51.8998C23.8738 52.4251 23.9307 53.0032 23.8198 53.5609C23.7088 54.1186 23.435 54.6309 23.0329 55.0329C22.6309 55.435 22.1186 55.7088 21.5609 55.8198C21.0032 55.9307 20.4251 55.8738 19.8998 55.6562C19.3744 55.4386 18.9254 55.0701 18.6095 54.5973C18.2936 54.1245 18.125 53.5686 18.125 53C18.125 52.2375 18.4279 51.5062 18.9671 50.9671C19.5062 50.4279 20.2375 50.125 21 50.125Z" fill="#9263D4"></path><path d="M7.47687 54.1644L6.93062 54.4375C5.94278 55.0089 5.22168 55.9485 4.92529 57.0505C4.62891 58.1525 4.7814 59.3271 5.34937 60.3169L6.78687 62.8181C7.06133 63.3176 7.43209 63.7577 7.87769 64.1131C8.32329 64.4684 8.83491 64.7319 9.38296 64.8883C9.93102 65.0447 10.5046 65.0909 11.0707 65.0242C11.6367 64.9576 12.1839 64.7794 12.6806 64.5L13.1262 64.2556C13.3448 64.1295 13.5927 64.063 13.845 64.063C14.0973 64.063 14.3452 64.1295 14.5637 64.2556C14.7742 64.3803 14.9493 64.5567 15.0726 64.768C15.1959 64.9793 15.2632 65.2185 15.2681 65.4631V65.9375C15.2681 67.0812 15.7225 68.1781 16.5312 68.9869C17.34 69.7957 18.4369 70.25 19.5806 70.25H22.4556C23.5994 70.25 24.6963 69.7957 25.505 68.9869C26.3138 68.1781 26.7681 67.0812 26.7681 65.9375V65.4056C26.7746 65.1597 26.844 64.9195 26.9699 64.7081C27.0957 64.4966 27.2737 64.3211 27.4869 64.1981C27.7054 64.072 27.9533 64.0055 28.2056 64.0055C28.458 64.0055 28.7058 64.072 28.9244 64.1981L29.37 64.4569C30.3593 65.0306 31.5361 65.1878 32.6414 64.894C33.7466 64.6001 34.6899 63.8793 35.2637 62.89L36.7012 60.3887C37.0788 59.7329 37.2771 58.9893 37.2762 58.2325C37.2826 57.461 37.0819 56.702 36.6951 56.0345C36.3082 55.367 35.7494 54.8155 35.0769 54.4375L34.5306 54.1069C34.3279 53.9875 34.1599 53.8173 34.0432 53.6131C33.9264 53.4089 33.865 53.1777 33.865 52.9425C33.865 52.7073 33.9264 52.4761 34.0432 52.2719C34.1599 52.0677 34.3279 51.8975 34.5306 51.7781L35.0769 51.4475C36.0647 50.8761 36.7858 49.9365 37.0822 48.8345C37.3786 47.7325 37.2261 46.5579 36.6581 45.5681L35.2206 43.0669C34.6468 42.0776 33.7035 41.3567 32.5982 41.0629C31.493 40.7691 30.3162 40.9263 29.3269 41.5L28.8669 41.7588C28.6545 41.8724 28.4169 41.9309 28.176 41.9288C27.9351 41.9267 27.6986 41.8641 27.4882 41.7468C27.2778 41.6294 27.1003 41.4611 26.972 41.2572C26.8436 41.0533 26.7686 40.8204 26.7537 40.58V40.0625C26.7537 38.9188 26.2994 37.8219 25.4906 37.0131C24.6819 36.2044 23.585 35.75 22.4412 35.75H19.5662C18.4225 35.75 17.3256 36.2044 16.5168 37.0131C15.7081 37.8219 15.2537 38.9188 15.2537 40.0625V40.58C15.2495 40.8274 15.1814 41.0696 15.0562 41.283C14.9309 41.4964 14.7526 41.6739 14.5387 41.7982C14.3247 41.9225 14.0823 41.9895 13.8348 41.9927C13.5874 41.9958 13.3433 41.9351 13.1262 41.8163L12.6806 41.5C11.6913 40.9263 10.5145 40.7691 9.40926 41.0629C8.30398 41.3567 7.36069 42.0776 6.78687 43.0669L5.34937 45.5681C5.04995 46.063 4.85314 46.613 4.77065 47.1855C4.68816 47.758 4.72167 48.3413 4.8692 48.9005C5.01673 49.4598 5.27526 49.9837 5.6294 50.441C5.98354 50.8983 6.42606 51.2797 6.93062 51.5625L7.47687 51.8931C7.67956 52.0125 7.84759 52.1827 7.96433 52.3869C8.08107 52.5911 8.14247 52.8223 8.14247 53.0575C8.14247 53.2927 8.08107 53.5239 7.96433 53.7281C7.84759 53.9323 7.67956 54.1025 7.47687 54.2219V54.1644ZM8.36812 57.0394L8.91437 56.7087C9.55273 56.3367 10.0824 55.8037 10.4505 55.163C10.8186 54.5224 11.0123 53.7964 11.0123 53.0575C11.0123 52.3186 10.8186 51.5926 10.4505 50.952C10.0824 50.3113 9.55273 49.7783 8.91437 49.4062L8.36812 49.0756C8.20314 48.9814 8.05848 48.8553 7.94252 48.7048C7.82655 48.5543 7.74157 48.3823 7.69249 48.1987C7.59735 47.8344 7.64897 47.4473 7.83624 47.1206L9.27374 44.6194C9.36885 44.4559 9.4953 44.3127 9.64584 44.1982C9.79638 44.0836 9.96805 43.9999 10.151 43.9518C10.334 43.9037 10.5246 43.8922 10.712 43.918C10.8994 43.9437 11.0799 44.0062 11.2431 44.1019L11.6887 44.3606C12.3469 44.7339 13.0918 44.9275 13.8485 44.9219C14.6052 44.9162 15.347 44.7116 15.9996 44.3285C16.6522 43.9454 17.1924 43.3974 17.5662 42.7394C17.9399 42.0814 18.1339 41.3367 18.1287 40.58V40.0625C18.1287 39.6813 18.2802 39.3156 18.5498 39.046C18.8194 38.7765 19.185 38.625 19.5662 38.625H22.4412C22.8225 38.625 23.1881 38.7765 23.4577 39.046C23.7273 39.3156 23.8787 39.6813 23.8787 40.0625V40.58C23.8725 41.3358 24.065 42.08 24.4369 42.738C24.8089 43.396 25.3472 43.9447 25.998 44.329C26.6488 44.7134 27.3893 44.92 28.1451 44.928C28.9009 44.9361 29.6455 44.7454 30.3044 44.375L30.7644 44.1019C30.9276 44.0062 31.1081 43.9437 31.2955 43.918C31.4829 43.8922 31.6735 43.9037 31.8565 43.9518C32.0394 43.9999 32.2111 44.0836 32.3616 44.1982C32.5122 44.3127 32.6386 44.4559 32.7337 44.6194L34.1712 47.1206C34.3585 47.4473 34.4101 47.8344 34.315 48.1987C34.2659 48.3823 34.1809 48.5543 34.065 48.7048C33.949 48.8553 33.8043 48.9814 33.6394 49.0756L33.0931 49.4062C32.4548 49.7783 31.9251 50.3113 31.557 50.952C31.1889 51.5926 30.9951 52.3186 30.9951 53.0575C30.9951 53.7964 31.1889 54.5224 31.557 55.163C31.9251 55.8037 32.4548 56.3367 33.0931 56.7087L33.6394 57.0394C33.8043 57.1336 33.949 57.2597 34.065 57.4102C34.1809 57.5607 34.2659 57.7327 34.315 57.9163C34.4101 58.2806 34.3585 58.6677 34.1712 58.9944L32.7337 61.4956C32.6386 61.6591 32.5122 61.8023 32.3616 61.9168C32.2111 62.0314 32.0394 62.1151 31.8565 62.1632C31.6735 62.2113 31.4829 62.2228 31.2955 62.197C31.1081 62.1713 30.9276 62.1088 30.7644 62.0131L30.3187 61.7544C29.6632 61.3759 28.9195 61.1766 28.1625 61.1766C27.4055 61.1766 26.6618 61.3759 26.0062 61.7544C25.3681 62.1293 24.8372 62.6621 24.4646 63.3015C24.092 63.941 23.8902 64.6656 23.8787 65.4056V65.9375C23.8787 66.3187 23.7273 66.6844 23.4577 66.954C23.1881 67.2236 22.8225 67.375 22.4412 67.375H19.5662C19.185 67.375 18.8194 67.2236 18.5498 66.954C18.2802 66.6844 18.1287 66.3187 18.1287 65.9375V65.42C18.1239 64.6682 17.9225 63.9307 17.5447 63.2807C17.1668 62.6307 16.6256 62.0908 15.9748 61.7145C15.3239 61.3382 14.5859 61.1386 13.8341 61.1355C13.0823 61.1324 12.3427 61.326 11.6887 61.6969L11.2431 61.9556C11.0799 62.0513 10.8994 62.1138 10.712 62.1395C10.5246 62.1653 10.334 62.1538 10.151 62.1057C9.96805 62.0576 9.79638 61.9739 9.64584 61.8593C9.4953 61.7448 9.36885 61.6016 9.27374 61.4381L7.83624 58.9369C7.64897 58.6102 7.59735 58.2231 7.69249 57.8587C7.74157 57.6752 7.82655 57.5032 7.94252 57.3527C8.05848 57.2022 8.20314 57.0761 8.36812 56.9819V57.0394Z" fill="#9263D4"></path></g><defs><clipPath id="clip0_1613_1247"><rect width="80" height="80" fill="white"></rect></clipPath></defs></svg>