<svg xmlns="http://www.w3.org/2000/svg" width="80" height="80" viewBox="0 0 80 80" fill="none"><path fill-rule="evenodd" clip-rule="evenodd" d="M42.0039 63.1484C42.0039 64.184 42.8434 65.0234 43.8789 65.0234H61.9531C69.8906 65.0234 76.3281 58.5859 76.3281 50.6484C76.3281 42.7109 69.8906 36.2734 61.9531 36.2734C61.2628 36.2734 60.7031 35.7138 60.7031 35.0234C60.7031 23.6484 51.4531 14.3984 40.0781 14.3984C28.7031 14.3984 19.4531 23.6484 19.4531 35.0234C19.4531 36.0859 20.2656 36.8984 21.3281 36.8984C22.3906 36.8984 23.2031 36.0859 23.2031 35.0234C23.2031 25.7109 30.7656 18.1484 40.0781 18.1484C49.3906 18.1484 56.9531 25.7109 56.9531 35.0234V38.1484C56.9531 39.2109 57.7656 40.0234 58.8281 40.0234H61.9531C67.8281 40.0234 72.5781 44.7734 72.5781 50.6484C72.5781 56.5234 67.8281 61.2734 61.9531 61.2734H43.8789C42.8434 61.2734 42.0039 62.1129 42.0039 63.1484Z" fill="#101828"></path><path d="M12.6258 60.2877C12.6258 61.3805 11.5025 62.1127 10.5026 61.6716L1.41128 57.6607C0.553493 57.2822 0 56.4331 0 55.4955C0 54.558 0.553492 53.7088 1.41128 53.3304L10.501 49.3202C11.5016 48.8788 12.6258 49.6115 12.6258 50.7052C12.6258 51.3072 12.2691 51.852 11.7173 52.0927L3.07973 55.8609C2.82612 55.9716 2.5423 55.7857 2.5423 55.509C2.5423 55.2328 2.82538 55.0469 3.07889 55.1568L11.7147 58.8998C12.2678 59.1395 12.6258 59.6848 12.6258 60.2877Z" fill="#9263D4"></path><path d="M27.3742 60.2877C27.3742 61.3805 28.4975 62.1127 29.4974 61.6716L38.5887 57.6607C39.4465 57.2822 40 56.4331 40 55.4955C40 54.558 39.4465 53.7088 38.5887 53.3304L29.499 49.3202C28.4984 48.8788 27.3742 49.6115 27.3742 50.7052C27.3742 51.3072 27.7309 51.852 28.2827 52.0927L36.9203 55.8609C37.1739 55.9716 37.4577 55.7857 37.4577 55.509C37.4577 55.2328 37.1746 55.0469 36.9211 55.1568L28.2853 58.8998C27.7322 59.1395 27.3742 59.6848 27.3742 60.2877Z" fill="#9263D4"></path><path d="M16.6641 63.8672L23.2475 45.9979" stroke="#9263D4" stroke-width="2.85651" stroke-linecap="round"></path></svg>