<svg xmlns="http://www.w3.org/2000/svg" width="80" height="80" viewBox="0 0 80 80" fill="none"><path fill-rule="evenodd" clip-rule="evenodd" d="M42.0039 56.1484C42.0039 57.184 42.8434 58.0234 43.8789 58.0234H61.9531C69.8906 58.0234 76.3281 51.5859 76.3281 43.6484C76.3281 35.7109 69.8906 29.2734 61.9531 29.2734C61.2628 29.2734 60.7031 28.7138 60.7031 28.0234C60.7031 16.6484 51.4531 7.39844 40.0781 7.39844C28.7031 7.39844 19.4531 16.6484 19.4531 28.0234C19.4531 29.0859 20.2656 29.8984 21.3281 29.8984C22.3906 29.8984 23.2031 29.0859 23.2031 28.0234C23.2031 18.7109 30.7656 11.1484 40.0781 11.1484C49.3906 11.1484 56.9531 18.7109 56.9531 28.0234V31.1484C56.9531 32.2109 57.7656 33.0234 58.8281 33.0234H61.9531C67.8281 33.0234 72.5781 37.7734 72.5781 43.6484C72.5781 49.5234 67.8281 54.2734 61.9531 54.2734H43.8789C42.8434 54.2734 42.0039 55.1129 42.0039 56.1484Z" fill="#101828"></path><g clip-path="url(#clip0_1613_1216)"><path d="M26.7568 71.8751H21.2568C20.0606 71.8517 19.3291 69.9487 20.6257 69.2791C20.7714 69.2034 20.9296 69.1539 21.0932 69.1347C21.1468 69.1278 21.2018 69.1264 21.2568 69.1251H26.7568C26.7747 69.1251 26.7926 69.1264 26.8118 69.1264C27.8389 69.1869 28.5416 70.5784 27.7757 71.4227C27.5199 71.7073 27.1363 71.8682 26.7568 71.8751ZM24.0068 66.3751H18.5068C17.7684 66.3434 17.1634 65.7398 17.1318 65.0001C17.1318 63.5797 17.1373 62.1593 17.1318 60.7389C17.1194 59.5427 16.5571 58.3959 15.6606 57.5916C13.5486 55.6748 12.1433 53.0266 11.7514 50.2243C11.0144 44.9581 14.0106 39.3659 19.0527 37.1577C20.6326 36.4661 22.3527 36.1196 24.0866 36.1251C28.4247 36.1663 32.6432 38.6427 34.7772 42.4061C36.8397 46.0402 36.8851 50.7372 34.8748 54.4194C34.1749 55.7023 33.1932 56.8064 32.1523 57.8198C31.3851 58.5774 30.9327 59.6279 30.9148 60.7114C30.9148 60.7114 30.9093 61.0744 30.9066 61.3412C30.8901 62.5264 30.8832 63.7131 30.8818 64.8997C30.8818 64.8997 30.8392 65.8196 30.1929 66.1908C29.4422 66.6253 28.3119 66.1441 28.1524 65.2379C28.1346 65.1334 28.1359 65.1059 28.1318 64.9987C28.1332 63.0311 27.9366 60.9479 28.3449 59.2031C28.7038 57.6658 29.7323 56.3912 30.8337 55.2816C30.9794 55.1344 31.1197 54.9846 31.2558 54.8292C33.8793 51.8276 34.3537 47.1347 32.3269 43.6614C30.0018 39.6753 24.5939 37.7338 20.1554 39.6781C17.3807 40.8922 15.2481 43.4786 14.6018 46.4431C13.8841 49.7417 15.0006 53.3387 17.6048 55.6418C19.0321 56.9412 19.8749 58.8249 19.8818 60.7637V63.6251H24.0068C24.0068 63.6251 24.7754 63.7007 25.1329 64.2108C25.4987 64.7333 25.4409 65.5116 24.9789 65.9722C24.7809 66.1702 24.5224 66.3049 24.2461 66.3544C24.1402 66.3723 24.1127 66.3709 24.0068 66.3751ZM22.6318 55.1399C21.0478 54.5776 19.8928 52.9771 19.8818 51.2569C19.8818 51.2569 20.1431 49.9796 21.1207 49.8819C21.8439 49.8091 22.5686 50.3989 22.6277 51.1401C22.6304 51.1868 22.6304 51.1868 22.6318 51.2886C22.6634 52.2607 23.9188 53.0004 24.8016 52.3721C25.1591 52.1177 25.3777 51.6887 25.3818 51.2459C25.3832 51.1387 25.4561 50.5736 25.8342 50.2312C26.3732 49.7431 27.3096 49.7898 27.7949 50.3481C28.4068 51.0507 28.1442 52.2758 27.6327 53.2177C27.1542 54.0991 26.3264 54.7618 25.3818 55.1028V59.5001C25.3612 60.5616 23.9229 61.2793 23.0842 60.5189C22.7996 60.2618 22.6387 59.8796 22.6318 59.5001V55.1399Z" fill="#9263D4"></path></g><defs><clipPath id="clip0_1613_1216"><rect width="44" height="44" fill="white" transform="translate(2 32)"></rect></clipPath></defs></svg>