<svg xmlns="http://www.w3.org/2000/svg" width="80" height="80" viewBox="0 0 80 80" fill="none"><path fill-rule="evenodd" clip-rule="evenodd" d="M42.0039 56.1484C42.0039 57.184 42.8434 58.0234 43.8789 58.0234H61.9531C69.8906 58.0234 76.3281 51.5859 76.3281 43.6484C76.3281 35.7109 69.8906 29.2734 61.9531 29.2734C61.2628 29.2734 60.7031 28.7138 60.7031 28.0234C60.7031 16.6484 51.4531 7.39844 40.0781 7.39844C28.7031 7.39844 19.4531 16.6484 19.4531 28.0234C19.4531 29.0859 20.2656 29.8984 21.3281 29.8984C22.3906 29.8984 23.2031 29.0859 23.2031 28.0234C23.2031 18.7109 30.7656 11.1484 40.0781 11.1484C49.3906 11.1484 56.9531 18.7109 56.9531 28.0234V31.1484C56.9531 32.2109 57.7656 33.0234 58.8281 33.0234H61.9531C67.8281 33.0234 72.5781 37.7734 72.5781 43.6484C72.5781 49.5234 67.8281 54.2734 61.9531 54.2734H43.8789C42.8434 54.2734 42.0039 55.1129 42.0039 56.1484Z" fill="#101828"></path><path d="M26 53.75C27.1372 53.75 28.2489 53.4128 29.1945 52.781C30.1401 52.1491 30.8771 51.2511 31.3123 50.2004C31.7475 49.1498 31.8614 47.9936 31.6395 46.8782C31.4177 45.7628 30.87 44.7383 30.0659 43.9341C29.2617 43.13 28.2372 42.5824 27.1218 42.3605C26.0064 42.1386 24.8502 42.2525 23.7996 42.6877C22.7489 43.1229 21.8509 43.8599 21.2191 44.8055C20.5872 45.7511 20.25 46.8628 20.25 48C20.25 49.525 20.8558 50.9875 21.9341 52.0659C23.0125 53.1442 24.475 53.75 26 53.75ZM26 45.125C26.5686 45.125 27.1245 45.2936 27.5973 45.6095C28.0701 45.9254 28.4386 46.3745 28.6562 46.8998C28.8738 47.4251 28.9307 48.0032 28.8198 48.5609C28.7088 49.1186 28.435 49.6309 28.0329 50.0329C27.6309 50.435 27.1186 50.7088 26.5609 50.8198C26.0032 50.9307 25.4251 50.8738 24.8998 50.6562C24.3744 50.4386 23.9254 50.0701 23.6095 49.5973C23.2936 49.1245 23.125 48.5686 23.125 48C23.125 47.2375 23.4279 46.5062 23.9671 45.9671C24.5062 45.4279 25.2375 45.125 26 45.125Z" fill="#E372A4"></path><path d="M12.4769 49.1644L11.9306 49.4375C10.9428 50.0089 10.2217 50.9485 9.92529 52.0505C9.62891 53.1525 9.7814 54.3271 10.3494 55.3169L11.7869 57.8181C12.0613 58.3176 12.4321 58.7577 12.8777 59.1131C13.3233 59.4684 13.8349 59.7319 14.383 59.8883C14.931 60.0447 15.5046 60.0909 16.0707 60.0242C16.6367 59.9576 17.1839 59.7794 17.6806 59.5L18.1262 59.2556C18.3448 59.1295 18.5927 59.063 18.845 59.063C19.0973 59.063 19.3452 59.1295 19.5637 59.2556C19.7742 59.3803 19.9493 59.5567 20.0726 59.768C20.1959 59.9793 20.2632 60.2185 20.2681 60.4631V60.9375C20.2681 62.0812 20.7225 63.1781 21.5312 63.9869C22.34 64.7957 23.4369 65.25 24.5806 65.25H27.4556C28.5994 65.25 29.6963 64.7957 30.505 63.9869C31.3138 63.1781 31.7681 62.0812 31.7681 60.9375V60.4056C31.7746 60.1597 31.844 59.9195 31.9699 59.7081C32.0957 59.4966 32.2737 59.3211 32.4869 59.1981C32.7054 59.072 32.9533 59.0055 33.2056 59.0055C33.458 59.0055 33.7058 59.072 33.9244 59.1981L34.37 59.4569C35.3593 60.0306 36.5361 60.1878 37.6414 59.894C38.7466 59.6001 39.6899 58.8793 40.2637 57.89L41.7012 55.3887C42.0788 54.7329 42.2771 53.9893 42.2762 53.2325C42.2826 52.461 42.0819 51.702 41.6951 51.0345C41.3082 50.367 40.7494 49.8155 40.0769 49.4375L39.5306 49.1069C39.3279 48.9875 39.1599 48.8173 39.0432 48.6131C38.9264 48.4089 38.865 48.1777 38.865 47.9425C38.865 47.7073 38.9264 47.4761 39.0432 47.2719C39.1599 47.0677 39.3279 46.8975 39.5306 46.7781L40.0769 46.4475C41.0647 45.8761 41.7858 44.9365 42.0822 43.8345C42.3786 42.7325 42.2261 41.5579 41.6581 40.5681L40.2206 38.0669C39.6468 37.0776 38.7035 36.3567 37.5982 36.0629C36.493 35.7691 35.3162 35.9263 34.3269 36.5L33.8669 36.7588C33.6545 36.8724 33.4169 36.9309 33.176 36.9288C32.9351 36.9267 32.6986 36.8641 32.4882 36.7468C32.2778 36.6294 32.1003 36.4611 31.972 36.2572C31.8436 36.0533 31.7686 35.8204 31.7537 35.58V35.0625C31.7537 33.9188 31.2994 32.8219 30.4906 32.0131C29.6819 31.2044 28.585 30.75 27.4412 30.75H24.5662C23.4225 30.75 22.3256 31.2044 21.5168 32.0131C20.7081 32.8219 20.2537 33.9188 20.2537 35.0625V35.58C20.2495 35.8274 20.1814 36.0696 20.0562 36.283C19.9309 36.4964 19.7526 36.6739 19.5387 36.7982C19.3247 36.9225 19.0823 36.9895 18.8348 36.9927C18.5874 36.9958 18.3433 36.9351 18.1262 36.8163L17.6806 36.5C16.6913 35.9263 15.5145 35.7691 14.4093 36.0629C13.304 36.3567 12.3607 37.0776 11.7869 38.0669L10.3494 40.5681C10.0499 41.063 9.85314 41.613 9.77065 42.1855C9.68816 42.758 9.72167 43.3413 9.8692 43.9005C10.0167 44.4598 10.2753 44.9837 10.6294 45.441C10.9835 45.8983 11.4261 46.2797 11.9306 46.5625L12.4769 46.8931C12.6796 47.0125 12.8476 47.1827 12.9643 47.3869C13.0811 47.5911 13.1425 47.8223 13.1425 48.0575C13.1425 48.2927 13.0811 48.5239 12.9643 48.7281C12.8476 48.9323 12.6796 49.1025 12.4769 49.2219V49.1644ZM13.3681 52.0394L13.9144 51.7087C14.5527 51.3367 15.0824 50.8037 15.4505 50.163C15.8186 49.5224 16.0123 48.7964 16.0123 48.0575C16.0123 47.3186 15.8186 46.5926 15.4505 45.952C15.0824 45.3113 14.5527 44.7783 13.9144 44.4062L13.3681 44.0756C13.2031 43.9814 13.0585 43.8553 12.9425 43.7048C12.8265 43.5543 12.7416 43.3823 12.6925 43.1987C12.5974 42.8344 12.649 42.4473 12.8362 42.1206L14.2737 39.6194C14.3689 39.4559 14.4953 39.3127 14.6458 39.1982C14.7964 39.0836 14.968 38.9999 15.151 38.9518C15.334 38.9037 15.5246 38.8922 15.712 38.918C15.8994 38.9437 16.0799 39.0062 16.2431 39.1019L16.6887 39.3606C17.3469 39.7339 18.0918 39.9275 18.8485 39.9219C19.6052 39.9162 20.347 39.7116 20.9996 39.3285C21.6522 38.9454 22.1924 38.3974 22.5662 37.7394C22.9399 37.0814 23.1339 36.3367 23.1287 35.58V35.0625C23.1287 34.6813 23.2802 34.3156 23.5498 34.046C23.8194 33.7765 24.185 33.625 24.5662 33.625H27.4412C27.8225 33.625 28.1881 33.7765 28.4577 34.046C28.7273 34.3156 28.8787 34.6813 28.8787 35.0625V35.58C28.8725 36.3358 29.065 37.08 29.4369 37.738C29.8089 38.396 30.3472 38.9447 30.998 39.329C31.6488 39.7134 32.3893 39.92 33.1451 39.928C33.9009 39.9361 34.6455 39.7454 35.3044 39.375L35.7644 39.1019C35.9276 39.0062 36.1081 38.9437 36.2955 38.918C36.4829 38.8922 36.6735 38.9037 36.8565 38.9518C37.0394 38.9999 37.2111 39.0836 37.3616 39.1982C37.5122 39.3127 37.6386 39.4559 37.7337 39.6194L39.1712 42.1206C39.3585 42.4473 39.4101 42.8344 39.315 43.1987C39.2659 43.3823 39.1809 43.5543 39.065 43.7048C38.949 43.8553 38.8043 43.9814 38.6394 44.0756L38.0931 44.4062C37.4548 44.7783 36.9251 45.3113 36.557 45.952C36.1889 46.5926 35.9951 47.3186 35.9951 48.0575C35.9951 48.7964 36.1889 49.5224 36.557 50.163C36.9251 50.8037 37.4548 51.3367 38.0931 51.7087L38.6394 52.0394C38.8043 52.1336 38.949 52.2597 39.065 52.4102C39.1809 52.5607 39.2659 52.7327 39.315 52.9163C39.4101 53.2806 39.3585 53.6677 39.1712 53.9944L37.7337 56.4956C37.6386 56.6591 37.5122 56.8023 37.3616 56.9168C37.2111 57.0314 37.0394 57.1151 36.8565 57.1632C36.6735 57.2113 36.4829 57.2228 36.2955 57.197C36.1081 57.1713 35.9276 57.1088 35.7644 57.0131L35.3187 56.7544C34.6632 56.3759 33.9195 56.1766 33.1625 56.1766C32.4055 56.1766 31.6618 56.3759 31.0062 56.7544C30.3681 57.1293 29.8372 57.6621 29.4646 58.3015C29.092 58.941 28.8902 59.6656 28.8787 60.4056V60.9375C28.8787 61.3187 28.7273 61.6844 28.4577 61.954C28.1881 62.2236 27.8225 62.375 27.4412 62.375H24.5662C24.185 62.375 23.8194 62.2236 23.5498 61.954C23.2802 61.6844 23.1287 61.3187 23.1287 60.9375V60.42C23.1239 59.6682 22.9225 58.9307 22.5447 58.2807C22.1668 57.6307 21.6256 57.0908 20.9748 56.7145C20.3239 56.3382 19.5859 56.1386 18.8341 56.1355C18.0823 56.1324 17.3427 56.326 16.6887 56.6969L16.2431 56.9556C16.0799 57.0513 15.8994 57.1138 15.712 57.1395C15.5246 57.1653 15.334 57.1538 15.151 57.1057C14.968 57.0576 14.7964 56.9739 14.6458 56.8593C14.4953 56.7448 14.3689 56.6016 14.2737 56.4381L12.8362 53.9369C12.649 53.6102 12.5974 53.2231 12.6925 52.8587C12.7416 52.6752 12.8265 52.5032 12.9425 52.3527C13.0585 52.2022 13.2031 52.0761 13.3681 51.9819V52.0394Z" fill="#E372A4"></path></svg>