<svg xmlns="http://www.w3.org/2000/svg" width="80" height="80" viewBox="0 0 80 80" fill="none"><g clip-path="url(#clip0_1613_1231)"><path fill-rule="evenodd" clip-rule="evenodd" d="M42.0039 56.1484C42.0039 57.184 42.8434 58.0234 43.8789 58.0234H61.9531C69.8906 58.0234 76.3281 51.5859 76.3281 43.6484C76.3281 35.7109 69.8906 29.2734 61.9531 29.2734C61.2628 29.2734 60.7031 28.7138 60.7031 28.0234C60.7031 16.6484 51.4531 7.39844 40.0781 7.39844C28.7031 7.39844 19.4531 16.6484 19.4531 28.0234C19.4531 29.0859 20.2656 29.8984 21.3281 29.8984C22.3906 29.8984 23.2031 29.0859 23.2031 28.0234C23.2031 18.7109 30.7656 11.1484 40.0781 11.1484C49.3906 11.1484 56.9531 18.7109 56.9531 28.0234V31.1484C56.9531 32.2109 57.7656 33.0234 58.8281 33.0234H61.9531C67.8281 33.0234 72.5781 37.7734 72.5781 43.6484C72.5781 49.5234 67.8281 54.2734 61.9531 54.2734H43.8789C42.8434 54.2734 42.0039 55.1129 42.0039 56.1484Z" fill="#101828"></path><path fill-rule="evenodd" clip-rule="evenodd" d="M18.8777 36.1738C20.1841 35.39 21.8159 35.39 23.1223 36.1738L34.1223 42.7738C35.3648 43.5193 36.125 44.862 36.125 46.3109V59.6968C36.125 61.1458 35.3648 62.4885 34.1223 63.234L23.1223 69.834C21.8159 70.6178 20.1841 70.6178 18.8777 69.834L7.8777 63.234C6.63524 62.4885 5.875 61.1458 5.875 59.6968V46.3109C5.875 44.862 6.63524 43.5193 7.8777 42.7738L18.8777 36.1738ZM21.7074 38.5319C21.272 38.2706 20.728 38.2706 20.2926 38.5319L9.92251 44.7539L21 51.4004L32.0774 44.7539L21.7074 38.5319ZM8.625 59.6968V47.1824L19.625 53.7824V67.0754L9.29258 60.8759C8.87841 60.6274 8.625 60.1799 8.625 59.6968ZM22.375 67.0754L32.7074 60.8759C33.1216 60.6274 33.375 60.1799 33.375 59.6968V47.1824L22.375 53.7824V67.0754Z" fill="#9263D4"></path></g><defs><clipPath id="clip0_1613_1231"><rect width="80" height="80" fill="white"></rect></clipPath></defs></svg>