<svg xmlns="http://www.w3.org/2000/svg" width="80" height="80" viewBox="0 0 80 80" fill="none"><path fill-rule="evenodd" clip-rule="evenodd" d="M42.0039 56.1484C42.0039 57.184 42.8434 58.0234 43.8789 58.0234H61.9531C69.8906 58.0234 76.3281 51.5859 76.3281 43.6484C76.3281 35.7109 69.8906 29.2734 61.9531 29.2734C61.2628 29.2734 60.7031 28.7138 60.7031 28.0234C60.7031 16.6484 51.4531 7.39844 40.0781 7.39844C28.7031 7.39844 19.4531 16.6484 19.4531 28.0234C19.4531 29.0859 20.2656 29.8984 21.3281 29.8984C22.3906 29.8984 23.2031 29.0859 23.2031 28.0234C23.2031 18.7109 30.7656 11.1484 40.0781 11.1484C49.3906 11.1484 56.9531 18.7109 56.9531 28.0234V31.1484C56.9531 32.2109 57.7656 33.0234 58.8281 33.0234H61.9531C67.8281 33.0234 72.5781 37.7734 72.5781 43.6484C72.5781 49.5234 67.8281 54.2734 61.9531 54.2734H43.8789C42.8434 54.2734 42.0039 55.1129 42.0039 56.1484Z" fill="#101828"></path><path d="M44.7895 27H7.26316C5.46842 27 4 28.4684 4 30.2632V54.7368C4 56.5316 5.46842 58 7.26316 58H44.7895C46.5842 58 48.0526 56.5316 48.0526 54.7368V30.2632C48.0526 28.4684 46.5842 27 44.7895 27ZM44.7895 54.7368H7.26316V30.2632H44.7895V54.7368ZM41.5263 43.3158H28.4737V41.6842H41.5263V43.3158ZM41.5263 38.4211H28.4737V36.7895H41.5263V38.4211ZM41.5263 48.2105H28.4737V46.5789H41.5263V48.2105ZM23.5789 48.2105H12.1579C12.1579 45.6816 13.7895 43.5605 16.0737 42.7447C15.1763 42.1737 14.6053 41.1947 14.6053 40.0526C14.6053 38.2579 16.0737 36.7895 17.8684 36.7895C19.6632 36.7895 21.1316 38.2579 21.1316 40.0526C21.1316 41.1947 20.5605 42.1737 19.6632 42.7447C21.9474 43.5605 23.5789 45.6816 23.5789 48.2105Z" fill="#E372A4"></path></svg>