<svg xmlns="http://www.w3.org/2000/svg" width="80" height="80" viewBox="0 0 80 80" fill="none"><path fill-rule="evenodd" clip-rule="evenodd" d="M44.0039 51.75C44.0039 52.7855 44.8434 53.625 45.8789 53.625H63.9531C71.8906 53.625 78.3281 47.1875 78.3281 39.25C78.3281 31.3125 71.8906 24.875 63.9531 24.875C63.2628 24.875 62.7031 24.3154 62.7031 23.625C62.7031 12.25 53.4531 3 42.0781 3C30.7031 3 21.4531 12.25 21.4531 23.625C21.4531 24.6875 22.2656 25.5 23.3281 25.5C24.3906 25.5 25.2031 24.6875 25.2031 23.625C25.2031 14.3125 32.7656 6.75 42.0781 6.75C51.3906 6.75 58.9531 14.3125 58.9531 23.625V26.75C58.9531 27.8125 59.7656 28.625 60.8281 28.625H63.9531C69.8281 28.625 74.5781 33.375 74.5781 39.25C74.5781 45.125 69.8281 49.875 63.9531 49.875H45.8789C44.8434 49.875 44.0039 50.7145 44.0039 51.75Z" fill="#101828"></path><path fill-rule="evenodd" clip-rule="evenodd" d="M43.0714 60.173H33.2143V59.2103L36.0186 56.4059C36.661 55.7636 36.661 54.7253 36.0186 54.0829C35.3763 53.4406 34.338 53.4406 33.6956 54.0829L33.2143 54.5643V50.3158C33.2143 49.4073 32.4799 48.673 31.5714 48.673H20.0714V47.0301H29.9286C32.6459 47.0301 34.8571 44.8188 34.8571 42.1016V35.5301C34.8571 32.8128 32.6459 30.6016 29.9286 30.6016H6.92857C4.21129 30.6016 2 32.8128 2 35.5301V42.1016C2 44.8188 4.21129 47.0301 6.92857 47.0301H16.7857V50.3158C16.7857 51.2243 17.5217 51.9587 18.4286 51.9587H29.9286V54.5643L29.4472 54.0829C28.8049 53.4406 27.7666 53.4406 27.1242 54.0829C26.4819 54.7253 26.4819 55.7636 27.1242 56.4059L29.9286 59.2103V60.173H20.0714C17.3541 60.173 15.1429 62.3843 15.1429 65.1016V71.673C15.1429 74.3903 17.3541 76.6016 20.0714 76.6016H43.0714C45.7887 76.6016 48 74.3903 48 71.673V65.1016C48 62.3843 45.7887 60.173 43.0714 60.173ZM6.92857 43.7444C6.02336 43.7444 5.28571 43.0084 5.28571 42.1016V35.5301C5.28571 34.6233 6.02336 33.8873 6.92857 33.8873H29.9286C30.8354 33.8873 31.5714 34.6233 31.5714 35.5301V42.1016C31.5714 43.0084 30.8354 43.7444 29.9286 43.7444H6.92857ZM44.7143 71.673C44.7143 72.5798 43.9783 73.3158 43.0714 73.3158H20.0714C19.1662 73.3158 18.4286 72.5798 18.4286 71.673V65.1016C18.4286 64.1947 19.1662 63.4587 20.0714 63.4587H43.0714C43.9783 63.4587 44.7143 64.1947 44.7143 65.1016V71.673ZM31.5696 65.1016C30.6611 65.1016 29.9268 65.8359 29.9268 66.7444V70.0301C29.9268 70.9386 30.6611 71.673 31.5696 71.673C32.4781 71.673 33.2125 70.9386 33.2125 70.0301V66.7444C33.2125 65.8359 32.4781 65.1016 31.5696 65.1016ZM36.4982 65.1016C35.5897 65.1016 34.8554 65.8359 34.8554 66.7444V70.0301C34.8554 70.9386 35.5897 71.673 36.4982 71.673C37.4067 71.673 38.1411 70.9386 38.1411 70.0301V66.7444C38.1411 65.8359 37.4067 65.1016 36.4982 65.1016ZM41.4268 65.1016C40.5183 65.1016 39.7839 65.8359 39.7839 66.7444V70.0301C39.7839 70.9386 40.5183 71.673 41.4268 71.673C42.3353 71.673 43.0696 70.9386 43.0696 70.0301V66.7444C43.0696 65.8359 42.3353 65.1016 41.4268 65.1016ZM16.7845 37.1741C16.7845 36.2656 17.5205 35.5312 18.4274 35.5312C19.3343 35.5312 20.0703 36.2656 20.0703 37.1741V40.4598C20.0703 41.3683 19.3343 42.1027 18.4274 42.1027C17.5205 42.1027 16.7845 41.3683 16.7845 40.4598V37.1741ZM21.7131 37.1741C21.7131 36.2656 22.4491 35.5312 23.356 35.5312C24.2628 35.5312 24.9988 36.2656 24.9988 37.1741V40.4598C24.9988 41.3683 24.2628 42.1027 23.356 42.1027C22.4491 42.1027 21.7131 41.3683 21.7131 40.4598V37.1741ZM28.2845 35.5312C29.193 35.5312 29.9274 36.2656 29.9274 37.1741V40.4598C29.9274 41.3683 29.193 42.1027 28.2845 42.1027C27.376 42.1027 26.6417 41.3683 26.6417 40.4598V37.1741C26.6417 36.2656 27.376 35.5312 28.2845 35.5312Z" fill="#9263D4"></path></svg>