<svg xmlns="http://www.w3.org/2000/svg" width="80" height="80" viewBox="0 0 80 80" fill="none"><path fill-rule="evenodd" clip-rule="evenodd" d="M42.0039 56.1484C42.0039 57.184 42.8434 58.0234 43.8789 58.0234H61.9531C69.8906 58.0234 76.3281 51.5859 76.3281 43.6484C76.3281 35.7109 69.8906 29.2734 61.9531 29.2734C61.2628 29.2734 60.7031 28.7138 60.7031 28.0234C60.7031 16.6484 51.4531 7.39844 40.0781 7.39844C28.7031 7.39844 19.4531 16.6484 19.4531 28.0234C19.4531 29.0859 20.2656 29.8984 21.3281 29.8984C22.3906 29.8984 23.2031 29.0859 23.2031 28.0234C23.2031 18.7109 30.7656 11.1484 40.0781 11.1484C49.3906 11.1484 56.9531 18.7109 56.9531 28.0234V31.1484C56.9531 32.2109 57.7656 33.0234 58.8281 33.0234H61.9531C67.8281 33.0234 72.5781 37.7734 72.5781 43.6484C72.5781 49.5234 67.8281 54.2734 61.9531 54.2734H43.8789C42.8434 54.2734 42.0039 55.1129 42.0039 56.1484Z" fill="#101828"></path><path d="M25 45.5132C25.3757 45.5132 25.736 45.3639 26.0017 45.0982C26.2674 44.8326 26.4167 44.4722 26.4167 44.0965V37.0132C26.4167 36.6375 26.2674 36.2771 26.0017 36.0114C25.736 35.7458 25.3757 35.5965 25 35.5965C24.6243 35.5965 24.2639 35.7458 23.9983 36.0114C23.7326 36.2771 23.5833 36.6375 23.5833 37.0132V44.0965C23.5833 44.4722 23.7326 44.8326 23.9983 45.0982C24.2639 45.3639 24.6243 45.5132 25 45.5132ZM15.0833 61.2948V37.0132C15.0833 36.6375 14.9341 36.2771 14.6684 36.0114C14.4027 35.7458 14.0424 35.5965 13.6667 35.5965C13.2909 35.5965 12.9306 35.7458 12.6649 36.0114C12.3993 36.2771 12.25 36.6375 12.25 37.0132V61.2948C10.9146 61.6396 9.75074 62.4596 8.97666 63.6012C8.20258 64.7427 7.87139 66.1273 8.04518 67.4956C8.21897 68.8638 8.8858 70.1217 9.92068 71.0334C10.9556 71.9452 12.2874 72.4482 13.6667 72.4482C15.0459 72.4482 16.3778 71.9452 17.4127 71.0334C18.4475 70.1217 19.1144 68.8638 19.2882 67.4956C19.462 66.1273 19.1308 64.7427 18.3567 63.6012C17.5826 62.4596 16.4188 61.6396 15.0833 61.2948ZM13.6667 69.5965C13.1063 69.5965 12.5585 69.4303 12.0926 69.119C11.6266 68.8076 11.2635 68.3651 11.049 67.8474C10.8346 67.3297 10.7785 66.76 10.8878 66.2104C10.9971 65.6608 11.267 65.1559 11.6632 64.7597C12.0595 64.3634 12.5643 64.0936 13.1139 63.9843C13.6635 63.8749 14.2332 63.931 14.7509 64.1455C15.2687 64.3599 15.7112 64.7231 16.0225 65.189C16.3338 65.655 16.5 66.2028 16.5 66.7631C16.5 67.5146 16.2015 68.2353 15.6701 68.7666C15.1388 69.298 14.4181 69.5965 13.6667 69.5965ZM25 48.3465C23.6328 48.3629 22.3176 48.8731 21.2969 49.783C20.2763 50.6929 19.6191 51.9412 19.4466 53.2976C19.274 54.654 19.5977 56.027 20.3579 57.1635C21.1182 58.3 22.2638 59.1233 23.5833 59.4815V71.0131C23.5833 71.3889 23.7326 71.7492 23.9983 72.0149C24.2639 72.2805 24.6243 72.4298 25 72.4298C25.3757 72.4298 25.736 72.2805 26.0017 72.0149C26.2674 71.7492 26.4167 71.3889 26.4167 71.0131V59.4815C27.7362 59.1233 28.8818 58.3 29.642 57.1635C30.4023 56.027 30.726 54.654 30.5534 53.2976C30.3808 51.9412 29.7237 50.6929 28.703 49.783C27.6824 48.8731 26.3672 48.3629 25 48.3465ZM25 56.8465C24.4396 56.8465 23.8918 56.6803 23.4259 56.369C22.9599 56.0577 22.5968 55.6151 22.3823 55.0974C22.1679 54.5797 22.1118 54.01 22.2211 53.4604C22.3304 52.9108 22.6003 52.4059 22.9965 52.0097C23.3928 51.6134 23.8976 51.3436 24.4472 51.2343C24.9968 51.1249 25.5665 51.1811 26.0843 51.3955C26.602 51.6099 27.0445 51.9731 27.3558 52.439C27.6671 52.905 27.8333 53.4528 27.8333 54.0132C27.8333 54.7646 27.5348 55.4853 27.0035 56.0166C26.4721 56.548 25.7514 56.8465 25 56.8465ZM42 41.2632C42.0034 40.2025 41.7091 39.1622 41.1506 38.2606C40.592 37.3589 39.7916 36.6322 38.8404 36.1629C37.8892 35.6936 36.8255 35.5008 35.7701 35.6062C34.7147 35.7116 33.7101 36.1111 32.8705 36.7593C32.031 37.4074 31.3902 38.2782 31.021 39.2725C30.6518 40.2668 30.5691 41.3448 30.7823 42.3838C30.9955 43.4227 31.496 44.3811 32.2269 45.1497C32.9578 45.9183 33.8897 46.4663 34.9166 46.7315V71.0131C34.9166 71.3889 35.0659 71.7492 35.3316 72.0149C35.5973 72.2805 35.9576 72.4298 36.3333 72.4298C36.709 72.4298 37.0694 72.2805 37.335 72.0149C37.6007 71.7492 37.75 71.3889 37.75 71.0131V46.7315C38.9633 46.4182 40.0386 45.7116 40.8076 44.7222C41.5766 43.7327 41.9959 42.5163 42 41.2632ZM36.3333 44.0965C35.7729 44.0965 35.2251 43.9303 34.7592 43.619C34.2933 43.3077 33.9301 42.8652 33.7157 42.3474C33.5012 41.8297 33.4451 41.26 33.5544 40.7104C33.6637 40.1608 33.9336 39.656 34.3298 39.2597C34.7261 38.8635 35.2309 38.5936 35.7806 38.4843C36.3302 38.375 36.8999 38.4311 37.4176 38.6455C37.9353 38.86 38.3778 39.2231 38.6891 39.6891C39.0005 40.155 39.1666 40.7028 39.1666 41.2632C39.1666 42.0146 38.8681 42.7353 38.3368 43.2666C37.8054 43.798 37.0848 44.0965 36.3333 44.0965Z" fill="#E372A4"></path></svg>