<svg xmlns="http://www.w3.org/2000/svg" width="24" height="24" viewBox="0 0 24 24" fill="none"><path d="M9.66044 7.14486C9.46183 7.33669 9.45634 7.65322 9.64817 7.85183L13.7947 11.9983L9.64823 16.1449C9.4611 16.3386 9.4611 16.6458 9.64823 16.8396C9.84006 17.0382 10.1566 17.0437 10.3552 16.8518L14.8552 12.3518C14.9491 12.2582 15.0019 12.1309 15.0017 11.9983C15.0018 11.8657 14.9491 11.7385 14.8552 11.6449L10.3552 7.14486C10.1614 6.95767 9.85422 6.95767 9.66044 7.14486Z" fill="#7F56D9" stroke="#7F56D9" stroke-width="0.7"></path><path d="M15.1526 7.14486C14.954 7.33669 14.9485 7.65322 15.1404 7.85183L19.2869 11.9983L15.1404 16.1449C14.9533 16.3386 14.9533 16.6458 15.1404 16.8396C15.3323 17.0382 15.6488 17.0437 15.8474 16.8518L20.3474 12.3518C20.4413 12.2582 20.4941 12.1309 20.4939 11.9983C20.494 11.8657 20.4413 11.7385 20.3474 11.6449L15.8474 7.14486C15.6536 6.95767 15.3464 6.95767 15.1526 7.14486Z" fill="#7F56D9" stroke="#7F56D9" stroke-width="0.7"></path></svg>