<svg xmlns="http://www.w3.org/2000/svg" width="110" height="158" viewBox="0 0 110 158" fill="none"><path d="M73.2344 62.8428C71.7969 52.6365 74.1608 42.2574 79.8776 33.6805L83.1643 28.7483L70.2161 20.1126C65.2382 16.7914 62.0986 11.337 61.7236 5.36407C61.5876 3.1941 63.6243 1.53536 65.7198 2.10543L91.7303 9.20016C101.903 11.977 108.704 21.5433 107.987 32.0658L106.616 52.2062L79.4842 156.689H50.6135H1.30943L49.518 82.3946L40.5954 78.702C31.0919 76.7527 22.6399 71.3645 16.8569 63.5673L13.6731 59.5951L24.7611 15.7726L65.5875 20.9879L73.2344 62.8428Z" fill="white"></path><path d="M1.30648 157.997H79.4813C80.0769 157.997 80.5952 157.597 80.746 157.019L107.878 52.5366C107.9 52.4593 107.911 52.3784 107.918 52.2975L109.289 32.1571C110.047 21.0535 102.804 10.8693 92.0729 7.94166L66.0625 0.843266C64.6544 0.453406 63.1912 0.769707 62.0589 1.69287C60.9265 2.61603 60.3273 3.98421 60.4192 5.44435C60.8162 11.7851 64.2059 17.6735 69.4889 21.1969L81.3489 29.1081L78.7865 32.9553C72.8859 41.808 70.4558 52.4851 71.9373 63.026C72.0366 63.7395 72.7057 64.2397 73.4116 64.1367C74.1248 64.0374 74.6248 63.3754 74.5218 62.6619C73.1285 52.7609 75.4115 42.7238 80.9555 34.408L84.2422 29.4759C84.6429 28.8764 84.4812 28.0636 83.8783 27.6627L70.93 19.0269C66.3198 15.9522 63.364 10.8141 63.0184 5.28252C62.9816 4.67566 63.228 4.10558 63.7022 3.7194C64.1765 3.33689 64.7831 3.20449 65.3676 3.36632L91.3781 10.4647C100.915 13.065 107.348 22.1164 106.676 31.9806L105.312 51.9996L78.4629 155.386H3.70347L50.6106 83.1075C50.8201 82.7802 50.8789 82.3793 50.7613 82.0078C50.6473 81.6363 50.3716 81.3384 50.015 81.1876L41.0924 77.495C41.0152 77.4619 40.938 77.4398 40.8571 77.4214C31.6551 75.5346 23.5045 70.3377 17.9054 62.7906L15.1003 59.2892L25.7434 17.2174L65.4228 22.2856C66.1323 22.3739 66.7941 21.87 66.8823 21.1565C66.9742 20.4393 66.4669 19.7846 65.75 19.6927L24.9236 14.4773C24.2839 14.3964 23.6553 14.812 23.4935 15.452L12.4055 59.2745C12.3063 59.6717 12.3982 60.091 12.6518 60.411L15.8356 64.3832C21.7619 72.3753 30.4235 77.9143 40.2064 79.9518L47.5628 82.9972L0.210899 155.975C-0.0501251 156.376 -0.068512 156.89 0.159424 157.31C0.38736 157.736 0.828545 157.997 1.30648 157.997Z" fill="#243250"></path></svg>