<svg xmlns="http://www.w3.org/2000/svg" width="41" height="29" viewBox="0 0 41 29" fill="none"><path d="M17.3706 25.841C20.2271 22.5787 27.7932 20.5963 30.8078 20.1954C35.8114 19.5297 39.3297 14.9286 38.6606 9.92291C37.9951 4.91357 33.4033 1.3938 28.3887 2.06686C26.7049 2.29122 11.72 4.52741 3.60984 13.7995C0.282707 17.5988 0.668713 23.3768 4.4701 26.7053L17.3706 25.841Z" fill="white"></path><path d="M4.47156 28.0137C4.83552 28.0137 5.19582 27.8629 5.45317 27.5687C5.92743 27.028 5.87228 26.2005 5.33184 25.7261C3.75835 24.3468 2.8135 22.438 2.6738 20.3489C2.5341 18.2599 3.21792 16.2407 4.59657 14.6665C12.3905 5.75491 26.9343 3.58861 28.5667 3.36793C30.6401 3.09209 32.7026 3.63642 34.3643 4.90898C36.026 6.18155 37.0922 8.0242 37.3679 10.1022C37.6437 12.1766 37.0959 14.2362 35.8239 15.8986C34.5518 17.5611 32.71 18.6313 30.6365 18.9072C27.3387 19.3485 19.5154 21.4118 16.3868 24.9868C15.9125 25.5274 15.9676 26.355 16.5081 26.8294C17.0522 27.3039 17.8757 27.2487 18.3499 26.7044C20.8205 23.8834 27.7946 21.9194 30.9784 21.4928C33.743 21.125 36.2025 19.7016 37.8973 17.4802C39.5922 15.2624 40.3238 12.5186 39.9524 9.74914C39.5848 6.97966 38.162 4.51913 35.9452 2.8236C33.7283 1.12808 30.982 0.392495 28.2137 0.767644C26.4821 0.999353 11.045 3.3054 2.62234 12.9342C0.784149 15.0343 -0.127609 17.7266 0.0598869 20.5108C0.243706 23.295 1.50471 25.8438 3.60394 27.6827C3.86128 27.9071 4.16642 28.0137 4.47156 28.0137Z" fill="#243250"></path></svg>