<svg xmlns="http://www.w3.org/2000/svg" width="192" height="32" viewBox="0 0 192 32" fill="none"><mask id="mask0_1441_1128" style="mask-type:alpha" maskUnits="userSpaceOnUse" x="0" y="0" width="32" height="32"><rect width="32" height="32" fill="#FFCA5D"></rect></mask><g mask="url(#mask0_1441_1128)"><path d="M7.76406 27.9948L10.8641 17.8615L2.66406 11.9948H12.7974L15.9974 1.32812L19.1974 11.9948H29.3307L21.1307 17.8615L24.2307 27.9948L15.9974 21.7281L7.76406 27.9948Z" fill="#FFCA5D"></path></g><mask id="mask1_1441_1128" style="mask-type:alpha" maskUnits="userSpaceOnUse" x="80" y="0" width="32" height="32"><rect x="80" width="32" height="32" fill="#FFCA5D"></rect></mask><g mask="url(#mask1_1441_1128)"><path d="M87.7641 27.9948L90.8641 17.8615L82.6641 11.9948H92.7974L95.9974 1.32812L99.1974 11.9948H109.331L101.131 17.8615L104.231 27.9948L95.9974 21.7281L87.7641 27.9948Z" fill="#FFCA5D"></path></g><mask id="mask2_1441_1128" style="mask-type:alpha" maskUnits="userSpaceOnUse" x="40" y="0" width="32" height="32"><rect x="40" width="32" height="32" fill="#FFCA5D"></rect></mask><g mask="url(#mask2_1441_1128)"><path d="M47.7641 27.9948L50.8641 17.8615L42.6641 11.9948H52.7974L55.9974 1.32812L59.1974 11.9948H69.3307L61.1307 17.8615L64.2307 27.9948L55.9974 21.7281L47.7641 27.9948Z" fill="#FFCA5D"></path></g><mask id="mask3_1441_1128" style="mask-type:alpha" maskUnits="userSpaceOnUse" x="120" y="0" width="32" height="32"><rect x="120" width="32" height="32" fill="#FFCA5D"></rect></mask><g mask="url(#mask3_1441_1128)"><path d="M127.764 27.9948L130.864 17.8615L122.664 11.9948H132.797L135.997 1.32812L139.197 11.9948H149.331L141.131 17.8615L144.231 27.9948L135.997 21.7281L127.764 27.9948Z" fill="#FFCA5D"></path></g><mask id="mask4_1441_1128" style="mask-type:alpha" maskUnits="userSpaceOnUse" x="160" y="0" width="32" height="32"><rect x="160" width="32" height="32" fill="#FFCA5D"></rect></mask><g mask="url(#mask4_1441_1128)"><path d="M167.764 27.9948L170.864 17.8615L162.664 11.9948H172.797L175.997 1.32812L179.197 11.9948H189.331L181.131 17.8615L184.231 27.9948L175.997 21.7281L167.764 27.9948Z" fill="#FFCA5D"></path></g></svg>