<svg xmlns="http://www.w3.org/2000/svg" width="80" height="80" viewBox="0 0 80 80" fill="none"><g clip-path="url(#clip0_1441_1430)"><path fill-rule="evenodd" clip-rule="evenodd" d="M42.0039 56.1484C42.0039 57.184 42.8434 58.0234 43.8789 58.0234H61.9531C69.8906 58.0234 76.3281 51.5859 76.3281 43.6484C76.3281 35.7109 69.8906 29.2734 61.9531 29.2734C61.2628 29.2734 60.7031 28.7138 60.7031 28.0234C60.7031 16.6484 51.4531 7.39844 40.0781 7.39844C28.7031 7.39844 19.4531 16.6484 19.4531 28.0234C19.4531 29.0859 20.2656 29.8984 21.3281 29.8984C22.3906 29.8984 23.2031 29.0859 23.2031 28.0234C23.2031 18.7109 30.7656 11.1484 40.0781 11.1484C49.3906 11.1484 56.9531 18.7109 56.9531 28.0234V31.1484C56.9531 32.2109 57.7656 33.0234 58.8281 33.0234H61.9531C67.8281 33.0234 72.5781 37.7734 72.5781 43.6484C72.5781 49.5234 67.8281 54.2734 61.9531 54.2734H43.8789C42.8434 54.2734 42.0039 55.1129 42.0039 56.1484Z" fill="#101828"></path><path d="M31.2972 65.0173C31.4779 65.0336 31.6601 65.0417 31.843 65.0417C35.1221 65.0417 37.7896 62.3743 37.7896 59.0952C37.7896 58.5768 37.7221 58.0644 37.5911 57.5697C37.8685 57.3773 38.121 57.1562 38.3613 56.9234C38.4135 56.873 38.464 56.822 38.5144 56.7698C38.7542 56.5205 38.978 56.2574 39.1726 55.9724C39.2014 55.9304 39.224 55.8849 39.2519 55.8421C39.4181 55.5853 39.5627 55.3158 39.6897 55.0364C39.7243 54.9605 39.7614 54.8874 39.7929 54.8099C39.9204 54.4963 40.0203 54.1717 40.0952 53.838C40.1127 53.7592 40.1254 53.6796 40.1399 53.5998C40.2059 53.2397 40.2512 52.8737 40.2512 52.4991C40.2512 50.6019 39.4054 48.8742 37.9976 47.7294C38.3309 47.0525 38.5101 46.3016 38.5101 45.5292C38.5101 43.1432 36.821 41.1437 34.5741 40.6631C34.5808 40.5594 34.5837 40.4557 34.5837 40.3513C34.5837 38.6364 33.7107 37.121 32.3853 36.2257C31.5903 35.6878 30.6323 35.3734 29.6021 35.3734C29.595 35.3734 29.5893 35.3772 29.5823 35.3773C29.1901 35.3791 28.7993 35.4261 28.4195 35.5192C27.6123 34.0138 26.023 33 24.1991 33C22.9281 33 21.7785 33.505 20.9193 34.3139C20.06 33.505 18.9104 33 17.6393 33C15.8155 33 14.2262 34.0138 13.419 35.5192C13.0385 35.4259 12.6471 35.3787 12.2542 35.3771C12.2477 35.377 12.2423 35.3734 12.2356 35.3734C10.6053 35.3734 9.1688 36.1716 8.25993 37.386C7.63757 38.2167 7.25548 39.2363 7.25548 40.3513C7.25548 40.4557 7.25845 40.5594 7.26509 40.6631C5.01831 41.1437 3.32842 43.1432 3.32842 45.5292C3.32842 46.3023 3.50688 47.0532 3.84084 47.7294C2.43163 48.8742 1.58594 50.6019 1.58594 52.4991C1.58594 52.8822 1.63288 53.2565 1.70181 53.6244C1.71409 53.6903 1.72439 53.7559 1.73875 53.821C1.81501 54.1653 1.91811 54.5 2.05033 54.8228C2.07737 54.8889 2.10916 54.9513 2.13847 55.0163C2.27108 55.3106 2.42301 55.5947 2.5991 55.8641C2.62089 55.8974 2.63861 55.9332 2.6611 55.9661C2.85858 56.2559 3.08557 56.5233 3.3296 56.7762C3.37635 56.8245 3.4231 56.8716 3.47143 56.9184C3.71318 57.1532 3.96731 57.376 4.2467 57.5697C4.11666 58.0626 4.04932 58.574 4.04912 59.092C4.04912 59.0916 4.04912 59.0924 4.04912 59.092C4.04912 59.0923 4.04902 59.0936 4.04902 59.0939C4.04902 59.0934 4.04902 59.0944 4.04902 59.0939C4.04902 62.3731 6.71562 65.0417 9.99399 65.0417C10.1777 65.0417 10.3598 65.0336 10.5413 65.0173C11.424 67.3485 13.6871 69 16.2864 69C18.1431 69 19.7906 68.1562 20.9193 66.852C22.048 68.1562 23.6953 69 25.5521 69C28.1514 69 30.4145 67.3493 31.2972 65.0173ZM16.2864 65.9667C14.9798 65.9667 13.8539 65.1361 13.4007 63.9684C14.0201 63.5356 14.5625 62.9846 14.989 62.3284C15.4458 61.6256 15.246 60.6866 14.5439 60.2305C13.8404 59.7743 12.9021 59.9728 12.446 60.6755C12.0602 61.2689 11.4808 61.6812 10.8236 61.8759C10.7707 61.8915 10.719 61.9105 10.6654 61.9231C10.4481 61.9742 10.2246 62.007 9.99547 62.007C8.38967 62.007 7.08286 60.7006 7.08226 59.0942C7.08236 58.9259 7.11891 58.7644 7.14674 58.6011C7.34778 58.621 7.54249 58.662 7.74869 58.662H7.98935C12.3778 58.662 15.9488 55.0911 15.9488 50.7026V49.6873C15.9488 48.8498 15.2697 48.1707 14.4321 48.1707C13.5945 48.1707 12.9154 48.8498 12.9154 49.6873V50.7026C12.9154 53.4189 10.7057 55.6287 7.98935 55.6287H7.74869C7.35264 55.6287 6.97708 55.5472 6.62807 55.4123C6.36711 55.3118 6.12664 55.177 5.90747 55.0161C5.85419 54.977 5.80556 54.9324 5.75485 54.89C5.5647 54.7308 5.39178 54.5536 5.245 54.3555C5.22351 54.3266 5.19687 54.302 5.17637 54.2723C5.02187 54.048 4.9054 53.7994 4.8131 53.541C4.78973 53.4755 4.76992 53.4085 4.7509 53.3411C4.67781 53.0825 4.62889 52.815 4.62532 52.5385C4.62512 52.525 4.62136 52.5126 4.62136 52.4991C4.62136 52.497 4.62007 52.4952 4.62007 52.493C4.62255 51.266 5.33711 50.1983 6.43742 49.6873H6.92747C7.87011 49.6873 8.75878 49.3238 9.42897 48.6624C10.0251 48.0744 10.0318 47.1147 9.44383 46.5178C8.85732 45.9224 7.89606 45.9135 7.29916 46.503C7.24211 46.5593 7.11772 46.6541 6.92747 46.6541H6.72721C6.49437 46.3274 6.36166 45.9374 6.36166 45.5292C6.36166 44.4576 7.23547 43.586 8.30925 43.586C8.37976 43.586 8.43849 43.6081 8.50485 43.6146C9.41818 44.6571 10.7434 45.33 12.2356 45.33C13.0732 45.33 13.7523 44.651 13.7523 43.8134C13.7523 42.9758 13.0732 42.2967 12.2356 42.2967C11.4766 42.2967 10.8344 41.8488 10.5138 41.2138C10.4817 41.1505 10.4499 41.0875 10.425 41.0213C10.347 40.8111 10.2895 40.5897 10.2895 40.3528C10.2895 39.8163 10.5078 39.3298 10.8602 38.9775C11.2127 38.626 11.699 38.4082 12.2356 38.4082C12.7888 38.4082 13.1969 38.6355 13.442 38.8265C13.8886 39.1753 14.4936 39.2442 15.009 39.008C15.5244 38.771 15.8636 38.266 15.8894 37.6987C15.9317 36.7648 16.7004 36.0332 17.6393 36.0332C18.6099 36.0332 19.3995 36.8201 19.4023 37.7879C19.4023 37.7896 19.4018 37.7911 19.4018 37.7928V62.855C19.4018 62.8575 19.4025 62.8598 19.4025 62.8623C19.3984 64.5749 18.0027 65.9667 16.2864 65.9667ZM25.5521 65.9667C23.8358 65.9667 22.4401 64.5749 22.436 62.8623C22.436 62.8598 22.4367 62.8575 22.4367 62.855V37.7928C22.4367 37.7911 22.4362 37.7896 22.4362 37.7879C22.4389 36.8201 23.2286 36.0332 24.1991 36.0332C25.1381 36.0332 25.9068 36.7648 25.949 37.6987C25.9749 38.266 26.3141 38.771 26.8295 39.008C27.3457 39.2464 27.9499 39.1761 28.3965 38.8265C28.6416 38.6355 29.0496 38.4082 29.6029 38.4082C29.9473 38.4082 30.2544 38.522 30.5355 38.6791C31.1293 39.0128 31.5483 39.6246 31.5483 40.3528C31.5483 40.6005 31.4854 40.8345 31.3967 41.0578C31.3506 41.1729 31.3092 41.2902 31.241 41.3955C31.2398 41.3974 31.2395 41.3994 31.2383 41.4013C31.0413 41.7076 30.7591 41.9598 30.416 42.1183C29.6555 42.47 29.3237 43.3713 29.6755 44.131C29.9317 44.6857 30.4803 45.0116 31.0528 45.0116C31.2661 45.0116 31.4823 44.9671 31.6882 44.8716C32.3403 44.5702 32.9055 44.1357 33.3601 43.6108C33.4179 43.6058 33.4683 43.586 33.5292 43.586C34.603 43.586 35.4768 44.4576 35.4768 45.5292C35.4768 45.9367 35.3437 46.3267 35.1107 46.6541H34.911C34.6904 46.6541 34.5578 46.5304 34.4986 46.4571C33.9713 45.804 33.0182 45.7039 32.3658 46.229C31.7142 46.7555 31.612 47.71 32.1377 48.3618C32.8175 49.2045 33.8284 49.6873 34.911 49.6873H35.4011C36.5025 50.1987 37.2178 51.2688 37.2178 52.4991C37.2178 52.7944 37.163 53.0792 37.0841 53.3543C37.0671 53.4136 37.0496 53.4726 37.0293 53.5303C36.9361 53.7945 36.8167 54.0482 36.6586 54.277C36.642 54.3009 36.6202 54.3209 36.603 54.3444C36.4533 54.5485 36.2752 54.73 36.0798 54.8934C36.0306 54.9344 35.9836 54.9775 35.932 55.0154C35.7133 55.1764 35.4728 55.3107 35.2123 55.4116C34.8626 55.547 34.486 55.6287 34.0891 55.6287H33.8476C31.1321 55.6287 28.9231 53.4189 28.9231 50.7026V49.6873C28.9231 48.8498 28.244 48.1707 27.4064 48.1707C26.5688 48.1707 25.8897 48.8498 25.8897 49.6873V50.7026C25.8897 55.0911 29.46 58.662 33.8476 58.662H34.0891C34.2953 58.662 34.4902 58.621 34.6913 58.6011C34.7193 58.7636 34.7556 58.9245 34.7558 59.0915C34.7558 59.091 34.7558 59.092 34.7558 59.0915C34.7558 60.6985 33.4485 62.007 31.8422 62.007C31.6133 62.007 31.3902 61.9742 31.173 61.9232C31.1186 61.9104 31.0661 61.891 31.0125 61.8752C30.356 61.6803 29.7772 61.2684 29.3918 60.6755C28.9356 59.9728 27.998 59.7743 27.2938 60.2305C26.5918 60.6866 26.3918 61.6256 26.8488 62.3284C27.2754 62.9848 27.818 63.5358 28.4377 63.9687C27.9845 65.1362 26.8586 65.9667 25.5521 65.9667Z" fill="#E372A4"></path></g><defs><clipPath id="clip0_1441_1430"><rect width="80" height="80" fill="white"></rect></clipPath></defs></svg>