<svg xmlns="http://www.w3.org/2000/svg" width="50" height="65" viewBox="0 0 50 65" fill="none"><path d="M46.6082 52.2151L47.9795 32.0748C48.6964 21.5522 41.8951 11.9822 31.7225 9.20908L5.71201 2.11436C3.61647 1.54061 1.57975 3.20302 1.71577 5.373C2.08709 11.346 5.23042 16.804 10.2083 20.1215L23.1565 28.7573L19.8698 33.6894C14.153 42.2663 11.7891 52.6454 13.2266 62.8517L46.6082 52.2151Z" fill="white"></path><path d="M13.231 64.1519C13.2935 64.1519 13.3523 64.1482 13.4148 64.1409C14.128 64.0416 14.628 63.3796 14.5251 62.666C13.1317 52.7651 15.4147 42.728 20.9588 34.4122L24.2454 29.4801C24.6462 28.8806 24.4844 28.0678 23.8815 27.6669L10.9332 19.0311C6.32302 15.9563 3.36722 10.8183 3.02164 5.28666C2.98487 4.6798 3.23119 4.10972 3.70544 3.72354C4.1797 3.34104 4.78629 3.20863 5.37083 3.37046L31.3813 10.4689C40.9179 13.0692 47.3516 22.1205 46.6788 31.9847L45.3075 52.1251C45.2597 52.846 45.8002 53.4675 46.5207 53.519C47.2303 53.5411 47.8626 53.0225 47.9104 52.3053L49.2817 32.165C50.039 21.0613 42.7965 10.8771 32.0651 7.94949L6.05466 0.851079C4.6466 0.461218 3.18339 0.777519 2.05106 1.70068C0.918732 2.62384 0.319469 3.99203 0.411381 5.45217C0.80843 11.7929 4.19809 17.6813 9.48106 21.2047L21.3411 29.116L18.7787 32.9631C12.878 41.8158 10.4479 52.4929 11.9295 63.0338C12.0288 63.6812 12.5913 64.1519 13.231 64.1519Z" fill="#243250"></path></svg>