<svg xmlns="http://www.w3.org/2000/svg" width="46" height="46" viewBox="0 0 46 46" fill="none"><path d="M23 28.75C24.1372 28.75 25.2489 28.4128 26.1945 27.781C27.1401 27.1491 27.8771 26.2511 28.3123 25.2004C28.7475 24.1498 28.8614 22.9936 28.6395 21.8782C28.4177 20.7628 27.87 19.7383 27.0659 18.9341C26.2617 18.13 25.2372 17.5824 24.1218 17.3605C23.0064 17.1386 21.8502 17.2525 20.7996 17.6877C19.7489 18.1229 18.8509 18.8599 18.2191 19.8055C17.5872 20.7511 17.25 21.8628 17.25 23C17.25 24.525 17.8558 25.9875 18.9341 27.0659C20.0125 28.1442 21.475 28.75 23 28.75ZM23 20.125C23.5686 20.125 24.1245 20.2936 24.5973 20.6095C25.0701 20.9254 25.4386 21.3745 25.6562 21.8998C25.8738 22.4251 25.9307 23.0032 25.8198 23.5609C25.7088 24.1186 25.435 24.6309 25.0329 25.0329C24.6309 25.435 24.1186 25.7088 23.5609 25.8198C23.0032 25.9307 22.4251 25.8738 21.8998 25.6562C21.3744 25.4386 20.9254 25.0701 20.6095 24.5973C20.2936 24.1245 20.125 23.5686 20.125 23C20.125 22.2375 20.4279 21.5062 20.9671 20.9671C21.5062 20.4279 22.2375 20.125 23 20.125Z" fill="#E372A4"></path><path d="M9.47687 24.1644L8.93062 24.4375C7.94278 25.0089 7.22168 25.9485 6.92529 27.0505C6.62891 28.1525 6.7814 29.3271 7.34937 30.3169L8.78687 32.8181C9.06133 33.3176 9.43209 33.7577 9.87769 34.1131C10.3233 34.4684 10.8349 34.7319 11.383 34.8883C11.931 35.0447 12.5046 35.0909 13.0707 35.0242C13.6367 34.9576 14.1839 34.7794 14.6806 34.5L15.1262 34.2556C15.3448 34.1295 15.5927 34.063 15.845 34.063C16.0973 34.063 16.3452 34.1295 16.5637 34.2556C16.7742 34.3803 16.9493 34.5567 17.0726 34.768C17.1959 34.9793 17.2632 35.2185 17.2681 35.4631V35.9375C17.2681 37.0812 17.7225 38.1781 18.5312 38.9869C19.34 39.7957 20.4369 40.25 21.5806 40.25H24.4556C25.5994 40.25 26.6963 39.7957 27.505 38.9869C28.3138 38.1781 28.7681 37.0812 28.7681 35.9375V35.4056C28.7746 35.1597 28.844 34.9195 28.9699 34.7081C29.0957 34.4966 29.2737 34.3211 29.4869 34.1981C29.7054 34.072 29.9533 34.0055 30.2056 34.0055C30.458 34.0055 30.7058 34.072 30.9244 34.1981L31.37 34.4569C32.3593 35.0306 33.5361 35.1878 34.6414 34.894C35.7466 34.6001 36.6899 33.8793 37.2637 32.89L38.7012 30.3887C39.0788 29.7329 39.2771 28.9893 39.2762 28.2325C39.2826 27.461 39.0819 26.702 38.6951 26.0345C38.3082 25.367 37.7494 24.8155 37.0769 24.4375L36.5306 24.1069C36.3279 23.9875 36.1599 23.8173 36.0432 23.6131C35.9264 23.4089 35.865 23.1777 35.865 22.9425C35.865 22.7073 35.9264 22.4761 36.0432 22.2719C36.1599 22.0677 36.3279 21.8975 36.5306 21.7781L37.0769 21.4475C38.0647 20.8761 38.7858 19.9365 39.0822 18.8345C39.3786 17.7325 39.2261 16.5579 38.6581 15.5681L37.2206 13.0669C36.6468 12.0776 35.7035 11.3567 34.5982 11.0629C33.493 10.7691 32.3162 10.9263 31.3269 11.5L30.8669 11.7588C30.6545 11.8724 30.4169 11.9309 30.176 11.9288C29.9351 11.9267 29.6986 11.8641 29.4882 11.7468C29.2778 11.6294 29.1003 11.4611 28.972 11.2572C28.8436 11.0533 28.7686 10.8204 28.7537 10.58V10.0625C28.7537 8.91875 28.2994 7.82185 27.4906 7.0131C26.6819 6.20435 25.585 5.75 24.4412 5.75H21.5662C20.4225 5.75 19.3256 6.20435 18.5168 7.0131C17.7081 7.82185 17.2537 8.91875 17.2537 10.0625V10.58C17.2495 10.8274 17.1814 11.0696 17.0562 11.283C16.9309 11.4964 16.7526 11.6739 16.5387 11.7982C16.3247 11.9225 16.0823 11.9895 15.8348 11.9927C15.5874 11.9958 15.3433 11.9351 15.1262 11.8163L14.6806 11.5C13.6913 10.9263 12.5145 10.7691 11.4093 11.0629C10.304 11.3567 9.36069 12.0776 8.78687 13.0669L7.34937 15.5681C7.04995 16.063 6.85314 16.613 6.77065 17.1855C6.68816 17.758 6.72167 18.3413 6.8692 18.9005C7.01673 19.4598 7.27526 19.9837 7.6294 20.441C7.98354 20.8983 8.42606 21.2797 8.93062 21.5625L9.47687 21.8931C9.67956 22.0125 9.84759 22.1827 9.96433 22.3869C10.0811 22.5911 10.1425 22.8223 10.1425 23.0575C10.1425 23.2927 10.0811 23.5239 9.96433 23.7281C9.84759 23.9323 9.67956 24.1025 9.47687 24.2219V24.1644ZM10.3681 27.0394L10.9144 26.7087C11.5527 26.3367 12.0824 25.8037 12.4505 25.163C12.8186 24.5224 13.0123 23.7964 13.0123 23.0575C13.0123 22.3186 12.8186 21.5926 12.4505 20.952C12.0824 20.3113 11.5527 19.7783 10.9144 19.4062L10.3681 19.0756C10.2031 18.9814 10.0585 18.8553 9.94252 18.7048C9.82655 18.5543 9.74157 18.3823 9.69249 18.1987C9.59735 17.8344 9.64897 17.4473 9.83624 17.1206L11.2737 14.6194C11.3689 14.4559 11.4953 14.3127 11.6458 14.1982C11.7964 14.0836 11.968 13.9999 12.151 13.9518C12.334 13.9037 12.5246 13.8922 12.712 13.918C12.8994 13.9437 13.0799 14.0062 13.2431 14.1019L13.6887 14.3606C14.3469 14.7339 15.0918 14.9275 15.8485 14.9219C16.6052 14.9162 17.347 14.7116 17.9996 14.3285C18.6522 13.9454 19.1924 13.3974 19.5662 12.7394C19.9399 12.0814 20.1339 11.3367 20.1287 10.58V10.0625C20.1287 9.68125 20.2802 9.31562 20.5498 9.04603C20.8194 8.77645 21.185 8.625 21.5662 8.625H24.4412C24.8225 8.625 25.1881 8.77645 25.4577 9.04603C25.7273 9.31562 25.8787 9.68125 25.8787 10.0625V10.58C25.8725 11.3358 26.065 12.08 26.4369 12.738C26.8089 13.396 27.3472 13.9447 27.998 14.329C28.6488 14.7134 29.3893 14.92 30.1451 14.928C30.9009 14.9361 31.6455 14.7454 32.3044 14.375L32.7644 14.1019C32.9276 14.0062 33.1081 13.9437 33.2955 13.918C33.4829 13.8922 33.6735 13.9037 33.8565 13.9518C34.0394 13.9999 34.2111 14.0836 34.3616 14.1982C34.5122 14.3127 34.6386 14.4559 34.7337 14.6194L36.1712 17.1206C36.3585 17.4473 36.4101 17.8344 36.315 18.1987C36.2659 18.3823 36.1809 18.5543 36.065 18.7048C35.949 18.8553 35.8043 18.9814 35.6394 19.0756L35.0931 19.4062C34.4548 19.7783 33.9251 20.3113 33.557 20.952C33.1889 21.5926 32.9951 22.3186 32.9951 23.0575C32.9951 23.7964 33.1889 24.5224 33.557 25.163C33.9251 25.8037 34.4548 26.3367 35.0931 26.7087L35.6394 27.0394C35.8043 27.1336 35.949 27.2597 36.065 27.4102C36.1809 27.5607 36.2659 27.7327 36.315 27.9163C36.4101 28.2806 36.3585 28.6677 36.1712 28.9944L34.7337 31.4956C34.6386 31.6591 34.5122 31.8023 34.3616 31.9168C34.2111 32.0314 34.0394 32.1151 33.8565 32.1632C33.6735 32.2113 33.4829 32.2228 33.2955 32.197C33.1081 32.1713 32.9276 32.1088 32.7644 32.0131L32.3187 31.7544C31.6632 31.3759 30.9195 31.1766 30.1625 31.1766C29.4055 31.1766 28.6618 31.3759 28.0062 31.7544C27.3681 32.1293 26.8372 32.6621 26.4646 33.3015C26.092 33.941 25.8902 34.6656 25.8787 35.4056V35.9375C25.8787 36.3187 25.7273 36.6844 25.4577 36.954C25.1881 37.2236 24.8225 37.375 24.4412 37.375H21.5662C21.185 37.375 20.8194 37.2236 20.5498 36.954C20.2802 36.6844 20.1287 36.3187 20.1287 35.9375V35.42C20.1239 34.6682 19.9225 33.9307 19.5447 33.2807C19.1668 32.6307 18.6256 32.0908 17.9748 31.7145C17.3239 31.3382 16.5859 31.1386 15.8341 31.1355C15.0823 31.1324 14.3427 31.326 13.6887 31.6969L13.2431 31.9556C13.0799 32.0513 12.8994 32.1138 12.712 32.1395C12.5246 32.1653 12.334 32.1538 12.151 32.1057C11.968 32.0576 11.7964 31.9739 11.6458 31.8593C11.4953 31.7448 11.3689 31.6016 11.2737 31.4381L9.83624 28.9369C9.64897 28.6102 9.59735 28.2231 9.69249 27.8587C9.74157 27.6752 9.82655 27.5032 9.94252 27.3527C10.0585 27.2022 10.2031 27.0761 10.3681 26.9819V27.0394Z" fill="#E372A4"></path></svg>