<svg xmlns="http://www.w3.org/2000/svg" width="37" height="69" viewBox="0 0 37 69" fill="none"><path d="M22.7108 1.40822L35.5938 5.67188L15.0777 67.7145L2.19474 63.4509L22.7108 1.40822Z" fill="white"></path><path d="M15.0786 69.0093C15.2808 69.0093 15.483 68.9614 15.6668 68.8695C15.9756 68.715 16.2109 68.4392 16.3212 68.1118L36.8391 6.07254C37.0671 5.38844 36.6958 4.64918 36.0083 4.42115L23.1262 0.158435C22.799 0.0517752 22.4387 0.077514 22.1299 0.231987C21.8211 0.38646 21.5858 0.658626 21.4755 0.989639L0.957546 63.0289C0.72961 63.713 1.10093 64.456 1.78841 64.6803L14.6705 68.943C14.8028 68.9908 14.9389 69.0093 15.0786 69.0093ZM33.9458 6.49182L14.2477 66.0522L3.84718 62.6096L23.5453 3.04928L33.9458 6.49182Z" fill="#243250"></path></svg>