<svg xmlns="http://www.w3.org/2000/svg" width="80" height="80" viewBox="0 0 80 80" fill="none"><path fill-rule="evenodd" clip-rule="evenodd" d="M45.0039 56.1484C45.0039 57.184 45.8434 58.0234 46.8789 58.0234H64.9531C72.8906 58.0234 79.3281 51.5859 79.3281 43.6484C79.3281 35.7109 72.8906 29.2734 64.9531 29.2734C64.2628 29.2734 63.7031 28.7138 63.7031 28.0234C63.7031 16.6484 54.4531 7.39844 43.0781 7.39844C31.7031 7.39844 22.4531 16.6484 22.4531 28.0234C22.4531 29.0859 23.2656 29.8984 24.3281 29.8984C25.3906 29.8984 26.2031 29.0859 26.2031 28.0234C26.2031 18.7109 33.7656 11.1484 43.0781 11.1484C52.3906 11.1484 59.9531 18.7109 59.9531 28.0234V31.1484C59.9531 32.2109 60.7656 33.0234 61.8281 33.0234H64.9531C70.8281 33.0234 75.5781 37.7734 75.5781 43.6484C75.5781 49.5234 70.8281 54.2734 64.9531 54.2734H46.8789C45.8434 54.2734 45.0039 55.1129 45.0039 56.1484Z" fill="#101828"></path><mask id="path-2-outside-1_1613_1116" maskUnits="userSpaceOnUse" x="1" y="32" width="43" height="42" fill="black"><rect fill="white" x="1" y="32" width="43" height="42"></rect><path fill-rule="evenodd" clip-rule="evenodd" d="M22.2689 61.2915C22.092 61.1189 21.8541 61.0232 21.607 61.0253C21.3574 61.0253 21.1182 61.1209 20.9508 61.2876C20.8637 61.3738 20.7945 61.4762 20.7471 61.5892C20.6997 61.7021 20.6751 61.8233 20.6747 61.9458C20.6743 62.0683 20.6981 62.1896 20.7447 62.3029C20.7913 62.4161 20.8598 62.5191 20.9463 62.6058L22.6082 64.278H15.6462C15.1654 64.2745 14.6995 64.4439 14.3333 64.7553C13.9671 65.0668 13.725 65.4995 13.6513 65.9746C13.4757 67.135 12.8885 68.1935 11.997 68.9568C11.1056 69.7201 9.96931 70.1374 8.79571 70.1323C8.68859 70.1323 8.57955 70.1285 8.47243 70.122C6.04526 69.9713 4.02668 67.9521 3.87595 65.5249C3.8306 64.8525 3.92487 64.1779 4.15282 63.5436C4.38077 62.9093 4.73747 62.329 5.2005 61.8393C5.65901 61.347 6.21445 60.955 6.83186 60.6878C7.44927 60.4207 8.11529 60.2842 8.78801 60.287C9.73224 60.2886 10.6562 60.5608 11.4504 61.0715C12.2447 61.5822 12.8758 62.3099 13.269 63.1683C13.3721 63.3927 13.5599 63.5672 13.7913 63.6535C14.0227 63.7398 14.2789 63.731 14.5038 63.6289C14.6153 63.5784 14.7158 63.5064 14.7994 63.4169C14.883 63.3275 14.9481 63.2224 14.9909 63.1077C15.0337 62.993 15.0534 62.8709 15.0489 62.7485C15.0443 62.6262 15.0156 62.506 14.9643 62.3948C14.4222 61.2116 13.5523 60.2087 12.4576 59.5049C11.3629 58.8011 10.0894 58.4258 8.78801 58.4237C7.86147 58.4253 6.945 58.6159 6.09459 58.9837C5.24418 59.3515 4.47769 59.8888 3.84195 60.5628C3.2036 61.2376 2.71176 62.0371 2.39738 62.9112C2.08299 63.7852 1.95286 64.7149 2.01516 65.6417C2.22683 69.0457 4.95291 71.7718 8.35697 71.9828C8.49937 71.9918 8.64561 71.9963 8.7925 71.9963C12.1581 71.9963 14.9765 69.5845 15.4941 66.2619C15.5044 66.1959 15.573 66.142 15.6474 66.142H22.5383L20.9681 67.7026C20.881 67.7887 20.8119 67.8911 20.7647 68.0041C20.7174 68.1171 20.6931 68.2382 20.6929 68.3607C20.6923 68.6096 20.7885 68.8443 20.9636 69.0207C21.14 69.1977 21.3748 69.2952 21.6249 69.2952C21.8725 69.2952 22.106 69.199 22.2817 69.0246L24.6198 66.7007C25.0227 66.2989 25.2499 65.7539 25.2515 65.1849C25.2532 64.6159 25.0293 64.0695 24.6287 63.6654L22.2689 61.2915ZM40.3534 33H26.113C25.5899 33.0007 25.0885 33.2088 24.7186 33.5786C24.3487 33.9485 24.1406 34.45 24.14 34.973V36.0275C24.14 36.5413 24.5582 36.9595 25.0713 36.9595C25.5851 36.9595 26.0033 36.5413 26.0033 36.0275V34.973C26.0033 34.9127 26.0527 34.8634 26.113 34.8634H40.3534C40.3677 34.8634 40.382 34.8662 40.3952 34.8717C40.4085 34.8772 40.4206 34.8853 40.4307 34.8955C40.4408 34.9057 40.4488 34.9178 40.4543 34.9311C40.4597 34.9444 40.4625 34.9587 40.4624 34.973V45.9607C40.4625 45.9751 40.4597 45.9893 40.4543 46.0026C40.4488 46.0159 40.4408 46.028 40.4307 46.0382C40.4206 46.0484 40.4085 46.0565 40.3952 46.062C40.382 46.0675 40.3677 46.0704 40.3534 46.0704H26.113C26.084 46.0702 26.0562 46.0586 26.0356 46.0381C26.0151 46.0175 26.0035 45.9897 26.0033 45.9607V43.0794C26.0033 42.5169 25.766 41.9768 25.3516 41.5971C25.1467 41.4089 24.9049 41.2654 24.6415 41.1758C24.3781 41.0861 24.099 41.0522 23.8218 41.0762C20.7487 41.3411 10.5417 43.0275 7.84575 53.5982L7.06834 51.7015C7.02231 51.588 6.95427 51.4847 6.86814 51.3976C6.78201 51.3105 6.6795 51.2413 6.5665 51.1941C6.45351 51.1468 6.33228 51.1223 6.20979 51.1221C6.0873 51.1219 5.96598 51.1459 5.85283 51.1928C5.7394 51.2388 5.63625 51.3069 5.54937 51.3932C5.46249 51.4794 5.39361 51.582 5.34674 51.6951C5.25053 51.9247 5.24989 52.1781 5.34354 52.4083L6.59368 55.459C6.75474 55.854 7.03014 56.1918 7.38455 56.4292C7.73895 56.6666 8.1562 56.7926 8.58275 56.7912C8.86112 56.7915 9.13682 56.737 9.39416 56.6309L12.4903 55.3621C12.6038 55.3161 12.7069 55.248 12.7938 55.1618C12.8807 55.0756 12.9496 54.973 12.9964 54.8599C13.0926 54.6309 13.0933 54.3775 12.9996 54.1466C12.9535 54.0331 12.8853 53.9299 12.7991 53.8429C12.7129 53.7559 12.6103 53.6867 12.4973 53.6395C12.3842 53.5923 12.263 53.5679 12.1405 53.5678C12.018 53.5676 11.8966 53.5917 11.7835 53.6386L9.52373 54.5642C11.652 45.0088 20.3498 43.2468 23.9944 42.9332C24.0136 42.9332 24.0326 42.937 24.0504 42.9444C24.0681 42.9518 24.0842 42.9626 24.0978 42.9763C24.1113 42.9899 24.122 43.0061 24.1293 43.0239C24.1365 43.0417 24.1401 43.0608 24.14 43.0801V45.9613C24.1406 46.4844 24.3487 46.9859 24.7186 47.3557C25.0885 47.7256 25.5899 47.9337 26.113 47.9344H40.3534C40.8764 47.9337 41.3779 47.7256 41.7478 47.3557C42.1176 46.9859 42.3257 46.4844 42.3264 45.9613V34.973C42.3257 34.45 42.1176 33.9485 41.7478 33.5786C41.3779 33.2088 40.8764 33.0007 40.3534 33ZM34.3998 58.5074C34.3325 58.4965 34.2799 58.4298 34.2799 58.3548V51.4639L35.8405 53.0341C36.0172 53.2066 36.2549 53.3022 36.5018 53.3003C36.7513 53.3003 36.9905 53.2047 37.1586 53.038C37.335 52.8629 37.4325 52.6294 37.4338 52.3799C37.4346 52.2574 37.411 52.1361 37.3644 52.0229C37.3178 51.9097 37.2492 51.8069 37.1624 51.7205L34.8386 49.3825C34.6395 49.1811 34.4023 49.0215 34.1409 48.9129C33.8794 48.8043 33.5989 48.749 33.3158 48.75C33.0349 48.749 32.7566 48.8036 32.497 48.9106C32.2373 49.0176 32.0013 49.1749 31.8027 49.3735L29.43 51.732C29.2999 51.8624 29.2112 52.0283 29.1752 52.209C29.1392 52.3897 29.1575 52.5769 29.2277 52.7472C29.2979 52.9175 29.417 53.0632 29.5699 53.166C29.7228 53.2687 29.9026 53.324 30.0868 53.3247C30.3351 53.3247 30.5679 53.2285 30.7437 53.054L32.4159 51.3914V58.3548C32.4122 58.8355 32.5816 59.3014 32.8931 59.6675C33.2046 60.0337 33.6374 60.2755 34.1125 60.349C36.6358 60.7422 38.419 62.9692 38.2599 65.5285C38.1092 67.9557 36.0906 69.9749 33.6635 70.1256C32.991 70.1696 32.3166 70.0746 31.6824 69.8466C31.0482 69.6186 30.4678 69.2625 29.9772 68.8004C29.4849 68.3419 29.0929 67.7865 28.8258 67.1691C28.5586 66.5516 28.4221 65.8856 28.4249 65.2129C28.4266 64.2688 28.6988 63.3449 29.2093 62.5508C29.7199 61.7566 30.4473 61.1254 31.3056 60.7319C31.4171 60.6815 31.5176 60.6094 31.6012 60.52C31.6848 60.4305 31.7499 60.3254 31.7927 60.2107C31.8355 60.096 31.8552 59.9739 31.8506 59.8516C31.8461 59.7292 31.8173 59.609 31.7661 59.4978C31.663 59.2734 31.4752 59.0989 31.2438 59.0126C31.0124 58.9263 30.7562 58.9352 30.5314 59.0373C29.3481 59.5792 28.3451 60.4491 27.6413 61.5438C26.9374 62.6385 26.5623 63.9121 26.5603 65.2136C26.5603 67.0788 27.3402 68.8813 28.7001 70.1596C29.3755 70.7971 30.1751 71.2884 31.049 71.6028C31.9229 71.9173 32.8522 72.0481 33.7789 71.9871C37.183 71.7754 39.909 69.0493 40.1201 65.6452C40.3394 62.118 37.8796 59.0501 34.3998 58.5074ZM26.1209 38.9172C26.1209 39.4496 25.6893 39.8813 25.1568 39.8813C24.6244 39.8813 24.1928 39.4496 24.1928 38.9172C24.1928 38.3848 24.6244 37.9531 25.1568 37.9531C25.6893 37.9531 26.1209 38.3848 26.1209 38.9172Z"></path></mask><path fill-rule="evenodd" clip-rule="evenodd" d="M22.2689 61.2915C22.092 61.1189 21.8541 61.0232 21.607 61.0253C21.3574 61.0253 21.1182 61.1209 20.9508 61.2876C20.8637 61.3738 20.7945 61.4762 20.7471 61.5892C20.6997 61.7021 20.6751 61.8233 20.6747 61.9458C20.6743 62.0683 20.6981 62.1896 20.7447 62.3029C20.7913 62.4161 20.8598 62.5191 20.9463 62.6058L22.6082 64.278H15.6462C15.1654 64.2745 14.6995 64.4439 14.3333 64.7553C13.9671 65.0668 13.725 65.4995 13.6513 65.9746C13.4757 67.135 12.8885 68.1935 11.997 68.9568C11.1056 69.7201 9.96931 70.1374 8.79571 70.1323C8.68859 70.1323 8.57955 70.1285 8.47243 70.122C6.04526 69.9713 4.02668 67.9521 3.87595 65.5249C3.8306 64.8525 3.92487 64.1779 4.15282 63.5436C4.38077 62.9093 4.73747 62.329 5.2005 61.8393C5.65901 61.347 6.21445 60.955 6.83186 60.6878C7.44927 60.4207 8.11529 60.2842 8.78801 60.287C9.73224 60.2886 10.6562 60.5608 11.4504 61.0715C12.2447 61.5822 12.8758 62.3099 13.269 63.1683C13.3721 63.3927 13.5599 63.5672 13.7913 63.6535C14.0227 63.7398 14.2789 63.731 14.5038 63.6289C14.6153 63.5784 14.7158 63.5064 14.7994 63.4169C14.883 63.3275 14.9481 63.2224 14.9909 63.1077C15.0337 62.993 15.0534 62.8709 15.0489 62.7485C15.0443 62.6262 15.0156 62.506 14.9643 62.3948C14.4222 61.2116 13.5523 60.2087 12.4576 59.5049C11.3629 58.8011 10.0894 58.4258 8.78801 58.4237C7.86147 58.4253 6.945 58.6159 6.09459 58.9837C5.24418 59.3515 4.47769 59.8888 3.84195 60.5628C3.2036 61.2376 2.71176 62.0371 2.39738 62.9112C2.08299 63.7852 1.95286 64.7149 2.01516 65.6417C2.22683 69.0457 4.95291 71.7718 8.35697 71.9828C8.49937 71.9918 8.64561 71.9963 8.7925 71.9963C12.1581 71.9963 14.9765 69.5845 15.4941 66.2619C15.5044 66.1959 15.573 66.142 15.6474 66.142H22.5383L20.9681 67.7026C20.881 67.7887 20.8119 67.8911 20.7647 68.0041C20.7174 68.1171 20.6931 68.2382 20.6929 68.3607C20.6923 68.6096 20.7885 68.8443 20.9636 69.0207C21.14 69.1977 21.3748 69.2952 21.6249 69.2952C21.8725 69.2952 22.106 69.199 22.2817 69.0246L24.6198 66.7007C25.0227 66.2989 25.2499 65.7539 25.2515 65.1849C25.2532 64.6159 25.0293 64.0695 24.6287 63.6654L22.2689 61.2915ZM40.3534 33H26.113C25.5899 33.0007 25.0885 33.2088 24.7186 33.5786C24.3487 33.9485 24.1406 34.45 24.14 34.973V36.0275C24.14 36.5413 24.5582 36.9595 25.0713 36.9595C25.5851 36.9595 26.0033 36.5413 26.0033 36.0275V34.973C26.0033 34.9127 26.0527 34.8634 26.113 34.8634H40.3534C40.3677 34.8634 40.382 34.8662 40.3952 34.8717C40.4085 34.8772 40.4206 34.8853 40.4307 34.8955C40.4408 34.9057 40.4488 34.9178 40.4543 34.9311C40.4597 34.9444 40.4625 34.9587 40.4624 34.973V45.9607C40.4625 45.9751 40.4597 45.9893 40.4543 46.0026C40.4488 46.0159 40.4408 46.028 40.4307 46.0382C40.4206 46.0484 40.4085 46.0565 40.3952 46.062C40.382 46.0675 40.3677 46.0704 40.3534 46.0704H26.113C26.084 46.0702 26.0562 46.0586 26.0356 46.0381C26.0151 46.0175 26.0035 45.9897 26.0033 45.9607V43.0794C26.0033 42.5169 25.766 41.9768 25.3516 41.5971C25.1467 41.4089 24.9049 41.2654 24.6415 41.1758C24.3781 41.0861 24.099 41.0522 23.8218 41.0762C20.7487 41.3411 10.5417 43.0275 7.84575 53.5982L7.06834 51.7015C7.02231 51.588 6.95427 51.4847 6.86814 51.3976C6.78201 51.3105 6.6795 51.2413 6.5665 51.1941C6.45351 51.1468 6.33228 51.1223 6.20979 51.1221C6.0873 51.1219 5.96598 51.1459 5.85283 51.1928C5.7394 51.2388 5.63625 51.3069 5.54937 51.3932C5.46249 51.4794 5.39361 51.582 5.34674 51.6951C5.25053 51.9247 5.24989 52.1781 5.34354 52.4083L6.59368 55.459C6.75474 55.854 7.03014 56.1918 7.38455 56.4292C7.73895 56.6666 8.1562 56.7926 8.58275 56.7912C8.86112 56.7915 9.13682 56.737 9.39416 56.6309L12.4903 55.3621C12.6038 55.3161 12.7069 55.248 12.7938 55.1618C12.8807 55.0756 12.9496 54.973 12.9964 54.8599C13.0926 54.6309 13.0933 54.3775 12.9996 54.1466C12.9535 54.0331 12.8853 53.9299 12.7991 53.8429C12.7129 53.7559 12.6103 53.6867 12.4973 53.6395C12.3842 53.5923 12.263 53.5679 12.1405 53.5678C12.018 53.5676 11.8966 53.5917 11.7835 53.6386L9.52373 54.5642C11.652 45.0088 20.3498 43.2468 23.9944 42.9332C24.0136 42.9332 24.0326 42.937 24.0504 42.9444C24.0681 42.9518 24.0842 42.9626 24.0978 42.9763C24.1113 42.9899 24.122 43.0061 24.1293 43.0239C24.1365 43.0417 24.1401 43.0608 24.14 43.0801V45.9613C24.1406 46.4844 24.3487 46.9859 24.7186 47.3557C25.0885 47.7256 25.5899 47.9337 26.113 47.9344H40.3534C40.8764 47.9337 41.3779 47.7256 41.7478 47.3557C42.1176 46.9859 42.3257 46.4844 42.3264 45.9613V34.973C42.3257 34.45 42.1176 33.9485 41.7478 33.5786C41.3779 33.2088 40.8764 33.0007 40.3534 33ZM34.3998 58.5074C34.3325 58.4965 34.2799 58.4298 34.2799 58.3548V51.4639L35.8405 53.0341C36.0172 53.2066 36.2549 53.3022 36.5018 53.3003C36.7513 53.3003 36.9905 53.2047 37.1586 53.038C37.335 52.8629 37.4325 52.6294 37.4338 52.3799C37.4346 52.2574 37.411 52.1361 37.3644 52.0229C37.3178 51.9097 37.2492 51.8069 37.1624 51.7205L34.8386 49.3825C34.6395 49.1811 34.4023 49.0215 34.1409 48.9129C33.8794 48.8043 33.5989 48.749 33.3158 48.75C33.0349 48.749 32.7566 48.8036 32.497 48.9106C32.2373 49.0176 32.0013 49.1749 31.8027 49.3735L29.43 51.732C29.2999 51.8624 29.2112 52.0283 29.1752 52.209C29.1392 52.3897 29.1575 52.5769 29.2277 52.7472C29.2979 52.9175 29.417 53.0632 29.5699 53.166C29.7228 53.2687 29.9026 53.324 30.0868 53.3247C30.3351 53.3247 30.5679 53.2285 30.7437 53.054L32.4159 51.3914V58.3548C32.4122 58.8355 32.5816 59.3014 32.8931 59.6675C33.2046 60.0337 33.6374 60.2755 34.1125 60.349C36.6358 60.7422 38.419 62.9692 38.2599 65.5285C38.1092 67.9557 36.0906 69.9749 33.6635 70.1256C32.991 70.1696 32.3166 70.0746 31.6824 69.8466C31.0482 69.6186 30.4678 69.2625 29.9772 68.8004C29.4849 68.3419 29.0929 67.7865 28.8258 67.1691C28.5586 66.5516 28.4221 65.8856 28.4249 65.2129C28.4266 64.2688 28.6988 63.3449 29.2093 62.5508C29.7199 61.7566 30.4473 61.1254 31.3056 60.7319C31.4171 60.6815 31.5176 60.6094 31.6012 60.52C31.6848 60.4305 31.7499 60.3254 31.7927 60.2107C31.8355 60.096 31.8552 59.9739 31.8506 59.8516C31.8461 59.7292 31.8173 59.609 31.7661 59.4978C31.663 59.2734 31.4752 59.0989 31.2438 59.0126C31.0124 58.9263 30.7562 58.9352 30.5314 59.0373C29.3481 59.5792 28.3451 60.4491 27.6413 61.5438C26.9374 62.6385 26.5623 63.9121 26.5603 65.2136C26.5603 67.0788 27.3402 68.8813 28.7001 70.1596C29.3755 70.7971 30.1751 71.2884 31.049 71.6028C31.9229 71.9173 32.8522 72.0481 33.7789 71.9871C37.183 71.7754 39.909 69.0493 40.1201 65.6452C40.3394 62.118 37.8796 59.0501 34.3998 58.5074ZM26.1209 38.9172C26.1209 39.4496 25.6893 39.8813 25.1568 39.8813C24.6244 39.8813 24.1928 39.4496 24.1928 38.9172C24.1928 38.3848 24.6244 37.9531 25.1568 37.9531C25.6893 37.9531 26.1209 38.3848 26.1209 38.9172Z" fill="#9263D4"></path><path d="M21.607 61.0253V62.0253L21.6154 62.0253L21.607 61.0253ZM22.2689 61.2915L22.9781 60.5865L22.9728 60.5811L22.9673 60.5758L22.2689 61.2915ZM20.9508 61.2876L21.654 61.9987L21.6565 61.9961L20.9508 61.2876ZM20.9463 62.6058L21.6556 61.9009L21.6543 61.8996L20.9463 62.6058ZM22.6082 64.278V65.278H25.012L23.3175 63.5731L22.6082 64.278ZM15.6462 64.278L15.6388 65.278H15.6462V64.278ZM14.3333 64.7553L14.9811 65.5171L14.9811 65.5171L14.3333 64.7553ZM13.6513 65.9746L12.6631 65.8213L12.6626 65.8249L13.6513 65.9746ZM8.79571 70.1323L8.80002 69.1323H8.79571V70.1323ZM8.47243 70.122L8.41044 71.1201L8.41267 71.1203L8.47243 70.122ZM3.87595 65.5249L4.87404 65.4629L4.87368 65.4576L3.87595 65.5249ZM5.2005 61.8393L5.92718 62.5263L5.93225 62.5208L5.2005 61.8393ZM6.83186 60.6878L6.43475 59.77L6.43475 59.77L6.83186 60.6878ZM8.78801 60.287L8.78384 61.287L8.78637 61.287L8.78801 60.287ZM13.269 63.1683L12.3599 63.5848L12.3603 63.5857L13.269 63.1683ZM14.5038 63.6289L14.0917 62.7177L14.0904 62.7183L14.5038 63.6289ZM14.9643 62.3948L14.0552 62.8113L14.0561 62.8132L14.9643 62.3948ZM8.78801 58.4237L8.78967 57.4237L8.78622 57.4237L8.78801 58.4237ZM6.09459 58.9837L5.69763 58.0658H5.69763L6.09459 58.9837ZM3.84195 60.5628L4.56839 61.2501L4.56942 61.249L3.84195 60.5628ZM2.39738 62.9112L1.4564 62.5727L2.39738 62.9112ZM2.01516 65.6417L3.01325 65.5796L3.01291 65.5746L2.01516 65.6417ZM8.35697 71.9828L8.41991 70.9848L8.41884 70.9847L8.35697 71.9828ZM15.4941 66.2619L16.4822 66.4159L16.4823 66.4154L15.4941 66.2619ZM22.5383 66.142L23.2432 66.8513L24.9631 65.142H22.5383V66.142ZM20.9681 67.7026L21.6712 68.4136L21.673 68.4118L20.9681 67.7026ZM20.6929 68.3607L21.6929 68.3633L21.6929 68.3617L20.6929 68.3607ZM20.9636 69.0207L20.2539 69.7252L20.2552 69.7265L20.9636 69.0207ZM22.2817 69.0246L22.9863 69.7342L22.9867 69.7338L22.2817 69.0246ZM24.6198 66.7007L25.3247 67.4099L25.3258 67.4088L24.6198 66.7007ZM25.2515 65.1849L24.2516 65.1819L25.2515 65.1849ZM24.6287 63.6654L25.339 62.9615L25.3379 62.9604L24.6287 63.6654ZM26.113 33V32L26.1117 32L26.113 33ZM40.3534 33L40.3547 32H40.3534V33ZM24.14 34.973L23.14 34.9717V34.973H24.14ZM40.3534 34.8634V35.8634H40.3534L40.3534 34.8634ZM40.4624 34.973L39.4624 34.9672V34.973H40.4624ZM40.4624 45.9607H39.4624L39.4624 45.9665L40.4624 45.9607ZM26.113 46.0704L26.1072 47.0704H26.113V46.0704ZM26.0033 45.9607H25.0033L25.0033 45.9665L26.0033 45.9607ZM25.3516 41.5971L24.6753 42.3337L24.676 42.3343L25.3516 41.5971ZM23.8218 41.0762L23.9077 42.0725L23.9082 42.0725L23.8218 41.0762ZM7.84575 53.5982L6.92046 53.9775L8.06739 56.7757L8.81473 53.8453L7.84575 53.5982ZM7.06834 51.7015L6.14161 52.0773L6.14305 52.0807L7.06834 51.7015ZM5.85283 51.1928L6.2287 52.1195L6.23573 52.1166L5.85283 51.1928ZM5.34674 51.6951L6.26906 52.0815L6.27052 52.078L5.34674 51.6951ZM5.34354 52.4083L4.41721 52.7851L4.41822 52.7875L5.34354 52.4083ZM6.59368 55.459L7.51966 55.0814L7.519 55.0798L6.59368 55.459ZM8.58275 56.7912L8.58368 55.7912L8.57945 55.7912L8.58275 56.7912ZM9.39416 56.6309L9.01498 55.7055L9.0129 55.7064L9.39416 56.6309ZM12.4903 55.3621L12.1145 54.4354L12.1112 54.4368L12.4903 55.3621ZM12.9964 54.8599L12.0745 54.4725L12.0726 54.477L12.9964 54.8599ZM12.9996 54.1466L13.9263 53.7708L13.9259 53.7699L12.9996 54.1466ZM11.7835 53.6386L12.1625 54.564L12.1666 54.5623L11.7835 53.6386ZM9.52373 54.5642L8.54765 54.3468L8.13153 56.2151L9.90276 55.4896L9.52373 54.5642ZM23.9944 42.9332L23.9943 41.9332L23.9514 41.9332L23.9086 41.9368L23.9944 42.9332ZM24.14 43.0801L23.14 43.0712V43.0801H24.14ZM24.14 45.9613H23.14V45.9626L24.14 45.9613ZM26.113 47.9344L26.1117 48.9344H26.113V47.9344ZM40.3534 47.9344V48.9344L40.3547 48.9344L40.3534 47.9344ZM42.3264 45.9613L43.3264 45.9626V45.9613H42.3264ZM42.3264 34.973H43.3264V34.9717L42.3264 34.973ZM34.3998 58.5074L34.24 59.4946L34.2457 59.4955L34.3998 58.5074ZM34.2799 51.4639L34.9891 50.759L33.2799 49.0391V51.4639H34.2799ZM35.8405 53.0341L35.1312 53.739L35.1366 53.7445L35.1421 53.7498L35.8405 53.0341ZM36.5018 53.3003V52.3003L36.494 52.3003L36.5018 53.3003ZM37.1586 53.038L37.863 53.7478L37.8631 53.7476L37.1586 53.038ZM37.4338 52.3799L36.4338 52.3734L36.4338 52.3747L37.4338 52.3799ZM37.3644 52.0229L38.2892 51.6424L38.2892 51.6423L37.3644 52.0229ZM37.1624 51.7205L36.4532 52.4254L36.4566 52.4289L37.1624 51.7205ZM34.8386 49.3825L34.1274 50.0856L34.1293 50.0874L34.8386 49.3825ZM34.1409 48.9129L34.5244 47.9894L34.5244 47.9894L34.1409 48.9129ZM33.3158 48.75L33.3122 49.75L33.3195 49.75L33.3158 48.75ZM32.497 48.9106L32.8779 49.8352L32.8779 49.8352L32.497 48.9106ZM31.8027 49.3735L32.5077 50.0827L32.5097 50.0807L31.8027 49.3735ZM29.43 51.732L28.725 51.0228L28.7223 51.0255L29.43 51.732ZM29.2277 52.7472L28.3032 53.1285L28.3032 53.1285L29.2277 52.7472ZM30.0868 53.3247L30.083 54.3247H30.0868V53.3247ZM30.7437 53.054L31.4482 53.7637L31.4487 53.7631L30.7437 53.054ZM32.4159 51.3914H33.4159V48.987L31.7108 50.6823L32.4159 51.3914ZM32.4159 58.3548L33.4159 58.3623V58.3548H32.4159ZM32.8931 59.6675L33.6548 59.0196L33.6548 59.0196L32.8931 59.6675ZM34.1125 60.349L34.2664 59.3609L34.2652 59.3607L34.1125 60.349ZM38.2599 65.5285L37.2619 65.4665L37.2619 65.4665L38.2599 65.5285ZM33.6635 70.1256L33.6015 69.1275L33.5982 69.1278L33.6635 70.1256ZM31.6824 69.8466L32.0207 68.9056L31.6824 69.8466ZM29.9772 68.8004L30.6628 68.0725L30.6588 68.0687L29.9772 68.8004ZM28.4249 65.2129L29.4249 65.217L29.4249 65.2147L28.4249 65.2129ZM29.2093 62.5508L30.0505 63.0915V63.0915L29.2093 62.5508ZM31.3056 60.7319L30.8935 59.8207L30.8888 59.8229L31.3056 60.7319ZM31.6012 60.52L32.3318 61.2028L32.3318 61.2028L31.6012 60.52ZM31.7927 60.2107L32.7296 60.5603L32.7296 60.5603L31.7927 60.2107ZM31.8506 59.8516L32.8499 59.8143L32.8499 59.8143L31.8506 59.8516ZM31.7661 59.4978L30.8574 59.9152L30.8579 59.9163L31.7661 59.4978ZM31.2438 59.0126L31.5933 58.0756L31.5933 58.0756L31.2438 59.0126ZM30.5314 59.0373L30.118 58.1267L30.1149 58.1281L30.5314 59.0373ZM27.6413 61.5438L26.8001 61.003L27.6413 61.5438ZM26.5603 65.2136L25.5603 65.212V65.2136H26.5603ZM28.7001 70.1596L29.3865 69.4324L29.385 69.431L28.7001 70.1596ZM31.049 71.6028L31.3875 70.6619H31.3875L31.049 71.6028ZM33.7789 71.9871L33.7168 70.989L33.7132 70.9892L33.7789 71.9871ZM40.1201 65.6452L39.122 65.5832L39.122 65.5834L40.1201 65.6452ZM21.6154 62.0253C21.5987 62.0254 21.5825 62.0189 21.5705 62.0072L22.9673 60.5758C22.6015 60.2189 22.1095 60.021 21.5985 60.0253L21.6154 62.0253ZM21.6565 61.9961C21.6394 62.0132 21.6254 62.02 21.6192 62.0225C21.613 62.025 21.6092 62.0253 21.607 62.0253V60.0253C21.1097 60.0253 20.6114 60.2142 20.245 60.5792L21.6565 61.9961ZM21.6693 61.976C21.6657 61.9845 21.6605 61.9922 21.654 61.9987L20.2476 60.5766C20.0669 60.7553 19.9233 60.968 19.825 61.2024L21.6693 61.976ZM21.6747 61.9492C21.6747 61.9584 21.6728 61.9675 21.6693 61.976L19.825 61.2024C19.7266 61.4367 19.6756 61.6882 19.6747 61.9424L21.6747 61.9492ZM21.6694 61.9223C21.6729 61.9308 21.6747 61.94 21.6747 61.9492L19.6747 61.9424C19.6739 62.1965 19.7232 62.4484 19.8199 62.6834L21.6694 61.9223ZM21.6543 61.8996C21.6608 61.9061 21.6659 61.9138 21.6694 61.9223L19.8199 62.6834C19.9166 62.9184 20.0588 63.132 20.2383 63.312L21.6543 61.8996ZM23.3175 63.5731L21.6556 61.9009L20.237 63.3107L21.899 64.9829L23.3175 63.5731ZM15.6462 65.278H22.6082V63.278H15.6462V65.278ZM14.9811 65.5171C15.1646 65.3611 15.398 65.2762 15.6388 65.278L15.6535 63.278C14.9329 63.2727 14.2344 63.5267 13.6854 63.9936L14.9811 65.5171ZM14.6395 66.1279C14.6764 65.8899 14.7977 65.6731 14.9811 65.5171L13.6854 63.9936C13.1364 64.4604 12.7736 65.1091 12.6631 65.8213L14.6395 66.1279ZM12.6475 69.7164C13.7212 68.7969 14.4285 67.5219 14.6401 66.1242L12.6626 65.8249C12.5229 66.748 12.0558 67.59 11.3466 68.1972L12.6475 69.7164ZM8.7914 71.1323C10.205 71.1384 11.5737 70.6358 12.6475 69.7164L11.3466 68.1972C10.6375 68.8044 9.7336 69.1363 8.80002 69.1323L8.7914 71.1323ZM8.41267 71.1203C8.53586 71.1276 8.66516 71.1323 8.79571 71.1323V69.1323C8.71202 69.1323 8.62323 69.1293 8.53218 69.1238L8.41267 71.1203ZM2.87787 65.5869C3.05986 68.5174 5.47963 70.9381 8.41044 71.1201L8.53441 69.124C6.61089 69.0045 4.9935 67.3868 4.87402 65.4629L2.87787 65.5869ZM3.21175 63.2054C2.93715 63.9695 2.82359 64.7821 2.87821 65.5922L4.87368 65.4576C4.83762 64.9228 4.91259 64.3863 5.09389 63.8818L3.21175 63.2054ZM4.47383 61.1523C3.91604 61.7423 3.48634 62.4413 3.21175 63.2054L5.09389 63.8818C5.27519 63.3773 5.55889 62.9158 5.92716 62.5263L4.47383 61.1523ZM6.43475 59.77C5.69069 60.092 5.02131 60.5645 4.46875 61.1577L5.93225 62.5208C6.29671 62.1296 6.7382 61.8179 7.22896 61.6056L6.43475 59.77ZM8.79218 59.287C7.98146 59.2836 7.17881 59.4481 6.43475 59.77L7.22896 61.6056C7.71972 61.3932 8.24912 61.2848 8.78384 61.287L8.79218 59.287ZM11.9913 60.2304C11.0362 59.6163 9.92511 59.2889 8.78965 59.287L8.78637 61.287C9.53937 61.2882 10.2762 61.5054 10.9096 61.9126L11.9913 60.2304ZM14.1782 62.7518C13.7053 61.7195 12.9463 60.8445 11.9913 60.2304L10.9096 61.9126C11.543 62.3199 12.0463 62.9002 12.3599 63.5848L14.1782 62.7518ZM14.1408 62.7166C14.1572 62.7227 14.1705 62.735 14.1777 62.7509L12.3603 63.5857C12.5738 64.0505 12.9627 64.4117 13.4418 64.5905L14.1408 62.7166ZM14.0904 62.7183C14.1063 62.7111 14.1244 62.7105 14.1408 62.7166L13.4418 64.5905C13.921 64.7692 14.4515 64.7508 14.9172 64.5394L14.0904 62.7183ZM14.0689 62.7341C14.0753 62.7272 14.0831 62.7216 14.0917 62.7177L14.9158 64.54C15.1476 64.4352 15.3563 64.2856 15.53 64.0998L14.0689 62.7341ZM14.054 62.758C14.0574 62.7492 14.0624 62.741 14.0689 62.7341L15.53 64.0998C15.7037 63.914 15.8389 63.6956 15.9278 63.4573L14.054 62.758ZM14.0496 62.7858C14.0492 62.7764 14.0507 62.7669 14.054 62.758L15.9278 63.4573C16.0167 63.219 16.0576 62.9654 16.0482 62.7113L14.0496 62.7858ZM14.0561 62.8132C14.0521 62.8046 14.0499 62.7953 14.0496 62.7858L16.0482 62.7113C16.0387 62.4571 15.979 62.2073 15.8726 61.9763L14.0561 62.8132ZM11.9168 60.346C12.8506 60.9464 13.5928 61.802 14.0552 62.8113L15.8734 61.9782C15.2517 60.6212 14.2539 59.471 12.9984 58.6637L11.9168 60.346ZM8.78635 59.4237C9.89655 59.4255 10.983 59.7456 11.9168 60.346L12.9984 58.6637C11.7429 57.8565 10.2823 57.4261 8.78967 57.4237L8.78635 59.4237ZM6.49156 59.9015C7.2172 59.5877 7.9992 59.4251 8.7898 59.4237L8.78622 57.4237C7.72374 57.4256 6.67281 57.6441 5.69763 58.0658L6.49156 59.9015ZM4.56942 61.249C5.11188 60.6738 5.76592 60.2154 6.49156 59.9015L5.69763 58.0658C4.72245 58.4876 3.8435 59.1038 3.11449 59.8767L4.56942 61.249ZM3.33836 63.2496C3.60605 62.5054 4.02484 61.8246 4.56839 61.2501L3.11552 59.8756C2.38236 60.6506 1.81747 61.5689 1.4564 62.5727L3.33836 63.2496ZM3.01291 65.5746C2.95986 64.7855 3.07067 63.9939 3.33836 63.2496L1.4564 62.5727C1.09532 63.5766 0.94586 64.6443 1.01741 65.7087L3.01291 65.5746ZM8.41884 70.9847C5.51837 70.8049 3.19361 68.4803 3.01324 65.5796L1.01709 65.7037C1.26006 69.6112 4.38744 72.7387 8.29509 72.9809L8.41884 70.9847ZM8.7925 70.9963C8.66576 70.9963 8.54052 70.9924 8.41991 70.9848L8.29403 72.9808C8.45821 72.9912 8.62546 72.9963 8.7925 72.9963V70.9963ZM14.5061 66.108C14.0644 68.943 11.6658 70.9963 8.7925 70.9963V72.9963C12.6503 72.9963 15.8886 70.226 16.4822 66.4159L14.5061 66.108ZM15.6474 65.142C15.159 65.142 14.6035 65.481 14.506 66.1084L16.4823 66.4154C16.4417 66.6769 16.2976 66.8593 16.1634 66.9644C16.0268 67.0714 15.8482 67.142 15.6474 67.142V65.142ZM22.5383 65.142H15.6474V67.142H22.5383V65.142ZM21.673 68.4118L23.2432 66.8513L21.8334 65.4327L20.2632 66.9933L21.673 68.4118ZM21.6873 68.3899C21.6835 68.3988 21.6781 68.4069 21.6712 68.4136L20.265 66.9915C20.084 67.1705 19.9403 67.3835 19.8421 67.6183L21.6873 68.3899ZM21.6929 68.3617C21.6929 68.3714 21.691 68.3809 21.6873 68.3899L19.8421 67.6183C19.7439 67.8532 19.6932 68.1051 19.6929 68.3596L21.6929 68.3617ZM21.6733 68.3162C21.678 68.3209 21.6835 68.3285 21.6876 68.3385C21.6917 68.3485 21.6929 68.3574 21.6929 68.3633L19.6929 68.3581C19.6916 68.8712 19.8918 69.3604 20.2539 69.7252L21.6733 68.3162ZM21.6249 68.2952C21.6305 68.2952 21.6397 68.2965 21.65 68.3008C21.6604 68.3051 21.6679 68.3108 21.672 68.3149L20.2552 69.7265C20.6193 70.092 21.109 70.2952 21.6249 70.2952V68.2952ZM21.5772 68.3149C21.5817 68.3104 21.5892 68.3049 21.5993 68.3008C21.6093 68.2966 21.6185 68.2952 21.6249 68.2952V70.2952C22.1365 70.2952 22.6232 70.0946 22.9863 69.7342L21.5772 68.3149ZM23.9148 65.9914L21.5768 68.3153L22.9867 69.7338L25.3247 67.4099L23.9148 65.9914ZM24.2516 65.1819C24.2507 65.4862 24.1292 65.7777 23.9137 65.9925L25.3258 67.4088C25.9162 66.8202 26.2491 66.0215 26.2515 65.1879L24.2516 65.1819ZM23.9185 64.3694C24.1327 64.5855 24.2525 64.8777 24.2516 65.1819L26.2515 65.1879C26.254 64.3542 25.9258 63.5536 25.339 62.9615L23.9185 64.3694ZM21.5597 61.9965L23.9195 64.3704L25.3379 62.9604L22.9781 60.5865L21.5597 61.9965ZM26.113 34H40.3534V32H26.113V34ZM25.4257 34.2857C25.6084 34.1031 25.856 34.0003 26.1143 34L26.1117 32C25.3239 32.001 24.5686 32.3144 24.0115 32.8715L25.4257 34.2857ZM25.14 34.9743C25.1403 34.716 25.2431 34.4684 25.4257 34.2857L24.0115 32.8715C23.4544 33.4286 23.141 34.1839 23.14 34.9717L25.14 34.9743ZM25.14 36.0275V34.973H23.14V36.0275H25.14ZM25.0713 35.9595C25.0919 35.9595 25.1102 35.969 25.1205 35.9793C25.1308 35.9896 25.14 36.0076 25.14 36.0275H23.14C23.14 37.0932 24.0054 37.9595 25.0713 37.9595V35.9595ZM25.0033 36.0275C25.0033 36.0076 25.0125 35.9895 25.0229 35.9791C25.0332 35.9687 25.0514 35.9595 25.0713 35.9595V37.9595C26.1374 37.9595 27.0033 37.0936 27.0033 36.0275H25.0033ZM25.0033 34.973V36.0275H27.0033V34.973H25.0033ZM26.113 33.8634C25.5004 33.8634 25.0033 34.3604 25.0033 34.973H27.0033C27.0033 35.465 26.605 35.8634 26.113 35.8634V33.8634ZM40.3534 33.8634H26.113V35.8634H40.3534V33.8634ZM40.7793 33.9484C40.6443 33.8922 40.4995 33.8633 40.3533 33.8634L40.3534 35.8634C40.2359 35.8634 40.1197 35.8401 40.0112 35.795L40.7793 33.9484ZM41.1398 34.1904C41.0368 34.0868 40.9143 34.0046 40.7793 33.9484L40.0112 35.795C39.9027 35.7499 39.8043 35.6838 39.7216 35.6006L41.1398 34.1904ZM41.3798 34.5524C41.3245 34.4173 41.243 34.2942 41.1398 34.1904L39.7216 35.6006C39.6386 35.5172 39.5732 35.4183 39.5288 35.3098L41.3798 34.5524ZM41.4624 34.9789C41.4632 34.8327 41.4352 34.6878 41.3798 34.5524L39.5288 35.3098C39.4843 35.201 39.4617 35.0846 39.4624 34.9672L41.4624 34.9789ZM41.4624 45.9607V34.973H39.4624V45.9607H41.4624ZM41.3798 46.3813C41.4352 46.246 41.4632 46.101 41.4624 45.9549L39.4624 45.9665C39.4617 45.8491 39.4843 45.7327 39.5288 45.6239L41.3798 46.3813ZM41.1398 46.7433C41.243 46.6395 41.3245 46.5165 41.3798 46.3813L39.5288 45.6239C39.5732 45.5154 39.6386 45.4166 39.7216 45.3331L41.1398 46.7433ZM40.7793 46.9853C40.9143 46.9292 41.0368 46.8469 41.1398 46.7433L39.7216 45.3331C39.8043 45.2499 39.9027 45.1838 40.0112 45.1387L40.7793 46.9853ZM40.3534 47.0704C40.4995 47.0704 40.6443 47.0415 40.7793 46.9853L40.0112 45.1387C40.1196 45.0936 40.2359 45.0704 40.3534 45.0704V47.0704ZM26.113 47.0704H40.3534V45.0704H26.113V47.0704ZM25.3285 46.7452C25.5352 46.9519 25.815 47.0687 26.1072 47.0704L26.1188 45.0704C26.3529 45.0718 26.5771 45.1653 26.7427 45.331L25.3285 46.7452ZM25.0033 45.9665C25.005 46.2587 25.1219 46.5385 25.3285 46.7452L26.7427 45.331C26.9083 45.4966 27.0019 45.7208 27.0033 45.9549L25.0033 45.9665ZM25.0033 43.0794V45.9607H27.0033V43.0794H25.0033ZM24.676 42.3343C24.8833 42.5243 25.0033 42.7967 25.0033 43.0794H27.0033C27.0033 42.237 26.6487 41.4293 26.0272 40.8598L24.676 42.3343ZM24.3192 42.1224C24.4513 42.1674 24.5725 42.2393 24.6753 42.3337L26.028 40.8605C25.7209 40.5785 25.3585 40.3635 24.9638 40.2291L24.3192 42.1224ZM23.9082 42.0725C24.0472 42.0604 24.1871 42.0774 24.3192 42.1224L24.9638 40.2291C24.5691 40.0947 24.1508 40.044 23.7354 40.08L23.9082 42.0725ZM8.81473 53.8453C11.3348 43.964 20.8758 42.3339 23.9077 42.0725L23.7359 40.0799C20.6216 40.3484 9.74853 42.0909 6.87677 53.3511L8.81473 53.8453ZM6.14305 52.0807L6.92046 53.9775L8.77104 53.2189L7.99363 51.3222L6.14305 52.0807ZM6.15712 52.1008C6.15045 52.094 6.14519 52.086 6.14162 52.0773L7.99506 51.3257C7.89944 51.0899 7.75809 50.8754 7.57917 50.6944L6.15712 52.1008ZM6.18047 52.1165C6.17172 52.1129 6.16379 52.1075 6.15712 52.1008L7.57917 50.6944C7.40024 50.5135 7.18727 50.3698 6.95254 50.2716L6.18047 52.1165ZM6.20809 52.1221C6.1986 52.1221 6.18921 52.1202 6.18047 52.1165L6.95254 50.2716C6.71781 50.1733 6.46595 50.1225 6.21149 50.1221L6.20809 52.1221ZM6.23573 52.1166C6.22696 52.1203 6.21757 52.1221 6.20809 52.1221L6.21149 50.1221C5.95703 50.1217 5.70501 50.1716 5.46994 50.269L6.23573 52.1166ZM6.25377 52.103C6.2466 52.1101 6.23808 52.1157 6.22869 52.1195L5.47698 50.2662C5.24073 50.362 5.0259 50.5038 4.84497 50.6834L6.25377 52.103ZM6.27052 52.078C6.26665 52.0874 6.26096 52.0958 6.25377 52.103L4.84497 50.6834C4.66403 50.8629 4.52058 51.0767 4.42297 51.3122L6.27052 52.078ZM6.26986 52.0316C6.27179 52.0364 6.27398 52.0447 6.27393 52.0555C6.27389 52.0663 6.2716 52.0755 6.26906 52.0815L4.42443 51.3086C4.22533 51.7838 4.22465 52.3116 4.41721 52.7851L6.26986 52.0316ZM7.519 55.0798L6.26885 52.0292L4.41822 52.7875L5.66836 55.8382L7.519 55.0798ZM7.94104 55.5983C7.75221 55.4719 7.60547 55.2919 7.51966 55.0814L5.6677 55.8366C5.90401 56.4161 6.30807 56.9118 6.82805 57.26L7.94104 55.5983ZM8.57945 55.7912C8.35218 55.792 8.12987 55.7248 7.94104 55.5983L6.82805 57.26C7.34803 57.6083 7.96021 57.7933 8.58605 57.7912L8.57945 55.7912ZM9.0129 55.7064C8.87677 55.7625 8.73093 55.7914 8.58368 55.7912L8.58183 57.7912C8.9913 57.7916 9.39686 57.7115 9.77541 57.5553L9.0129 55.7064ZM12.1112 54.4368L9.01498 55.7055L9.77334 57.5562L12.8695 56.2874L12.1112 54.4368ZM12.0894 54.452C12.0966 54.4449 12.1051 54.4393 12.1145 54.4354L12.8662 56.2888C13.1024 56.193 13.3173 56.0512 13.4982 55.8716L12.0894 54.452ZM12.0726 54.477C12.0765 54.4676 12.0822 54.4591 12.0894 54.452L13.4982 55.8716C13.6791 55.692 13.8226 55.4783 13.9202 55.2428L12.0726 54.477ZM12.0729 54.5224C12.0714 54.5186 12.0692 54.5107 12.0692 54.5C12.0693 54.4892 12.0716 54.4795 12.0745 54.4725L13.9184 55.2472C14.1182 54.7715 14.1181 54.2437 13.9263 53.7708L12.0729 54.5224ZM12.0887 54.5467C12.0821 54.54 12.0769 54.5321 12.0733 54.5234L13.9259 53.7699C13.8301 53.5342 13.6886 53.3198 13.5095 53.1391L12.0887 54.5467ZM12.1118 54.5623C12.1032 54.5586 12.0953 54.5533 12.0887 54.5467L13.5095 53.1391C13.3305 52.9584 13.1175 52.8148 12.8827 52.7168L12.1118 54.5623ZM12.1392 54.5678C12.1298 54.5677 12.1205 54.5659 12.1118 54.5623L12.8827 52.7168C12.648 52.6187 12.3962 52.5681 12.1417 52.5678L12.1392 54.5678ZM12.1666 54.5623C12.1579 54.5659 12.1486 54.5678 12.1392 54.5678L12.1417 52.5678C11.8874 52.5674 11.6354 52.6174 11.4004 52.7149L12.1666 54.5623ZM9.90276 55.4896L12.1625 54.564L11.4044 52.7132L9.1447 53.6388L9.90276 55.4896ZM23.9086 41.9368C20.19 42.2569 10.8311 44.0947 8.54765 54.3468L10.4998 54.7816C12.4729 45.923 20.5095 44.2368 24.0801 43.9295L23.9086 41.9368ZM24.4351 42.0213C24.2954 41.9631 24.1456 41.9332 23.9943 41.9332L23.9944 43.9332C23.8815 43.9332 23.7698 43.9108 23.6657 43.8674L24.4351 42.0213ZM24.8079 42.2722C24.7015 42.1648 24.5747 42.0795 24.4351 42.0213L23.6657 43.8674C23.5615 43.824 23.467 43.7604 23.3876 43.6803L24.8079 42.2722ZM25.0556 42.6473C24.9987 42.5072 24.9145 42.3797 24.8079 42.2722L23.3876 43.6803C23.3081 43.6001 23.2453 43.505 23.2029 43.4006L25.0556 42.6473ZM25.1399 43.0889C25.1413 42.9376 25.1126 42.7875 25.0556 42.6473L23.2029 43.4006C23.1604 43.296 23.139 43.1841 23.14 43.0712L25.1399 43.0889ZM25.14 45.9613V43.0801H23.14V45.9613H25.14ZM25.4257 46.6486C25.2431 46.466 25.1403 46.2184 25.14 45.9601L23.14 45.9626C23.141 46.7505 23.4544 47.5058 24.0115 48.0629L25.4257 46.6486ZM26.1143 46.9344C25.856 46.934 25.6084 46.8313 25.4257 46.6486L24.0115 48.0629C24.5686 48.6199 25.3239 48.9334 26.1117 48.9344L26.1143 46.9344ZM40.3534 46.9344H26.113V48.9344H40.3534V46.9344ZM41.0406 46.6486C40.858 46.8313 40.6104 46.934 40.3521 46.9344L40.3547 48.9344C41.1425 48.9334 41.8978 48.6199 42.4549 48.0629L41.0406 46.6486ZM41.3264 45.9601C41.3261 46.2184 41.2233 46.466 41.0406 46.6486L42.4549 48.0629C43.012 47.5058 43.3254 46.7505 43.3264 45.9626L41.3264 45.9601ZM41.3264 34.973V45.9613H43.3264V34.973H41.3264ZM41.0406 34.2857C41.2233 34.4684 41.3261 34.716 41.3264 34.9743L43.3264 34.9717C43.3254 34.1839 43.012 33.4286 42.4549 32.8715L41.0406 34.2857ZM40.3521 34C40.6104 34.0003 40.858 34.1031 41.0406 34.2857L42.4549 32.8715C41.8978 32.3144 41.1425 32.001 40.3547 32L40.3521 34ZM33.2799 58.3548C33.2799 58.8512 33.6231 59.3947 34.24 59.4946L34.5596 57.5203C35.0419 57.5984 35.2799 58.0084 35.2799 58.3548H33.2799ZM33.2799 51.4639V58.3548H35.2799V51.4639H33.2799ZM36.5497 52.3292L34.9891 50.759L33.5706 52.1688L35.1312 53.739L36.5497 52.3292ZM36.494 52.3003C36.5107 52.3002 36.5269 52.3067 36.5388 52.3184L35.1421 53.7498C35.5075 54.1064 35.999 54.3043 36.5096 54.3003L36.494 52.3003ZM36.4542 52.3282C36.4706 52.3119 36.4839 52.3054 36.4898 52.303C36.4958 52.3006 36.4995 52.3003 36.5018 52.3003V54.3003C36.9995 54.3003 37.4967 54.1112 37.863 53.7478L36.4542 52.3282ZM36.4338 52.3747C36.4338 52.3701 36.4349 52.3615 36.4392 52.3512C36.4435 52.3408 36.4494 52.333 36.4541 52.3283L37.8631 53.7476C38.2286 53.3849 38.4311 52.8975 38.4338 52.385L36.4338 52.3747ZM36.4396 52.4034C36.4357 52.3939 36.4337 52.3837 36.4338 52.3734L38.4338 52.3863C38.4354 52.1312 38.3863 51.8783 38.2892 51.6424L36.4396 52.4034ZM36.4566 52.4289C36.4493 52.4216 36.4436 52.4129 36.4396 52.4034L38.2892 51.6423C38.1921 51.4064 38.049 51.1922 37.8683 51.0121L36.4566 52.4289ZM34.1293 50.0874L36.4532 52.4254L37.8717 51.0155L35.5478 48.6775L34.1293 50.0874ZM33.7573 49.8364C33.896 49.8941 34.0218 49.9787 34.1275 50.0856L35.5496 48.6794C35.2571 48.3835 34.9086 48.149 34.5244 47.9894L33.7573 49.8364ZM33.3195 49.75C33.4698 49.7494 33.6186 49.7788 33.7573 49.8364L34.5244 47.9894C34.1402 47.8298 33.7281 47.7485 33.312 47.75L33.3195 49.75ZM32.8779 49.8352C33.0157 49.7784 33.1633 49.7495 33.3122 49.75L33.3193 47.75C32.9066 47.7486 32.4976 47.8288 32.116 47.986L32.8779 49.8352ZM32.5097 50.0807C32.615 49.9754 32.7402 49.8919 32.8779 49.8352L32.116 47.986C31.7344 48.1433 31.3876 48.3744 31.0957 48.6663L32.5097 50.0807ZM30.135 52.4412L32.5077 50.0827L31.0977 48.6643L28.725 51.0228L30.135 52.4412ZM30.1559 52.4045C30.1533 52.4174 30.147 52.4292 30.1377 52.4386L28.7223 51.0255C28.4527 51.2955 28.2691 51.6393 28.1945 52.0135L30.1559 52.4045ZM30.1522 52.366C30.1572 52.3781 30.1585 52.3915 30.1559 52.4045L28.1945 52.0135C28.1199 52.3878 28.1577 52.7757 28.3032 53.1285L30.1522 52.366ZM30.1277 52.336C30.1386 52.3434 30.1471 52.3538 30.1522 52.366L28.3032 53.1285C28.4487 53.4813 28.6953 53.7831 29.012 53.9959L30.1277 52.336ZM30.0907 52.3247C30.1039 52.3247 30.1168 52.3287 30.1277 52.336L29.012 53.9959C29.3287 54.2088 29.7014 54.3232 30.083 54.3247L30.0907 52.3247ZM30.0392 52.3443C30.0433 52.3402 30.0507 52.3346 30.0612 52.3303C30.0717 52.326 30.081 52.3247 30.0868 52.3247V54.3247C30.5994 54.3247 31.0854 54.1238 31.4482 53.7637L30.0392 52.3443ZM31.7108 50.6823L30.0386 52.3449L31.4487 53.7631L33.1209 52.1006L31.7108 50.6823ZM33.4159 58.3548V51.3914H31.4159V58.3548H33.4159ZM33.6548 59.0196C33.4988 58.8363 33.414 58.603 33.4158 58.3623L31.4159 58.3472C31.4104 59.0679 31.6644 59.7666 32.1315 60.3155L33.6548 59.0196ZM34.2652 59.3607C34.0274 59.3239 33.8107 59.2029 33.6548 59.0196L32.1315 60.3155C32.5985 60.8645 33.2474 61.2271 33.9597 61.3372L34.2652 59.3607ZM39.258 65.5905C39.4489 62.5191 37.3035 59.8341 34.2664 59.3609L33.9585 61.337C35.9682 61.6502 37.3891 63.4193 37.2619 65.4665L39.258 65.5905ZM33.7254 71.1237C36.6562 70.9417 39.076 68.521 39.258 65.5905L37.2619 65.4665C37.1424 67.3904 35.525 69.0081 33.6015 69.1275L33.7254 71.1237ZM31.3441 70.7877C32.1075 71.0621 32.9192 71.1764 33.7287 71.1235L33.5982 69.1278C33.0627 69.1628 32.5257 69.0871 32.0207 68.9056L31.3441 70.7877ZM29.2915 69.5284C29.882 70.0846 30.5807 70.5132 31.3441 70.7877L32.0207 68.9056C31.5157 68.724 31.0535 68.4404 30.6628 68.0725L29.2915 69.5284ZM27.908 67.5662C28.2299 68.3102 28.7023 68.9796 29.2956 69.5321L30.6588 68.0687C30.2675 67.7042 29.9559 67.2627 29.7435 66.7719L27.908 67.5662ZM27.4249 65.2088C27.4216 66.0195 27.5861 66.8221 27.908 67.5662L29.7435 66.7719C29.5312 66.2812 29.4227 65.7518 29.4249 65.217L27.4249 65.2088ZM28.3681 62.01C27.7542 62.965 27.4269 64.0759 27.4249 65.2112L29.4249 65.2147C29.4262 64.4617 29.6433 63.7249 30.0505 63.0915L28.3681 62.01ZM30.8888 59.8229C29.8568 60.296 28.982 61.055 28.3681 62.01L30.0505 63.0915C30.4577 62.4581 31.0379 61.9547 31.7223 61.6409L30.8888 59.8229ZM30.8706 59.8371C30.8771 59.8302 30.8849 59.8246 30.8935 59.8207L31.7176 61.6431C31.9494 61.5383 32.1581 61.3886 32.3318 61.2028L30.8706 59.8371ZM30.8558 59.8611C30.8591 59.8522 30.8642 59.8441 30.8706 59.8371L32.3318 61.2028C32.5055 61.017 32.6407 60.7986 32.7296 60.5603L30.8558 59.8611ZM30.8513 59.8889C30.851 59.8794 30.8525 59.87 30.8558 59.8611L32.7296 60.5603C32.8185 60.322 32.8594 60.0685 32.8499 59.8143L30.8513 59.8889ZM30.8579 59.9163C30.8539 59.9077 30.8517 59.8983 30.8513 59.8889L32.8499 59.8143C32.8405 59.5601 32.7808 59.3103 32.6743 59.0793L30.8579 59.9163ZM30.8943 59.9495C30.878 59.9434 30.8647 59.9311 30.8574 59.9152L32.6748 59.0804C32.4613 58.6156 32.0725 58.2544 31.5933 58.0756L30.8943 59.9495ZM30.9448 59.9478C30.9288 59.955 30.9107 59.9557 30.8944 59.9495L31.5933 58.0756C31.1141 57.8969 30.5836 57.9153 30.118 58.1267L30.9448 59.9478ZM28.4824 62.0846C29.0828 61.1508 29.9384 60.4087 30.9478 59.9464L30.1149 58.1281C28.7578 58.7497 27.6074 59.7474 26.8001 61.003L28.4824 62.0846ZM27.5603 65.2151C27.562 64.1049 27.882 63.0185 28.4824 62.0846L26.8001 61.003C25.9929 62.2586 25.5626 63.7193 25.5603 65.212L27.5603 65.2151ZM29.385 69.431C28.226 68.3414 27.5603 66.8026 27.5603 65.2136H25.5603C25.5603 67.3551 26.4545 69.4211 28.0151 70.8882L29.385 69.431ZM31.3875 70.6619C30.6431 70.394 29.9619 69.9755 29.3865 69.4324L28.0137 70.8869C28.7891 71.6187 29.7071 72.1828 30.7104 72.5438L31.3875 70.6619ZM33.7132 70.9892C32.9237 71.0412 32.132 70.9298 31.3875 70.6619L30.7104 72.5438C31.7137 72.9048 32.7807 73.0549 33.8446 72.9849L33.7132 70.9892ZM39.122 65.5834C38.9422 68.4838 36.6175 70.8086 33.7168 70.989L33.841 72.9851C37.7484 72.7422 40.8759 69.6148 41.1182 65.7071L39.122 65.5834ZM34.2457 59.4955C37.2128 59.9582 39.3095 62.569 39.122 65.5832L41.1181 65.7073C41.3694 61.667 38.5463 58.142 34.5539 57.5194L34.2457 59.4955ZM25.1568 40.8813C26.2416 40.8813 27.1209 40.0019 27.1209 38.9172H25.1209C25.1209 38.8973 25.137 38.8813 25.1568 38.8813V40.8813ZM23.1928 38.9172C23.1928 40.0019 24.0721 40.8813 25.1568 40.8813V38.8813C25.1767 38.8813 25.1928 38.8973 25.1928 38.9172H23.1928ZM25.1568 36.9531C24.0721 36.9531 23.1928 37.8325 23.1928 38.9172H25.1928C25.1928 38.937 25.1767 38.9531 25.1568 38.9531V36.9531ZM27.1209 38.9172C27.1209 37.8325 26.2416 36.9531 25.1568 36.9531V38.9531C25.137 38.9531 25.1209 38.937 25.1209 38.9172H27.1209Z" fill="#9263D4" mask="url(#path-2-outside-1_1613_1116)"></path></svg>