<svg xmlns="http://www.w3.org/2000/svg" width="80" height="80" viewBox="0 0 80 80" fill="none"><path fill-rule="evenodd" clip-rule="evenodd" d="M45.0039 54.1484C45.0039 55.184 45.8434 56.0234 46.8789 56.0234H64.9531C72.8906 56.0234 79.3281 49.5859 79.3281 41.6484C79.3281 33.7109 72.8906 27.2734 64.9531 27.2734C64.2628 27.2734 63.7031 26.7138 63.7031 26.0234C63.7031 14.6484 54.4531 5.39844 43.0781 5.39844C31.7031 5.39844 22.4531 14.6484 22.4531 26.0234C22.4531 27.0859 23.2656 27.8984 24.3281 27.8984C25.3906 27.8984 26.2031 27.0859 26.2031 26.0234C26.2031 16.7109 33.7656 9.14844 43.0781 9.14844C52.3906 9.14844 59.9531 16.7109 59.9531 26.0234V29.1484C59.9531 30.2109 60.7656 31.0234 61.8281 31.0234H64.9531C70.8281 31.0234 75.5781 35.7734 75.5781 41.6484C75.5781 47.5234 70.8281 52.2734 64.9531 52.2734H46.8789C45.8434 52.2734 45.0039 53.1129 45.0039 54.1484Z" fill="#101828"></path><path d="M39.7939 60.435V47.0917C41.2107 46.7674 42.2748 45.4984 42.2748 43.9792C42.2748 42.221 40.8408 40.787 39.0826 40.787C38.1608 40.787 37.33 41.1797 36.7496 41.8056L30.9685 38.4711L25.1873 35.1367C25.2783 34.8351 25.3295 34.5222 25.3295 34.1922C25.3295 32.4339 23.9013 31 22.1374 31C20.3791 31 18.9452 32.4339 18.9452 34.1922C18.9452 34.5222 18.9964 34.8351 19.0875 35.1367L13.3063 38.4711L7.53083 41.8056C6.94473 41.1797 6.11399 40.787 5.19216 40.787C3.43392 40.787 2 42.221 2 43.9792C2 45.4984 3.06405 46.7674 4.48089 47.0917V60.435C3.05836 60.7594 2 62.034 2 63.5476C2 65.3058 3.42823 66.7397 5.19216 66.7397C6.11399 66.7397 6.94473 66.3471 7.53083 65.7155L13.3063 69.0556L19.0875 72.39C18.9964 72.6859 18.9452 73.0046 18.9452 73.3289C18.9452 75.0928 20.3791 76.521 22.1374 76.521C23.9013 76.521 25.3295 75.0928 25.3295 73.3289C25.3295 73.0046 25.2783 72.6859 25.1873 72.39L30.9685 69.0556L36.7496 65.7155C37.33 66.3471 38.1608 66.7397 39.0826 66.7397C40.8465 66.7397 42.2748 65.3058 42.2748 63.5476C42.2748 62.034 41.2164 60.7594 39.7939 60.435ZM24.476 36.3658L30.2572 39.7002L36.0327 43.0403C35.9416 43.3362 35.8904 43.6548 35.8904 43.9792C35.8904 44.3092 35.9416 44.6222 36.0327 44.9181L29.7109 48.5654C29.5516 47.5412 28.7152 46.6251 27.3154 45.9594C26.0863 45.3733 24.5272 45.0148 22.8486 44.9408V37.3104C23.4859 37.1624 24.0493 36.8267 24.476 36.3658ZM27.3154 51.8942C27.691 51.7178 28.0267 51.5186 28.3169 51.3081V53.7833C28.3169 55.001 25.6766 56.3666 22.1374 56.3666C18.5981 56.3666 15.9579 55.001 15.9579 53.7833V51.3081C16.2481 51.5186 16.5838 51.7178 16.9594 51.8942C18.3591 52.5599 20.1971 52.9298 22.1374 52.9298C24.0777 52.9298 25.9156 52.5599 27.3154 51.8942ZM8.24209 43.0403L14.0176 39.7059L19.7987 36.3658C20.2312 36.8267 20.7888 37.1624 21.4261 37.3104V44.9408C19.7532 45.0148 18.1884 45.3733 16.9594 45.9594C15.5596 46.6251 14.7231 47.5469 14.5638 48.5654L8.24209 44.9181C8.33881 44.6222 8.38435 44.3092 8.38435 43.9792C8.38435 43.6548 8.33881 43.3362 8.24209 43.0403ZM5.90342 60.435V47.0917C6.53505 46.9495 7.09837 46.6137 7.53083 46.1528L14.5297 50.1928V57.3339L7.53083 61.3739C7.10407 60.913 6.53505 60.583 5.90342 60.435ZM21.4261 70.2164C20.7888 70.3643 20.2312 70.7001 19.7987 71.161L14.0176 67.8209L8.24209 64.4864C8.33312 64.1905 8.38435 63.8719 8.38435 63.5476C8.38435 63.2175 8.33312 62.9046 8.24209 62.6087L14.5638 58.9556C14.7175 59.9855 15.5539 60.9016 16.9537 61.5731C18.1827 62.1535 19.7475 62.5119 21.4261 62.5859V70.2164ZM15.9579 58.6028V56.1674C16.2481 56.378 16.5781 56.5771 16.9537 56.7535C18.3534 57.425 20.1914 57.7891 22.1374 57.7891C24.0834 57.7891 25.9213 57.425 27.3211 56.7535C27.6967 56.5771 28.0267 56.378 28.3169 56.1674V58.6028C28.3169 59.8205 25.6766 61.1805 22.1374 61.1805C18.5981 61.1805 15.9579 59.8205 15.9579 58.6028ZM36.0327 64.4864L30.2572 67.8209L24.476 71.161C24.0436 70.7001 23.4859 70.3643 22.8486 70.2164V62.5859C24.5272 62.5119 26.0977 62.1535 27.3211 61.5731C28.7209 60.9016 29.5573 59.9855 29.7109 58.9613L36.0327 62.6087C35.9416 62.9046 35.8904 63.2232 35.8904 63.5476C35.8904 63.8719 35.9416 64.1905 36.0327 64.4864ZM38.3713 60.435C37.7397 60.583 37.1764 60.913 36.7496 61.3739L29.7451 57.3339V50.1928L36.7439 46.1528C37.1764 46.6137 37.7397 46.9495 38.3713 47.0917V60.435Z" fill="#9263D4"></path></svg>