<svg xmlns="http://www.w3.org/2000/svg" width="80" height="80" viewBox="0 0 80 80" fill="none"><path d="M17.7714 48.0768V69.4711C17.7714 70.8539 16.6514 71.9854 15.2571 71.9854H6.51429C5.12 71.9854 4 70.8539 4 69.4711V48.0768C4 46.6825 5.12 45.5625 6.51429 45.5625H15.2571C16.6514 45.5625 17.7714 46.6825 17.7714 48.0768Z" fill="#7047EA"></path><path d="M54.4483 60.5296L70.7797 52.6439C73.2026 51.4782 76.014 53.2382 76.014 55.9239C76.014 57.2382 75.3055 58.4496 74.1626 59.101C74.1626 59.101 50.3112 76.0496 40.734 76.5867C34.5169 76.941 17.7969 66.8839 17.7969 66.8839V48.941C17.7969 48.941 23.1683 48.7925 29.4997 48.941C34.0712 49.0553 39.0083 51.3639 42.814 54.7925H51.3397C53.3969 54.7925 55.0654 56.461 55.0654 58.5182C55.0654 60.5753 53.3969 62.2439 51.3397 62.2439H34.8597" fill="#FFC6CD"></path><path d="M40.3995 77.14C33.8509 77.14 18.1595 67.7572 17.4852 67.3458C17.3138 67.2429 17.2109 67.06 17.2109 66.8543V48.9343C17.2109 48.6258 17.4624 48.3743 17.7709 48.3629C17.8281 48.3629 23.2338 48.2143 29.4967 48.3629C33.9538 48.4658 38.9938 50.6486 43.0167 54.2143H51.3138C52.4567 54.2143 53.5424 54.6601 54.3538 55.4715C55.1652 56.2829 55.6109 57.3572 55.6109 58.5115C55.6109 58.8086 55.5767 59.0943 55.5195 59.3686L70.5252 52.1229C71.8395 51.4829 73.3595 51.5743 74.5938 52.34C75.8281 53.1172 76.5709 54.4543 76.5709 55.9058C76.5709 57.4258 75.7481 58.8315 74.4224 59.5743C73.4967 60.2372 50.3767 76.5915 40.7424 77.1286C40.6281 77.14 40.5138 77.14 40.3995 77.14ZM18.3538 66.5343C20.5481 67.8258 35.1424 76.2943 40.6852 75.9972C49.9881 75.4715 73.5766 58.7858 73.8167 58.6258C74.8338 58.0543 75.4281 57.0258 75.4281 55.9172C75.4281 54.8543 74.8909 53.8829 73.9881 53.3115C73.0852 52.7515 71.9767 52.6829 71.0167 53.1515L54.8224 60.9686C54.0452 62.0772 52.7538 62.7972 51.3024 62.7972H34.8567C34.5367 62.7972 34.2852 62.5458 34.2852 62.2258C34.2852 61.9058 34.5367 61.6543 34.8567 61.6543H51.3138C52.4224 61.6543 53.3938 61.0829 53.9652 60.2143V60.2029C54.2852 59.7115 54.4681 59.1286 54.4681 58.5C54.4681 57.6543 54.1367 56.8658 53.5424 56.2715C52.9481 55.6772 52.1595 55.3458 51.3138 55.3458H42.7881C42.6509 55.3458 42.5138 55.2886 42.4109 55.1972C38.5595 51.7229 33.7252 49.5972 29.4624 49.4943C24.3881 49.3686 19.8738 49.4486 18.3424 49.4829V66.5343H18.3538Z" fill="#101828"></path><path d="M15.2583 72.5501H6.5154C4.81254 72.5501 3.42969 71.1672 3.42969 69.4644V48.0701C3.42969 46.3672 4.81254 44.9844 6.5154 44.9844H15.2583C16.9611 44.9844 18.344 46.3672 18.344 48.0701V69.4644C18.344 71.1672 16.9611 72.5501 15.2583 72.5501ZM6.5154 46.1272C5.44112 46.1272 4.57254 46.9958 4.57254 48.0701V69.4644C4.57254 70.5387 5.44112 71.4072 6.5154 71.4072H15.2583C16.3325 71.4072 17.2011 70.5387 17.2011 69.4644V48.0701C17.2011 46.9958 16.3325 46.1272 15.2583 46.1272H6.5154Z" fill="#101828"></path><path d="M13.0469 68.5625C14.1514 68.5625 15.0469 67.6671 15.0469 66.5625C15.0469 65.4579 14.1514 64.5625 13.0469 64.5625C11.9423 64.5625 11.0469 65.4579 11.0469 66.5625C11.0469 67.6671 11.9423 68.5625 13.0469 68.5625Z" fill="white"></path><path d="M13.048 69.1429C11.6308 69.1429 10.4766 67.9886 10.4766 66.5714C10.4766 65.1543 11.6308 64 13.048 64C14.4651 64 15.6194 65.1543 15.6194 66.5714C15.6194 67.9886 14.4651 69.1429 13.048 69.1429ZM13.048 65.1429C12.2594 65.1429 11.6194 65.7829 11.6194 66.5714C11.6194 67.36 12.2594 68 13.048 68C13.8366 68 14.4766 67.36 14.4766 66.5714C14.4766 65.7829 13.8366 65.1429 13.048 65.1429Z" fill="#101828"></path><path d="M48.7913 50.4263C58.5998 50.4263 66.5513 42.4748 66.5513 32.6663C66.5513 22.8577 58.5998 14.9062 48.7913 14.9062C38.9827 14.9062 31.0312 22.8577 31.0312 32.6663C31.0312 42.4748 38.9827 50.4263 48.7913 50.4263Z" fill="#F9A41A"></path><path d="M48.7846 51.0222C38.6703 51.0222 30.4531 42.7937 30.4531 32.6908C30.4531 22.5879 38.6817 14.3594 48.7846 14.3594C58.8874 14.3594 67.116 22.5879 67.116 32.6908C67.116 42.7937 58.8874 51.0222 48.7846 51.0222ZM48.7846 15.4908C39.3103 15.4908 31.596 23.2051 31.596 32.6794C31.596 42.1537 39.3103 49.8679 48.7846 49.8679C58.2588 49.8679 65.9731 42.1537 65.9731 32.6794C65.9731 23.2051 58.2588 15.4908 48.7846 15.4908Z" fill="#101828"></path><path d="M48.7888 44.3745C55.2521 44.3745 60.4917 39.1349 60.4917 32.6716C60.4917 26.2083 55.2521 20.9688 48.7888 20.9688C42.3255 20.9688 37.0859 26.2083 37.0859 32.6716C37.0859 39.1349 42.3255 44.3745 48.7888 44.3745Z" fill="#F9A41A"></path><path d="M45.7198 27.0693C46.3598 26.3721 47.2513 26.0179 48.3941 26.0064V24.875H49.2055V25.995C50.337 26.075 51.2055 26.4064 51.8113 27.0007C52.417 27.595 52.737 28.3721 52.7598 29.3436H51.2627C51.2284 28.9093 51.1027 28.5321 50.9084 28.2236C50.5541 27.6521 49.9713 27.3436 49.1941 27.3207V31.4693C50.5198 31.835 51.4113 32.1893 51.8913 32.5093C52.657 33.0464 53.0455 33.835 53.0455 34.8864C53.0455 36.4064 52.5541 37.4807 51.5712 38.1207C51.0227 38.475 50.2341 38.7036 49.2055 38.8179V40.475H48.3941V38.8179C46.737 38.715 45.6055 38.1207 45.0227 37.0579C44.7027 36.4864 44.5312 35.7093 44.5312 34.7264H46.0398C46.0855 35.5036 46.2112 36.075 46.4055 36.4407C46.7598 37.0807 47.4113 37.4464 48.3713 37.5264V32.8636C47.137 32.635 46.2341 32.235 45.6398 31.6979C45.057 31.1493 44.7598 30.395 44.7598 29.4236C44.7713 28.5436 45.0798 27.7664 45.7198 27.0693ZM46.8627 30.635C47.2398 30.955 47.7427 31.1721 48.3713 31.2979V27.275C47.6284 27.2979 47.0913 27.5264 46.7827 27.9607C46.4741 28.395 46.3027 28.8407 46.3027 29.2979C46.3027 29.8693 46.497 30.315 46.8627 30.635ZM51.217 36.4864C51.4113 36.1436 51.5027 35.7436 51.5027 35.2979C51.5027 34.5893 51.2398 34.0407 50.7141 33.675C50.417 33.4579 49.9027 33.2521 49.1941 33.0579V37.5493C50.177 37.515 50.8513 37.1607 51.217 36.4864Z" fill="black"></path></svg>