<svg xmlns="http://www.w3.org/2000/svg" width="80" height="80" viewBox="0 0 80 80" fill="none"><path fill-rule="evenodd" clip-rule="evenodd" d="M44.0039 57.75C44.0039 58.7855 44.8434 59.625 45.8789 59.625H63.9531C71.8906 59.625 78.3281 53.1875 78.3281 45.25C78.3281 37.3125 71.8906 30.875 63.9531 30.875C63.2628 30.875 62.7031 30.3154 62.7031 29.625C62.7031 18.25 53.4531 9 42.0781 9C30.7031 9 21.4531 18.25 21.4531 29.625C21.4531 30.6875 22.2656 31.5 23.3281 31.5C24.3906 31.5 25.2031 30.6875 25.2031 29.625C25.2031 20.3125 32.7656 12.75 42.0781 12.75C51.3906 12.75 58.9531 20.3125 58.9531 29.625V32.75C58.9531 33.8125 59.7656 34.625 60.8281 34.625H63.9531C69.8281 34.625 74.5781 39.375 74.5781 45.25C74.5781 51.125 69.8281 55.875 63.9531 55.875H45.8789C44.8434 55.875 44.0039 56.7145 44.0039 57.75Z" fill="#101828"></path><path d="M20.5 72.8016C10.7404 72.8016 2.8 64.8612 2.8 55.1016C2.8 45.342 10.7404 37.4016 20.5 37.4016C30.2596 37.4016 38.2 45.342 38.2 55.1016C38.2 64.8612 30.2596 72.8016 20.5 72.8016ZM20.5 38.4444C11.3143 38.4444 3.84286 45.9158 3.84286 55.1016C3.84286 64.2873 11.3143 71.7587 20.5 71.7587C29.6857 71.7587 37.1571 64.2873 37.1571 55.1016C37.1571 45.9158 29.6857 38.4444 20.5 38.4444Z" fill="#9263D4" stroke="#9F75D8" stroke-width="1.6"></path><path d="M19.9798 64.3516V63.5516H19.1798H17.8584H17.0584V64.3516L17.0584 65.6716C17.0584 65.6718 17.0584 65.6719 17.0584 65.6721C17.0582 65.7702 17.0303 65.8664 16.9779 65.9494C16.9255 66.0326 16.8507 66.0993 16.7621 66.1419C16.6735 66.1845 16.5747 66.2012 16.477 66.1902C16.3795 66.1792 16.2871 66.141 16.2104 66.08C16.2102 66.0798 16.21 66.0796 16.2098 66.0795L9.60513 60.7958C9.60493 60.7956 9.60474 60.7954 9.60454 60.7953C9.54371 60.7462 9.49461 60.6842 9.46084 60.6138C9.42696 60.5431 9.40938 60.4657 9.40938 60.3873C9.40938 60.3089 9.42696 60.2315 9.46084 60.1608L8.74168 59.8162L9.46084 60.1608C9.49461 60.0903 9.54372 60.0283 9.60456 59.9793C9.60475 59.9791 9.60494 59.9789 9.60513 59.9788L16.2085 54.6961C16.2088 54.6959 16.2091 54.6956 16.2094 54.6954C16.2863 54.6346 16.3786 54.5966 16.476 54.5857C16.5738 54.5748 16.6727 54.5916 16.7614 54.6342C16.85 54.6768 16.9249 54.7435 16.9775 54.8267C17.0298 54.9096 17.0578 55.0054 17.0584 55.1034V56.423V57.223H17.8584H19.1798H19.9798V56.423V52.4587C19.9798 52.3204 20.0348 52.1878 20.1326 52.09C20.2304 51.9922 20.363 51.9373 20.5013 51.9373H24.4656H24.4656C24.5968 51.9373 24.7233 51.9868 24.8196 52.0759C24.916 52.165 24.9752 52.2872 24.9855 52.418L25.1033 53.9237L26.2827 52.9804L29.4581 50.4406L30.239 49.816L29.4582 49.1912L26.2842 46.6514L25.1046 45.7076L24.9868 47.2137C24.9765 47.3446 24.9172 47.4669 24.8208 47.556C24.7243 47.6451 24.5977 47.6946 24.4664 47.6944H24.4656H20.5013C20.363 47.6944 20.2304 47.6395 20.1326 47.5417C20.0348 47.4439 19.9798 47.3113 19.9798 47.173V37.923C19.9798 37.7847 20.0348 37.6521 20.1326 37.5543C20.2304 37.4565 20.363 37.4016 20.5013 37.4016C20.6396 37.4016 20.7722 37.4565 20.87 37.5543C20.9678 37.6521 21.0227 37.7847 21.0227 37.923V45.8516V46.6516H21.8227H23.1441H23.9441V45.8516L23.9441 44.5315C23.9441 44.5313 23.9441 44.5312 23.9441 44.531C23.9444 44.4329 23.9723 44.3368 24.0246 44.2537C24.077 44.1705 24.1518 44.1038 24.2404 44.0612C24.329 44.0186 24.4279 44.0019 24.5256 44.0129C24.6231 44.024 24.7155 44.0622 24.7923 44.1233C24.7924 44.1234 24.7926 44.1235 24.7927 44.1236L31.3974 49.4074C31.3976 49.4075 31.3978 49.4077 31.398 49.4078C31.4588 49.4568 31.5079 49.5189 31.5417 49.5894C31.5756 49.6601 31.5932 49.7375 31.5932 49.8158C31.5932 49.8942 31.5756 49.9716 31.5417 50.0423C31.5079 50.1128 31.4588 50.1748 31.398 50.2239C31.3978 50.224 31.3976 50.2242 31.3974 50.2243L24.7927 55.5081C24.7926 55.5082 24.7925 55.5082 24.7924 55.5083C24.7156 55.5695 24.6231 55.6077 24.5256 55.6188C24.4279 55.6298 24.329 55.6131 24.2404 55.5705C24.1518 55.5279 24.077 55.4612 24.0246 55.378L23.3477 55.8044L24.0246 55.378C23.9723 55.2949 23.9444 55.1988 23.9441 55.1006C23.9441 55.1005 23.9441 55.1003 23.9441 55.1002L23.9441 53.7801V52.9801H23.1441H21.8227H21.0227V53.7801V57.7444C21.0227 57.8827 20.9678 58.0153 20.87 58.1131C20.7722 58.2109 20.6396 58.2658 20.5013 58.2658H16.537H16.5369C16.4057 58.2659 16.2793 58.2164 16.1829 58.1272L15.6397 58.7146L16.1829 58.1272C16.0865 58.0381 16.0273 57.9159 16.0171 57.7851L15.8993 56.2794L14.7198 57.2227L11.5444 59.7625L10.7635 60.3871L11.5443 61.0119L14.7184 63.5517L15.8979 64.4955L16.0158 62.9895C16.026 62.8585 16.0853 62.7363 16.1818 62.6471C16.2782 62.558 16.4048 62.5086 16.5361 62.5087H16.537H20.5013C20.6396 62.5087 20.7722 62.5636 20.87 62.6614C20.9678 62.7592 21.0227 62.8918 21.0227 63.0301V72.2801C21.0227 72.4184 20.9678 72.5511 20.87 72.6488L21.4357 73.2145L20.87 72.6488C20.7722 72.7466 20.6396 72.8016 20.5013 72.8016C20.363 72.8016 20.2304 72.7466 20.1326 72.6488L19.5669 73.2145L20.1326 72.6488C20.0348 72.5511 19.9798 72.4184 19.9798 72.2801V64.3516Z" fill="#9263D4" stroke="#9F75D8" stroke-width="1.6"></path></svg>