<svg xmlns="http://www.w3.org/2000/svg" width="80" height="80" viewBox="0 0 80 80" fill="none"><path fill-rule="evenodd" clip-rule="evenodd" d="M44.957 56.1484C44.957 57.184 45.7965 58.0234 46.832 58.0234H64.9062C72.8438 58.0234 79.2812 51.5859 79.2812 43.6484C79.2812 35.7109 72.8438 29.2734 64.9062 29.2734C64.2159 29.2734 63.6562 28.7138 63.6562 28.0234C63.6562 16.6484 54.4062 7.39844 43.0312 7.39844C31.6562 7.39844 22.4062 16.6484 22.4062 28.0234C22.4062 29.0859 23.2188 29.8984 24.2812 29.8984C25.3438 29.8984 26.1562 29.0859 26.1562 28.0234C26.1562 18.7109 33.7188 11.1484 43.0312 11.1484C52.3438 11.1484 59.9062 18.7109 59.9062 28.0234V31.1484C59.9062 32.2109 60.7188 33.0234 61.7812 33.0234H64.9062C70.7812 33.0234 75.5312 37.7734 75.5312 43.6484C75.5312 49.5234 70.7812 54.2734 64.9062 54.2734H46.832C45.7965 54.2734 44.957 55.1129 44.957 56.1484Z" fill="#101828"></path><path d="M5.63255 39.8978L10.2912 41.1205C10.7031 41.2286 11.0551 41.4959 11.2699 41.8635C11.4847 42.2312 11.5447 42.6691 11.4366 43.081C11.3285 43.4928 11.0612 43.8449 10.6935 44.0597C10.3259 44.2745 9.88794 44.3344 9.47609 44.2263L4.8174 43.0036C4.40555 42.8955 4.0535 42.6282 3.83871 42.2605C3.62392 41.8929 3.56398 41.455 3.67208 41.0431C3.78017 40.6312 4.04745 40.2792 4.41511 40.0644C4.78277 39.8496 5.2207 39.7897 5.63255 39.8978ZM12.3291 33.356C12.0886 33.2929 11.8661 33.1743 11.6797 33.0096L8.98151 30.6416C8.82114 30.5031 8.68977 30.3342 8.59497 30.1447C8.50017 29.9552 8.44382 29.7488 8.42917 29.5375C8.41452 29.3261 8.44186 29.1139 8.50961 28.9131C8.57736 28.7124 8.68417 28.527 8.82391 28.3677C8.96364 28.2084 9.13352 28.0784 9.32375 27.9851C9.51399 27.8917 9.72081 27.837 9.9323 27.824C10.1438 27.811 10.3558 27.84 10.556 27.9093C10.7562 27.9786 10.9408 28.0869 11.0989 28.2278L13.7972 30.5959C14.0696 30.8344 14.2535 31.158 14.3188 31.5142C14.3842 31.8703 14.3272 32.2381 14.1572 32.5578C13.9871 32.8775 13.714 33.1304 13.3821 33.2753C13.0503 33.4202 12.6792 33.4486 12.3291 33.356ZM3.18791 52.7094L6.70127 51.9716C6.9083 51.9265 7.12222 51.9228 7.33068 51.9608C7.53914 51.9988 7.73803 52.0776 7.91587 52.1928C8.09372 52.308 8.247 52.4572 8.36689 52.6319C8.48678 52.8067 8.57089 53.0034 8.61439 53.2107C8.65789 53.4181 8.6599 53.6321 8.62032 53.8402C8.58075 54.0484 8.50035 54.2466 8.38378 54.4236C8.26721 54.6005 8.11677 54.7526 7.94113 54.8712C7.76549 54.9897 7.56812 55.0723 7.36041 55.1141L3.84705 55.8519C3.60381 55.9038 3.3518 55.8979 3.11125 55.8347C2.76082 55.7435 2.45153 55.5364 2.23361 55.2472C2.01569 54.958 1.90193 54.6037 1.91081 54.2417C1.91969 53.8797 2.05068 53.5313 2.28252 53.2531C2.51436 52.975 2.83343 52.7833 3.18791 52.7094Z" fill="#9263D4"></path><path d="M22.1185 33.0156L22.1185 33.0156L22.1121 33.0178C21.6015 33.1961 21.1426 33.4971 20.7757 33.8943C20.4088 34.2914 20.1451 34.7727 20.0078 35.2957C20.0078 35.2957 20.0078 35.2957 20.0078 35.2958L15.0802 54.0702L15.079 54.075C14.967 54.4957 14.9394 54.9343 14.9978 55.3657C15.0561 55.797 15.1991 56.2126 15.4187 56.5884C15.6383 56.9643 15.93 57.293 16.2771 57.5556C16.6242 57.8182 17.0199 58.0096 17.4413 58.1187L17.4462 58.12C17.8534 58.2269 18.2771 58.2567 18.6953 58.2079C18.6965 58.2077 18.6978 58.2076 18.6991 58.2074L27.7862 57.0844L32.5523 38.9253L25.1811 33.4794L25.1771 33.4765C24.7443 33.1545 24.2389 32.944 23.7054 32.8636C23.172 32.7833 22.627 32.8354 22.1185 33.0156ZM44.4796 56.7236C44.4796 56.7235 44.4796 56.7234 44.4797 56.7233L46.9371 47.3603C46.9371 47.3602 46.9372 47.3601 46.9372 47.36C46.9372 47.3599 46.9372 47.3599 46.9372 47.3598C47.1607 46.5068 47.0371 45.6 46.5936 44.8379C46.1504 44.0763 45.4237 43.5212 44.5725 43.2938L38.2618 41.6374L34.1121 57.4481L40.4227 59.1044C41.2759 59.3244 42.1816 59.1977 42.9417 58.7519C43.7023 58.3058 44.2553 57.5766 44.4795 56.7238C44.4796 56.7237 44.4796 56.7237 44.4796 56.7236ZM36.5742 70.369C37.3337 69.9253 37.8858 69.1981 38.1091 68.3473L38.9714 65.0618L32.5557 63.378L31.6934 66.6635C31.4701 67.5142 31.5939 68.4189 32.0376 69.1783C32.4813 69.9378 33.2086 70.4899 34.0593 70.7132C34.9101 70.9365 35.8147 70.8127 36.5742 70.369Z" stroke="#9263D4" stroke-width="3"></path></svg>