<svg xmlns="http://www.w3.org/2000/svg" width="80" height="80" viewBox="0 0 80 80" fill="none"><path fill-rule="evenodd" clip-rule="evenodd" d="M45.0039 54.1484C45.0039 55.184 45.8434 56.0234 46.8789 56.0234H64.9531C72.8906 56.0234 79.3281 49.5859 79.3281 41.6484C79.3281 33.7109 72.8906 27.2734 64.9531 27.2734C64.2628 27.2734 63.7031 26.7138 63.7031 26.0234C63.7031 14.6484 54.4531 5.39844 43.0781 5.39844C31.7031 5.39844 22.4531 14.6484 22.4531 26.0234C22.4531 27.0859 23.2656 27.8984 24.3281 27.8984C25.3906 27.8984 26.2031 27.0859 26.2031 26.0234C26.2031 16.7109 33.7656 9.14844 43.0781 9.14844C52.3906 9.14844 59.9531 16.7109 59.9531 26.0234V29.1484C59.9531 30.2109 60.7656 31.0234 61.8281 31.0234H64.9531C70.8281 31.0234 75.5781 35.7734 75.5781 41.6484C75.5781 47.5234 70.8281 52.2734 64.9531 52.2734H46.8789C45.8434 52.2734 45.0039 53.1129 45.0039 54.1484Z" fill="#101828"></path><path d="M33.088 69.3895C32.3973 68.8288 31.8354 68.126 31.4407 67.3288C30.2334 64.8629 30.7775 61.6528 32.7357 59.7178C33.9925 58.4963 35.675 57.8113 37.4276 57.8076C40.4757 57.8374 43.3285 60.1875 43.8892 63.214C44.3076 65.4715 43.3897 67.8861 41.6879 69.4126C43.0738 70.6282 43.9934 72.3945 44 74.3444C44 74.3444 43.8247 75.507 43.006 75.8626C42.0402 76.2843 40.7485 75.5517 40.694 74.4271C40.6741 74.0004 40.6708 73.9243 40.6361 73.7391C40.2805 71.8107 37.9469 70.5058 36.0798 71.3063C35.4909 71.5694 34.9896 71.9953 34.6348 72.5339C34.2799 73.0724 34.0864 73.7012 34.077 74.346C34.077 74.346 34.029 75.2011 33.427 75.6608C32.4463 76.41 30.7527 75.6476 30.7693 74.2617C30.7924 72.4061 31.6855 70.6232 33.088 69.3895ZM3.32046 69.3911C2.62961 68.8296 2.06732 68.1263 1.67158 67.3288C0.464275 64.8646 1.00839 61.6528 2.96654 59.7178C4.22327 58.4962 5.90584 57.8112 7.65849 57.8076C10.7065 57.8374 13.5594 60.1875 14.12 63.214C14.5385 65.4715 13.6222 67.8845 11.9204 69.411C13.3064 70.6249 14.2242 72.3912 14.2309 74.3444C14.2309 74.3444 14.1167 75.383 13.3808 75.7915C12.4182 76.3273 10.9827 75.636 10.9248 74.4271C10.9033 73.9789 10.9 73.9094 10.8636 73.7192C10.4965 71.8041 8.17779 70.5058 6.31061 71.3063C5.72179 71.5694 5.22045 71.9953 4.86561 72.5339C4.51078 73.0724 4.31725 73.7012 4.3078 74.346C4.3078 74.346 4.25984 75.2011 3.65784 75.6608C2.67712 76.41 0.983582 75.6476 1.00012 74.2617C1.02327 72.4077 1.918 70.6249 3.32046 69.3911ZM18.1835 69.3729C17.5022 68.8147 16.9475 68.1179 16.5562 67.3288C15.3439 64.8546 15.8979 61.6263 17.8792 59.6913C19.1316 58.4838 20.8033 57.8086 22.5431 57.8076C25.5911 57.8374 28.444 60.1875 29.0046 63.214C29.423 65.4732 28.5052 67.8878 26.8034 69.4126C28.1893 70.6282 29.1088 72.3945 29.1154 74.3444C29.1154 74.3444 29.0923 75.044 28.6457 75.5021C27.7758 76.3918 25.8805 75.8775 25.8094 74.4271C25.7879 73.9855 25.7846 73.9111 25.7482 73.7192C25.3959 71.8752 23.2559 70.5852 21.4201 71.2186C20.7818 71.4494 20.2279 71.8671 19.8305 72.4173C19.4332 72.9674 19.2108 73.6246 19.1924 74.303C19.1891 74.5726 19.1791 74.5726 19.161 74.6636C18.9112 75.9387 16.8638 76.4613 16.1129 75.1845C15.6598 74.4155 15.8847 73.3372 16.1824 72.3796C16.556 71.2104 17.2492 70.169 18.1835 69.3729ZM22.4786 61.1153C20.2988 61.1368 18.511 63.7003 19.5 65.8188C20.3716 67.6844 23.1947 68.3128 24.7658 66.831C26.5933 65.1093 25.6225 61.1848 22.5646 61.117L22.4786 61.1153ZM7.59399 61.1153C5.41422 61.1368 3.62477 63.7003 4.61542 65.8188C5.48699 67.6844 8.3101 68.3128 9.88125 66.831C11.7021 65.116 10.7379 61.1848 7.67999 61.117L7.59399 61.1153ZM37.3631 61.1153C35.185 61.1368 33.3956 63.7003 34.3846 65.8188C35.2561 67.6844 38.0792 68.3128 39.6521 66.831C41.4779 65.1093 40.5071 61.1848 37.4491 61.117L37.3631 61.1153ZM7.61549 36.3077V52.7733C7.59399 53.243 7.52618 53.3704 7.39387 53.6003C6.8911 54.4702 5.51676 54.667 4.79238 53.9426C4.55222 53.7023 4.39172 53.394 4.33261 53.0594C4.30946 52.9338 4.31276 52.9007 4.3078 52.7733V34.6538C4.32904 34.2221 4.5101 33.8136 4.81577 33.508C5.12145 33.2023 5.52988 33.0212 5.96164 33H39.0385L39.1824 33.0066C40.0076 33.1158 40.6559 33.8104 40.6923 34.6538V52.7733C40.6874 52.9007 40.689 52.9338 40.6675 53.0594C40.4393 54.3561 38.3472 54.882 37.6062 53.6003C37.4739 53.3704 37.4045 53.243 37.3846 52.7733V36.3077H7.61549ZM32.5918 39.6236C33.3873 39.7328 33.4634 39.9461 33.6701 40.1826C34.1629 40.7482 34.1977 41.6661 33.7412 42.2681C33.68 42.3492 33.6602 42.3657 33.5924 42.4385L26.977 49.0538C26.466 49.5335 25.7019 49.6558 25.0685 49.3648L19.5182 46.5896L13.7463 52.3615C13.7463 52.3615 12.2959 53.2496 11.4077 52.3615C11.1349 52.0737 10.9708 51.6998 10.9436 51.3042C10.9165 50.9085 11.0279 50.5157 11.2589 50.1933C11.3201 50.114 11.3383 50.0958 11.4077 50.023L18.0231 43.4076C18.5341 42.928 19.2982 42.8073 19.9316 43.0984L25.4803 45.8718L31.2538 40.0999C31.2538 40.0999 31.75 39.6766 32.2544 39.6236C32.4711 39.6021 32.5223 39.6203 32.5918 39.6236Z" fill="#9263D4"></path></svg>