<svg width="163" height="34" viewBox="0 0 163 34" fill="none" xmlns="http://www.w3.org/2000/svg">
<path d="M45.283 16.7375C44.9889 16.6755 44.7851 16.4041 44.8084 16.1003C44.8288 15.8584 44.8375 15.6136 44.8375 15.3687C44.8375 10.6401 41.1772 6.80531 36.6638 6.80531C36.3464 6.80531 36.0348 6.82301 35.7261 6.86136C35.4641 6.89381 35.2166 6.74041 35.1088 6.49558C33.417 2.66077 29.7131 0 25.4151 0C20.261 0 15.9601 3.82891 14.9614 8.9174C14.906 9.20354 14.6673 9.41298 14.3819 9.42183C14.3702 9.42183 14.3615 9.42183 14.3586 9.42183C10.5819 9.60177 7.46612 12.4336 6.66244 16.1799C6.61002 16.4248 6.41202 16.6165 6.16742 16.6578C2.67022 17.2596 0 20.4425 0 24.2773C0 28.5428 3.29919 32 7.37003 32H43.8474C47.9095 32 51.2 28.5516 51.2 24.2979C51.2029 20.5546 48.6579 17.4366 45.283 16.7375Z" fill="#7F56D9"/>
<path d="M25.0205 31.9979H23.4772V25.9153C23.4772 25.7737 23.4218 25.638 23.3228 25.5377L19.0918 21.2339C18.9928 21.1336 18.9375 20.9979 18.9375 20.8563V16.8386C18.9375 16.5436 19.1734 16.3047 19.4646 16.3047H19.9538C20.245 16.3047 20.4808 16.5436 20.4808 16.8386V20.2103C20.4808 20.3519 20.5361 20.4876 20.6351 20.5879L24.8661 24.8917C24.9651 24.992 25.0205 25.1277 25.0205 25.2693V31.9979Z" fill="white"/>
<path d="M19.711 17.0931C18.5695 17.0931 17.6406 16.1521 17.6406 14.9958C17.6406 13.8394 18.5695 12.8984 19.711 12.8984C20.8525 12.8984 21.7814 13.8394 21.7814 14.9958C21.7814 16.1521 20.8525 17.0931 19.711 17.0931Z" fill="white"/>
<path d="M19.8979 31.9969H18.3546V28.5073C18.3546 28.3657 18.2993 28.227 18.1974 28.1267L11.9776 21.8701C11.8786 21.7698 11.8203 21.6341 11.8203 21.4896V19.9792C11.8203 19.6842 12.0562 19.4453 12.3474 19.4453H12.8366C13.1278 19.4453 13.3636 19.6842 13.3636 19.9792V20.8376C13.3636 20.9792 13.419 21.1179 13.5209 21.2182L19.7407 27.4748C19.8397 27.5751 19.8979 27.7108 19.8979 27.8553V31.9969Z" fill="white"/>
<path d="M12.5938 20.2259C11.4523 20.2259 10.5234 19.2849 10.5234 18.1286C10.5234 16.9723 11.4523 16.0312 12.5938 16.0312C13.7353 16.0312 14.6642 16.9723 14.6642 18.1286C14.6642 19.2849 13.7353 20.2259 12.5938 20.2259Z" fill="white"/>
<path d="M35.2464 32.0083H33.7031V27.8579C33.7031 27.7193 33.7555 27.5895 33.8487 27.4892L37.6866 23.4125C37.7798 23.3122 37.8322 23.1794 37.8322 23.0437V17.8933C37.8322 17.5983 38.0681 17.3594 38.3593 17.3594H38.8485C39.1397 17.3594 39.3755 17.5983 39.3755 17.8933V23.6691C39.3755 23.8077 39.3231 23.9375 39.2299 24.0378L35.392 28.1145C35.2988 28.2148 35.2464 28.3476 35.2464 28.4833V32.0083Z" fill="white"/>
<path d="M38.6894 18.1438C37.3832 18.1438 36.3203 17.067 36.3203 15.7437C36.3203 14.4205 37.3832 13.3438 38.6894 13.3438C39.9956 13.3438 41.0586 14.4205 41.0586 15.7437C41.0586 17.067 39.9956 18.1438 38.6894 18.1438Z" fill="white"/>
<path d="M30.1449 31.9971H28.6016V21.3894C28.6016 21.2537 28.6511 21.1239 28.7443 21.0236L31.2922 18.2596C31.3824 18.1593 31.4348 18.0295 31.4348 17.8938V12.5339C31.4348 12.2389 31.6707 12 31.9619 12H32.4511C32.7423 12 32.9782 12.2389 32.9782 12.5339V18.5103C32.9782 18.646 32.9287 18.7758 32.8355 18.8761L30.2876 21.6401C30.1973 21.7404 30.1449 21.8702 30.1449 22.0059V31.9971Z" fill="white"/>
<path d="M32.211 12.7884C31.0695 12.7884 30.1406 11.8474 30.1406 10.6911C30.1406 9.53475 31.0695 8.59375 32.211 8.59375C33.3524 8.59375 34.2814 9.53475 34.2814 10.6911C34.2814 11.8474 33.3524 12.7884 32.211 12.7884Z" fill="white"/>
<path d="M69.4271 27.288C68.1631 27.288 66.9871 27.056 65.8991 26.592C64.8271 26.128 63.8831 25.488 63.0671 24.672C62.2671 23.84 61.6431 22.864 61.1951 21.744C60.7471 20.624 60.5231 19.392 60.5231 18.048C60.5231 16.72 60.7391 15.496 61.1711 14.376C61.6191 13.24 62.2431 12.264 63.0431 11.448C63.8431 10.616 64.7791 9.976 65.8511 9.528C66.9231 9.064 68.0991 8.832 69.3791 8.832C70.6431 8.832 71.7711 9.048 72.7631 9.48C73.7711 9.912 74.6191 10.48 75.3071 11.184C75.9951 11.872 76.4911 12.624 76.7951 13.44L74.2751 14.664C73.9071 13.688 73.2991 12.904 72.4511 12.312C71.6031 11.704 70.5791 11.4 69.3791 11.4C68.1951 11.4 67.1471 11.68 66.2351 12.24C65.3231 12.8 64.6111 13.576 64.0991 14.568C63.6031 15.56 63.3551 16.72 63.3551 18.048C63.3551 19.376 63.6111 20.544 64.1231 21.552C64.6511 22.544 65.3711 23.32 66.2831 23.88C67.1951 24.424 68.2431 24.696 69.4271 24.696C70.4191 24.696 71.3231 24.496 72.1391 24.096C72.9711 23.68 73.6351 23.104 74.1311 22.368C74.6271 21.616 74.8751 20.744 74.8751 19.752V18.528L76.1471 19.68H69.3791V17.28H77.6831V18.96C77.6831 20.272 77.4591 21.448 77.0111 22.488C76.5631 23.512 75.9551 24.384 75.1871 25.104C74.4191 25.824 73.5391 26.368 72.5471 26.736C71.5551 27.104 70.5151 27.288 69.4271 27.288ZM86.4066 27.288C85.1106 27.288 83.9586 26.992 82.9506 26.4C81.9586 25.792 81.1826 24.976 80.6226 23.952C80.0626 22.912 79.7826 21.752 79.7826 20.472C79.7826 19.16 80.0626 18 80.6226 16.992C81.1986 15.984 81.9666 15.192 82.9266 14.616C83.8866 14.024 84.9746 13.728 86.1906 13.728C87.1666 13.728 88.0386 13.896 88.8066 14.232C89.5746 14.568 90.2226 15.032 90.7506 15.624C91.2786 16.2 91.6786 16.864 91.9506 17.616C92.2386 18.368 92.3826 19.168 92.3826 20.016C92.3826 20.224 92.3746 20.44 92.3586 20.664C92.3426 20.888 92.3106 21.096 92.2626 21.288H81.9186V19.128H90.7266L89.4306 20.112C89.5906 19.328 89.5346 18.632 89.2626 18.024C89.0066 17.4 88.6066 16.912 88.0626 16.56C87.5346 16.192 86.9106 16.008 86.1906 16.008C85.4706 16.008 84.8306 16.192 84.2706 16.56C83.7106 16.912 83.2786 17.424 82.9746 18.096C82.6706 18.752 82.5506 19.552 82.6146 20.496C82.5346 21.376 82.6546 22.144 82.9746 22.8C83.3106 23.456 83.7746 23.968 84.3666 24.336C84.9746 24.704 85.6626 24.888 86.4306 24.888C87.2146 24.888 87.8786 24.712 88.4226 24.36C88.9826 24.008 89.4226 23.552 89.7426 22.992L91.9506 24.072C91.6946 24.68 91.2946 25.232 90.7506 25.728C90.2226 26.208 89.5826 26.592 88.8306 26.88C88.0946 27.152 87.2866 27.288 86.4066 27.288ZM95.0293 27V14.016H97.6213V16.56L97.3093 16.224C97.6293 15.408 98.1413 14.792 98.8453 14.376C99.5493 13.944 100.365 13.728 101.293 13.728C102.253 13.728 103.101 13.936 103.837 14.352C104.573 14.768 105.149 15.344 105.565 16.08C105.981 16.816 106.189 17.664 106.189 18.624V27H103.501V19.344C103.501 18.688 103.381 18.136 103.141 17.688C102.901 17.224 102.557 16.872 102.109 16.632C101.677 16.376 101.181 16.248 100.621 16.248C100.061 16.248 99.5573 16.376 99.1093 16.632C98.6773 16.872 98.3413 17.224 98.1013 17.688C97.8613 18.152 97.7413 18.704 97.7413 19.344V27H95.0293ZM115.188 27.288C113.892 27.288 112.74 26.992 111.732 26.4C110.74 25.792 109.964 24.976 109.404 23.952C108.844 22.912 108.564 21.752 108.564 20.472C108.564 19.16 108.844 18 109.404 16.992C109.98 15.984 110.748 15.192 111.708 14.616C112.668 14.024 113.756 13.728 114.972 13.728C115.948 13.728 116.82 13.896 117.588 14.232C118.356 14.568 119.004 15.032 119.532 15.624C120.06 16.2 120.46 16.864 120.732 17.616C121.02 18.368 121.164 19.168 121.164 20.016C121.164 20.224 121.156 20.44 121.14 20.664C121.124 20.888 121.092 21.096 121.044 21.288H110.7V19.128H119.508L118.212 20.112C118.372 19.328 118.316 18.632 118.044 18.024C117.788 17.4 117.388 16.912 116.844 16.56C116.316 16.192 115.692 16.008 114.972 16.008C114.252 16.008 113.612 16.192 113.052 16.56C112.492 16.912 112.06 17.424 111.756 18.096C111.452 18.752 111.332 19.552 111.396 20.496C111.316 21.376 111.436 22.144 111.756 22.8C112.092 23.456 112.556 23.968 113.148 24.336C113.756 24.704 114.444 24.888 115.212 24.888C115.996 24.888 116.66 24.712 117.204 24.36C117.764 24.008 118.204 23.552 118.524 22.992L120.732 24.072C120.476 24.68 120.076 25.232 119.532 25.728C119.004 26.208 118.364 26.592 117.612 26.88C116.876 27.152 116.068 27.288 115.188 27.288ZM129.427 27.144C128.067 27.144 127.011 26.76 126.259 25.992C125.507 25.224 125.131 24.144 125.131 22.752V16.464H122.851V14.016H123.211C123.819 14.016 124.291 13.84 124.627 13.488C124.963 13.136 125.131 12.656 125.131 12.048V11.04H127.843V14.016H130.795V16.464H127.843V22.632C127.843 23.08 127.915 23.464 128.059 23.784C128.203 24.088 128.435 24.328 128.755 24.504C129.075 24.664 129.491 24.744 130.003 24.744C130.131 24.744 130.275 24.736 130.435 24.72C130.595 24.704 130.747 24.688 130.891 24.672V27C130.667 27.032 130.419 27.064 130.147 27.096C129.875 27.128 129.635 27.144 129.427 27.144ZM133.537 27V14.016H136.129V16.632L135.889 16.248C136.177 15.4 136.641 14.792 137.281 14.424C137.921 14.04 138.689 13.848 139.585 13.848H140.377V16.32H139.249C138.353 16.32 137.625 16.6 137.065 17.16C136.521 17.704 136.249 18.488 136.249 19.512V27H133.537ZM142.232 27V14.016H144.944V27H142.232ZM142.232 12.24V9.12H144.944V12.24H142.232ZM146.819 27L151.355 20.496L146.819 14.016H150.011L153.731 19.44H152.195L155.915 14.016H159.107L154.547 20.496L159.083 27H155.891L152.219 21.552H153.707L150.011 27H146.819Z" fill="#101828"/>
</svg>
