<svg xmlns="http://www.w3.org/2000/svg" width="80" height="80" viewBox="0 0 80 80" fill="none"><path fill-rule="evenodd" clip-rule="evenodd" d="M44.0039 53.1484C44.0039 54.184 44.8434 55.0234 45.8789 55.0234H63.9531C71.8906 55.0234 78.3281 48.5859 78.3281 40.6484C78.3281 32.7109 71.8906 26.2734 63.9531 26.2734C63.2628 26.2734 62.7031 25.7138 62.7031 25.0234C62.7031 13.6484 53.4531 4.39844 42.0781 4.39844C30.7031 4.39844 21.4531 13.6484 21.4531 25.0234C21.4531 26.0859 22.2656 26.8984 23.3281 26.8984C24.3906 26.8984 25.2031 26.0859 25.2031 25.0234C25.2031 15.7109 32.7656 8.14844 42.0781 8.14844C51.3906 8.14844 58.9531 15.7109 58.9531 25.0234V28.1484C58.9531 29.2109 59.7656 30.0234 60.8281 30.0234H63.9531C69.8281 30.0234 74.5781 34.7734 74.5781 40.6484C74.5781 46.5234 69.8281 51.2734 63.9531 51.2734H45.8789C44.8434 51.2734 44.0039 52.1129 44.0039 53.1484Z" fill="#101828"></path><path fill-rule="evenodd" clip-rule="evenodd" d="M8.05359 57.4185V50.1423L8.05443 50.1296C8.08005 50.0052 8.1132 49.8834 8.15388 49.7637C8.21237 49.6467 8.27816 49.5345 8.35124 49.4258C8.43319 49.3339 8.52009 49.247 8.61194 49.1651C8.7206 49.092 8.83288 49.0262 8.94987 48.9677C9.07017 48.9268 9.19265 48.8935 9.31778 48.8679C9.51078 48.8542 9.7069 48.8542 9.8999 48.8679C10.025 48.8935 10.1475 48.9268 10.2678 48.9677C10.3848 49.0262 10.4971 49.092 10.6057 49.1651C10.6976 49.247 10.7845 49.3339 10.8664 49.4258C10.9395 49.5345 11.0053 49.6467 11.0638 49.7637C11.1039 49.8817 11.1367 50.0018 11.1622 50.1244C11.1748 50.3205 11.1731 50.5184 11.1713 50.7157V50.7157C11.1707 50.7844 11.1701 50.8531 11.1701 50.9215V56.7515C11.1701 56.8427 11.1713 56.9343 11.1725 57.0261V57.0262C11.1755 57.2533 11.1786 57.4815 11.1633 57.7072C11.1376 57.8316 11.1045 57.9534 11.0638 58.0731C11.0053 58.1901 10.9395 58.3023 10.8664 58.411C10.7845 58.5028 10.6976 58.5897 10.6057 58.6717C10.4971 58.7448 10.3848 58.8106 10.2678 58.8691C10.1535 58.9079 10.0372 58.9399 9.91859 58.965C9.77853 58.9737 9.63847 58.9753 9.49841 58.9753C9.43859 58.9753 9.37945 58.9733 9.32041 58.9695C9.19437 58.9437 9.07102 58.9102 8.94986 58.8691C8.83288 58.8106 8.7206 58.7448 8.61195 58.6717C8.52009 58.5897 8.43319 58.5028 8.35125 58.411C8.27816 58.3023 8.21237 58.1901 8.15388 58.0731C8.11377 57.9551 8.08098 57.835 8.05551 57.7124C8.05201 57.6582 8.04962 57.6038 8.04802 57.5493C8.0517 57.5063 8.05359 57.4627 8.05359 57.4185ZM9.33848 45.8265C8.97742 45.845 8.64178 45.901 8.31488 45.9928C8.48026 45.2318 8.70826 44.485 8.99697 43.7601C9.4426 42.7412 10.0033 41.7776 10.6732 40.8898C11.3316 40.0677 12.0792 39.3195 12.9006 38.6604C13.7912 37.9901 14.7583 37.4238 15.781 36.9762C16.7911 36.574 17.8434 36.2897 18.9176 36.1283C20.0045 36.0038 21.1019 36.0038 22.1888 36.1283C23.2631 36.2897 24.3156 36.5741 25.3257 36.9764C26.3446 37.422 27.3082 37.9827 28.196 38.6526C29.0181 39.311 29.7663 40.0586 30.4254 40.88C31.0957 41.7706 31.662 42.7377 32.1095 43.7604C32.3967 44.4816 32.6238 45.2244 32.789 45.9813C32.7108 45.9614 32.6318 45.9441 32.5518 45.9293C32.1138 45.8455 31.6645 45.8036 31.219 45.8265C30.5488 45.8608 29.9662 46.0245 29.3645 46.3063C28.3135 46.7975 27.571 47.7495 27.1559 48.8043C26.8673 49.5357 26.8753 50.3377 26.883 51.1178V51.1179C26.8843 51.2435 26.8855 51.3686 26.8855 51.4927V57.4141C26.8855 58.1719 27.0493 58.8573 27.3691 59.5389C27.8565 60.5899 28.8123 61.3325 29.8671 61.7475C30.3327 61.9338 30.8457 62.0144 31.3454 62.0214C31.3527 62.0215 31.36 62.0216 31.3674 62.0217C31.3712 62.0217 31.3751 62.0217 31.3789 62.0217C31.3894 62.0218 31.3999 62.0218 31.4103 62.0216C31.762 62.02 32.1144 61.9912 32.4587 61.927C32.3129 62.1965 32.1486 62.4561 31.9665 62.7055C31.6913 63.0381 31.3876 63.3421 31.0552 63.6175C30.6766 63.8932 30.27 64.1297 29.8429 64.3253C29.4299 64.4813 29.0059 64.5958 28.5711 64.6689C28.133 64.7107 27.693 64.7091 27.2528 64.7075C27.1679 64.7072 27.083 64.7069 26.9981 64.7069H25.4273C25.3533 64.5371 25.266 64.3737 25.165 64.2198C24.8033 63.6715 24.312 63.1726 23.718 62.8794C23.1582 62.6052 22.587 62.4529 21.9549 62.4453H19.5178C18.8781 62.4529 18.2688 62.6129 17.7014 62.9137C17.1531 63.2031 16.7266 63.6486 16.3687 64.1475C15.9993 64.6653 15.8432 65.2784 15.7632 65.9029C15.6794 66.596 15.8546 67.2928 16.1516 67.9173C16.4372 68.5266 16.9208 69.0064 17.4692 69.3872C18.1622 69.867 18.9923 69.9965 19.8149 69.9965H21.9625C22.6061 69.9889 23.2154 69.8289 23.7827 69.5281C24.5164 69.1393 25.0771 68.4986 25.4074 67.7532H27.0324C27.1336 67.7532 27.2348 67.7539 27.336 67.7545C27.5889 67.756 27.8419 67.7576 28.0948 67.7494C29.1953 67.7152 30.2197 67.4562 31.225 67.0259C32.9195 66.2986 34.3894 64.9011 35.2043 63.2484C35.6917 62.2584 35.9697 61.2454 36.0725 60.1449C36.0992 59.8632 36.0992 59.5814 36.0992 59.2958V57.1262C36.1004 56.9952 36.1001 56.8642 36.0992 56.7332V53.3896C36.0992 52.8502 36.0996 52.3107 36.1 51.7713C36.1008 50.6923 36.1017 49.6134 36.0992 48.5345C36.0953 46.7714 35.8021 44.9779 35.1929 43.3214C34.5379 41.5393 33.6011 39.9323 32.3826 38.4777C30.1092 35.7664 26.8116 33.8396 23.3273 33.2418C21.389 32.9067 19.4546 32.9181 17.524 33.2875C15.7685 33.6226 14.0473 34.3042 12.5203 35.2333C9.39399 37.1411 7.02544 40.1075 5.82974 43.5613C5.27759 45.153 5.01103 46.8628 5.00723 48.5459V50.289C4.99703 50.5653 4.99979 50.8429 5.00253 51.1179C5.00378 51.2435 5.00503 51.3686 5.00503 51.4927V57.4141C5.00503 58.1719 5.16877 58.8573 5.48864 59.5389C5.97606 60.5899 6.93185 61.3325 7.98665 61.7475C8.45224 61.9338 8.96518 62.0144 9.46491 62.0214C9.47604 62.0216 9.48721 62.0217 9.49841 62.0217C9.50889 62.0218 9.51936 62.0218 9.52982 62.0216C10.4905 62.0172 11.4567 61.8098 12.2478 61.2335C13.1693 60.5633 13.908 59.5999 14.1136 58.4537C14.2304 57.7964 14.2232 57.1292 14.2161 56.464C14.2144 56.3045 14.2127 56.1452 14.2127 55.9861C14.2127 55.3596 14.2139 54.7327 14.2152 54.1055L14.2152 54.1047C14.2177 52.8489 14.2203 51.592 14.2127 50.3351C14.2088 49.444 13.9537 48.5111 13.4244 47.7876C12.758 46.8737 11.806 46.1387 10.6713 45.9293C10.2333 45.8455 9.78401 45.8036 9.33848 45.8265ZM22.6746 65.9182C22.6791 65.9486 22.6826 65.9786 22.6854 66.0086C22.6817 65.9783 22.6781 65.9481 22.6746 65.9182ZM22.5718 65.7506C22.5757 65.7598 22.5794 65.769 22.5831 65.7783C22.5793 65.7691 22.5756 65.7598 22.5718 65.7506ZM22.0406 65.4935C21.7531 65.4748 21.4605 65.4817 21.1701 65.4885C21.0208 65.492 20.8721 65.4955 20.725 65.4955C20.5838 65.4955 20.441 65.4922 20.2978 65.4889C20.0113 65.4822 19.7226 65.4755 19.439 65.4951C19.3757 65.509 19.313 65.5256 19.251 65.5448C19.1871 65.5785 19.1248 65.6149 19.0642 65.654C19.0271 65.6887 18.9911 65.7246 18.9563 65.7616C18.9181 65.8206 18.8824 65.8808 18.8493 65.9425C18.8301 66.0044 18.8132 66.0671 18.7986 66.1304C18.7966 66.1892 18.7967 66.2481 18.7991 66.3071C18.8128 66.3684 18.8288 66.429 18.8471 66.4888C18.8793 66.5495 18.9137 66.6085 18.9507 66.6663C18.9917 66.7103 19.0341 66.7528 19.0782 66.7938C19.1352 66.8303 19.1935 66.8643 19.2534 66.8961C19.3187 66.9163 19.3845 66.9336 19.4513 66.9483C19.7387 66.9669 20.0313 66.9601 20.3217 66.9533C20.471 66.9498 20.6197 66.9463 20.7668 66.9463C20.908 66.9463 21.0508 66.9496 21.194 66.9529C21.4805 66.9596 21.7692 66.9663 22.0528 66.9467C22.1161 66.9328 22.1788 66.9162 22.2408 66.8969C22.3047 66.8633 22.367 66.8269 22.4276 66.7878C22.4647 66.7531 22.5007 66.7172 22.5355 66.6801C22.5737 66.6212 22.6094 66.561 22.6425 66.4993C22.663 66.4332 22.6809 66.3661 22.6962 66.2984C22.6971 66.2732 22.6975 66.248 22.6975 66.2228C22.6965 66.1954 22.6954 66.1683 22.6942 66.1413C22.6801 66.0777 22.6637 66.015 22.6447 65.953C22.6125 65.8923 22.5781 65.8333 22.5411 65.7755C22.5001 65.7315 22.4577 65.689 22.4137 65.648C22.3566 65.6115 22.2983 65.5775 22.2384 65.5457C22.1731 65.5255 22.1073 65.5082 22.0406 65.4935ZM22.2133 66.9326C22.239 66.9294 22.2646 66.9264 22.29 66.9235C22.2645 66.9268 22.2389 66.9298 22.2133 66.9326ZM22.4123 66.8359C22.4185 66.8333 22.4247 66.8308 22.4309 66.8283C22.4247 66.8308 22.4185 66.8334 22.4123 66.8359ZM19.2784 65.5092C19.2528 65.5124 19.2272 65.5154 19.2018 65.5183C19.2273 65.515 19.2528 65.512 19.2784 65.5092ZM19.0796 65.6059C19.0733 65.6085 19.0671 65.611 19.0609 65.6135C19.0671 65.611 19.0733 65.6084 19.0796 65.6059ZM18.8113 66.4737C18.8133 66.4904 18.8153 66.507 18.8172 66.5236C18.8151 66.507 18.8131 66.4903 18.8113 66.4737ZM18.9087 66.6635C18.9125 66.6727 18.9162 66.682 18.92 66.6912C18.9162 66.682 18.9124 66.6727 18.9087 66.6635ZM9.09697 43.5156C9.0802 43.5569 9.06299 43.5982 9.04564 43.6395C9.06255 43.5981 9.07966 43.5568 9.09697 43.5156ZM15.5362 37.0764C15.5774 37.0591 15.6187 37.042 15.66 37.0251C15.6188 37.0424 15.5775 37.0596 15.5362 37.0764ZM19.1043 36.1015L18.9835 36.1186C19.0237 36.1127 19.064 36.107 19.1043 36.1015ZM18.8756 36.1332C18.817 36.1409 18.7584 36.1482 18.7006 36.1548C18.7589 36.1473 18.8173 36.14 18.8756 36.1332ZM25.5702 37.0764C25.5289 37.0596 25.4876 37.0424 25.4463 37.025C25.4877 37.042 25.529 37.0591 25.5702 37.0764ZM32.0094 43.5156C32.0267 43.5568 32.0438 43.5981 32.0607 43.6394C32.0434 43.5982 32.0262 43.5569 32.0094 43.5156ZM33.0201 49.8934C33.0241 49.9229 33.0276 49.9526 33.0307 49.9822C33.0271 49.9525 33.0235 49.9228 33.0201 49.8934ZM32.9443 49.7637C32.9844 49.8817 33.0172 50.0018 33.0427 50.1243C33.0494 50.2286 33.052 50.3333 33.0528 50.4381V50.5896L33.0518 50.7157V50.7159C33.0512 50.7845 33.0506 50.8531 33.0506 50.9215V56.7515C33.0506 56.8369 33.0517 56.9226 33.0528 57.0085V57.5136C33.051 57.5783 33.0481 57.6429 33.0437 57.7072C33.0181 57.8316 32.985 57.9534 32.9443 58.0731C32.8858 58.1901 32.82 58.3023 32.7469 58.411C32.665 58.5028 32.5781 58.5897 32.4862 58.6717C32.3776 58.7448 32.2653 58.8106 32.1483 58.8691C32.034 58.9079 31.9177 58.9399 31.7991 58.965C31.659 58.9737 31.519 58.9753 31.3789 58.9753C31.3191 58.9753 31.2599 58.9733 31.2009 58.9695C31.0749 58.9437 30.9515 58.9102 30.8304 58.8691C30.7134 58.8106 30.6011 58.7448 30.4925 58.6717C30.4006 58.5897 30.3137 58.5028 30.2317 58.411C30.1587 58.3023 30.0929 58.1901 30.0344 58.0731C29.9943 57.9551 29.9615 57.835 29.936 57.7124C29.9234 57.5163 29.9251 57.3184 29.9269 57.1211V57.1211V57.1209C29.9275 57.0522 29.9281 56.9837 29.9281 56.9152V51.0853C29.9281 50.9941 29.9269 50.9024 29.9256 50.8106V50.8106C29.9226 50.5835 29.9196 50.3553 29.9349 50.1296C29.9605 50.0052 29.9937 49.8834 30.0344 49.7637C30.0929 49.6467 30.1587 49.5345 30.2317 49.4258C30.3137 49.3339 30.4006 49.247 30.4924 49.1651C30.6011 49.092 30.7134 49.0262 30.8304 48.9677C30.9507 48.9268 31.0731 48.8935 31.1983 48.8679C31.3913 48.8542 31.5874 48.8542 31.7804 48.8679C31.9055 48.8935 32.028 48.9268 32.1483 48.9677C32.2653 49.0262 32.3776 49.092 32.4862 49.1651C32.5781 49.247 32.665 49.3339 32.7469 49.4258C32.82 49.5344 32.8858 49.6467 32.9443 49.7637ZM32.874 58.2596L32.8871 58.2277L32.8742 58.2592L32.874 58.2596ZM32.8739 58.2598L32.8741 58.2595L32.8678 58.2747L32.8739 58.2598ZM32.3029 58.8118L32.3348 58.7987L32.3345 58.799L32.3029 58.8118ZM32.3351 58.7986L32.3347 58.7989L32.3499 58.7926L32.3351 58.7986ZM32.0186 58.9449L31.971 58.9505C31.9818 58.9493 31.9925 58.9481 32.0033 58.9468C32.0084 58.9462 32.0135 58.9455 32.0186 58.9449ZM30.6439 58.7987L30.6757 58.8118L30.6442 58.799L30.6439 58.7987ZM30.6436 58.7986L30.644 58.7989L30.6287 58.7926L30.6436 58.7986ZM30.0916 58.2277L30.1047 58.2596L30.1044 58.2592L30.0916 58.2277ZM30.1048 58.2598L30.1045 58.2595L30.1109 58.2747L30.1048 58.2598ZM29.9479 57.8545C29.951 57.8842 29.9546 57.9138 29.9585 57.9434C29.9568 57.9278 29.9549 57.9121 29.953 57.8964C29.9514 57.8825 29.9497 57.8685 29.9479 57.8545ZM30.1047 49.5772L30.0916 49.6091L30.1044 49.5775L30.1047 49.5772ZM30.1048 49.577L30.1045 49.5773L30.1109 49.5621L30.1048 49.577ZM30.6757 49.025L30.6438 49.0381L30.6442 49.0378L30.6757 49.025ZM30.6436 49.0382L30.644 49.0379L30.6287 49.0442L30.6436 49.0382ZM30.96 48.8919C30.9906 48.8879 31.0213 48.8842 31.0521 48.8809C31.0213 48.8847 30.9906 48.8884 30.96 48.8919ZM32.3348 49.0381L32.303 49.025L32.3345 49.0378L32.3348 49.0381ZM32.3351 49.0382L32.3347 49.0379L32.3499 49.0442L32.3351 49.0382ZM32.8871 49.6091L32.874 49.5772L32.8742 49.5775L32.8871 49.6091ZM32.8739 49.5769L32.8742 49.5773L32.8678 49.5621L32.8739 49.5769ZM28.6739 64.6583C28.7083 64.654 28.7425 64.6498 28.7765 64.6459C28.7423 64.6504 28.7081 64.6545 28.6739 64.6583ZM10.1381 58.9449C10.1223 58.9469 10.1064 58.9487 10.0905 58.9505L10.1381 58.9449ZM8.22421 49.5772L8.21109 49.6091L8.22393 49.5775L8.22421 49.5772ZM8.22431 49.577L8.22403 49.5773L8.23036 49.5621L8.22431 49.577ZM8.79521 49.025L8.76334 49.0381L8.76369 49.0378L8.79521 49.025ZM8.76309 49.0382L8.76345 49.0379L8.74825 49.0442L8.76309 49.0382ZM9.07954 48.8919C9.1101 48.8879 9.14082 48.8842 9.17165 48.8809C9.14081 48.8847 9.11007 48.8884 9.07954 48.8919ZM10.4543 49.0381L10.4224 49.0249L10.454 49.0378L10.4543 49.0381ZM10.4546 49.0382L10.4542 49.0379L10.4694 49.0442L10.4546 49.0382ZM11.0066 49.6091L10.9935 49.5772L10.9938 49.5775L11.0066 49.6091ZM10.9934 49.577L10.9937 49.5773L10.9873 49.5621L10.9934 49.577ZM11.1396 49.8934C11.1436 49.9229 11.1471 49.9526 11.1503 49.9822C11.1466 49.9525 11.143 49.9228 11.1396 49.8934ZM10.9935 58.2596L11.0066 58.2277L10.9937 58.2592L10.9935 58.2596ZM10.9934 58.2598L10.9937 58.2595L10.9873 58.2747L10.9934 58.2598ZM10.4224 58.8118L10.4543 58.7987L10.454 58.799L10.4224 58.8118ZM10.4546 58.7986L10.4542 58.7989L10.4694 58.7926L10.4546 58.7986ZM8.76335 58.7987L8.79523 58.8118L8.7637 58.799L8.76335 58.7987ZM8.7631 58.7986L8.76347 58.7989L8.74825 58.7926L8.7631 58.7986ZM8.21109 58.2277L8.22421 58.2596L8.22393 58.2592L8.21109 58.2277ZM8.22431 58.2598L8.22403 58.2595L8.23036 58.2747L8.22431 58.2598ZM8.06743 57.8546C8.07113 57.8843 8.07468 57.9139 8.07805 57.9434C8.07406 57.9138 8.07054 57.8842 8.06743 57.8546Z" fill="#9263D4"></path></svg>