<svg xmlns="http://www.w3.org/2000/svg" width="1440" height="1162" viewBox="0 0 1440 1162" fill="none"><rect width="1475" height="840" transform="matrix(1 0 0 -1 0 1029)" fill="#171124"></rect><g opacity="0.2" filter="url(#filter0_f_1613_723)"><rect x="-90" y="200" width="459" height="438" rx="219" fill="url(#paint0_linear_1613_723)"></rect></g><g opacity="0.2" filter="url(#filter1_f_1613_723)"><rect width="439" height="442" rx="219.5" transform="matrix(-1 0 0 1 1558 520)" fill="url(#paint1_linear_1613_723)"></rect></g><path d="M432.216 416V394.176L415.704 368.32H422.808L436.632 390.016H434.072L447.832 368.32H454.936L438.552 394.176V416H432.216ZM469.15 416.768C465.822 416.768 462.814 416 460.126 414.464C457.438 412.885 455.304 410.731 453.726 408C452.147 405.269 451.358 402.176 451.358 398.72C451.358 395.264 452.126 392.192 453.662 389.504C455.24 386.816 457.374 384.683 460.062 383.104C462.75 381.525 465.779 380.736 469.15 380.736C472.478 380.736 475.486 381.525 478.174 383.104C480.862 384.64 482.974 386.752 484.51 389.44C486.088 392.128 486.878 395.221 486.878 398.72C486.878 402.219 486.067 405.333 484.446 408.064C482.824 410.752 480.67 412.885 477.982 414.464C475.336 416 472.392 416.768 469.15 416.768ZM469.15 411.008C471.283 411.008 473.203 410.475 474.91 409.408C476.659 408.341 478.024 406.869 479.006 404.992C480.03 403.115 480.542 401.024 480.542 398.72C480.542 396.373 480.03 394.304 479.006 392.512C478.024 390.677 476.659 389.227 474.91 388.16C473.203 387.051 471.283 386.496 469.15 386.496C466.974 386.496 465.011 387.051 463.262 388.16C461.555 389.227 460.19 390.677 459.166 392.512C458.142 394.304 457.63 396.373 457.63 398.72C457.63 401.024 458.142 403.115 459.166 404.992C460.19 406.869 461.555 408.341 463.262 409.408C465.011 410.475 466.974 411.008 469.15 411.008ZM505.585 416.768C503.11 416.768 500.87 416.192 498.865 415.04C496.902 413.888 495.366 412.288 494.257 410.24C493.19 408.149 492.657 405.76 492.657 403.072V381.504H498.609V402.432C498.609 404.139 498.95 405.632 499.633 406.912C500.358 408.192 501.339 409.195 502.577 409.92C503.857 410.645 505.307 411.008 506.929 411.008C508.55 411.008 509.979 410.645 511.217 409.92C512.497 409.195 513.478 408.149 514.161 406.784C514.886 405.419 515.249 403.797 515.249 401.92V381.504H521.265V416H515.441V409.28L516.401 409.856C515.59 412.032 514.203 413.739 512.241 414.976C510.321 416.171 508.102 416.768 505.585 416.768ZM529.206 416V381.504H535.03V387.84L534.39 386.944C535.2 384.981 536.438 383.531 538.102 382.592C539.766 381.611 541.792 381.12 544.182 381.12H546.294V386.752H543.286C540.854 386.752 538.891 387.52 537.398 389.056C535.904 390.549 535.158 392.683 535.158 395.456V416H529.206ZM756.062 416.768C753.801 416.768 751.796 416.363 750.046 415.552C748.34 414.699 746.996 413.547 746.014 412.096C745.033 410.603 744.542 408.896 744.542 406.976C744.542 405.141 744.926 403.499 745.694 402.048C746.505 400.555 747.742 399.296 749.406 398.272C751.113 397.248 753.246 396.523 755.806 396.096L768.607 393.984V398.976L757.15 400.896C754.932 401.28 753.31 401.984 752.286 403.008C751.305 404.032 750.814 405.291 750.814 406.784C750.814 408.192 751.369 409.365 752.478 410.304C753.63 411.243 755.06 411.712 756.766 411.712C758.943 411.712 760.82 411.264 762.399 410.368C764.02 409.429 765.278 408.171 766.174 406.592C767.113 405.013 767.583 403.264 767.583 401.344V392.576C767.583 390.699 766.878 389.184 765.47 388.032C764.105 386.837 762.292 386.24 760.031 386.24C758.068 386.24 756.318 386.752 754.782 387.776C753.289 388.757 752.18 390.08 751.454 391.744L746.27 389.056C746.91 387.477 747.934 386.069 749.342 384.832C750.75 383.552 752.393 382.549 754.27 381.824C756.148 381.099 758.11 380.736 760.158 380.736C762.804 380.736 765.129 381.248 767.135 382.272C769.14 383.253 770.697 384.64 771.806 386.432C772.958 388.181 773.535 390.229 773.535 392.576V416H767.711V409.472L768.799 409.856C768.073 411.221 767.092 412.416 765.854 413.44C764.617 414.464 763.166 415.275 761.503 415.872C759.839 416.469 758.025 416.768 756.062 416.768ZM797.163 416.768C793.92 416.768 790.998 415.979 788.395 414.4C785.835 412.821 783.808 410.667 782.315 407.936C780.822 405.205 780.075 402.155 780.075 398.784C780.075 395.328 780.822 392.256 782.315 389.568C783.808 386.837 785.835 384.683 788.395 383.104C790.998 381.525 793.92 380.736 797.163 380.736C800.022 380.736 802.56 381.355 804.779 382.592C806.998 383.787 808.747 385.408 810.027 387.456L809.067 388.928V367.552H815.083V416H809.259V408.64L810.027 409.664C808.832 411.925 807.083 413.675 804.779 414.912C802.518 416.149 799.979 416.768 797.163 416.768ZM797.675 411.008C799.851 411.008 801.792 410.475 803.499 409.408C805.206 408.341 806.55 406.891 807.531 405.056C808.555 403.179 809.067 401.088 809.067 398.784C809.067 396.437 808.555 394.347 807.531 392.512C806.55 390.635 805.206 389.163 803.499 388.096C801.792 387.029 799.851 386.496 797.675 386.496C795.542 386.496 793.6 387.051 791.851 388.16C790.144 389.227 788.8 390.677 787.819 392.512C786.838 394.304 786.347 396.395 786.347 398.784C786.347 401.088 786.838 403.179 787.819 405.056C788.8 406.891 790.144 408.341 791.851 409.408C793.558 410.475 795.499 411.008 797.675 411.008ZM832.616 416L819.112 381.504H825.768L836.584 410.688H834.28L845.16 381.504H851.816L838.248 416H832.616ZM864.723 416.768C862.461 416.768 860.456 416.363 858.707 415.552C857 414.699 855.656 413.547 854.675 412.096C853.693 410.603 853.203 408.896 853.203 406.976C853.203 405.141 853.587 403.499 854.355 402.048C855.165 400.555 856.403 399.296 858.067 398.272C859.773 397.248 861.907 396.523 864.467 396.096L877.267 393.984V398.976L865.811 400.896C863.592 401.28 861.971 401.984 860.947 403.008C859.965 404.032 859.475 405.291 859.475 406.784C859.475 408.192 860.029 409.365 861.139 410.304C862.291 411.243 863.72 411.712 865.427 411.712C867.603 411.712 869.48 411.264 871.059 410.368C872.68 409.429 873.939 408.171 874.835 406.592C875.773 405.013 876.243 403.264 876.243 401.344V392.576C876.243 390.699 875.539 389.184 874.131 388.032C872.765 386.837 870.952 386.24 868.691 386.24C866.728 386.24 864.979 386.752 863.443 387.776C861.949 388.757 860.84 390.08 860.115 391.744L854.931 389.056C855.571 387.477 856.595 386.069 858.003 384.832C859.411 383.552 861.053 382.549 862.931 381.824C864.808 381.099 866.771 380.736 868.819 380.736C871.464 380.736 873.789 381.248 875.795 382.272C877.8 383.253 879.357 384.64 880.467 386.432C881.619 388.181 882.195 390.229 882.195 392.576V416H876.371V409.472L877.459 409.856C876.733 411.221 875.752 412.416 874.515 413.44C873.277 414.464 871.827 415.275 870.163 415.872C868.499 416.469 866.685 416.768 864.723 416.768ZM890.143 416V381.504H895.967V388.224L895.007 387.648C895.86 385.472 897.226 383.787 899.103 382.592C901.023 381.355 903.263 380.736 905.823 380.736C908.298 380.736 910.495 381.291 912.415 382.4C914.378 383.509 915.914 385.045 917.023 387.008C918.175 388.971 918.751 391.189 918.751 393.664V416H912.735V395.584C912.735 393.664 912.394 392.043 911.711 390.72C911.028 389.397 910.047 388.373 908.767 387.648C907.53 386.88 906.1 386.496 904.479 386.496C902.858 386.496 901.407 386.88 900.127 387.648C898.89 388.373 897.908 389.419 897.183 390.784C896.458 392.107 896.095 393.707 896.095 395.584V416H890.143ZM940.004 416.384C936.633 416.384 934.031 415.424 932.196 413.504C930.404 411.584 929.508 408.875 929.508 405.376V387.2H923.236V381.504H924.516C926.052 381.504 927.268 381.035 928.164 380.096C929.06 379.157 929.508 377.92 929.508 376.384V373.568H935.46V381.504H943.204V387.2H935.46V405.184C935.46 406.336 935.631 407.339 935.972 408.192C936.356 409.045 936.975 409.728 937.828 410.24C938.681 410.709 939.812 410.944 941.22 410.944C941.519 410.944 941.881 410.923 942.308 410.88C942.777 410.837 943.204 410.795 943.588 410.752V416C943.033 416.128 942.415 416.213 941.732 416.256C941.049 416.341 940.473 416.384 940.004 416.384ZM959.757 416.768C957.496 416.768 955.491 416.363 953.741 415.552C952.035 414.699 950.691 413.547 949.709 412.096C948.728 410.603 948.237 408.896 948.237 406.976C948.237 405.141 948.621 403.499 949.389 402.048C950.2 400.555 951.437 399.296 953.101 398.272C954.808 397.248 956.941 396.523 959.501 396.096L972.301 393.984V398.976L960.845 400.896C958.627 401.28 957.005 401.984 955.981 403.008C955 404.032 954.509 405.291 954.509 406.784C954.509 408.192 955.064 409.365 956.173 410.304C957.325 411.243 958.755 411.712 960.461 411.712C962.637 411.712 964.515 411.264 966.093 410.368C967.715 409.429 968.973 408.171 969.869 406.592C970.808 405.013 971.277 403.264 971.277 401.344V392.576C971.277 390.699 970.573 389.184 969.165 388.032C967.8 386.837 965.987 386.24 963.725 386.24C961.763 386.24 960.013 386.752 958.477 387.776C956.984 388.757 955.875 390.08 955.149 391.744L949.965 389.056C950.605 387.477 951.629 386.069 953.037 384.832C954.445 383.552 956.088 382.549 957.965 381.824C959.843 381.099 961.805 380.736 963.853 380.736C966.499 380.736 968.824 381.248 970.829 382.272C972.835 383.253 974.392 384.64 975.501 386.432C976.653 388.181 977.229 390.229 977.229 392.576V416H971.405V409.472L972.493 409.856C971.768 411.221 970.787 412.416 969.549 413.44C968.312 414.464 966.861 415.275 965.197 415.872C963.533 416.469 961.72 416.768 959.757 416.768ZM1001.63 430.08C999.194 430.08 996.933 429.696 994.842 428.928C992.794 428.16 991.023 427.093 989.53 425.728C988.079 424.405 986.97 422.848 986.202 421.056L991.77 418.496C992.367 420.117 993.498 421.483 995.162 422.592C996.869 423.744 999.002 424.32 1001.56 424.32C1003.52 424.32 1005.3 423.936 1006.87 423.168C1008.5 422.443 1009.78 421.333 1010.71 419.84C1011.65 418.389 1012.12 416.619 1012.12 414.528V406.784L1013.21 407.936C1012.02 410.283 1010.29 412.075 1008.03 413.312C1005.81 414.549 1003.35 415.168 1000.67 415.168C997.423 415.168 994.522 414.421 991.962 412.928C989.402 411.392 987.397 409.323 985.946 406.72C984.495 404.075 983.77 401.152 983.77 397.952C983.77 394.709 984.495 391.787 985.946 389.184C987.397 386.581 989.381 384.533 991.898 383.04C994.458 381.504 997.359 380.736 1000.6 380.736C1003.29 380.736 1005.72 381.355 1007.9 382.592C1010.12 383.787 1011.89 385.451 1013.21 387.584L1012.31 389.184V381.504H1018.14V414.528C1018.14 417.515 1017.43 420.181 1016.03 422.528C1014.62 424.875 1012.66 426.709 1010.14 428.032C1007.66 429.397 1004.83 430.08 1001.63 430.08ZM1001.18 409.408C1003.23 409.408 1005.06 408.896 1006.68 407.872C1008.35 406.848 1009.67 405.483 1010.65 403.776C1011.63 402.027 1012.12 400.085 1012.12 397.952C1012.12 395.861 1011.63 393.941 1010.65 392.192C1009.67 390.443 1008.35 389.056 1006.68 388.032C1005.06 387.008 1003.23 386.496 1001.18 386.496C999.087 386.496 997.189 387.008 995.482 388.032C993.775 389.056 992.431 390.443 991.45 392.192C990.511 393.899 990.042 395.819 990.042 397.952C990.042 400.085 990.511 402.027 991.45 403.776C992.431 405.483 993.754 406.848 995.418 407.872C997.125 408.896 999.045 409.408 1001.18 409.408ZM1041.96 416.768C1038.63 416.768 1035.66 415.979 1033.06 414.4C1030.46 412.821 1028.41 410.667 1026.92 407.936C1025.42 405.163 1024.68 402.069 1024.68 398.656C1024.68 395.2 1025.4 392.128 1026.85 389.44C1028.35 386.752 1030.35 384.64 1032.87 383.104C1035.43 381.525 1038.29 380.736 1041.45 380.736C1044.01 380.736 1046.27 381.205 1048.23 382.144C1050.23 383.04 1051.92 384.277 1053.29 385.856C1054.69 387.392 1055.76 389.163 1056.49 391.168C1057.25 393.131 1057.64 395.179 1057.64 397.312C1057.64 397.781 1057.59 398.315 1057.51 398.912C1057.47 399.467 1057.4 400 1057.32 400.512H1029.03V395.392H1053.86L1051.05 397.696C1051.43 395.477 1051.22 393.493 1050.41 391.744C1049.59 389.995 1048.4 388.608 1046.82 387.584C1045.24 386.56 1043.45 386.048 1041.45 386.048C1039.44 386.048 1037.61 386.56 1035.94 387.584C1034.28 388.608 1032.98 390.08 1032.04 392C1031.14 393.877 1030.78 396.117 1030.95 398.72C1030.78 401.237 1031.16 403.456 1032.1 405.376C1033.08 407.253 1034.45 408.725 1036.2 409.792C1037.99 410.816 1039.93 411.328 1042.02 411.328C1044.33 411.328 1046.27 410.795 1047.85 409.728C1049.42 408.661 1050.7 407.296 1051.69 405.632L1056.68 408.192C1055.99 409.771 1054.93 411.221 1053.48 412.544C1052.07 413.824 1050.38 414.848 1048.42 415.616C1046.5 416.384 1044.35 416.768 1041.96 416.768Z" fill="white"></path><path d="M587.88 413.84C587.347 413.307 586.92 412.587 586.6 411.68C586.28 410.72 585.96 409.627 585.64 408.4C585.533 407.973 585.48 407.493 585.48 406.96C585.533 406.427 585.533 406 585.48 405.68C585.32 406.053 585.053 406.533 584.68 407.12C584.36 407.707 584.04 408.133 583.72 408.4C583.507 408.613 583.027 409.04 582.28 409.68C581.533 410.267 580.787 410.747 580.04 411.12C578.28 412.24 576.707 412.773 575.32 412.72C573.987 412.613 572.813 411.92 571.8 410.64C570.947 409.947 570.253 409.067 569.72 408C569.187 406.933 569.08 405.653 569.4 404.16C569.507 402.293 569.773 400.48 570.2 398.72C570.627 396.907 571.507 394.507 572.84 391.52C573.96 389.333 574.813 387.627 575.4 386.4C575.987 385.173 576.36 384.453 576.52 384.24C577.32 383.973 578.307 384 579.48 384.32C580.653 384.587 581.293 385.093 581.4 385.84C581.72 386.373 581.72 387.387 581.4 388.88C581.08 390.32 580.44 391.973 579.48 393.84C578.733 395.653 578.013 397.413 577.32 399.12C576.68 400.827 576.28 402.267 576.12 403.44C576.013 404.613 576.333 405.333 577.08 405.6C577.56 405.867 578.253 405.84 579.16 405.52C580.12 405.2 581.24 404.24 582.52 402.64C583.8 401.04 585.16 398.507 586.6 395.04C587.027 393.973 587.347 393.04 587.56 392.24C587.773 391.387 587.907 390.453 587.96 389.44C587.853 388.8 588.013 388.133 588.44 387.44C588.92 386.747 589.48 386.213 590.12 385.84C590.333 385.573 590.627 385.333 591 385.12C591.373 384.853 591.613 384.853 591.72 385.12L593 385.04C593.213 384.987 593.453 385.2 593.72 385.68C593.987 386.16 594.253 386.507 594.52 386.72C595.107 387.2 595.373 388.24 595.32 389.84C595.267 391.44 594.627 393.68 593.4 396.56C592.387 398.747 591.693 400.4 591.32 401.52C591 402.64 590.813 403.733 590.76 404.8C590.76 405.76 590.84 406.587 591 407.28C591.16 407.92 591.64 408.587 592.44 409.28C593.027 409.653 593.347 410.293 593.4 411.2C593.507 412.053 593.533 412.8 593.48 413.44C593.373 413.92 592.947 414.24 592.2 414.4C591.507 414.613 590.733 414.667 589.88 414.56C589.08 414.453 588.413 414.213 587.88 413.84ZM624.449 412.08C623.276 411.973 622.289 411.733 621.489 411.36C620.743 410.933 620.129 410.107 619.649 408.88C619.436 408.027 619.329 407.147 619.329 406.24C619.383 405.28 619.463 404.373 619.569 403.52C619.676 402.613 619.729 401.84 619.729 401.2C619.729 401.093 619.729 400.88 619.729 400.56C619.729 400.24 619.729 399.947 619.729 399.68C619.623 398.88 619.409 398.4 619.089 398.24C618.823 398.027 618.343 398.053 617.649 398.32C616.529 398.853 615.303 399.573 613.969 400.48C612.689 401.333 611.329 402.347 609.889 403.52C608.503 404.64 607.063 405.84 605.569 407.12C604.396 408.4 603.516 409.44 602.929 410.24C602.396 411.04 601.836 411.44 601.249 411.44C600.823 411.653 600.369 411.6 599.889 411.28C599.409 410.96 598.903 410.587 598.369 410.16C597.996 409.733 597.543 409.2 597.009 408.56C596.529 407.867 596.236 407.413 596.129 407.2C596.129 406.347 596.183 405.573 596.289 404.88C596.449 404.187 596.663 403.467 596.929 402.72C597.249 401.973 597.623 401.12 598.049 400.16C598.263 399.787 598.449 399.413 598.609 399.04C598.823 398.613 599.063 398.16 599.329 397.68C599.543 396.933 599.836 396.08 600.209 395.12C600.636 394.16 601.036 393.253 601.409 392.4C601.996 391.013 602.449 389.813 602.769 388.8C603.089 387.787 603.356 386.693 603.569 385.52C603.516 385.413 603.543 385.253 603.649 385.04C603.756 384.827 603.916 384.693 604.129 384.64H604.209H604.289C604.663 384.373 605.356 384.347 606.369 384.56C607.436 384.72 608.236 385.013 608.769 385.44C609.889 386.4 610.423 387.653 610.369 389.2C610.316 390.747 609.516 392.773 607.969 395.28C607.596 396.133 607.196 396.933 606.769 397.68C606.396 398.373 606.209 398.853 606.209 399.12C606.209 399.12 606.423 398.96 606.849 398.64C607.276 398.32 607.783 397.947 608.369 397.52C608.956 397.04 609.463 396.667 609.889 396.4C610.156 396.133 610.743 395.653 611.649 394.96C612.556 394.213 613.543 393.44 614.609 392.64C615.676 391.84 616.529 391.227 617.169 390.8C617.756 390.373 618.503 389.947 619.409 389.52C620.316 389.04 620.876 388.8 621.089 388.8C621.623 388.8 622.263 388.987 623.009 389.36C623.809 389.733 624.529 390.187 625.169 390.72C625.863 391.2 626.263 391.653 626.369 392.08C626.369 392.293 626.343 392.587 626.289 392.96C626.236 393.28 626.209 393.573 626.209 393.84C626.156 394.693 626.129 395.733 626.129 396.96C626.183 398.133 626.209 399.333 626.209 400.56C626.209 401.733 626.103 402.8 625.889 403.76C625.889 403.76 625.916 403.813 625.969 403.92C626.023 403.973 626.076 404.08 626.129 404.24C626.076 404.293 626.049 404.4 626.049 404.56C626.103 404.667 626.129 404.72 626.129 404.72C626.236 405.093 626.343 405.467 626.449 405.84C626.609 406.213 626.796 406.64 627.009 407.12C627.223 407.547 627.463 408.107 627.729 408.8C627.676 409.493 627.276 410.187 626.529 410.88C625.836 411.52 625.143 411.92 624.449 412.08ZM636.048 420.96C635.355 421.013 634.661 420.587 633.968 419.68C633.275 418.773 632.688 417.573 632.208 416.08C631.781 414.587 631.568 412.96 631.568 411.2C631.355 409.013 631.541 406.347 632.128 403.2C632.715 400.053 633.595 396.373 634.768 392.16C635.195 390.72 635.808 388.96 636.608 386.88C637.408 384.8 638.235 382.747 639.088 380.72C639.995 378.693 640.795 376.987 641.488 375.6C642.181 374.16 642.608 373.36 642.768 373.2C643.088 373.307 643.248 373.067 643.248 372.48C643.248 372.373 643.461 371.973 643.888 371.28C644.315 370.587 644.715 369.84 645.088 369.04C645.781 368.027 646.661 366.96 647.728 365.84C648.848 364.667 649.968 363.6 651.088 362.64C652.261 361.68 653.275 361.04 654.128 360.72C654.928 360.4 655.728 360.24 656.528 360.24C657.541 360.24 658.635 360.587 659.808 361.28C661.035 361.92 662.075 362.747 662.928 363.76C663.835 364.72 664.288 365.707 664.288 366.72C664.288 367.573 664.101 368.4 663.728 369.2C663.568 370 663.248 370.907 662.768 371.92C662.288 372.88 661.808 373.787 661.328 374.64C660.901 375.44 660.555 376.027 660.288 376.4C658.741 377.573 657.541 378.027 656.688 377.76C655.835 377.493 655.541 377.173 655.808 376.8C655.808 376.587 655.888 376.133 656.048 375.44C656.208 374.693 656.315 374.133 656.368 373.76C656.368 373.653 656.475 373.333 656.688 372.8C656.955 372.267 657.088 371.733 657.088 371.2C657.568 369.28 657.781 368.027 657.728 367.44C657.728 366.853 657.488 366.56 657.008 366.56C656.741 366.507 656.421 366.56 656.048 366.72C655.675 366.88 655.355 367.093 655.088 367.36C654.875 367.573 654.768 367.813 654.768 368.08C654.768 368.24 654.768 368.347 654.768 368.4C654.608 368.347 654.128 368.8 653.328 369.76C652.581 370.667 651.728 371.787 650.768 373.12C649.808 374.4 649.008 375.573 648.368 376.64C647.941 377.547 647.461 378.587 646.928 379.76C646.448 380.88 645.755 382.613 644.848 384.96L644.208 386.88L645.488 387.04C645.915 387.093 646.448 387.067 647.088 386.96C647.781 386.8 648.555 386.64 649.408 386.48C651.221 386.213 652.448 386.4 653.088 387.04C653.781 387.627 654.315 388.347 654.688 389.2C655.275 390.48 654.955 391.36 653.728 391.84C652.501 392.267 649.861 392.587 645.808 392.8C644.955 392.693 644.208 392.667 643.568 392.72C642.981 392.72 642.581 392.827 642.368 393.04C642.155 393.147 641.861 393.733 641.488 394.8C641.115 395.813 640.715 397.04 640.288 398.48C639.915 399.867 639.621 401.2 639.408 402.48C638.981 404.133 638.715 405.92 638.608 407.84C638.501 409.707 638.501 411.467 638.608 413.12C638.715 414.72 638.875 415.947 639.088 416.8C639.408 418.08 639.141 419.013 638.288 419.6C637.435 420.24 636.688 420.693 636.048 420.96ZM661.632 412.88C661.206 412.987 660.646 413.04 659.952 413.04C659.259 412.987 658.646 412.907 658.112 412.8C657.632 412.64 657.392 412.48 657.392 412.32C657.392 412.053 657.259 411.92 656.992 411.92C656.992 411.92 656.699 411.707 656.112 411.28C655.526 410.8 654.992 410.453 654.512 410.24C654.032 409.493 653.712 408.64 653.552 407.68C653.446 406.667 653.766 404.907 654.512 402.4C654.566 400.693 655.046 398.907 655.952 397.04C656.859 395.12 658.006 393.253 659.392 391.44C660.779 389.627 662.219 388.027 663.712 386.64C665.206 385.2 666.539 384.133 667.712 383.44C668.459 382.693 669.446 382.293 670.672 382.24C671.952 382.187 673.072 382.427 674.032 382.96C674.566 383.227 675.152 383.76 675.792 384.56C676.432 385.36 677.046 386.213 677.632 387.12C678.219 387.973 678.672 388.747 678.992 389.44C679.152 390.027 679.286 390.56 679.392 391.04C679.552 391.467 679.659 392 679.712 392.64C679.766 393.28 679.712 394.24 679.552 395.52C679.286 396.48 679.046 397.467 678.832 398.48C678.672 399.44 678.592 400.427 678.592 401.44C678.486 402.453 678.592 403.173 678.912 403.6C679.286 404.027 679.819 404.053 680.512 403.68C681.152 403.36 681.819 403.333 682.512 403.6C683.206 403.813 683.686 404.24 683.952 404.88C684.272 405.467 684.192 406.24 683.712 407.2C683.392 407.893 682.886 408.56 682.192 409.2C681.499 409.84 680.726 410.373 679.872 410.8C679.019 411.173 678.192 411.36 677.392 411.36C676.806 411.36 676.219 411.147 675.632 410.72C675.046 410.24 674.512 409.6 674.032 408.8C673.552 408 673.152 407.12 672.832 406.16L672.352 404.32L669.472 406.96C668.779 407.707 668.086 408.4 667.392 409.04C666.752 409.627 666.352 410.053 666.192 410.32C665.926 410.8 665.392 411.227 664.592 411.6C663.846 411.973 662.859 412.4 661.632 412.88ZM663.792 405.2C664.699 404.667 665.472 404.027 666.112 403.28C666.806 402.533 667.472 401.707 668.112 400.8C668.752 399.84 669.446 398.827 670.192 397.76C671.099 396.533 671.739 395.547 672.112 394.8C672.539 394.053 672.859 393.253 673.072 392.4C672.859 391.813 672.566 391.2 672.192 390.56C671.819 389.867 671.446 389.493 671.072 389.44C670.326 389.44 669.419 389.893 668.352 390.8C667.339 391.707 666.219 393.013 664.992 394.72C664.779 394.987 664.512 395.413 664.192 396C663.872 396.587 663.552 397.147 663.232 397.68C662.966 398.16 662.779 398.48 662.672 398.64C662.512 398.853 662.272 399.36 661.952 400.16C661.686 400.907 661.446 401.68 661.232 402.48C661.019 403.227 660.912 403.76 660.912 404.08C660.912 404.4 660.939 404.747 660.992 405.12C661.099 405.493 661.366 405.733 661.792 405.84C662.219 405.947 662.886 405.733 663.792 405.2ZM688.205 411.36C687.992 411.36 687.538 411.2 686.845 410.88C686.152 410.56 685.805 410.4 685.805 410.4C685.805 410.187 685.725 409.92 685.565 409.6C685.458 409.28 685.405 409.013 685.405 408.8C685.032 408.587 684.658 408.24 684.285 407.76C683.912 407.28 683.832 406.747 684.045 406.16C684.365 405.573 684.792 404.693 685.325 403.52C685.912 402.293 686.525 400.933 687.165 399.44C687.858 397.893 688.498 396.4 689.085 394.96C689.672 393.52 690.178 392.293 690.605 391.28C691.032 390.213 691.272 389.573 691.325 389.36C691.325 389.147 691.352 388.773 691.405 388.24C691.512 387.707 691.858 387.253 692.445 386.88C693.138 386.4 693.858 386.373 694.605 386.8C695.352 387.227 695.992 387.973 696.525 389.04C697.058 390.053 697.325 391.253 697.325 392.64C697.325 393.013 697.058 393.973 696.525 395.52C695.992 397.013 695.272 398.8 694.365 400.88C693.512 402.96 692.552 405.067 691.485 407.2C690.685 408.747 690.072 409.84 689.645 410.48C689.272 411.067 688.792 411.36 688.205 411.36ZM699.085 380.72C698.445 380.72 697.672 380.427 696.765 379.84C695.912 379.253 695.138 378.507 694.445 377.6C693.752 376.693 693.405 375.733 693.405 374.72C693.405 374.453 693.645 373.973 694.125 373.28C694.605 372.533 695.058 371.813 695.485 371.12C695.965 370.427 696.205 370.027 696.205 369.92C696.632 369.92 697.138 370 697.725 370.16C698.312 370.32 698.792 370.507 699.165 370.72C699.752 372.053 700.525 373.2 701.485 374.16C702.445 375.067 702.925 376.107 702.925 377.28C702.925 378.453 702.632 379.333 702.045 379.92C701.458 380.453 700.472 380.72 699.085 380.72ZM702.228 412.8C701.855 412.8 701.348 412.533 700.708 412C700.121 411.467 699.775 410.987 699.668 410.56C699.508 410.133 699.508 409.52 699.668 408.72C699.881 407.867 700.175 406.88 700.548 405.76C700.975 404 701.268 402.72 701.428 401.92C701.588 401.12 701.748 400.427 701.908 399.84C702.068 399.253 702.281 398.4 702.548 397.28C702.868 396.587 703.108 395.92 703.268 395.28C703.481 394.587 703.695 393.893 703.908 393.2C704.175 392.507 704.468 391.813 704.788 391.12C705.161 389.733 705.615 388.427 706.148 387.2C706.735 385.92 707.295 384.853 707.828 384C707.935 383.84 708.175 383.547 708.548 383.12C708.921 382.693 709.215 382.48 709.428 382.48C709.855 382.053 710.441 381.92 711.188 382.08C711.935 382.187 712.575 382.453 713.108 382.88C713.748 383.573 714.095 384.4 714.148 385.36C714.255 386.267 713.881 387.547 713.028 389.2C712.388 390.853 711.775 392.16 711.188 393.12C710.655 394.027 710.121 395.093 709.588 396.32C710.175 395.467 710.895 394.587 711.748 393.68C712.601 392.773 713.268 392.053 713.748 391.52C714.441 390.773 715.081 390.187 715.668 389.76C716.308 389.28 717.161 388.693 718.228 388C719.135 387.36 720.041 386.773 720.948 386.24C721.908 385.707 723.055 385.547 724.388 385.76C724.921 385.707 725.481 385.973 726.068 386.56C726.708 387.147 727.188 387.92 727.508 388.88C727.881 389.787 727.881 390.773 727.508 391.84C726.281 391.573 725.188 391.627 724.228 392C723.268 392.32 722.441 392.72 721.748 393.2C721.108 393.68 720.601 394.053 720.228 394.32C719.695 394.64 719.081 395.067 718.388 395.6C717.695 396.08 716.948 396.64 716.148 397.28C715.348 397.867 714.495 398.533 713.588 399.28C712.308 400.347 711.348 401.28 710.708 402.08C710.068 402.88 709.561 403.733 709.188 404.64C708.868 405.44 708.468 406.4 707.988 407.52C707.508 408.64 707.055 409.653 706.628 410.56C706.201 411.413 705.855 411.947 705.588 412.16C705.321 412.693 704.761 412.987 703.908 413.04C703.108 413.093 702.548 413.013 702.228 412.8Z" fill="white"></path><circle cx="702" cy="948" r="9" fill="#7047EA"></circle><circle cx="702" cy="948" r="13" stroke="#7047EA" stroke-width="2"></circle><circle cx="771" cy="948" r="9" fill="#D9D9D9"></circle><circle cx="737" cy="948" r="9" fill="#D9D9D9"></circle><defs><filter id="filter0_f_1613_723" x="-290" y="0" width="859" height="838" filterUnits="userSpaceOnUse" color-interpolation-filters="sRGB"><feGaussianBlur stdDeviation="100"></feGaussianBlur></filter><filter id="filter1_f_1613_723" x="919" y="320" width="839" height="842" filterUnits="userSpaceOnUse" color-interpolation-filters="sRGB"><feGaussianBlur stdDeviation="100"></feGaussianBlur></filter><linearGradient id="paint0_linear_1613_723" x1="-90" y1="419" x2="369" y2="419" gradientUnits="userSpaceOnUse"><stop stop-color="#6A6FEC"></stop><stop offset="1" stop-color="#B488F2"></stop></linearGradient><linearGradient id="paint1_linear_1613_723" x1="0" y1="221" x2="439" y2="221" gradientUnits="userSpaceOnUse"><stop stop-color="#B488F2"></stop><stop offset="1" stop-color="#E372A4"></stop></linearGradient></defs></svg>