<svg xmlns="http://www.w3.org/2000/svg" width="80" height="80" viewBox="0 0 80 80" fill="none"><path fill-rule="evenodd" clip-rule="evenodd" d="M45.0039 54.75C45.0039 55.7855 45.8434 56.625 46.8789 56.625H64.9531C72.8906 56.625 79.3281 50.1875 79.3281 42.25C79.3281 34.3125 72.8906 27.875 64.9531 27.875C64.2628 27.875 63.7031 27.3154 63.7031 26.625C63.7031 15.25 54.4531 6 43.0781 6C31.7031 6 22.4531 15.25 22.4531 26.625C22.4531 27.6875 23.2656 28.5 24.3281 28.5C25.3906 28.5 26.2031 27.6875 26.2031 26.625C26.2031 17.3125 33.7656 9.75 43.0781 9.75C52.3906 9.75 59.9531 17.3125 59.9531 26.625V29.75C59.9531 30.8125 60.7656 31.625 61.8281 31.625H64.9531C70.8281 31.625 75.5781 36.375 75.5781 42.25C75.5781 48.125 70.8281 52.875 64.9531 52.875H46.8789C45.8434 52.875 45.0039 53.7145 45.0039 54.75Z" fill="#101828"></path><mask id="path-2-outside-1_1613_1146" maskUnits="userSpaceOnUse" x="0" y="31" width="44" height="44" fill="black"><rect fill="white" y="31" width="44" height="44"></rect><path fill-rule="evenodd" clip-rule="evenodd" d="M5.59871 48.5414C5.71273 48.5064 5.8018 48.4097 5.83717 48.2828C6.18492 47.0301 6.68427 45.816 7.32133 44.6752C7.38324 44.564 7.38703 44.4411 7.33175 44.3382L5.77622 41.4397C5.12305 40.2227 5.65841 39.4821 5.91898 39.2205L8.13179 36.9957C8.64914 36.4746 9.43339 36.3558 10.0828 36.6991L13.2535 38.3775C13.3606 38.4341 13.4885 38.429 13.6038 38.364C14.7352 37.7234 15.9455 37.2187 17.2013 36.8631C17.3232 36.8286 17.4154 36.7424 17.4486 36.6325L18.4028 33.4763C18.8023 32.1544 19.7037 32.0095 20.0726 32.0085L23.2115 32C23.9449 32.0155 24.5848 32.4684 24.8008 33.1708L25.7702 36.3268C25.911 36.7846 26.0455 36.822 26.1103 36.84L26.1103 36.84C27.3677 37.189 28.5828 37.6887 29.7214 38.3248C29.8329 38.3867 29.9557 38.3905 30.0584 38.3359L32.9607 36.7797C34.1773 36.1278 34.9177 36.6622 35.1795 36.9224L37.4043 39.1356C37.9251 39.6536 38.0442 40.4378 37.7006 41.0872L36.0225 44.2545C35.9656 44.3619 35.9704 44.4895 36.0354 44.6047C36.6775 45.7424 37.1823 46.9524 37.536 48.2006C37.5711 48.3251 37.6595 48.4198 37.7719 48.4539L41.2083 49.4902C41.9117 49.7025 42.3855 50.3386 42.3877 51.0729L42.3962 54.2121C42.3984 54.9458 41.9285 55.5845 41.227 55.8011L37.8155 56.8526C37.6924 56.8908 37.6001 56.9893 37.5689 57.1169C37.284 58.2748 36.9188 59.6026 36.188 60.7008C36.0948 60.8408 36.0765 61.0849 36.1273 61.1797L37.6191 63.9588C38.2732 65.1773 37.7378 65.9183 37.4773 66.1798L35.2645 68.4046C34.7468 68.9258 33.9622 69.0445 33.3132 68.7009L30.1424 67.0225C30.0347 66.9656 29.9071 66.9707 29.7924 67.0357C28.6573 67.6775 27.4448 68.1829 26.1883 68.5382C26.0683 68.5723 25.977 68.657 25.9445 68.765L24.6896 72.9259C24.6075 73.1985 24.3567 73.3852 24.0722 73.3861L19.4359 73.3984H19.434C19.1504 73.3984 18.8996 73.2137 18.8159 72.942L17.5377 68.7975C17.5026 68.6832 17.4059 68.5944 17.2796 68.5594C16.0225 68.2101 14.8097 67.711 13.6746 67.0762C13.5634 67.0136 13.4402 67.0095 13.3372 67.0648L10.4356 68.6207C9.21672 69.2735 8.47795 68.7378 8.21643 68.4776L5.99162 66.2648C5.47111 65.7465 5.35204 64.9622 5.69568 64.3132L7.37344 61.1459C7.4303 61.0385 7.42556 60.9109 7.36081 60.7959C6.71838 59.6576 6.21366 58.4476 5.85991 57.1991C5.82486 57.0746 5.73674 56.9799 5.62429 56.9461L2.18632 55.906C1.48388 55.6937 1.01043 55.0576 1.00822 54.3236L1.00001 51.1847C0.997797 50.4501 1.46841 49.8114 2.17053 49.5954L5.59871 48.5414ZM6.9161 40.8282L8.47195 43.7264C8.73568 44.2185 8.72779 44.8085 8.45111 45.305C7.86427 46.3567 7.40408 47.4751 7.0835 48.6289C6.92968 49.1832 6.51656 49.6125 5.97899 49.778L2.55081 50.8323C2.39667 50.8796 2.29339 51.0199 2.29371 51.181L2.30192 54.3201C2.30224 54.4815 2.40647 54.6211 2.56091 54.6679L5.99889 55.7076C6.53488 55.87 6.94832 56.2954 7.10466 56.8459C7.4303 57.9966 7.89554 59.1112 8.48743 60.1598C8.76916 60.6588 8.78022 61.2539 8.5168 61.7513L6.83903 64.9186C6.76355 65.0611 6.78976 65.2338 6.9041 65.3479L9.1286 67.5604C9.25651 67.687 9.49055 67.6592 9.82409 67.4804L12.7258 65.9246C12.9652 65.7964 13.2276 65.7322 13.491 65.7322C13.7703 65.7322 14.0507 65.8039 14.3062 65.947C15.3514 66.5317 16.4682 66.9909 17.6258 67.3131C18.1791 67.4666 18.6084 67.879 18.7739 68.4163L19.9109 72.1035L23.5892 72.0937L24.7058 68.3913C24.8665 67.8588 25.2891 67.4482 25.8365 67.2935C26.9934 66.9663 28.1102 66.5007 29.1557 65.9094C29.655 65.6271 30.2501 65.616 30.7476 65.8791L33.9186 67.5575C34.0608 67.6327 34.2332 67.6068 34.3469 67.4925L36.5601 65.2676C36.6864 65.1407 36.6592 64.9063 36.4792 64.5709L34.9871 61.7911C34.7079 61.2703 34.7604 60.5104 35.1113 59.9836C35.7262 59.0594 36.0537 57.8598 36.3124 56.808C36.4517 56.2433 36.8816 55.7869 37.4343 55.6164L40.8457 54.5649C40.9996 54.5172 41.1028 54.3767 41.1025 54.2156L41.094 51.0767C41.0937 50.9153 40.9895 50.7754 40.8347 50.7287L37.3983 49.6927C36.8614 49.5303 36.4476 49.1046 36.2913 48.5538C35.9656 47.4034 35.5004 46.2888 34.9088 45.2405C34.6271 44.7409 34.616 44.1458 34.8791 43.649L36.5572 40.4814C36.6327 40.3393 36.6065 40.1668 36.4921 40.0528L34.2673 37.8397C34.1407 37.714 33.907 37.7405 33.5722 37.9199L30.6699 39.4761C30.1775 39.7401 29.5871 39.7316 29.0903 39.4543C28.0417 38.868 26.9227 38.4082 25.7645 38.0866C25.171 37.9224 24.7683 37.4708 24.5333 36.7064L23.564 33.5511C23.5166 33.397 23.377 33.2937 23.2159 33.2937H23.215L20.0761 33.3022C19.8973 33.3025 19.7508 33.4873 19.6409 33.8505L18.687 37.0068C18.5259 37.5409 18.1021 37.9527 17.5538 38.1078C16.3971 38.4353 15.2828 38.9003 14.2412 39.4899C13.7415 39.7726 13.1461 39.7846 12.6484 39.5209L9.4776 37.8428C9.33484 37.767 9.16239 37.7932 9.049 37.9079L6.83619 40.1327C6.70985 40.2597 6.7367 40.4937 6.9161 40.8282ZM14.8783 56.576C14.2408 56.771 13.5723 56.4108 13.3795 55.7794L12.7525 53.7297C12.5581 53.0951 12.915 52.4249 13.5491 52.2308L13.8927 52.1256C13.8873 51.951 13.9228 51.7768 14.0072 51.6181C14.1347 51.3785 14.348 51.2028 14.6076 51.1235L17.5598 50.22C19.7416 49.0169 21.4752 47.4351 23.0022 45.2606C22.9501 44.5685 23.3864 43.9614 24.0226 43.7668C24.7874 43.5326 25.6012 43.965 25.8354 44.7302L26.8264 47.9696C27.9572 47.8602 29.0529 48.5575 29.3967 49.6812C29.7404 50.8049 29.2225 51.9955 28.2241 52.538L29.2582 55.9183C29.493 56.6857 29.0622 57.496 28.2948 57.7313C27.611 57.9396 26.9052 57.622 26.5893 57.0254C24.2435 55.6946 21.6129 55.7518 19.3353 55.9962L19.1432 56.0549L20.2383 59.6346C20.5531 60.6626 19.7822 61.7024 18.7097 61.7024C18.0247 61.7024 17.3895 61.2587 17.179 60.5703L16.0701 56.9456C15.7264 56.9429 15.4059 56.7628 15.2212 56.4711L14.8783 56.576ZM18.0693 60.2979C18.177 60.6508 18.5519 60.8495 18.9043 60.7417C19.2589 60.6331 19.4555 60.2592 19.3481 59.9069L18.253 56.3272L16.9744 56.7185L18.0693 60.2979ZM27.9429 51.6193C28.453 51.2512 28.6995 50.5849 28.5064 49.9536C28.3133 49.3222 27.7363 48.9083 27.1075 48.8885L27.9429 51.6193ZM24.9451 45.0026C24.8616 44.7302 24.5716 44.5725 24.295 44.6572C24.0186 44.7418 23.8656 45.0337 23.9494 45.3072L27.3722 56.4952C27.456 56.7692 27.746 56.9253 28.0224 56.8406C28.2977 56.7568 28.452 56.4654 28.368 56.1906L28.3501 56.1323C28.0923 55.2912 25.2238 45.9309 24.9451 45.0026ZM26.1757 55.7764L23.3131 46.4203C21.8817 48.3067 20.2663 49.7403 18.3021 50.872L19.5758 55.0355C21.8575 54.8143 24.0814 54.8675 26.1757 55.7764ZM14.8799 52.0137C14.8415 52.0255 14.8113 52.0819 14.8231 52.1203C14.7483 51.876 15.9239 55.7186 15.9382 55.7653L15.9962 55.9546C16.0078 55.9931 16.065 56.0224 16.1028 56.0112L18.661 55.2287L17.4382 51.2312L14.8799 52.0137ZM14.127 53.0276L13.8214 53.1213C13.6806 53.1641 13.599 53.3137 13.6428 53.4573L14.2698 55.507C14.3129 55.6473 14.461 55.7296 14.606 55.6857L14.9115 55.592L14.127 53.0276Z"></path></mask><path fill-rule="evenodd" clip-rule="evenodd" d="M5.59871 48.5414C5.71273 48.5064 5.8018 48.4097 5.83717 48.2828C6.18492 47.0301 6.68427 45.816 7.32133 44.6752C7.38324 44.564 7.38703 44.4411 7.33175 44.3382L5.77622 41.4397C5.12305 40.2227 5.65841 39.4821 5.91898 39.2205L8.13179 36.9957C8.64914 36.4746 9.43339 36.3558 10.0828 36.6991L13.2535 38.3775C13.3606 38.4341 13.4885 38.429 13.6038 38.364C14.7352 37.7234 15.9455 37.2187 17.2013 36.8631C17.3232 36.8286 17.4154 36.7424 17.4486 36.6325L18.4028 33.4763C18.8023 32.1544 19.7037 32.0095 20.0726 32.0085L23.2115 32C23.9449 32.0155 24.5848 32.4684 24.8008 33.1708L25.7702 36.3268C25.911 36.7846 26.0455 36.822 26.1103 36.84L26.1103 36.84C27.3677 37.189 28.5828 37.6887 29.7214 38.3248C29.8329 38.3867 29.9557 38.3905 30.0584 38.3359L32.9607 36.7797C34.1773 36.1278 34.9177 36.6622 35.1795 36.9224L37.4043 39.1356C37.9251 39.6536 38.0442 40.4378 37.7006 41.0872L36.0225 44.2545C35.9656 44.3619 35.9704 44.4895 36.0354 44.6047C36.6775 45.7424 37.1823 46.9524 37.536 48.2006C37.5711 48.3251 37.6595 48.4198 37.7719 48.4539L41.2083 49.4902C41.9117 49.7025 42.3855 50.3386 42.3877 51.0729L42.3962 54.2121C42.3984 54.9458 41.9285 55.5845 41.227 55.8011L37.8155 56.8526C37.6924 56.8908 37.6001 56.9893 37.5689 57.1169C37.284 58.2748 36.9188 59.6026 36.188 60.7008C36.0948 60.8408 36.0765 61.0849 36.1273 61.1797L37.6191 63.9588C38.2732 65.1773 37.7378 65.9183 37.4773 66.1798L35.2645 68.4046C34.7468 68.9258 33.9622 69.0445 33.3132 68.7009L30.1424 67.0225C30.0347 66.9656 29.9071 66.9707 29.7924 67.0357C28.6573 67.6775 27.4448 68.1829 26.1883 68.5382C26.0683 68.5723 25.977 68.657 25.9445 68.765L24.6896 72.9259C24.6075 73.1985 24.3567 73.3852 24.0722 73.3861L19.4359 73.3984H19.434C19.1504 73.3984 18.8996 73.2137 18.8159 72.942L17.5377 68.7975C17.5026 68.6832 17.4059 68.5944 17.2796 68.5594C16.0225 68.2101 14.8097 67.711 13.6746 67.0762C13.5634 67.0136 13.4402 67.0095 13.3372 67.0648L10.4356 68.6207C9.21672 69.2735 8.47795 68.7378 8.21643 68.4776L5.99162 66.2648C5.47111 65.7465 5.35204 64.9622 5.69568 64.3132L7.37344 61.1459C7.4303 61.0385 7.42556 60.9109 7.36081 60.7959C6.71838 59.6576 6.21366 58.4476 5.85991 57.1991C5.82486 57.0746 5.73674 56.9799 5.62429 56.9461L2.18632 55.906C1.48388 55.6937 1.01043 55.0576 1.00822 54.3236L1.00001 51.1847C0.997797 50.4501 1.46841 49.8114 2.17053 49.5954L5.59871 48.5414ZM6.9161 40.8282L8.47195 43.7264C8.73568 44.2185 8.72779 44.8085 8.45111 45.305C7.86427 46.3567 7.40408 47.4751 7.0835 48.6289C6.92968 49.1832 6.51656 49.6125 5.97899 49.778L2.55081 50.8323C2.39667 50.8796 2.29339 51.0199 2.29371 51.181L2.30192 54.3201C2.30224 54.4815 2.40647 54.6211 2.56091 54.6679L5.99889 55.7076C6.53488 55.87 6.94832 56.2954 7.10466 56.8459C7.4303 57.9966 7.89554 59.1112 8.48743 60.1598C8.76916 60.6588 8.78022 61.2539 8.5168 61.7513L6.83903 64.9186C6.76355 65.0611 6.78976 65.2338 6.9041 65.3479L9.1286 67.5604C9.25651 67.687 9.49055 67.6592 9.82409 67.4804L12.7258 65.9246C12.9652 65.7964 13.2276 65.7322 13.491 65.7322C13.7703 65.7322 14.0507 65.8039 14.3062 65.947C15.3514 66.5317 16.4682 66.9909 17.6258 67.3131C18.1791 67.4666 18.6084 67.879 18.7739 68.4163L19.9109 72.1035L23.5892 72.0937L24.7058 68.3913C24.8665 67.8588 25.2891 67.4482 25.8365 67.2935C26.9934 66.9663 28.1102 66.5007 29.1557 65.9094C29.655 65.6271 30.2501 65.616 30.7476 65.8791L33.9186 67.5575C34.0608 67.6327 34.2332 67.6068 34.3469 67.4925L36.5601 65.2676C36.6864 65.1407 36.6592 64.9063 36.4792 64.5709L34.9871 61.7911C34.7079 61.2703 34.7604 60.5104 35.1113 59.9836C35.7262 59.0594 36.0537 57.8598 36.3124 56.808C36.4517 56.2433 36.8816 55.7869 37.4343 55.6164L40.8457 54.5649C40.9996 54.5172 41.1028 54.3767 41.1025 54.2156L41.094 51.0767C41.0937 50.9153 40.9895 50.7754 40.8347 50.7287L37.3983 49.6927C36.8614 49.5303 36.4476 49.1046 36.2913 48.5538C35.9656 47.4034 35.5004 46.2888 34.9088 45.2405C34.6271 44.7409 34.616 44.1458 34.8791 43.649L36.5572 40.4814C36.6327 40.3393 36.6065 40.1668 36.4921 40.0528L34.2673 37.8397C34.1407 37.714 33.907 37.7405 33.5722 37.9199L30.6699 39.4761C30.1775 39.7401 29.5871 39.7316 29.0903 39.4543C28.0417 38.868 26.9227 38.4082 25.7645 38.0866C25.171 37.9224 24.7683 37.4708 24.5333 36.7064L23.564 33.5511C23.5166 33.397 23.377 33.2937 23.2159 33.2937H23.215L20.0761 33.3022C19.8973 33.3025 19.7508 33.4873 19.6409 33.8505L18.687 37.0068C18.5259 37.5409 18.1021 37.9527 17.5538 38.1078C16.3971 38.4353 15.2828 38.9003 14.2412 39.4899C13.7415 39.7726 13.1461 39.7846 12.6484 39.5209L9.4776 37.8428C9.33484 37.767 9.16239 37.7932 9.049 37.9079L6.83619 40.1327C6.70985 40.2597 6.7367 40.4937 6.9161 40.8282ZM14.8783 56.576C14.2408 56.771 13.5723 56.4108 13.3795 55.7794L12.7525 53.7297C12.5581 53.0951 12.915 52.4249 13.5491 52.2308L13.8927 52.1256C13.8873 51.951 13.9228 51.7768 14.0072 51.6181C14.1347 51.3785 14.348 51.2028 14.6076 51.1235L17.5598 50.22C19.7416 49.0169 21.4752 47.4351 23.0022 45.2606C22.9501 44.5685 23.3864 43.9614 24.0226 43.7668C24.7874 43.5326 25.6012 43.965 25.8354 44.7302L26.8264 47.9696C27.9572 47.8602 29.0529 48.5575 29.3967 49.6812C29.7404 50.8049 29.2225 51.9955 28.2241 52.538L29.2582 55.9183C29.493 56.6857 29.0622 57.496 28.2948 57.7313C27.611 57.9396 26.9052 57.622 26.5893 57.0254C24.2435 55.6946 21.6129 55.7518 19.3353 55.9962L19.1432 56.0549L20.2383 59.6346C20.5531 60.6626 19.7822 61.7024 18.7097 61.7024C18.0247 61.7024 17.3895 61.2587 17.179 60.5703L16.0701 56.9456C15.7264 56.9429 15.4059 56.7628 15.2212 56.4711L14.8783 56.576ZM18.0693 60.2979C18.177 60.6508 18.5519 60.8495 18.9043 60.7417C19.2589 60.6331 19.4555 60.2592 19.3481 59.9069L18.253 56.3272L16.9744 56.7185L18.0693 60.2979ZM27.9429 51.6193C28.453 51.2512 28.6995 50.5849 28.5064 49.9536C28.3133 49.3222 27.7363 48.9083 27.1075 48.8885L27.9429 51.6193ZM24.9451 45.0026C24.8616 44.7302 24.5716 44.5725 24.295 44.6572C24.0186 44.7418 23.8656 45.0337 23.9494 45.3072L27.3722 56.4952C27.456 56.7692 27.746 56.9253 28.0224 56.8406C28.2977 56.7568 28.452 56.4654 28.368 56.1906L28.3501 56.1323C28.0923 55.2912 25.2238 45.9309 24.9451 45.0026ZM26.1757 55.7764L23.3131 46.4203C21.8817 48.3067 20.2663 49.7403 18.3021 50.872L19.5758 55.0355C21.8575 54.8143 24.0814 54.8675 26.1757 55.7764ZM14.8799 52.0137C14.8415 52.0255 14.8113 52.0819 14.8231 52.1203C14.7483 51.876 15.9239 55.7186 15.9382 55.7653L15.9962 55.9546C16.0078 55.9931 16.065 56.0224 16.1028 56.0112L18.661 55.2287L17.4382 51.2312L14.8799 52.0137ZM14.127 53.0276L13.8214 53.1213C13.6806 53.1641 13.599 53.3137 13.6428 53.4573L14.2698 55.507C14.3129 55.6473 14.461 55.7296 14.606 55.6857L14.9115 55.592L14.127 53.0276Z" fill="#9263D4"></path><path d="M5.83717 48.2828L6.60782 48.4975L6.60802 48.4968L5.83717 48.2828ZM5.59871 48.5414L5.83381 49.3061L5.83383 49.3061L5.59871 48.5414ZM7.32133 44.6752L8.01981 45.0652L8.02028 45.0644L7.32133 44.6752ZM7.33175 44.3382L6.62685 44.7165L6.62689 44.7165L7.33175 44.3382ZM5.77622 41.4397L6.48112 41.0614L6.4811 41.0613L5.77622 41.4397ZM5.91898 39.2205L6.48569 39.7852L6.48619 39.7847L5.91898 39.2205ZM8.13179 36.9957L8.699 37.5599L8.69953 37.5593L8.13179 36.9957ZM10.0828 36.6991L10.457 35.9921L10.4567 35.9919L10.0828 36.6991ZM13.2535 38.3775L12.8793 39.0846L12.88 39.085L13.2535 38.3775ZM13.6038 38.364L13.997 39.0607L13.9979 39.0601L13.6038 38.364ZM17.2013 36.8631L16.9839 36.0932L16.9833 36.0933L17.2013 36.8631ZM17.4486 36.6325L16.6828 36.401L16.6827 36.4014L17.4486 36.6325ZM18.4028 33.4763L19.1685 33.7078L19.1685 33.7077L18.4028 33.4763ZM20.0726 32.0085L20.0747 32.8085L20.0748 32.8085L20.0726 32.0085ZM23.2115 32L23.2284 31.2002L23.2188 31.2L23.2093 31.2L23.2115 32ZM24.8008 33.1708L25.5656 32.936L25.5655 32.9357L24.8008 33.1708ZM25.7702 36.3268L25.0054 36.5616L25.0055 36.562L25.7702 36.3268ZM26.1103 36.84L26.337 36.0727L26.3245 36.0692L26.1103 36.84ZM26.1103 36.84L25.8836 37.6073L25.8964 37.6109L26.1103 36.84ZM29.7214 38.3248L29.3312 39.0232L29.333 39.0242L29.7214 38.3248ZM30.0584 38.3359L30.4343 39.042L30.4364 39.0409L30.0584 38.3359ZM32.9607 36.7797L32.5828 36.0745L32.5826 36.0746L32.9607 36.7797ZM35.1795 36.9224L35.7437 36.3553L35.7435 36.355L35.1795 36.9224ZM37.4043 39.1356L36.8401 39.7027L36.8402 39.7028L37.4043 39.1356ZM37.7006 41.0872L38.4075 41.4617L38.4077 41.4614L37.7006 41.0872ZM36.0225 44.2545L35.3156 43.8799L35.3154 43.8802L36.0225 44.2545ZM36.0354 44.6047L35.3387 44.9979L35.3387 44.998L36.0354 44.6047ZM37.536 48.2006L38.306 47.9837L38.3057 47.9825L37.536 48.2006ZM37.7719 48.4539L37.5397 49.2195L37.541 49.2199L37.7719 48.4539ZM41.2083 49.4902L41.4394 48.7243L41.4393 48.7243L41.2083 49.4902ZM42.3877 51.0729L43.1877 51.0708V51.0705L42.3877 51.0729ZM42.3962 54.2121L41.5962 54.2143V54.2145L42.3962 54.2121ZM41.227 55.8011L41.4626 56.5656L41.4631 56.5655L41.227 55.8011ZM37.8155 56.8526L37.5799 56.0881L37.5785 56.0885L37.8155 56.8526ZM37.5689 57.1169L38.3457 57.3081L38.3459 57.3074L37.5689 57.1169ZM36.188 60.7008L36.8539 61.1442L36.854 61.1441L36.188 60.7008ZM36.1273 61.1797L35.4224 61.5579L35.4225 61.558L36.1273 61.1797ZM37.6191 63.9588L36.9142 64.3371L36.9142 64.3372L37.6191 63.9588ZM37.4773 66.1798L36.9106 65.6151L36.91 65.6156L37.4773 66.1798ZM35.2645 68.4046L34.6972 67.8405L34.6969 67.8408L35.2645 68.4046ZM33.3132 68.7009L33.6875 67.9939L33.6874 67.9938L33.3132 68.7009ZM30.1424 67.0225L30.5167 66.3154L30.5158 66.315L30.1424 67.0225ZM29.7924 67.0357L30.1862 67.7321L30.1873 67.7315L29.7924 67.0357ZM26.1883 68.5382L25.9706 67.7684L25.9696 67.7687L26.1883 68.5382ZM25.9445 68.765L26.7104 68.996L26.7105 68.9957L25.9445 68.765ZM24.6896 72.9259L23.9237 72.6949L23.9237 72.6952L24.6896 72.9259ZM24.0722 73.3861L24.0743 74.1861L24.0748 74.1861L24.0722 73.3861ZM19.4359 73.3984V74.1984L19.438 74.1984L19.4359 73.3984ZM18.8159 72.942L19.5804 72.7065L19.5803 72.7063L18.8159 72.942ZM17.5377 68.7975L16.7728 69.032L16.7732 69.0333L17.5377 68.7975ZM17.2796 68.5594L17.0654 69.3302L17.0657 69.3302L17.2796 68.5594ZM13.6746 67.0762L13.2823 67.7734L13.2841 67.7744L13.6746 67.0762ZM13.3372 67.0648L13.7153 67.7698L13.7156 67.7697L13.3372 67.0648ZM10.4356 68.6207L10.8133 69.3259L10.8136 69.3257L10.4356 68.6207ZM8.21643 68.4776L8.78075 67.9105L8.78059 67.9104L8.21643 68.4776ZM5.99162 66.2648L5.42714 66.8316L5.42747 66.832L5.99162 66.2648ZM5.69568 64.3132L4.98873 63.9387L4.98865 63.9388L5.69568 64.3132ZM7.37344 61.1459L8.08039 61.5203L8.08048 61.5202L7.37344 61.1459ZM7.36081 60.7959L8.05787 60.4033L8.05751 60.4027L7.36081 60.7959ZM5.85991 57.1991L5.08989 57.416L5.09021 57.4171L5.85991 57.1991ZM5.62429 56.9461L5.39264 57.7118L5.39403 57.7122L5.62429 56.9461ZM2.18632 55.906L2.41797 55.1403L2.41772 55.1402L2.18632 55.906ZM1.00822 54.3236L0.208222 54.3257L0.208223 54.326L1.00822 54.3236ZM1.00001 51.1847L1.80001 51.1826L1.8 51.1823L1.00001 51.1847ZM2.17053 49.5954L1.93543 48.8307L1.93526 48.8308L2.17053 49.5954ZM8.47195 43.7264L9.17707 43.3485L9.17681 43.348L8.47195 43.7264ZM6.9161 40.8282L6.2111 41.2063L6.21125 41.2066L6.9161 40.8282ZM8.45111 45.305L9.14972 45.6948L9.14993 45.6944L8.45111 45.305ZM7.0835 48.6289L6.3127 48.4148L6.31263 48.415L7.0835 48.6289ZM5.97899 49.778L6.21415 50.5426L6.21438 50.5426L5.97899 49.778ZM2.55081 50.8323L2.78585 51.5969L2.78597 51.5969L2.55081 50.8323ZM2.29371 51.181L1.49371 51.1825L1.49371 51.183L2.29371 51.181ZM2.30192 54.3201L3.10192 54.3186L3.10192 54.318L2.30192 54.3201ZM2.56091 54.6679L2.32917 55.4336L2.32933 55.4336L2.56091 54.6679ZM5.99889 55.7076L6.23079 54.942L6.23047 54.9419L5.99889 55.7076ZM7.10466 56.8459L7.87443 56.6281L7.87423 56.6274L7.10466 56.8459ZM8.48743 60.1598L7.79075 60.553L7.79078 60.5531L8.48743 60.1598ZM8.5168 61.7513L9.22374 62.1258L9.2238 62.1257L8.5168 61.7513ZM6.83903 64.9186L7.54591 65.2932L7.54598 65.2931L6.83903 64.9186ZM6.9041 65.3479L6.3392 65.9143L6.33995 65.9151L6.9041 65.3479ZM9.1286 67.5604L8.56444 68.1276L8.56573 68.1288L9.1286 67.5604ZM9.82409 67.4804L10.202 68.1856L10.2021 68.1855L9.82409 67.4804ZM12.7258 65.9246L12.348 65.2194L12.3477 65.2196L12.7258 65.9246ZM14.3062 65.947L13.9154 66.645L13.9157 66.6452L14.3062 65.947ZM17.6258 67.3131L17.4113 68.0838L17.4119 68.0839L17.6258 67.3131ZM18.7739 68.4163L18.0093 68.6518L18.0094 68.652L18.7739 68.4163ZM19.9109 72.1035L19.1464 72.3392L19.3209 72.905L19.913 72.9035L19.9109 72.1035ZM23.5892 72.0937L23.5914 72.8937L24.184 72.8921L24.3552 72.3247L23.5892 72.0937ZM24.7058 68.3913L23.9399 68.1601L23.9398 68.1604L24.7058 68.3913ZM25.8365 67.2935L26.0541 68.0633L26.0542 68.0633L25.8365 67.2935ZM29.1557 65.9094L28.7619 65.2131L28.7619 65.2131L29.1557 65.9094ZM30.7476 65.8791L31.1218 65.172L31.1216 65.1719L30.7476 65.8791ZM33.9186 67.5575L33.5444 68.2646L33.5446 68.2647L33.9186 67.5575ZM34.3469 67.4925L33.7798 66.9283L33.7797 66.9283L34.3469 67.4925ZM36.5601 65.2676L35.993 64.7034L35.9929 64.7034L36.5601 65.2676ZM36.4792 64.5709L37.1841 64.1926L37.1841 64.1925L36.4792 64.5709ZM34.9871 61.7911L34.2821 62.1691L34.2823 62.1695L34.9871 61.7911ZM35.1113 59.9836L35.7771 60.427L35.7773 60.4267L35.1113 59.9836ZM36.3124 56.808L35.5357 56.6165L35.5356 56.617L36.3124 56.808ZM37.4343 55.6164L37.1987 54.8519L37.1984 54.8519L37.4343 55.6164ZM40.8457 54.5649L41.0814 55.3294L41.0827 55.329L40.8457 54.5649ZM41.1025 54.2156L41.9025 54.214L41.9025 54.2134L41.1025 54.2156ZM41.094 51.0767L40.294 51.0783L40.294 51.0789L41.094 51.0767ZM40.8347 50.7287L41.066 49.9628L41.0656 49.9627L40.8347 50.7287ZM37.3983 49.6927L37.1668 50.4585L37.1674 50.4586L37.3983 49.6927ZM36.2913 48.5538L35.5215 48.7717L35.5217 48.7722L36.2913 48.5538ZM34.9088 45.2405L34.212 45.6335L34.2121 45.6337L34.9088 45.2405ZM34.8791 43.649L34.1722 43.2745L34.1721 43.2746L34.8791 43.649ZM36.5572 40.4814L35.8507 40.1061L35.8503 40.1069L36.5572 40.4814ZM36.4921 40.0528L37.057 39.4863L37.0563 39.4856L36.4921 40.0528ZM34.2673 37.8397L34.8315 37.2725L34.8309 37.2719L34.2673 37.8397ZM33.5722 37.9199L33.1943 37.2147L33.1941 37.2148L33.5722 37.9199ZM30.6699 39.4761L30.2918 38.771L30.2918 38.771L30.6699 39.4761ZM29.0903 39.4543L28.6999 40.1525L28.7004 40.1528L29.0903 39.4543ZM25.7645 38.0866L25.9785 37.3158L25.9778 37.3156L25.7645 38.0866ZM24.5333 36.7064L23.7686 36.9413L23.7686 36.9415L24.5333 36.7064ZM23.564 33.5511L24.3287 33.3162L24.3287 33.3161L23.564 33.5511ZM23.215 33.2937V32.4937L23.2128 32.4937L23.215 33.2937ZM20.0761 33.3022L20.0775 34.1022L20.0783 34.1022L20.0761 33.3022ZM19.6409 33.8505L18.8752 33.6188L18.8751 33.6191L19.6409 33.8505ZM18.687 37.0068L17.9212 36.7753L17.9211 36.7758L18.687 37.0068ZM17.5538 38.1078L17.336 37.338L17.3358 37.3381L17.5538 38.1078ZM14.2412 39.4899L14.6351 40.1862L14.6353 40.1861L14.2412 39.4899ZM12.6484 39.5209L13.0229 38.814L13.0226 38.8138L12.6484 39.5209ZM9.4776 37.8428L9.10243 38.5494L9.10339 38.5499L9.4776 37.8428ZM9.049 37.9079L9.61622 38.472L9.61781 38.4704L9.049 37.9079ZM6.83619 40.1327L7.40329 40.697L7.40341 40.6968L6.83619 40.1327ZM13.3795 55.7794L14.1446 55.5457L14.1445 55.5453L13.3795 55.7794ZM14.8783 56.576L14.6445 55.8109L14.6443 55.8109L14.8783 56.576ZM12.7525 53.7297L13.5175 53.4956L13.5174 53.4953L12.7525 53.7297ZM13.5491 52.2308L13.7833 52.9958L13.7834 52.9957L13.5491 52.2308ZM13.8927 52.1256L14.127 52.8905L14.7114 52.7115L14.6923 52.1006L13.8927 52.1256ZM14.0072 51.6181L13.301 51.2423L13.3008 51.2427L14.0072 51.6181ZM14.6076 51.1235L14.8414 51.8885L14.8417 51.8884L14.6076 51.1235ZM17.5598 50.22L17.7939 50.985L17.8733 50.9607L17.9461 50.9206L17.5598 50.22ZM23.0022 45.2606L23.6569 45.7204L23.8214 45.4861L23.7999 45.2006L23.0022 45.2606ZM24.0226 43.7668L24.2566 44.5318L24.2568 44.5317L24.0226 43.7668ZM25.8354 44.7302L26.6004 44.4962L26.6004 44.4961L25.8354 44.7302ZM26.8264 47.9696L26.0614 48.2036L26.2526 48.8288L26.9034 48.7659L26.8264 47.9696ZM29.3967 49.6812L30.1617 49.4472L29.3967 49.6812ZM28.2241 52.538L27.8422 51.835L27.2678 52.147L27.4591 52.772L28.2241 52.538ZM29.2582 55.9183L28.4932 56.1523L28.4932 56.1523L29.2582 55.9183ZM28.2948 57.7313L28.5279 58.4966L28.5292 58.4962L28.2948 57.7313ZM26.5893 57.0254L27.2962 56.651L27.187 56.4447L26.984 56.3296L26.5893 57.0254ZM19.3353 55.9962L19.25 55.2008L19.1744 55.2089L19.1017 55.2311L19.3353 55.9962ZM19.1432 56.0549L18.9096 55.2898L18.1441 55.5235L18.3782 56.2889L19.1432 56.0549ZM20.2383 59.6346L19.4733 59.8686L19.4734 59.8688L20.2383 59.6346ZM17.179 60.5703L17.944 60.3363L17.944 60.3362L17.179 60.5703ZM16.0701 56.9456L16.835 56.7116L16.6633 56.1503L16.0764 56.1456L16.0701 56.9456ZM15.2212 56.4711L15.897 56.0431L15.5707 55.5278L14.9873 55.7061L15.2212 56.4711ZM18.9043 60.7417L19.1382 61.5067L19.1386 61.5066L18.9043 60.7417ZM18.0693 60.2979L18.8344 60.0643L18.8343 60.0639L18.0693 60.2979ZM19.3481 59.9069L20.1133 59.6736L20.1131 59.6729L19.3481 59.9069ZM18.253 56.3272L19.018 56.0932L18.7839 55.3281L18.0189 55.5623L18.253 56.3272ZM16.9744 56.7185L16.7403 55.9535L15.9754 56.1876L16.2094 56.9525L16.9744 56.7185ZM28.5064 49.9536L29.2714 49.7195V49.7195L28.5064 49.9536ZM27.9429 51.6193L27.1779 51.8533L27.5049 52.9219L28.4111 52.268L27.9429 51.6193ZM27.1075 48.8885L27.1326 48.0889L26.0155 48.0537L26.3425 49.1225L27.1075 48.8885ZM24.295 44.6572L24.529 45.4222L24.5293 45.4222L24.295 44.6572ZM24.9451 45.0026L25.7114 44.7726L25.7099 44.7679L24.9451 45.0026ZM23.9494 45.3072L24.7144 45.0732L24.7143 45.0728L23.9494 45.3072ZM27.3722 56.4952L26.6072 56.7293L26.6072 56.7293L27.3722 56.4952ZM28.0224 56.8406L27.7895 56.0752L27.7879 56.0757L28.0224 56.8406ZM28.368 56.1906L29.1329 55.9565L29.1328 55.9562L28.368 56.1906ZM28.3501 56.1323L29.115 55.8979L29.115 55.8979L28.3501 56.1323ZM23.3131 46.4203L24.0781 46.1862L23.6207 44.6913L22.6758 45.9367L23.3131 46.4203ZM26.1757 55.7764L25.8573 56.5103L27.4481 57.2006L26.9407 55.5423L26.1757 55.7764ZM18.3021 50.872L17.9027 50.1788L17.3507 50.4969L17.5371 51.1061L18.3021 50.872ZM19.5758 55.0355L18.8108 55.2695L19.0022 55.8949L19.6531 55.8318L19.5758 55.0355ZM14.8231 52.1203L14.0585 52.3556L15.5881 51.8863L14.8231 52.1203ZM14.8799 52.0137L14.6459 51.2487L14.6447 51.2491L14.8799 52.0137ZM15.9382 55.7653L15.1732 55.9993L15.1732 55.9994L15.9382 55.7653ZM15.9962 55.9546L16.7621 55.7235L16.7611 55.7205L15.9962 55.9546ZM16.1028 56.0112L16.3293 56.7786L16.3368 56.7763L16.1028 56.0112ZM18.661 55.2287L18.895 55.9938L19.6601 55.7597L19.426 54.9947L18.661 55.2287ZM17.4382 51.2312L18.2032 50.9972L17.9692 50.2322L17.2042 50.4662L17.4382 51.2312ZM13.8214 53.1213L14.0539 53.8868L14.0559 53.8862L13.8214 53.1213ZM14.127 53.0276L14.892 52.7936L14.6578 52.0282L13.8925 52.2628L14.127 53.0276ZM13.6428 53.4573L12.8775 53.6904L12.8777 53.6913L13.6428 53.4573ZM14.2698 55.507L13.5047 55.741L13.5052 55.7424L14.2698 55.507ZM14.606 55.6857L14.8377 56.4514L14.8405 56.4506L14.606 55.6857ZM14.9115 55.592L15.146 56.3569L15.9104 56.1226L15.6765 55.358L14.9115 55.592ZM5.06652 48.068C5.09515 47.9653 5.18604 47.8314 5.36359 47.7768L5.83383 49.3061C6.23942 49.1814 6.50845 48.8541 6.60782 48.4975L5.06652 48.068ZM6.62285 44.2851C5.95487 45.4813 5.43117 46.7545 5.06633 48.0688L6.60802 48.4968C6.93867 47.3057 7.41367 46.1507 8.01981 45.0652L6.62285 44.2851ZM6.62689 44.7165C6.54019 44.555 6.56569 44.3878 6.62238 44.286L8.02028 45.0644C8.20078 44.7402 8.23386 44.3272 8.03662 43.9598L6.62689 44.7165ZM5.07131 41.818L6.62685 44.7165L8.03666 43.9599L6.48112 41.0614L5.07131 41.818ZM5.35227 38.6559C5.15394 38.8549 4.8536 39.2325 4.72515 39.7931C4.59252 40.3721 4.6636 41.0583 5.07133 41.818L6.4811 41.0613C6.23566 40.604 6.24784 40.3115 6.28474 40.1505C6.32582 39.9712 6.42344 39.8477 6.48569 39.7852L5.35227 38.6559ZM7.56458 36.4316L5.35176 38.6564L6.48619 39.7847L8.699 37.5599L7.56458 36.4316ZM10.4567 35.9919C9.49678 35.4844 8.33009 35.6604 7.56404 36.4321L8.69953 37.5593C8.9682 37.2887 9.36999 37.2272 9.70885 37.4064L10.4567 35.9919ZM13.6278 37.6705L10.457 35.9921L9.70849 37.4062L12.8793 39.0846L13.6278 37.6705ZM13.2106 37.6673C13.3054 37.6137 13.4672 37.5857 13.6271 37.6701L12.88 39.085C13.254 39.2825 13.6716 39.2443 13.997 39.0607L13.2106 37.6673ZM16.9833 36.0933C15.6664 36.4663 14.3969 36.9956 13.2097 37.6678L13.9979 39.0601C15.0734 38.4512 16.2245 37.9711 17.4193 37.6328L16.9833 36.0933ZM16.6827 36.4014C16.7372 36.2206 16.8738 36.1243 16.9839 36.0932L17.4187 37.633C17.7726 37.533 18.0936 37.2642 18.2145 36.8636L16.6827 36.4014ZM17.637 33.2448L16.6828 36.401L18.2144 36.864L19.1685 33.7078L17.637 33.2448ZM20.0706 31.2085C19.7901 31.2093 19.3112 31.2639 18.8241 31.5693C18.3213 31.8847 17.8863 32.4198 17.637 33.2448L19.1685 33.7077C19.3187 33.2109 19.5343 33.0126 19.6742 32.9248C19.83 32.8271 19.9862 32.8088 20.0747 32.8085L20.0706 31.2085ZM23.2093 31.2L20.0704 31.2085L20.0748 32.8085L23.2137 32.8L23.2093 31.2ZM25.5655 32.9357C25.2414 31.882 24.2838 31.2224 23.2284 31.2002L23.1946 32.7998C23.606 32.8085 23.9281 33.0548 24.0362 33.406L25.5655 32.9357ZM26.5349 36.0919L25.5656 32.936L24.0361 33.4057L25.0054 36.5616L26.5349 36.0919ZM26.3245 36.0692C26.3152 36.0666 26.3723 36.0809 26.4359 36.1161C26.5013 36.1521 26.547 36.1939 26.5747 36.226C26.5993 36.2546 26.6027 36.2674 26.5919 36.2454C26.5812 36.2235 26.5608 36.1762 26.5348 36.0916L25.0055 36.562C25.0909 36.8395 25.2005 37.0824 25.3628 37.2706C25.4497 37.3715 25.55 37.4547 25.6632 37.5171C25.7748 37.5786 25.873 37.6044 25.896 37.6108L26.3245 36.0692ZM26.337 36.0728L26.3369 36.0728L25.8836 37.6072L25.8836 37.6072L26.337 36.0728ZM30.1115 37.6264C28.9173 36.9592 27.6431 36.4352 26.3243 36.0692L25.8964 37.6109C27.0923 37.9428 28.2482 38.4182 29.3312 39.0232L30.1115 37.6264ZM29.6825 37.6297C29.8438 37.5438 30.0095 37.5697 30.1097 37.6254L29.333 39.0242C29.6563 39.2037 30.0677 39.2372 30.4343 39.042L29.6825 37.6297ZM32.5826 36.0746L29.6803 37.6308L30.4364 39.0409L33.3387 37.4847L32.5826 36.0746ZM35.7435 36.355C35.5444 36.1572 35.1669 35.8574 34.6066 35.7292C34.0281 35.5968 33.3422 35.6676 32.5828 36.0745L33.3385 37.4848C33.7957 37.2398 34.0884 37.2519 34.2497 37.2888C34.4291 37.3299 34.5527 37.4274 34.6155 37.4898L35.7435 36.355ZM37.9685 38.5684L35.7437 36.3553L34.6153 37.4896L36.8401 39.7027L37.9685 38.5684ZM38.4077 41.4614C38.9159 40.5009 38.7389 39.3346 37.9684 38.5683L36.8402 39.7028C37.1114 39.9726 37.1725 40.3746 36.9935 40.713L38.4077 41.4614ZM36.7294 44.629L38.4075 41.4617L36.9937 40.7126L35.3156 43.8799L36.7294 44.629ZM36.7321 44.2115C36.7867 44.3082 36.8133 44.4705 36.7295 44.6288L35.3154 43.8802C35.118 44.2532 35.1541 44.6707 35.3387 44.9979L36.7321 44.2115ZM38.3057 47.9825C37.9346 46.6729 37.4053 45.4042 36.7321 44.2115L35.3387 44.998C35.9498 46.0807 36.43 47.2319 36.7663 48.4188L38.3057 47.9825ZM38.0042 47.6884C38.1815 47.7422 38.2756 47.8758 38.306 47.9837L36.766 48.4176C36.8665 48.7744 37.1375 49.0975 37.5397 49.2195L38.0042 47.6884ZM41.4393 48.7243L38.0029 47.688L37.541 49.2199L40.9774 50.2562L41.4393 48.7243ZM43.1877 51.0705C43.1844 49.9843 42.4798 49.0383 41.4394 48.7243L40.9772 50.2561C41.3436 50.3667 41.5866 50.6929 41.5877 51.0753L43.1877 51.0705ZM43.1962 54.2099L43.1877 51.0708L41.5877 51.0751L41.5962 54.2143L43.1962 54.2099ZM41.4631 56.5655C42.5003 56.2451 43.1995 55.2956 43.1962 54.2097L41.5962 54.2145C41.5974 54.5961 41.3566 54.9238 40.9909 55.0368L41.4631 56.5655ZM38.0512 57.6171L41.4626 56.5656L40.9913 55.0366L37.5799 56.0881L38.0512 57.6171ZM38.3459 57.3074C38.3115 57.4478 38.2022 57.5702 38.0526 57.6167L37.5785 56.0885C37.1825 56.2114 36.8888 56.5309 36.7918 56.9265L38.3459 57.3074ZM36.854 61.1441C37.6706 59.917 38.0614 58.4635 38.3457 57.3081L36.792 56.9258C36.5065 58.0861 36.1671 59.2882 35.522 60.2576L36.854 61.1441ZM36.8322 60.8014C36.863 60.8587 36.8781 60.9069 36.8856 60.9354C36.8934 60.9655 36.8966 60.9886 36.898 61.0021C36.9007 61.0281 36.8992 61.0417 36.8989 61.044C36.8986 61.0474 36.8978 61.0534 36.8943 61.0641C36.8915 61.073 36.8812 61.1031 36.8539 61.1442L35.5221 60.2574C35.3822 60.4676 35.327 60.6995 35.3084 60.8703C35.2932 61.009 35.2805 61.2935 35.4224 61.5579L36.8322 60.8014ZM38.324 63.5804L36.8322 60.8013L35.4225 61.558L36.9142 64.3371L38.324 63.5804ZM38.044 66.7445C38.2424 66.5453 38.5428 66.1675 38.6711 65.6065C38.8035 65.0273 38.732 64.3406 38.3239 63.5804L36.9142 64.3372C37.1602 64.7955 37.1482 65.0886 37.1113 65.2499C37.0703 65.4293 36.9727 65.5528 36.9106 65.6151L38.044 66.7445ZM35.8317 68.9688L38.0445 66.7439L36.91 65.6156L34.6972 67.8405L35.8317 68.9688ZM32.9388 69.4079C33.8987 69.9161 35.0658 69.7398 35.832 68.9684L34.6969 67.8408C34.4278 68.1118 34.0257 68.1729 33.6875 67.9939L32.9388 69.4079ZM29.7681 67.7295L32.9389 69.4079L33.6874 67.9938L30.5167 66.3154L29.7681 67.7295ZM30.1873 67.7315C30.0895 67.787 29.9269 67.8133 29.7689 67.73L30.5158 66.315C30.1425 66.1179 29.7246 66.1544 29.3976 66.34L30.1873 67.7315ZM26.406 69.308C27.7237 68.9354 28.9954 68.4054 30.1862 67.7321L29.3987 66.3393C28.3192 66.9497 27.1658 67.4304 25.9706 67.7684L26.406 69.308ZM26.7105 68.9957C26.6546 69.1815 26.5148 69.2771 26.407 69.3077L25.9696 67.7687C25.6218 67.8675 25.2995 68.1324 25.1785 68.5343L26.7105 68.9957ZM25.4556 73.1569L26.7104 68.996L25.1786 68.534L23.9237 72.6949L25.4556 73.1569ZM24.0748 74.1861C24.7108 74.184 25.2718 73.7669 25.4556 73.1567L23.9237 72.6952C23.9432 72.6302 24.0027 72.5863 24.0695 72.5861L24.0748 74.1861ZM19.438 74.1984L24.0743 74.1861L24.07 72.5861L19.4338 72.5984L19.438 74.1984ZM19.434 74.1984H19.4359V72.5984H19.434V74.1984ZM18.0514 73.1776C18.2385 73.785 18.7996 74.1984 19.434 74.1984V72.5984C19.5011 72.5984 19.5606 72.6423 19.5804 72.7065L18.0514 73.1776ZM16.7732 69.0333L18.0514 73.1778L19.5803 72.7063L18.3021 68.5618L16.7732 69.0333ZM17.0657 69.3302C16.9617 69.3014 16.8273 69.2098 16.7728 69.032L18.3025 68.563C18.1779 68.1566 17.8502 67.8875 17.4935 67.7885L17.0657 69.3302ZM13.2841 67.7744C14.475 68.4405 15.7471 68.9638 17.0654 69.3302L17.4938 67.7886C16.298 67.4563 15.1444 66.9816 14.065 66.3779L13.2841 67.7744ZM13.7156 67.7697C13.5524 67.8572 13.3841 67.8307 13.2823 67.7734L14.0668 66.3789C13.7427 66.1966 13.328 66.1618 12.9589 66.3599L13.7156 67.7697ZM10.8136 69.3257L13.7153 67.7698L12.9592 66.3598L10.0575 67.9156L10.8136 69.3257ZM7.65212 69.0446C7.85048 69.242 8.2274 69.5426 8.78807 69.6713C9.36687 69.8041 10.053 69.7331 10.8133 69.3259L10.0578 67.9154C9.59926 68.1611 9.30661 68.1487 9.14593 68.1118C8.96713 68.0708 8.84391 67.9734 8.78075 67.9105L7.65212 69.0446ZM5.42747 66.832L7.65228 69.0448L8.78059 67.9104L6.55578 65.6975L5.42747 66.832ZM4.98865 63.9388C4.48023 64.8991 4.65755 66.0653 5.42714 66.8316L6.5561 65.6979C6.28467 65.4276 6.22384 65.0253 6.4027 64.6875L4.98865 63.9388ZM6.6665 60.7714L4.98873 63.9387L6.40262 64.6876L8.08039 61.5203L6.6665 60.7714ZM6.66376 61.1885C6.6091 61.0914 6.58286 60.9294 6.66641 60.7716L8.08048 61.5202C8.27773 61.1476 8.24202 60.7303 8.05787 60.4033L6.66376 61.1885ZM5.09021 57.4171C5.46136 58.7271 5.99066 59.9958 6.66411 61.1891L8.05751 60.4027C7.4461 59.3194 6.96597 58.1681 6.62962 56.981L5.09021 57.4171ZM5.39403 57.7122C5.21374 57.658 5.11987 57.5224 5.08989 57.416L6.62994 56.9821C6.52984 56.6268 6.25974 56.3017 5.85456 56.1799L5.39403 57.7122ZM1.95467 56.6717L5.39264 57.7118L5.85595 56.1803L2.41797 55.1403L1.95467 56.6717ZM0.208223 54.326C0.211493 55.4115 0.915401 56.3577 1.95493 56.6718L2.41772 55.1402C2.05236 55.0298 1.80937 54.7037 1.80822 54.3212L0.208223 54.326ZM0.20001 51.1868L0.208222 54.3257L1.80822 54.3215L1.80001 51.1826L0.20001 51.1868ZM1.93526 48.8308C0.896903 49.1503 0.19674 50.1001 0.200011 51.1871L1.8 51.1823C1.79885 50.8001 2.03991 50.4726 2.4058 50.36L1.93526 48.8308ZM5.36362 47.7768L1.93543 48.8307L2.40562 50.3601L5.83381 49.3061L5.36362 47.7768ZM9.17681 43.348L7.62096 40.4498L6.21125 41.2066L7.7671 44.1048L9.17681 43.348ZM9.14993 45.6944C9.55624 44.9653 9.5724 44.0861 9.17707 43.3485L7.76684 44.1043C7.89897 44.3508 7.89933 44.6517 7.75229 44.9156L9.14993 45.6944ZM7.8543 48.8431C8.15777 47.7509 8.59364 46.6914 9.14972 45.6948L7.7525 44.9152C7.1349 46.0221 6.65039 47.1994 6.3127 48.4148L7.8543 48.8431ZM6.21438 50.5426C7.01912 50.2948 7.62944 49.6534 7.85437 48.8428L6.31263 48.415C6.22992 48.7131 6.01399 48.9301 5.74359 49.0134L6.21438 50.5426ZM2.78597 51.5969L6.21415 50.5426L5.74383 49.0133L2.31565 50.0676L2.78597 51.5969ZM3.09371 51.1794C3.09408 51.37 2.96823 51.5409 2.78585 51.5969L2.31576 50.0676C1.82512 50.2184 1.49271 50.6697 1.49371 51.1825L3.09371 51.1794ZM3.10192 54.318L3.09371 51.1789L1.49371 51.183L1.50192 54.3222L3.10192 54.318ZM2.79266 53.9022C2.97376 53.957 3.10154 54.1266 3.10192 54.3186L1.50192 54.3217C1.50293 54.8365 1.83917 55.2853 2.32917 55.4336L2.79266 53.9022ZM6.23047 54.9419L2.7925 53.9021L2.32933 55.4336L5.7673 56.4734L6.23047 54.9419ZM7.87423 56.6274C7.6454 55.8216 7.0341 55.1853 6.23079 54.942L5.76698 56.4733C6.03566 56.5547 6.25124 56.7692 6.33509 57.0645L7.87423 56.6274ZM9.18411 59.7665C8.6232 58.7728 8.18261 57.717 7.87443 56.6281L6.33489 57.0638C6.67798 58.2761 7.16788 59.4495 7.79075 60.553L9.18411 59.7665ZM9.2238 62.1257C9.61763 61.382 9.59684 60.4976 9.18408 59.7665L7.79078 60.5531C7.94149 60.82 7.9428 61.1258 7.80981 61.377L9.2238 62.1257ZM7.54598 65.2931L9.22374 62.1258L7.80986 61.3769L6.13209 64.5442L7.54598 65.2931ZM7.46899 64.7814C7.60303 64.915 7.63559 65.124 7.54591 65.2932L6.13216 64.544C5.89151 64.9981 5.9765 65.5526 6.3392 65.9143L7.46899 64.7814ZM9.69275 66.9931L7.46825 64.7806L6.33995 65.9151L8.56444 68.1276L9.69275 66.9931ZM9.44616 66.7753C9.38835 66.8063 9.34649 66.8244 9.31925 66.8343C9.29099 66.8446 9.28844 66.8424 9.30716 66.8403C9.32615 66.8381 9.38104 66.8343 9.45642 66.8551C9.53752 66.8774 9.62143 66.9225 9.69146 66.9919L8.56573 68.1288C8.85269 68.413 9.21427 68.4617 9.49131 68.4296C9.75049 68.3996 9.99476 68.2966 10.202 68.1856L9.44616 66.7753ZM12.3477 65.2196L9.44605 66.7754L10.2021 68.1855L13.1038 66.6296L12.3477 65.2196ZM13.491 64.9322C13.0973 64.9322 12.7049 65.0282 12.348 65.2194L13.1035 66.6298C13.2254 66.5645 13.358 66.5322 13.491 66.5322V64.9322ZM14.6971 65.249C14.3227 65.0393 13.9077 64.9322 13.491 64.9322V66.5322C13.6328 66.5322 13.7788 66.5686 13.9154 66.645L14.6971 65.249ZM17.8403 66.5423C16.7436 66.2371 15.686 65.8022 14.6968 65.2488L13.9157 66.6452C15.0168 67.2611 16.1928 67.7446 17.4113 68.0838L17.8403 66.5423ZM19.5384 68.1808C19.2905 67.3762 18.649 66.7667 17.8396 66.5422L17.4119 68.0839C17.7093 68.1664 17.9262 68.3819 18.0093 68.6518L19.5384 68.1808ZM20.6754 71.8677L19.5383 68.1805L18.0094 68.652L19.1464 72.3392L20.6754 71.8677ZM23.5871 71.2937L19.9088 71.3035L19.913 72.9035L23.5914 72.8937L23.5871 71.2937ZM23.9398 68.1604L22.8233 71.8627L24.3552 72.3247L25.4717 68.6223L23.9398 68.1604ZM25.6188 66.5237C24.8157 66.7507 24.1816 67.3596 23.9399 68.1601L25.4716 68.6226C25.5515 68.3581 25.7626 68.1457 26.0541 68.0633L25.6188 66.5237ZM28.7619 65.2131C27.7721 65.7729 26.7144 66.2138 25.6188 66.5237L26.0542 68.0633C27.2724 67.7187 28.4484 67.2285 29.5495 66.6058L28.7619 65.2131ZM31.1216 65.1719C30.3779 64.7786 29.4935 64.7994 28.7619 65.2131L29.5495 66.6058C29.8166 66.4548 30.1223 66.4534 30.3735 66.5863L31.1216 65.1719ZM34.2929 66.8504L31.1218 65.172L30.3733 66.5862L33.5444 68.2646L34.2929 66.8504ZM33.7797 66.9283C33.9146 66.7926 34.1244 66.7613 34.2927 66.8503L33.5446 68.2647C33.9972 68.504 34.5518 68.421 34.9142 68.0566L33.7797 66.9283ZM35.9929 64.7034L33.7798 66.9283L34.9141 68.0566L37.1272 65.8318L35.9929 64.7034ZM35.7743 64.9492C35.8055 65.0074 35.8238 65.0496 35.8338 65.077C35.8442 65.1055 35.842 65.1083 35.8398 65.0896C35.8377 65.0708 35.8339 65.0157 35.8547 64.94C35.8772 64.8586 35.9227 64.774 35.993 64.7034L37.1271 65.8319C37.4128 65.5448 37.4613 65.182 37.4292 64.9052C37.3991 64.6458 37.2959 64.401 37.1841 64.1926L35.7743 64.9492ZM34.2823 62.1695L35.7743 64.9492L37.1841 64.1925L35.692 61.4128L34.2823 62.1695ZM34.4454 59.5401C33.9456 60.2905 33.8514 61.3657 34.2821 62.1691L35.6922 61.4132C35.5645 61.1749 35.5751 60.7303 35.7771 60.427L34.4454 59.5401ZM35.5356 56.617C35.2743 57.6792 34.9727 58.7478 34.4452 59.5404L35.7773 60.4267C36.4798 59.371 36.8332 58.0405 37.0893 56.9991L35.5356 56.617ZM37.1984 54.8519C36.3758 55.1058 35.7418 55.7807 35.5357 56.6165L37.0892 56.9996C37.1616 56.7059 37.3874 56.4681 37.6702 56.3808L37.1984 54.8519ZM40.6101 53.8004L37.1987 54.8519L37.6699 56.3809L41.0814 55.3294L40.6101 53.8004ZM40.3025 54.2172C40.3022 54.0274 40.4269 53.8572 40.6088 53.8008L41.0827 55.329C41.5722 55.1772 41.9035 54.7259 41.9025 54.214L40.3025 54.2172ZM40.294 51.0789L40.3025 54.2178L41.9025 54.2134L41.894 51.0746L40.294 51.0789ZM40.6034 51.4945C40.4218 51.4396 40.2944 51.2698 40.294 51.0783L41.894 51.0752C41.893 50.5609 41.5572 50.1112 41.066 49.9628L40.6034 51.4945ZM37.1674 50.4586L40.6038 51.4946L41.0656 49.9627L37.6292 48.9267L37.1674 50.4586ZM35.5217 48.7722C35.7505 49.5785 36.3624 50.2152 37.1668 50.4585L37.6298 48.9269C37.3604 48.8455 37.1447 48.6307 37.0609 48.3353L35.5217 48.7722ZM34.2121 45.6337C34.7727 46.6272 35.2133 47.683 35.5215 48.7717L37.061 48.3358C36.7179 47.1239 36.2281 45.9505 35.6055 44.8474L34.2121 45.6337ZM34.1721 43.2746C33.7784 44.018 33.7996 44.9022 34.212 45.6335L35.6057 44.8476C35.4545 44.5795 35.4536 44.2736 35.5861 44.0234L34.1721 43.2746ZM35.8503 40.1069L34.1722 43.2745L35.5861 44.0235L37.2641 40.8559L35.8503 40.1069ZM35.9272 40.6193C35.7937 40.4861 35.7602 40.2766 35.8507 40.1061L37.2637 40.8566C37.5052 40.4019 37.4193 39.8475 37.057 39.4863L35.9272 40.6193ZM33.7031 38.4068L35.9279 40.62L37.0563 39.4856L34.8315 37.2725L33.7031 38.4068ZM33.95 38.625C34.0079 38.594 34.0498 38.5759 34.0771 38.566C34.1053 38.5558 34.1079 38.558 34.0891 38.5601C34.0702 38.5623 34.0153 38.566 33.9398 38.5452C33.8587 38.5228 33.7743 38.4775 33.7038 38.4075L34.8309 37.2719C34.5444 36.9875 34.1828 36.9388 33.9065 36.9706C33.6473 37.0004 33.4027 37.1031 33.1943 37.2147L33.95 38.625ZM31.0479 40.1811L33.9502 38.6249L33.1941 37.2148L30.2918 38.771L31.0479 40.1811ZM28.7004 40.1528C29.4295 40.5598 30.3093 40.5772 31.0479 40.1811L30.2918 38.771C30.0456 38.903 29.7448 38.9034 29.4802 38.7557L28.7004 40.1528ZM25.5505 38.8575C26.6474 39.162 27.7072 39.5976 28.6999 40.1525L29.4807 38.756C28.3762 38.1385 27.1979 37.6543 25.9785 37.3158L25.5505 38.8575ZM23.7686 36.9415C24.0568 37.8788 24.6164 38.599 25.5511 38.8577L25.9778 37.3156C25.7256 37.2458 25.4798 37.0627 25.298 36.4713L23.7686 36.9415ZM22.7992 33.786L23.7686 36.9413L25.298 36.4715L24.3287 33.3162L22.7992 33.786ZM23.2159 34.0937C23.025 34.0937 22.8549 33.9671 22.7993 33.7862L24.3287 33.3161C24.1783 32.8268 23.729 32.4937 23.2159 32.4937V34.0937ZM23.215 34.0937H23.2159V32.4937H23.215V34.0937ZM20.0783 34.1022L23.2171 34.0937L23.2128 32.4937L20.0739 32.5022L20.0783 34.1022ZM20.4066 34.0822C20.4256 34.0194 20.4425 33.9769 20.4548 33.9506C20.4676 33.9232 20.471 33.9229 20.4593 33.9376C20.4475 33.9525 20.4112 33.994 20.343 34.0327C20.2696 34.0744 20.1775 34.1021 20.0775 34.1022L20.0747 32.5022C19.6696 32.5029 19.3788 32.7252 19.206 32.943C19.0439 33.1473 18.9435 33.3929 18.8752 33.6188L20.4066 34.0822ZM19.4528 37.2382L20.4067 34.082L18.8751 33.6191L17.9212 36.7753L19.4528 37.2382ZM17.7715 38.8776C18.5757 38.6501 19.211 38.0399 19.4529 37.2378L17.9211 36.7758C17.8408 37.0418 17.6284 37.2553 17.336 37.338L17.7715 38.8776ZM14.6353 40.1861C15.6211 39.628 16.6763 39.1878 17.7717 38.8775L17.3358 37.3381C16.118 37.6829 14.9445 38.1725 13.8471 38.7938L14.6353 40.1861ZM12.2738 40.2278C13.019 40.6226 13.9041 40.5998 14.6351 40.1862L13.8473 38.7937C13.579 38.9454 13.2733 38.9466 13.0229 38.814L12.2738 40.2278ZM9.10339 38.5499L12.2742 40.228L13.0226 38.8138L9.85182 37.1357L9.10339 38.5499ZM9.61781 38.4704C9.48219 38.6076 9.27081 38.6388 9.10243 38.5494L9.85278 37.1362C9.39888 36.8952 8.8426 36.9789 8.48019 37.3453L9.61781 38.4704ZM7.40341 40.6968L9.61622 38.472L8.48179 37.3437L6.26898 39.5685L7.40341 40.6968ZM7.6211 40.4501C7.59007 40.3922 7.57198 40.3504 7.56211 40.3232C7.55187 40.295 7.55411 40.2925 7.55627 40.3113C7.55846 40.3304 7.56212 40.3855 7.54123 40.4611C7.51876 40.5423 7.47329 40.6266 7.40329 40.697L6.2691 39.5684C5.98401 39.8549 5.93491 40.2169 5.96672 40.4939C5.99652 40.7534 6.09945 40.9981 6.2111 41.2063L7.6211 40.4501ZM12.6144 56.013C12.9357 57.065 14.0501 57.6659 15.1123 57.341L14.6443 55.8109C14.4316 55.876 14.209 55.7566 14.1446 55.5457L12.6144 56.013ZM11.9875 53.9637L12.6145 56.0134L14.1445 55.5453L13.5175 53.4956L11.9875 53.9637ZM13.3149 51.4659C12.2592 51.7891 11.6635 52.9061 11.9876 53.964L13.5174 53.4953C13.4527 53.2841 13.5709 53.0608 13.7833 52.9958L13.3149 51.4659ZM13.6584 51.3606L13.3148 51.4659L13.7834 52.9957L14.127 52.8905L13.6584 51.3606ZM13.3008 51.2427C13.1449 51.5358 13.0837 51.8501 13.0931 52.1506L14.6923 52.1006C14.6908 52.0518 14.7007 52.0178 14.7136 51.9936L13.3008 51.2427ZM14.3738 50.3584C13.9113 50.4997 13.5281 50.8155 13.301 51.2423L14.7134 51.994C14.7413 51.9416 14.7847 51.9059 14.8414 51.8885L14.3738 50.3584ZM17.3257 49.455L14.3735 50.3585L14.8417 51.8884L17.7939 50.985L17.3257 49.455ZM22.3475 44.8008C20.8854 46.8829 19.2412 48.3793 17.1735 49.5195L17.9461 50.9206C20.242 49.6546 22.0649 47.9873 23.6569 45.7204L22.3475 44.8008ZM23.7885 43.0018C22.8037 43.3031 22.1236 44.2463 22.2044 45.3207L23.7999 45.2006C23.7766 44.8908 23.9691 44.6197 24.2566 44.5318L23.7885 43.0018ZM26.6004 44.4961C26.237 43.3085 24.9758 42.6382 23.7884 43.0018L24.2568 44.5317C24.5989 44.427 24.9655 44.6215 25.0704 44.9643L26.6004 44.4961ZM27.5914 47.7355L26.6004 44.4962L25.0704 44.9642L26.0614 48.2036L27.5914 47.7355ZM30.1617 49.4472C29.7037 47.9499 28.2486 47.0283 26.7494 47.1733L26.9034 48.7659C27.6657 48.6921 28.4022 49.165 28.6317 49.9152L30.1617 49.4472ZM28.6059 53.2409C29.9295 52.5219 30.6197 50.9445 30.1617 49.4472L28.6317 49.9152C28.8611 50.6654 28.5156 51.4692 27.8422 51.835L28.6059 53.2409ZM30.0232 55.6842L28.9891 52.3039L27.4591 52.772L28.4932 56.1523L30.0232 55.6842ZM28.5292 58.4962C29.7185 58.1316 30.3874 56.8744 30.0232 55.6842L28.4932 56.1523C28.5987 56.497 28.4059 56.8605 28.0603 56.9664L28.5292 58.4962ZM25.8823 57.3998C26.3728 58.326 27.4679 58.8195 28.5279 58.4966L28.0616 56.966C27.7541 57.0597 27.4377 56.9181 27.2962 56.651L25.8823 57.3998ZM19.4207 56.7917C21.6699 56.5503 24.0809 56.5221 26.1945 57.7212L26.984 56.3296C24.4061 54.867 21.5559 54.9534 19.25 55.2008L19.4207 56.7917ZM19.3768 56.82L19.5689 56.7614L19.1017 55.2311L18.9096 55.2898L19.3768 56.82ZM21.0033 59.4005L19.9082 55.8209L18.3782 56.2889L19.4733 59.8686L21.0033 59.4005ZM18.7097 62.5024C20.3195 62.5024 21.4757 60.943 21.0033 59.4003L19.4734 59.8688C19.6306 60.3822 19.2448 60.9024 18.7097 60.9024V62.5024ZM16.414 60.8042C16.7304 61.8391 17.6837 62.5024 18.7097 62.5024V60.9024C18.3658 60.9024 18.0486 60.6783 17.944 60.3363L16.414 60.8042ZM15.3051 57.1797L16.414 60.8043L17.944 60.3362L16.835 56.7116L15.3051 57.1797ZM14.5453 56.8992C14.8734 57.4173 15.4444 57.7407 16.0637 57.7456L16.0764 56.1456C16.0085 56.1451 15.9383 56.1083 15.897 56.0431L14.5453 56.8992ZM15.1122 57.341L15.455 57.2362L14.9873 55.7061L14.6445 55.8109L15.1122 57.341ZM18.6703 59.9767C18.7396 59.9555 18.8128 59.9935 18.8344 60.0643L17.3042 60.5316C17.5413 61.3081 18.3642 61.7434 19.1382 61.5067L18.6703 59.9767ZM18.5828 60.1403C18.5622 60.0726 18.6002 59.9982 18.67 59.9768L19.1386 61.5066C19.9176 61.2681 20.3488 60.4458 20.1133 59.6736L18.5828 60.1403ZM17.488 56.5613L18.583 60.141L20.1131 59.6729L19.018 56.0932L17.488 56.5613ZM17.2085 57.4835L18.4871 57.0922L18.0189 55.5623L16.7403 55.9535L17.2085 57.4835ZM18.8343 60.0639L17.7394 56.4845L16.2094 56.9525L17.3043 60.5319L18.8343 60.0639ZM27.7414 50.1876C27.8306 50.4791 27.7177 50.7952 27.4748 50.9706L28.4111 52.268C29.1882 51.7072 29.5685 50.6906 29.2714 49.7195L27.7414 50.1876ZM27.0823 49.6881C27.3823 49.6975 27.6523 49.8963 27.7414 50.1876L29.2714 49.7195C28.9743 48.7482 28.0903 48.119 27.1326 48.0889L27.0823 49.6881ZM28.7079 51.3852L27.8725 48.6544L26.3425 49.1225L27.1779 51.8533L28.7079 51.3852ZM24.5293 45.4222C24.3787 45.4683 24.2248 45.3822 24.1803 45.2373L25.7099 44.7679C25.4983 44.0783 24.7646 43.6767 24.0607 43.8923L24.5293 45.4222ZM24.7143 45.0728C24.7594 45.2199 24.6773 45.3769 24.529 45.4222L24.0609 43.8923C23.36 44.1067 22.9718 44.8476 23.1845 45.5416L24.7143 45.0728ZM28.1372 56.2612L24.7144 45.0732L23.1844 45.5412L26.6072 56.7293L28.1372 56.2612ZM27.7879 56.0757C27.9367 56.0301 28.0925 56.1151 28.1372 56.2612L26.6072 56.7293C26.8196 57.4234 27.5554 57.8206 28.2569 57.6054L27.7879 56.0757ZM27.603 56.4247C27.5581 56.2781 27.6401 56.1207 27.7895 56.0752L28.2553 57.6059C28.9554 57.3929 29.3459 56.6526 29.1329 55.9565L27.603 56.4247ZM27.5852 56.3667L27.6031 56.425L29.1328 55.9562L29.115 55.8979L27.5852 56.3667ZM24.1789 45.2325C24.4584 46.1639 27.3282 55.528 27.5852 56.3667L29.115 55.8979C28.8565 55.0543 25.9891 45.698 25.7114 44.7726L24.1789 45.2325ZM22.5481 46.6543L25.4107 56.0105L26.9407 55.5423L24.0781 46.1862L22.5481 46.6543ZM18.7014 51.5652C20.7619 50.378 22.4572 48.8718 23.9504 46.9038L22.6758 45.9367C21.3063 47.7416 19.7706 49.1026 17.9027 50.1788L18.7014 51.5652ZM20.3408 54.8015L19.0671 50.638L17.5371 51.1061L18.8108 55.2695L20.3408 54.8015ZM26.4942 55.0425C24.2168 54.0542 21.833 54.0129 19.4986 54.2392L19.6531 55.8318C21.8821 55.6156 23.946 55.6809 25.8573 56.5103L26.4942 55.0425ZM15.5877 51.8851C15.665 52.1363 15.5894 52.3383 15.5383 52.434C15.487 52.53 15.3626 52.7022 15.1152 52.7783L14.6447 51.2491C14.3588 51.337 14.2001 51.5433 14.127 51.6801C14.0542 51.8165 13.9694 52.066 14.0585 52.3556L15.5877 51.8851ZM16.7032 55.5312C16.696 55.5079 16.3986 54.5356 16.1123 53.5996C15.9691 53.1316 15.8287 52.6728 15.7288 52.3462C15.6788 52.1829 15.639 52.0526 15.614 51.9708C15.6015 51.93 15.5927 51.9012 15.5882 51.8865C15.5854 51.8775 15.585 51.8761 15.5855 51.8777C15.0535 52.8742 14.0551 52.3447 14.0549 52.344C14.0549 52.3439 14.0548 52.3437 14.0548 52.3437C14.0548 52.3437 14.0548 52.3437 14.0548 52.3437C14.0549 52.3438 14.0549 52.3439 14.0549 52.344C14.055 52.3444 14.0552 52.345 14.0555 52.346C14.0561 52.3478 14.0569 52.3506 14.0581 52.3544L15.5881 51.8863C15.5869 51.8824 15.586 51.8796 15.5855 51.8777C15.5852 51.8768 15.585 51.8761 15.5848 51.8756C15.5848 51.8754 15.5847 51.8751 15.5846 51.8749C15.5846 51.8748 15.5845 51.8745 15.5845 51.8744C15.5842 51.8737 14.5859 51.3441 14.0539 52.3406C14.0544 52.3424 14.0564 52.3487 14.0581 52.3545C14.0626 52.3692 14.0714 52.398 14.084 52.4389C14.109 52.5207 14.1488 52.6509 14.1988 52.8142C14.2987 53.1409 14.4391 53.5997 14.5822 54.0677C14.8686 55.0036 15.1661 55.976 15.1732 55.9993L16.7032 55.5312ZM16.7611 55.7205L16.7032 55.5311L15.1732 55.9994L15.2312 56.1888L16.7611 55.7205ZM15.8763 55.244C16.1226 55.1713 16.3188 55.2446 16.4111 55.293C16.5032 55.3413 16.6844 55.4661 16.7621 55.7235L15.2303 56.1857C15.3196 56.4816 15.5352 56.6403 15.6682 56.7101C15.8015 56.7799 16.0452 56.8623 16.3293 56.7785L15.8763 55.244ZM18.427 54.4637L15.8688 55.2462L16.3368 56.7763L18.895 55.9938L18.427 54.4637ZM16.6732 51.4652L17.896 55.4628L19.426 54.9947L18.2032 50.9972L16.6732 51.4652ZM15.1139 52.7787L17.6722 51.9962L17.2042 50.4662L14.6459 51.2487L15.1139 52.7787ZM14.0559 53.8862L14.3615 53.7925L13.8925 52.2628L13.587 52.3564L14.0559 53.8862ZM14.408 53.2242C14.4939 53.5061 14.3334 53.8019 14.0539 53.8868L13.589 52.3558C13.0277 52.5262 12.7041 53.1213 12.8775 53.6904L14.408 53.2242ZM15.0348 55.273L14.4078 53.2233L12.8777 53.6913L13.5047 55.741L15.0348 55.273ZM14.3743 54.92C14.6582 54.8341 14.9502 54.9985 15.0343 55.2716L13.5052 55.7424C13.6757 56.296 14.2638 56.6251 14.8377 56.4514L14.3743 54.92ZM14.6771 54.8272L14.3715 54.9208L14.8405 56.4506L15.146 56.3569L14.6771 54.8272ZM13.362 53.2617L14.1465 55.8261L15.6765 55.358L14.892 52.7936L13.362 53.2617Z" fill="#9263D4" mask="url(#path-2-outside-1_1613_1146)"></path><path d="M14.5 52.6968V51.7969H15.4H15.8499L15.4 52.6968H14.5Z" fill="#9263D4"></path></svg>