<svg width="1440" height="1330" viewBox="0 0 1440 1330" fill="none" xmlns="http://www.w3.org/2000/svg">
<g clip-path="url(#clip0_1644_292)">
<rect width="1440" height="1330" fill="white"/>
<g filter="url(#filter0_f_1644_292)">
<ellipse cx="1830.5" cy="177" rx="251.5" ry="235" fill="#FBC5F3"/>
</g>
<path d="M1252.27 1346.72C1250.31 1344.76 1252.16 1339.72 1256.4 1335.48C1260.65 1331.23 1265.68 1329.39 1267.65 1331.35C1269.61 1333.31 1267.76 1338.35 1263.52 1342.59C1259.27 1346.84 1254.24 1348.69 1252.27 1346.72Z" fill="#FFC133"/>
<path d="M1254.48 1348C1257.07 1348 1260.66 1346.16 1263.87 1342.94C1268.38 1338.44 1270.19 1333.19 1268 1331C1265.81 1328.81 1260.56 1330.62 1256.06 1335.13C1251.55 1339.64 1249.74 1344.88 1251.93 1347.07C1252.56 1347.7 1253.44 1348 1254.48 1348ZM1265.45 1331.06C1266.22 1331.06 1266.86 1331.27 1267.29 1331.71C1269.02 1333.44 1267.13 1338.27 1263.16 1342.24C1259.19 1346.21 1254.37 1348.1 1252.63 1346.37C1250.9 1344.64 1252.79 1339.81 1256.76 1335.84C1259.73 1332.87 1263.18 1331.06 1265.45 1331.06Z" fill="#000100"/>
<path d="M1257.26 1341.75C1255.93 1340.42 1257.18 1337.02 1260.05 1334.15C1262.92 1331.28 1266.32 1330.03 1267.65 1331.35C1268.98 1332.68 1267.73 1336.08 1264.86 1338.95C1261.99 1341.83 1258.58 1343.08 1257.26 1341.75Z" fill="#F9A41A"/>
<path d="M1258.73 1342.78C1259.3 1342.78 1259.94 1342.65 1260.64 1342.4C1262.14 1341.85 1263.76 1340.75 1265.2 1339.31C1268.32 1336.2 1269.55 1332.55 1268 1331C1266.45 1329.46 1262.8 1330.68 1259.69 1333.79C1258.25 1335.23 1257.15 1336.85 1256.6 1338.35C1256 1339.98 1256.11 1341.31 1256.89 1342.1C1257.34 1342.56 1257.97 1342.78 1258.73 1342.78ZM1266.17 1331.33C1266.66 1331.33 1267.05 1331.46 1267.29 1331.7C1268.26 1332.67 1267.35 1335.74 1264.5 1338.6C1263.16 1339.94 1261.67 1340.95 1260.3 1341.46C1259.08 1341.91 1258.09 1341.89 1257.6 1341.4C1257.11 1340.91 1257.09 1339.93 1257.54 1338.7C1258.04 1337.33 1259.06 1335.84 1260.4 1334.5C1262.52 1332.38 1264.76 1331.33 1266.17 1331.33Z" fill="#000100"/>
<path d="M1261.02 1326.54L1258.54 1329.02C1257.65 1329.91 1257.65 1331.35 1258.53 1332.24L1266.76 1340.47C1267.65 1341.36 1269.09 1341.35 1269.98 1340.46L1272.46 1337.98C1273.35 1337.09 1273.35 1335.66 1272.46 1334.77L1264.23 1326.54C1263.35 1325.65 1261.91 1325.65 1261.02 1326.54Z" fill="#5B52C5"/>
<path d="M1268.36 1341.64C1269.07 1341.64 1269.8 1341.37 1270.34 1340.82L1272.81 1338.34C1273.89 1337.26 1273.89 1335.49 1272.81 1334.41L1264.59 1326.19C1263.51 1325.11 1261.74 1325.11 1260.66 1326.19L1258.18 1328.66C1257.1 1329.74 1257.09 1331.51 1258.17 1332.59L1266.41 1340.82C1266.95 1341.36 1267.65 1341.64 1268.36 1341.64ZM1262.63 1326.39C1263.08 1326.39 1263.54 1326.56 1263.88 1326.91L1272.11 1335.14C1272.8 1335.83 1272.8 1336.95 1272.11 1337.64L1269.63 1340.12C1268.94 1340.81 1267.81 1340.81 1267.12 1340.12L1258.89 1331.89C1258.2 1331.2 1258.2 1330.08 1258.9 1329.39L1261.38 1326.91C1261.72 1326.56 1262.17 1326.39 1262.63 1326.39Z" fill="#000100"/>
<path d="M1289.88 1327.21C1291.57 1334.33 1291.18 1341.25 1287.9 1347.87C1287.2 1349.29 1285.27 1349.56 1284.15 1348.44L1270.93 1335.22C1269.73 1334.02 1270.16 1331.97 1271.75 1331.36L1286.73 1325.56C1288.06 1325.05 1289.55 1325.83 1289.88 1327.21Z" fill="#B197FF"/>
<path d="M1285.84 1349.63C1286 1349.63 1286.15 1349.62 1286.31 1349.59C1287.21 1349.44 1287.95 1348.89 1288.35 1348.09C1291.53 1341.66 1292.19 1334.79 1290.36 1327.09C1290.17 1326.29 1289.64 1325.61 1288.91 1325.23C1288.18 1324.84 1287.31 1324.79 1286.54 1325.09L1271.56 1330.89C1270.66 1331.24 1270 1332.01 1269.8 1332.96C1269.6 1333.91 1269.89 1334.88 1270.57 1335.57L1283.81 1348.79C1284.35 1349.33 1285.09 1349.63 1285.84 1349.63ZM1287.58 1325.9C1287.88 1325.9 1288.18 1325.97 1288.45 1326.12C1288.92 1326.37 1289.27 1326.81 1289.39 1327.33C1291.16 1334.8 1290.53 1341.45 1287.45 1347.66C1287.2 1348.17 1286.72 1348.52 1286.14 1348.62C1285.54 1348.72 1284.93 1348.52 1284.5 1348.1L1271.28 1334.88C1270.83 1334.43 1270.64 1333.81 1270.78 1333.19C1270.91 1332.57 1271.33 1332.07 1271.92 1331.84L1286.9 1326.04C1287.13 1325.94 1287.36 1325.9 1287.58 1325.9Z" fill="#000100"/>
<path d="M1271.8 1309.13C1264.68 1307.44 1257.76 1307.83 1251.14 1311.11C1249.72 1311.81 1249.45 1313.74 1250.57 1314.86L1263.79 1328.07C1264.99 1329.27 1267.04 1328.84 1267.65 1327.25L1273.45 1312.27C1273.96 1310.95 1273.18 1309.46 1271.8 1309.13Z" fill="#B197FF"/>
<path d="M1265.46 1329.25C1265.66 1329.25 1265.86 1329.23 1266.05 1329.19C1267 1328.99 1267.77 1328.33 1268.12 1327.43L1273.92 1312.45C1274.22 1311.68 1274.17 1310.82 1273.78 1310.08C1273.4 1309.35 1272.72 1308.82 1271.92 1308.63C1264.22 1306.8 1257.35 1307.46 1250.92 1310.64C1250.11 1311.04 1249.57 1311.78 1249.42 1312.68C1249.27 1313.59 1249.57 1314.53 1250.22 1315.18L1263.44 1328.42C1263.99 1328.96 1264.71 1329.25 1265.46 1329.25ZM1271.69 1309.6C1272.21 1309.72 1272.65 1310.07 1272.9 1310.54C1273.15 1311.02 1273.18 1311.58 1272.99 1312.08L1267.19 1327.06C1266.96 1327.66 1266.47 1328.07 1265.84 1328.21C1265.22 1328.34 1264.6 1328.16 1264.15 1327.71L1250.93 1314.49C1250.5 1314.06 1250.31 1313.45 1250.41 1312.85C1250.5 1312.27 1250.85 1311.79 1251.37 1311.54C1257.57 1308.47 1264.22 1307.83 1271.69 1309.6Z" fill="#000100"/>
<path d="M1277.41 1295.49C1269.44 1303.46 1262.4 1314.29 1259.13 1323.47C1258.6 1324.95 1259 1326.62 1260.11 1327.73L1271.27 1338.9C1272.38 1340.01 1274.05 1340.42 1275.53 1339.88C1284.71 1336.61 1295.55 1329.56 1303.51 1321.6C1314.62 1310.49 1312.33 1296.4 1310.89 1291.03C1310.51 1289.6 1309.41 1288.49 1307.98 1288.12C1302.61 1286.68 1288.52 1284.39 1277.41 1295.49Z" fill="#B197FF"/>
<path d="M1274.19 1340.61C1274.7 1340.61 1275.21 1340.52 1275.7 1340.35C1285.06 1337.02 1295.85 1329.97 1303.87 1321.95C1315.14 1310.68 1312.87 1296.48 1311.38 1290.9C1310.96 1289.31 1309.7 1288.05 1308.11 1287.63C1302.53 1286.14 1288.32 1283.87 1277.06 1295.14C1269.05 1303.15 1262 1313.95 1258.66 1323.31C1258.07 1324.95 1258.5 1326.83 1259.76 1328.1L1270.92 1339.25C1271.8 1340.14 1272.99 1340.61 1274.19 1340.61ZM1298.61 1287.38C1302.49 1287.38 1305.79 1288.04 1307.86 1288.6C1309.1 1288.93 1310.08 1289.91 1310.41 1291.16C1311.86 1296.58 1314.06 1310.35 1303.16 1321.25C1295.24 1329.17 1284.59 1336.13 1275.36 1339.41C1274.08 1339.87 1272.61 1339.53 1271.62 1338.55L1260.46 1327.39C1259.47 1326.4 1259.13 1324.93 1259.59 1323.65C1262.88 1314.42 1269.84 1303.77 1277.76 1295.85C1284.5 1289.11 1292.33 1287.38 1298.61 1287.38Z" fill="#000100"/>
<path d="M1291.87 1287.59C1298.67 1286.13 1304.84 1287.27 1307.99 1288.12C1309.42 1288.49 1310.53 1289.6 1310.9 1291.03C1311.75 1294.18 1312.88 1300.35 1311.43 1307.15C1303.1 1302.44 1296.58 1295.92 1291.87 1287.59Z" fill="#EFEFED"/>
<path d="M1311.42 1307.65C1311.49 1307.65 1311.56 1307.64 1311.63 1307.61C1311.78 1307.54 1311.88 1307.41 1311.91 1307.26C1313.4 1300.3 1312.21 1294.02 1311.38 1290.9C1310.96 1289.31 1309.71 1288.05 1308.11 1287.63C1304.99 1286.79 1298.71 1285.61 1291.76 1287.1C1291.6 1287.13 1291.47 1287.24 1291.41 1287.38C1291.35 1287.52 1291.35 1287.69 1291.43 1287.83C1296.16 1296.21 1302.8 1302.85 1311.17 1307.59C1311.25 1307.63 1311.33 1307.65 1311.42 1307.65ZM1298.64 1287.39C1302.57 1287.39 1305.87 1288.07 1307.85 1288.6C1309.1 1288.93 1310.08 1289.91 1310.41 1291.16C1311.2 1294.09 1312.3 1299.89 1311.07 1306.37C1303.34 1301.87 1297.14 1295.67 1292.64 1287.94C1294.73 1287.55 1296.76 1287.39 1298.64 1287.39Z" fill="#000100"/>
<path d="M1289.7 1317.6C1285.12 1317.6 1281.42 1313.89 1281.42 1309.32C1281.42 1304.75 1285.12 1301.04 1289.7 1301.04C1294.27 1301.04 1297.98 1304.75 1297.98 1309.32C1297.98 1313.89 1294.27 1317.6 1289.7 1317.6Z" fill="white"/>
<path d="M1289.69 1318.09C1291.94 1318.09 1294.19 1317.23 1295.9 1315.52C1299.32 1312.1 1299.32 1306.53 1295.9 1303.11C1292.48 1299.69 1286.91 1299.69 1283.49 1303.11C1280.07 1306.53 1280.07 1312.1 1283.49 1315.52C1285.19 1317.24 1287.44 1318.09 1289.69 1318.09ZM1289.69 1301.55C1291.68 1301.55 1293.67 1302.31 1295.19 1303.82C1298.22 1306.85 1298.22 1311.79 1295.19 1314.82C1292.16 1317.85 1287.22 1317.85 1284.19 1314.82C1281.16 1311.79 1281.16 1306.85 1284.19 1303.82C1285.71 1302.31 1287.7 1301.55 1289.69 1301.55Z" fill="#000100"/>
<path d="M1293.36 1313.49C1293.49 1313.49 1293.62 1313.44 1293.71 1313.34C1295.93 1311.12 1295.93 1307.51 1293.71 1305.29C1293.51 1305.09 1293.2 1305.09 1293 1305.29C1292.8 1305.49 1292.8 1305.8 1293 1306C1294.83 1307.83 1294.83 1310.8 1293 1312.63C1292.8 1312.83 1292.8 1313.14 1293 1313.34C1293.1 1313.44 1293.23 1313.49 1293.36 1313.49Z" fill="#000100"/>
<g filter="url(#filter1_f_1644_292)">
<ellipse cx="796.286" cy="848" rx="1108.72" ry="1051" fill="#FFC133"/>
<ellipse cx="586.876" cy="885.5" rx="1010.88" ry="958.5" fill="#FFCFF8"/>
<ellipse cx="558.106" cy="1176" rx="624.106" ry="640" fill="#EFE2FF" fill-opacity="0.36"/>
</g>
</g>
<defs>
<filter id="filter0_f_1644_292" x="1179" y="-458" width="1303" height="1270" filterUnits="userSpaceOnUse" color-interpolation-filters="sRGB">
<feFlood flood-opacity="0" result="BackgroundImageFix"/>
<feBlend mode="normal" in="SourceGraphic" in2="BackgroundImageFix" result="shape"/>
<feGaussianBlur stdDeviation="200" result="effect1_foregroundBlur_1644_292"/>
</filter>
<filter id="filter1_f_1644_292" x="-824" y="-603" width="3129" height="2902" filterUnits="userSpaceOnUse" color-interpolation-filters="sRGB">
<feFlood flood-opacity="0" result="BackgroundImageFix"/>
<feBlend mode="normal" in="SourceGraphic" in2="BackgroundImageFix" result="shape"/>
<feGaussianBlur stdDeviation="200" result="effect1_foregroundBlur_1644_292"/>
</filter>
<clipPath id="clip0_1644_292">
<rect width="1440" height="1330" fill="white"/>
</clipPath>
</defs>
</svg>
